<?xml version="1.0" encoding="utf-8"?>
<!-- Generator: Adobe Illustrator 16.0.0, SVG Export Plug-In . SVG Version: 6.00 Build 0)  -->
<!DOCTYPE svg PUBLIC "-//W3C//DTD SVG 1.1//EN" "http://www.w3.org/Graphics/SVG/1.1/DTD/svg11.dtd">
<svg version="1.1" xmlns="http://www.w3.org/2000/svg" xmlns:xlink="http://www.w3.org/1999/xlink" x="0px" y="0px"
	 width="282.231px" height="282.232px" viewBox="754.678 1511.289 282.231 282.232"
	 enable-background="new 754.678 1511.289 282.231 282.232" xml:space="preserve">
<g id="_x2D_--" display="none">
	<rect x="116.272" y="-356.429" display="inline" fill="#FFFFFF" width="4471.75" height="5688"/>
</g>
<g id="fond" display="none">
	<circle display="inline" fill="#21558B" cx="895.792" cy="1652.405" r="141.116"/>
</g>
<g id="_x30_0326E">
	<circle fill="#D93600" cx="895.792" cy="1652.405" r="141.116"/>
</g>
<g id="A" display="none">
	<g id="Calque_2" display="inline">
	</g>
	<g id="Calque_7" display="inline">
	</g>
	<g display="inline">
		<path fill="#FFFFFF" d="M871.223,1648.698c-9.193,9.191-20.319,13.788-33.376,13.788c-13.059-0.001-24.183-4.595-33.376-13.788
			c-9.191-9.191-13.776-20.307-13.753-33.341c0.023-13.033,4.632-24.147,13.823-33.341c9.145-9.145,20.259-13.729,33.341-13.752
			c13.081-0.023,24.194,4.536,33.341,13.683c9.192,9.192,13.787,20.316,13.788,33.375
			C885.01,1628.38,880.414,1639.505,871.223,1648.698z M844.352,1645.445l0.213-23.405l23.122,0.07v-13.435l-23.335-0.283v-23.052
			h-13.435l-0.212,23.264l-23.123,0.071v13.435l23.336,0.143l-0.001,23.192H844.352z"/>
	</g>
	<g display="inline">
		<path fill="#FFFFFF" d="M962.291,1748.826c-11.95,11.949-26.414,17.924-43.389,17.924c-16.977,0-31.439-5.975-43.389-17.925
			c-11.95-11.95-17.91-26.397-17.879-43.343c0.03-16.944,6.021-31.393,17.971-43.342c11.889-11.889,26.336-17.85,43.342-17.879
			c17.006-0.031,31.453,5.897,43.343,17.787c11.95,11.949,17.925,26.412,17.925,43.389
			C980.215,1722.412,974.24,1736.875,962.291,1748.826z M927.359,1744.597l0.275-30.427l30.06,0.092l0.001-17.465l-30.336-0.368
			v-29.968h-17.465l-0.277,30.243l-30.059,0.093v17.465l30.335,0.184l0.001,30.152L927.359,1744.597z"/>
	</g>
	<g display="inline">
		<path fill="#FFFFFF" d="M964.177,1611.278c-7.354,7.354-16.255,11.03-26.7,11.03c-10.446,0-19.347-3.676-26.701-11.03
			c-7.354-7.354-11.021-16.245-11.002-26.672c0.019-10.428,3.705-19.318,11.059-26.673c7.316-7.315,16.207-10.984,26.673-11.002
			c10.464-0.02,19.354,3.629,26.672,10.945c7.354,7.354,11.03,16.254,11.03,26.701
			C975.207,1595.024,971.531,1603.924,964.177,1611.278z M942.681,1608.676l0.169-18.725l18.498,0.057v-10.748l-18.667-0.226
			l-0.001-18.442l-10.747,0.001l-0.169,18.61l-18.498,0.057l-0.001,10.748l18.668,0.113v18.555H942.681z"/>
	</g>
</g>
<g id="B">
	<g>
		<path fill="#FFFFFF" d="M839.989,1643.571h-36.094v-7.928h36.094V1643.571z M839.989,1663.229l-30.357,30.357l-5.736-5.672
			l30.422-30.357L839.989,1663.229z M851.978,1615.856l-5.672,5.672l-30.357-30.357l5.672-5.672L851.978,1615.856z
			 M909.534,1589.302v17.016c11.301,2.149,19.68,7.177,25.137,15.082c5.758,8.337,8.637,20.496,8.637,36.48
			c0,10.098,2.277,18.134,6.832,24.105c3.953,5.199,10.57,9.819,19.852,13.857v7.799h-54.398c0,3.78-1.869,7.196-5.607,10.248
			c-3.738,3.051-7.842,4.576-12.311,4.576c-4.212,0-8.208-1.525-11.988-4.576c-3.91-3.137-5.865-6.553-5.865-10.248h-54.398v-7.799
			c10.483-5.027,17.402-9.754,20.754-14.18c3.953-5.198,5.93-13.126,5.93-23.783c0-30.293,11.257-47.479,33.773-51.563v-17.016
			H909.534z M960.259,1697.003c-6.532-2.578-11.902-7.067-16.113-13.471c-4.728-7.261-7.09-15.813-7.09-25.652
			c0-15.769-3.48-27.736-10.441-35.9c-6.746-7.82-16.371-11.73-28.875-11.73c-26.297,0-39.445,15.878-39.445,47.631
			c0,11.044-1.998,19.681-5.994,25.91c-3.867,6.059-10.033,10.463-18.498,13.213h50.273c-0.087,4.554,1.073,8.186,3.48,10.893
			c2.406,2.707,5.822,4.061,10.248,4.061c4.425,0,7.841-1.376,10.248-4.125c2.233-2.621,3.309-6.23,3.223-10.828H960.259z
			 M981.335,1591.171l-30.357,30.357l-5.672-5.672l30.357-30.357L981.335,1591.171z M993.388,1643.571h-36.029v-7.928h36.029
			V1643.571z M993.388,1687.915l-5.672,5.672l-30.357-30.357l5.672-5.672L993.388,1687.915z"/>
	</g>
</g>
<g id="C" display="none">
</g>
</svg>
