<?xml version="1.0" encoding="utf-8"?>
<!-- Generator: Adobe Illustrator 16.0.4, SVG Export Plug-In . SVG Version: 6.00 Build 0)  -->
<!DOCTYPE svg PUBLIC "-//W3C//DTD SVG 1.1//EN" "http://www.w3.org/Graphics/SVG/1.1/DTD/svg11.dtd">
<svg version="1.1" xmlns="http://www.w3.org/2000/svg" xmlns:xlink="http://www.w3.org/1999/xlink" x="0px" y="0px"
	 width="841.89px" height="252px" viewBox="0 0 841.89 252" enable-background="new 0 0 841.89 252" xml:space="preserve">
<g id="Calque_2">
	<rect x="-5.555" y="-9.5" fill="#00326E" width="855" height="272"/>
</g>
<g id="Calque_1">
	<g>
		<circle fill="#C8910F" cx="426.476" cy="14.438" r="1.876"/>
		<polygon fill="#C8910F" points="426.476,72.232 379.199,91.919 379.199,91.919 473.755,91.919 		"/>
		<path fill="#C8910F" d="M437.101,54.053v-8.297l-2.941-2.859V32.753l1.447-1.437c-0.197-0.217-5.035-5.582-6.672-12.893h-4.973
			c-1.568,7.01-6.082,12.232-6.625,12.843l-0.013,0.024l1.471,1.462v10.144l-2.943,2.859v8.297
			c-12.395,4.122-21.59,15.251-22.876,28.694l32.282-13.443l1.219-0.507l1.221,0.507l32.281,13.443
			C458.691,69.305,449.496,58.175,437.101,54.053z M429.628,36.079c0-0.547,0.189-1.307,1.164-1.307s1.164,0.773,1.164,1.307v8.354
			c-0.77-0.124-1.545-0.224-2.328-0.295V36.079z M424.906,35.54c0-0.764,0.266-1.825,1.629-1.825c1.357,0,1.625,1.081,1.625,1.825
			v8.498c-0.539-0.025-1.082-0.042-1.627-0.042s-1.088,0.015-1.627,0.041V35.54L424.906,35.54z M421.028,36.079
			c0-0.547,0.189-1.307,1.167-1.307c0.973,0,1.162,0.773,1.162,1.307v8.068c-0.783,0.073-1.561,0.172-2.329,0.298V36.079
			L421.028,36.079z"/>
	</g>
	<g>
		<path fill="#FFFFFF" d="M92.255,201.803v1.918h-16.99v-1.918l3.836-0.754c0.045-0.045,0.182-0.354,0.411-0.926
			c0.228-0.57,0.342-1.289,0.342-2.158v-33.09c0-0.41-0.046-0.797-0.137-1.164c-0.092-0.365-0.183-0.686-0.274-0.959
			c-0.137-0.318-0.251-0.639-0.342-0.959l-3.836-0.686v-1.918h16.442c2.192,0,4.282,0.172,6.269,0.514
			c1.987,0.344,3.734,0.938,5.241,1.781c1.507,0.846,2.706,1.986,3.597,3.426s1.336,3.254,1.336,5.447
			c0,2.375-0.479,4.373-1.438,5.994s-2.25,2.944-3.871,3.973c-1.622,1.027-3.472,1.771-5.549,2.227
			c-2.079,0.457-4.213,0.686-6.406,0.686c-0.411-0.502-0.708-0.959-0.891-1.37c-0.092-0.183-0.137-0.365-0.137-0.548
			c1.552-0.182,2.968-0.444,4.248-0.788c1.278-0.343,2.374-0.9,3.288-1.679c0.913-0.774,1.621-1.815,2.124-3.117
			c0.502-1.301,0.753-3.024,0.753-5.172c0-2.467-0.719-4.521-2.158-6.166c-1.439-1.645-3.597-2.467-6.474-2.467h-4.042v36.035
			c0,0.869,0.113,1.6,0.342,2.193c0.137,0.32,0.274,0.615,0.411,0.891L92.255,201.803z"/>
		<path fill="#FFFFFF" d="M143.252,197.143c0.319,0.822,0.617,1.498,0.891,2.021c0.274,0.525,0.605,0.959,0.994,1.303
			c0.387,0.342,0.879,0.615,1.473,0.822c0.593,0.205,1.393,0.375,2.398,0.514v1.918h-18.155v-1.85c1.05,0,1.963-0.137,2.74-0.412
			c0.639-0.229,1.165-0.604,1.576-1.131c0.411-0.523,0.434-1.289,0.069-2.295c-0.686-1.871-1.382-3.777-2.09-5.719
			s-1.404-3.826-2.089-5.652h-13.702c-0.731,1.826-1.439,3.699-2.124,5.617s-1.348,3.836-1.987,5.754
			c-0.274,0.822-0.308,1.463-0.103,1.92s0.548,0.82,1.028,1.096c0.479,0.273,1.05,0.457,1.712,0.547
			c0.662,0.094,1.29,0.162,1.884,0.207v1.918h-14.798v-1.918c0.593,0.092,1.209,0.023,1.85-0.207
			c0.548-0.227,1.141-0.604,1.781-1.129c0.639-0.525,1.233-1.381,1.781-2.57c2.922-6.166,5.64-12.559,8.152-19.182
			c2.511-6.621,5.001-13.062,7.467-19.32c0.548-0.137,1.073-0.295,1.576-0.479c0.456-0.137,0.936-0.262,1.439-0.377
			c0.502-0.113,0.959-0.172,1.37-0.172L143.252,197.143z M130.099,183.99c-0.64-2.057-1.302-4.088-1.987-6.098
			c-0.594-1.734-1.223-3.552-1.884-5.447c-0.663-1.896-1.267-3.572-1.815-5.035c-0.959,2.787-1.976,5.549-3.048,8.291
			c-1.074,2.74-2.09,5.504-3.049,8.289H130.099z"/>
		<path fill="#FFFFFF" d="M197.051,159.189v1.918c-0.503,0.047-1.062,0.092-1.678,0.137c-0.617,0.047-1.188,0.172-1.713,0.377
			c-0.525,0.207-0.971,0.561-1.336,1.062c-0.366,0.504-0.548,1.256-0.548,2.262v38.774h-3.974l-26.718-34.049v28.361
			c0,0.821,0.194,1.475,0.583,1.952c0.387,0.48,0.867,0.857,1.438,1.132c0.571,0.272,1.209,0.457,1.918,0.547
			c0.708,0.094,1.404,0.162,2.089,0.207v1.85h-14.524v-1.85c0.593,0,1.199-0.022,1.815-0.068c0.617-0.045,1.153-0.194,1.61-0.444
			c0.456-0.252,0.833-0.642,1.131-1.166c0.296-0.523,0.445-1.244,0.445-2.158v-31.719c0-0.867-0.205-1.609-0.616-2.228
			c-0.411-0.618-0.868-1.131-1.37-1.541c-0.548-0.502-1.188-0.914-1.918-1.233c-0.229-0.273-0.377-0.523-0.445-0.752
			c-0.068-0.229-0.149-0.457-0.24-0.687c-0.092-0.229-0.137-0.457-0.137-0.687h9.455l25.964,33.158v-27.402
			c0-0.821-0.183-1.483-0.548-1.987c-0.366-0.502-0.822-0.879-1.37-1.129c-0.548-0.252-1.176-0.423-1.884-0.517
			c-0.708-0.09-1.404-0.158-2.089-0.205v-1.918h14.66V159.189z"/>
		<path fill="#FFFFFF" d="M240.993,159.189c0,0.914,0.034,1.815,0.103,2.707c0.069,0.891,0.148,1.678,0.24,2.362
			c0.137,0.822,0.274,1.601,0.411,2.328c-0.868,0.32-1.599,0.549-2.192,0.687c-0.32,0.092-0.594,0.137-0.822,0.137
			c-0.046-0.455-0.115-0.891-0.206-1.301c-0.092-0.365-0.183-0.73-0.274-1.096c-0.092-0.365-0.252-0.662-0.48-0.892
			c-0.64-0.914-1.519-1.508-2.637-1.781c-1.12-0.274-2.364-0.411-3.734-0.411h-6.508v36.104c0,0.869,0.113,1.6,0.342,2.193
			c0.137,0.319,0.274,0.616,0.411,0.891l3.974,0.754v1.85h-17.059v-1.85c-0.092,0-0.046-0.023,0.137-0.068
			c0.182-0.045,0.548-0.127,1.096-0.24c0.548-0.112,1.371-0.262,2.466-0.444c0.045-0.045,0.182-0.354,0.411-0.927
			c0.228-0.569,0.343-1.289,0.343-2.157V161.93h-6.508c-1.417,0-2.649,0.137-3.7,0.412c-1.051,0.273-1.896,0.867-2.535,1.781
			c-0.229,0.229-0.377,0.525-0.445,0.891c-0.068,0.366-0.149,0.73-0.24,1.096c-0.092,0.41-0.137,0.847-0.137,1.302
			c-0.274,0-0.594-0.045-0.959-0.138c-0.32-0.09-0.674-0.172-1.062-0.239c-0.389-0.068-0.765-0.193-1.13-0.377
			c0.091-0.729,0.206-1.507,0.343-2.328c0.091-0.687,0.182-1.474,0.274-2.363c0.091-0.891,0.137-1.815,0.137-2.774h39.94V159.189z"
			/>
		<path fill="#FFFFFF" d="M289.415,201.803v1.918h-16.99v-1.918l3.837-0.754c0.045-0.045,0.182-0.354,0.411-0.926
			c0.228-0.57,0.343-1.289,0.343-2.158v-16.373h-18.977v16.373c0,0.869,0.114,1.6,0.343,2.193c0.137,0.32,0.274,0.615,0.411,0.891
			l3.905,0.754v1.918h-16.99v-1.918l3.836-0.754c0.045-0.045,0.182-0.354,0.411-0.926c0.228-0.57,0.343-1.289,0.343-2.158v-33.09
			c0-0.41-0.046-0.797-0.137-1.164c-0.092-0.365-0.183-0.686-0.274-0.959c-0.137-0.318-0.251-0.639-0.343-0.959l-3.836-0.686v-1.918
			h16.99v1.918l-3.974,0.754c-0.137,0.272-0.251,0.572-0.342,0.891c-0.229,0.594-0.343,1.303-0.343,2.123v14.045h18.977v-14.045
			c0-0.41-0.046-0.797-0.137-1.164c-0.092-0.365-0.183-0.686-0.274-0.959c-0.137-0.318-0.251-0.639-0.342-0.959l-3.837-0.686v-1.918
			h16.99v1.918l-3.973,0.754c-0.137,0.272-0.252,0.572-0.343,0.891c-0.229,0.594-0.343,1.303-0.343,2.123v33.09
			c0,0.869,0.114,1.6,0.343,2.193c0.137,0.32,0.274,0.615,0.411,0.891L289.415,201.803z"/>
		<path fill="#FFFFFF" d="M327.964,196.322c-0.137,0.775-0.273,1.574-0.411,2.396c-0.092,0.732-0.171,1.521-0.24,2.363
			c-0.068,0.846-0.103,1.726-0.103,2.64h-32.199v-1.851l3.769-0.754c0.045-0.046,0.182-0.354,0.411-0.927
			c0.228-0.569,0.343-1.289,0.343-2.157v-33.089c0-0.411-0.046-0.799-0.137-1.166c-0.093-0.364-0.184-0.686-0.274-0.959
			c-0.137-0.317-0.251-0.639-0.343-0.959l-3.768-0.891v-1.781h29.046c0.046,1.006,0.138,2.021,0.274,3.049s0.274,1.953,0.411,2.775
			c0.182,0.959,0.365,1.896,0.548,2.809c-0.594,0-1.085-0.022-1.473-0.067c-0.39-0.045-0.697-0.112-0.926-0.207
			c-0.273-0.09-0.503-0.205-0.685-0.342c-0.092-0.365-0.206-0.754-0.343-1.164c-0.229-0.729-0.548-1.371-0.959-1.918
			c-0.32-0.457-0.743-0.822-1.268-1.099c-0.525-0.272-1.073-0.489-1.645-0.649s-1.13-0.272-1.678-0.342
			c-0.549-0.068-1.028-0.104-1.439-0.104h-7.536v16.99h9.317c0.959,0,1.552-0.549,1.781-1.645c0.228-1.097,0.388-2.58,0.479-4.453
			l2.33,0.344v14.111l-2.33,0.067c-0.092-1.688-0.263-3.069-0.514-4.145c-0.251-1.072-0.834-1.609-1.747-1.609h-9.317v19.457h10.619
			c0.411,0,0.901-0.022,1.473-0.067c0.57-0.045,1.153-0.125,1.747-0.24c0.594-0.113,1.153-0.297,1.68-0.549
			c0.523-0.25,0.946-0.604,1.268-1.062c0.411-0.549,0.685-1.233,0.822-2.058c0.091-0.409,0.16-0.844,0.206-1.301L327.964,196.322z
			 M308.645,155.971l2.467,0.82c0.914-0.912,1.85-1.951,2.809-3.117c0.959-1.164,1.826-2.248,2.604-3.254
			c0.912-1.186,1.804-2.352,2.672-3.494l-4.796-2.396L308.645,155.971z"/>
		<path fill="#FFFFFF" d="M353.805,158.299c3.151,0,6.099,0.514,8.838,1.541c2.74,1.027,5.114,2.514,7.125,4.453
			c2.01,1.941,3.584,4.295,4.728,7.057c1.141,2.765,1.712,5.857,1.712,9.283c0,3.836-0.743,7.24-2.227,10.207
			c-1.484,2.971-3.415,5.459-5.789,7.469c-2.375,2.01-5.069,3.539-8.084,4.59c-3.015,1.05-6.053,1.576-9.111,1.576
			c-2.695,0-5.321-0.526-7.878-1.576c-2.56-1.051-4.854-2.569-6.885-4.557c-2.033-1.986-3.665-4.406-4.898-7.262
			c-1.233-2.854-1.85-6.107-1.85-9.762c0-3.426,0.661-6.555,1.986-9.387c1.324-2.83,3.094-5.265,5.31-7.295
			c2.215-2.033,4.796-3.599,7.742-4.693C347.469,158.848,350.562,158.299,353.805,158.299z M367.233,180.564
			c0-2.513-0.309-4.935-0.926-7.263c-0.616-2.329-1.542-4.396-2.773-6.2c-1.233-1.804-2.752-3.242-4.556-4.314
			c-1.806-1.074-3.895-1.611-6.27-1.611c-2.01,0-3.894,0.514-5.652,1.543c-1.759,1.027-3.3,2.455-4.624,4.281
			s-2.363,3.963-3.116,6.404c-0.754,2.445-1.131,5.061-1.131,7.846c0,2.055,0.297,4.281,0.892,6.68
			c0.593,2.396,1.473,4.603,2.637,6.611c1.165,2.01,2.626,3.688,4.385,5.035s3.803,2.02,6.132,2.02c1.918,0,3.778-0.455,5.583-1.369
			c1.804-0.914,3.401-2.262,4.796-4.043c1.393-1.781,2.511-3.983,3.356-6.61C366.81,186.947,367.233,183.945,367.233,180.564z"/>
		<path fill="#FFFFFF" d="M423.052,159.189v1.918c-0.502,0.047-1.061,0.092-1.677,0.137c-0.617,0.047-1.188,0.172-1.713,0.377
			c-0.525,0.207-0.971,0.561-1.336,1.062c-0.366,0.504-0.548,1.256-0.548,2.262v38.774h-3.975l-26.718-34.049v28.361
			c0,0.821,0.194,1.475,0.583,1.952c0.387,0.48,0.867,0.857,1.438,1.132c0.57,0.272,1.209,0.457,1.918,0.547
			c0.708,0.094,1.403,0.162,2.089,0.207v1.85H378.59v-1.85c0.593,0,1.199-0.022,1.815-0.068c0.617-0.045,1.152-0.194,1.609-0.444
			c0.456-0.252,0.833-0.642,1.132-1.166c0.296-0.523,0.444-1.244,0.444-2.158v-31.719c0-0.867-0.205-1.609-0.616-2.228
			c-0.41-0.618-0.867-1.131-1.369-1.541c-0.549-0.502-1.188-0.914-1.918-1.233c-0.229-0.273-0.378-0.523-0.445-0.752
			c-0.068-0.229-0.149-0.457-0.24-0.687c-0.092-0.229-0.137-0.457-0.137-0.687h9.455l25.964,33.158v-27.402
			c0-0.821-0.184-1.483-0.548-1.987c-0.366-0.502-0.822-0.879-1.37-1.129c-0.548-0.252-1.176-0.423-1.884-0.517
			c-0.708-0.09-1.404-0.158-2.09-0.205v-1.918h14.66V159.189z"/>
		<path fill="#FFFFFF" d="M450.044,168.096c0,0.777,0.217,1.553,0.65,2.33s1.016,1.541,1.748,2.295
			c0.729,0.754,1.562,1.484,2.5,2.191c0.936,0.709,1.906,1.404,2.91,2.09c1.371,0.914,2.764,1.896,4.18,2.945
			c1.416,1.051,2.684,2.193,3.803,3.426s2.043,2.568,2.775,4.008c0.729,1.439,1.096,3.004,1.096,4.693
			c0,1.873-0.367,3.574-1.096,5.104c-0.732,1.531-1.793,2.844-3.188,3.939c-1.393,1.096-3.105,1.941-5.139,2.535
			c-2.031,0.592-4.373,0.891-7.021,0.891c-2.146,0-3.883-0.115-5.207-0.344c-1.324-0.229-2.375-0.502-3.15-0.822
			c-0.867-0.365-1.529-0.775-1.986-1.232c0-1.231,0.023-2.42,0.068-3.562c0-0.912,0.012-1.838,0.033-2.774
			c0.023-0.937-0.012-1.586-0.102-1.951c0.502-0.045,0.959-0.045,1.369,0c0.412,0.045,0.729,0.113,0.959,0.205
			c0.273,0.092,0.502,0.205,0.686,0.342c0.045,0.549,0.184,1.246,0.41,2.09c0.23,0.846,0.629,1.668,1.199,2.467
			s1.348,1.473,2.33,2.021c0.98,0.547,2.27,0.822,3.871,0.822c2.373,0,4.258-0.755,5.65-2.263s2.09-3.426,2.09-5.754
			c0-1.279-0.264-2.442-0.787-3.494c-0.525-1.051-1.225-2.03-2.09-2.946c-0.867-0.912-1.861-1.769-2.98-2.568
			c-1.119-0.799-2.25-1.609-3.391-2.432c-1.232-0.822-2.443-1.679-3.633-2.568c-1.188-0.891-2.236-1.826-3.15-2.812
			c-0.914-0.979-1.654-2.03-2.227-3.149s-0.855-2.318-0.855-3.599c0-1.87,0.455-3.538,1.369-5c0.914-1.461,2.09-2.706,3.527-3.733
			c1.439-1.027,3.061-1.803,4.865-2.328c1.803-0.525,3.619-0.789,5.445-0.789c1.736,0,3.23,0.127,4.488,0.377
			c1.256,0.252,2.295,0.537,3.115,0.857c0.959,0.364,1.76,0.774,2.398,1.231c-0.045,1.416-0.08,2.58-0.104,3.494
			s-0.033,1.813-0.033,2.705c0,0.891,0.021,1.543,0.066,1.952c-0.502,0.138-0.959,0.195-1.369,0.173
			c-0.41-0.023-0.754-0.08-1.027-0.173c-0.32-0.092-0.615-0.229-0.891-0.409c0-0.867-0.113-1.736-0.344-2.604
			c-0.229-0.867-0.627-1.656-1.197-2.363c-0.572-0.709-1.369-1.278-2.398-1.713c-1.027-0.434-2.34-0.651-3.938-0.651
			c-1.689,0-3.164,0.539-4.42,1.61C450.671,163.928,450.044,165.676,450.044,168.096z"/>
		<path fill="#FFFFFF" d="M496.603,158.299c3.152,0,6.098,0.514,8.838,1.541s5.115,2.514,7.125,4.453
			c2.01,1.941,3.586,4.295,4.729,7.057c1.141,2.765,1.713,5.857,1.713,9.283c0,3.836-0.744,7.24-2.227,10.207
			c-1.486,2.971-3.416,5.459-5.789,7.469c-2.377,2.01-5.07,3.539-8.084,4.59c-3.016,1.05-6.053,1.576-9.113,1.576
			c-2.695,0-5.32-0.526-7.877-1.576c-2.559-1.051-4.854-2.569-6.887-4.557c-2.031-1.986-3.664-4.406-4.896-7.262
			c-1.232-2.854-1.852-6.107-1.852-9.762c0-3.426,0.662-6.555,1.988-9.387c1.322-2.83,3.094-5.265,5.309-7.295
			c2.215-2.033,4.795-3.599,7.742-4.693C490.267,158.848,493.359,158.299,496.603,158.299z M510.031,180.564
			c0-2.513-0.309-4.935-0.924-7.263c-0.617-2.329-1.543-4.396-2.775-6.2c-1.232-1.804-2.752-3.242-4.557-4.314
			c-1.805-1.074-3.895-1.611-6.27-1.611c-2.01,0-3.895,0.514-5.65,1.543c-1.76,1.027-3.301,2.455-4.625,4.281
			s-2.363,3.963-3.117,6.404c-0.752,2.445-1.129,5.061-1.129,7.846c0,2.055,0.295,4.281,0.891,6.68
			c0.592,2.396,1.473,4.603,2.637,6.611c1.164,2.01,2.627,3.688,4.385,5.035c1.758,1.347,3.803,2.02,6.133,2.02
			c1.918,0,3.777-0.455,5.584-1.369c1.803-0.914,3.4-2.262,4.795-4.043c1.393-1.781,2.512-3.983,3.355-6.61
			C509.609,186.947,510.031,183.945,510.031,180.564z"/>
		<path fill="#FFFFFF" d="M538.941,201.803v1.918h-16.99v-1.918l3.836-0.754c0.045-0.045,0.182-0.354,0.41-0.926
			c0.229-0.57,0.344-1.289,0.344-2.158v-33.09c0-0.41-0.047-0.797-0.137-1.164c-0.094-0.365-0.186-0.686-0.275-0.959
			c-0.137-0.318-0.25-0.639-0.342-0.959l-3.836-0.686v-1.918h16.441c2.467,0,4.703,0.194,6.713,0.582
			c2.01,0.389,3.734,1.018,5.174,1.885c1.438,0.867,2.557,2.01,3.355,3.426c0.797,1.416,1.199,3.174,1.199,5.275
			c0,2.01-0.445,3.688-1.336,5.035c-0.891,1.346-1.941,2.432-3.152,3.254c-1.211,0.821-2.408,1.428-3.596,1.813
			c-1.189,0.39-2.08,0.651-2.672,0.789c1.141,0.41,2.145,1.039,3.014,1.883c0.867,0.847,1.646,1.806,2.33,2.879
			c0.686,1.072,1.289,2.226,1.814,3.459c0.523,1.232,1.039,2.443,1.543,3.632c0.41,1.051,0.844,2.09,1.301,3.116
			c0.455,1.027,0.959,1.953,1.508,2.773c0.547,0.821,1.141,1.497,1.781,2.021c0.639,0.525,1.324,0.789,2.055,0.789l-0.686,1.918
			h-6.988c-1.369,0-2.488-0.525-3.355-1.576s-1.609-2.352-2.227-3.904s-1.166-3.254-1.645-5.104c-0.48-1.85-1.018-3.549-1.609-5.104
			c-0.596-1.551-1.303-2.854-2.125-3.903s-1.85-1.576-3.082-1.576l-1.166-2.26c1.279-0.093,2.547-0.345,3.803-0.754
			c1.256-0.412,2.375-1.005,3.357-1.781c0.98-0.776,1.77-1.758,2.363-2.944c0.594-1.188,0.891-2.604,0.891-4.248
			c0-1.234-0.217-2.375-0.65-3.427c-0.436-1.051-1.039-1.963-1.814-2.739c-0.777-0.775-1.748-1.394-2.912-1.851
			s-2.455-0.687-3.871-0.687h-3.426v36.104c0,0.869,0.113,1.601,0.344,2.192c0.137,0.32,0.273,0.615,0.41,0.892L538.941,201.803z"/>
		<path fill="#FFFFFF" d="M593.193,170.631c0,0.777-0.104,1.609-0.311,2.5c-0.205,0.891-0.582,1.748-1.129,2.57
			c-0.549,0.82-1.279,1.574-2.193,2.26s-2.078,1.211-3.492,1.576c1.598,0.137,3.002,0.605,4.213,1.404
			c1.209,0.799,2.227,1.746,3.049,2.844c0.822,1.096,1.438,2.271,1.85,3.527s0.617,2.432,0.617,3.526
			c0,2.56-0.412,4.672-1.234,6.338c-0.82,1.668-1.941,2.98-3.355,3.939c-1.416,0.959-3.096,1.633-5.035,2.021
			c-1.941,0.389-4.031,0.582-6.27,0.582H562.57v-1.781l3.768-0.821c0.045-0.093,0.182-0.423,0.412-0.994
			c0.227-0.57,0.342-1.289,0.342-2.158v-33.021c0-0.412-0.035-0.799-0.104-1.166c-0.068-0.364-0.148-0.686-0.238-0.959
			c-0.139-0.317-0.252-0.639-0.344-0.959l-3.836-0.821v-1.851h14.66c2.191,0,4.26,0.185,6.199,0.549
			c1.941,0.365,3.631,0.992,5.07,1.884c1.439,0.891,2.58,2.067,3.426,3.528C592.769,166.611,593.193,168.438,593.193,170.631z
			 M574.968,161.93v16.922h1.098c6.256,0,9.387-2.764,9.387-8.289c0-1.233-0.162-2.375-0.48-3.426s-0.82-1.963-1.508-2.74
			c-0.684-0.774-1.553-1.381-2.604-1.815s-2.283-0.649-3.699-0.649h-2.193V161.93z M579.833,200.98c1.324,0,2.453-0.285,3.391-0.857
			c0.938-0.57,1.701-1.301,2.295-2.191s1.027-1.895,1.303-3.016c0.273-1.117,0.41-2.227,0.41-3.322c0-0.639-0.092-1.518-0.273-2.637
			c-0.184-1.119-0.582-2.227-1.199-3.322c-0.615-1.098-1.518-2.045-2.705-2.844s-2.809-1.199-4.863-1.199h-3.221v19.389H579.833
			L579.833,200.98z"/>
		<path fill="#FFFFFF" d="M622.691,158.299c3.15,0,6.098,0.514,8.838,1.541c2.738,1.027,5.113,2.514,7.125,4.453
			c2.01,1.941,3.584,4.295,4.727,7.057c1.141,2.765,1.713,5.857,1.713,9.283c0,3.836-0.742,7.24-2.227,10.207
			c-1.484,2.971-3.414,5.459-5.789,7.469s-5.07,3.539-8.084,4.59c-3.016,1.05-6.053,1.576-9.111,1.576
			c-2.695,0-5.32-0.526-7.879-1.576c-2.559-1.051-4.854-2.569-6.885-4.557c-2.033-1.986-3.666-4.406-4.898-7.262
			c-1.232-2.854-1.85-6.107-1.85-9.762c0-3.426,0.662-6.555,1.986-9.387c1.324-2.83,3.094-5.265,5.311-7.295
			c2.215-2.033,4.795-3.599,7.74-4.693C616.355,158.848,619.447,158.299,622.691,158.299z M636.119,180.564
			c0-2.513-0.309-4.935-0.924-7.263c-0.617-2.329-1.543-4.396-2.775-6.2c-1.232-1.804-2.752-3.242-4.557-4.314
			c-1.805-1.074-3.895-1.611-6.27-1.611c-2.01,0-3.895,0.514-5.65,1.543c-1.76,1.027-3.301,2.455-4.625,4.281
			s-2.363,3.963-3.117,6.404c-0.752,2.445-1.129,5.061-1.129,7.846c0,2.055,0.295,4.281,0.891,6.68
			c0.592,2.396,1.473,4.603,2.637,6.611c1.164,2.01,2.627,3.688,4.385,5.035c1.758,1.347,3.803,2.02,6.133,2.02
			c1.918,0,3.777-0.455,5.584-1.369c1.803-0.914,3.4-2.262,4.795-4.043c1.393-1.781,2.512-3.983,3.355-6.61
			C635.697,186.947,636.119,183.945,636.119,180.564z"/>
		<path fill="#FFFFFF" d="M691.937,159.189v1.918c-0.502,0.047-1.061,0.092-1.678,0.137c-0.617,0.047-1.188,0.172-1.713,0.377
			c-0.525,0.207-0.971,0.561-1.336,1.062c-0.365,0.504-0.549,1.256-0.549,2.262v38.774h-3.973l-26.719-34.049v28.361
			c0,0.821,0.193,1.475,0.582,1.952c0.387,0.48,0.867,0.857,1.439,1.132c0.568,0.272,1.209,0.457,1.918,0.547
			c0.707,0.094,1.402,0.162,2.088,0.207v1.85h-14.523v-1.85c0.594,0,1.199-0.022,1.816-0.068c0.617-0.045,1.152-0.194,1.609-0.444
			c0.455-0.252,0.834-0.642,1.131-1.166c0.297-0.523,0.443-1.244,0.443-2.158v-31.719c0-0.867-0.205-1.609-0.615-2.228
			s-0.867-1.131-1.369-1.541c-0.549-0.502-1.189-0.914-1.918-1.233c-0.23-0.273-0.377-0.523-0.445-0.752
			c-0.07-0.229-0.15-0.457-0.24-0.687c-0.092-0.229-0.137-0.457-0.137-0.687h9.453l25.965,33.158v-27.402
			c0-0.821-0.184-1.483-0.549-1.987c-0.365-0.502-0.82-0.879-1.369-1.129c-0.549-0.252-1.176-0.423-1.885-0.517
			c-0.707-0.09-1.404-0.158-2.088-0.205v-1.918h14.66V159.189z"/>
		<path fill="#FFFFFF" d="M740.642,159.189v1.918c-0.504,0.047-1.062,0.092-1.68,0.137c-0.615,0.047-1.188,0.172-1.711,0.377
			c-0.527,0.207-0.973,0.561-1.336,1.062c-0.367,0.504-0.549,1.256-0.549,2.262v38.774h-3.975l-26.719-34.049v28.361
			c0,0.821,0.193,1.475,0.582,1.952c0.389,0.48,0.867,0.857,1.439,1.132c0.57,0.272,1.209,0.457,1.918,0.547
			c0.707,0.094,1.404,0.162,2.09,0.207v1.85h-14.523v-1.85c0.594,0,1.199-0.022,1.816-0.068c0.617-0.045,1.152-0.194,1.609-0.444
			c0.455-0.252,0.832-0.642,1.131-1.166c0.297-0.523,0.443-1.244,0.443-2.158v-31.719c0-0.867-0.205-1.609-0.615-2.228
			s-0.867-1.131-1.369-1.541c-0.549-0.502-1.189-0.914-1.918-1.233c-0.23-0.273-0.379-0.523-0.445-0.752
			c-0.07-0.229-0.15-0.457-0.24-0.687c-0.092-0.229-0.137-0.457-0.137-0.687h9.453l25.965,33.158v-27.402
			c0-0.821-0.184-1.483-0.549-1.987c-0.365-0.502-0.82-0.879-1.369-1.129c-0.549-0.252-1.176-0.423-1.885-0.517
			c-0.707-0.09-1.404-0.158-2.09-0.205v-1.918h14.662V159.189z"/>
		<path fill="#FFFFFF" d="M778.541,196.322c-0.137,0.775-0.273,1.574-0.412,2.396c-0.092,0.732-0.17,1.521-0.238,2.363
			c-0.068,0.846-0.104,1.726-0.104,2.64h-32.199v-1.851l3.768-0.754c0.047-0.046,0.184-0.354,0.412-0.927
			c0.229-0.569,0.344-1.289,0.344-2.157v-33.089c0-0.411-0.047-0.799-0.139-1.166c-0.092-0.364-0.184-0.686-0.273-0.959
			c-0.137-0.317-0.252-0.639-0.344-0.959l-3.768-0.891v-1.781h29.049c0.045,1.006,0.137,2.021,0.273,3.049s0.273,1.953,0.41,2.775
			c0.182,0.959,0.365,1.896,0.549,2.809c-0.596,0-1.086-0.022-1.475-0.067s-0.695-0.112-0.924-0.207
			c-0.273-0.09-0.504-0.205-0.686-0.342c-0.092-0.365-0.205-0.754-0.342-1.164c-0.23-0.729-0.549-1.371-0.959-1.918
			c-0.32-0.457-0.744-0.822-1.27-1.099c-0.525-0.272-1.074-0.489-1.645-0.649s-1.131-0.272-1.68-0.342
			c-0.547-0.068-1.025-0.104-1.438-0.104h-7.535v16.99h9.316c0.959,0,1.553-0.549,1.781-1.645c0.229-1.097,0.389-2.58,0.479-4.453
			l2.33,0.344v14.111l-2.33,0.067c-0.092-1.688-0.264-3.069-0.514-4.145c-0.252-1.072-0.834-1.609-1.746-1.609h-9.318v19.457h10.619
			c0.412,0,0.9-0.022,1.473-0.067s1.154-0.125,1.748-0.24c0.592-0.113,1.152-0.297,1.678-0.549c0.525-0.25,0.947-0.604,1.27-1.062
			c0.41-0.549,0.684-1.233,0.822-2.058c0.09-0.409,0.158-0.844,0.205-1.301L778.541,196.322z"/>
	</g>
	<rect x="241.097" y="226.129" fill="#C8910F" width="370.76" height="2.372"/>
	<g>
		<path fill="#FFFFFF" d="M241.161,115.52c0-0.314,0.282-0.597,0.597-0.597h1.192c0.346,0,0.595,0.282,0.595,0.597v13.082
			c0,3.578,2.229,6.371,5.899,6.371c3.702,0,5.961-2.729,5.961-6.308V115.52c0-0.314,0.25-0.597,0.596-0.597h1.192
			c0.313,0,0.597,0.282,0.597,0.597v13.272c0,4.769-3.388,8.408-8.346,8.408c-4.926,0-8.283-3.64-8.283-8.408V115.52L241.161,115.52
			z"/>
		<path fill="#FFFFFF" d="M269.374,115.174c0-0.314,0.283-0.565,0.597-0.565h0.784l14.15,17.634h0.064V115.52
			c0-0.316,0.25-0.597,0.595-0.597h1.098c0.314,0,0.597,0.281,0.597,0.597v21.114c0,0.313-0.282,0.564-0.597,0.564h-0.565
			l-14.401-17.979h-0.03v17.068c0,0.314-0.252,0.597-0.597,0.597h-1.098c-0.313,0-0.597-0.282-0.597-0.597V115.174z"/>
		<path fill="#FFFFFF" d="M299.125,115.52c0-0.314,0.284-0.597,0.597-0.597h1.255c0.313,0,0.597,0.282,0.597,0.597v20.769
			c0,0.316-0.282,0.596-0.597,0.596h-1.255c-0.312,0-0.597-0.279-0.597-0.596V115.52z"/>
		<path fill="#FFFFFF" d="M310.455,115.739c-0.188-0.408,0.062-0.816,0.533-0.816h1.255c0.282,0,0.471,0.188,0.533,0.346
			l7.812,17.569h0.126l7.812-17.569c0.062-0.157,0.281-0.346,0.532-0.346h1.256c0.472,0,0.723,0.408,0.532,0.816l-9.536,21.114
			c-0.095,0.189-0.283,0.346-0.535,0.346h-0.313c-0.22,0-0.438-0.156-0.533-0.346L310.455,115.739z"/>
		<path fill="#FFFFFF" d="M339.733,115.52c0-0.314,0.25-0.597,0.596-0.597h12.362c0.344,0,0.596,0.282,0.596,0.597v0.909
			c0,0.314-0.252,0.597-0.596,0.597h-10.542v7.655h9.005c0.312,0,0.596,0.283,0.596,0.597v0.91c0,0.346-0.283,0.597-0.596,0.597
			h-9.005v8h10.542c0.344,0,0.596,0.281,0.596,0.597v0.909c0,0.316-0.252,0.596-0.596,0.596H340.33
			c-0.346,0-0.596-0.279-0.596-0.596L339.733,115.52L339.733,115.52z"/>
		<path fill="#FFFFFF" d="M372.34,126.218c2.415,0,4.518-2.007,4.518-4.58c0-2.385-2.103-4.424-4.518-4.424h-6.088v9.004H372.34z
			 M363.773,115.52c0-0.314,0.251-0.597,0.597-0.597h8.126c3.766,0,6.841,2.949,6.841,6.684c0,2.885-1.915,5.302-4.646,6.4l4.3,7.97
			c0.22,0.407,0,0.909-0.533,0.909h-1.602c-0.281,0-0.438-0.157-0.5-0.28l-4.174-8.315h-5.992v8c0,0.315-0.282,0.596-0.598,0.596
			h-1.223c-0.346,0-0.597-0.28-0.597-0.596V115.52L363.773,115.52z"/>
		<path fill="#FFFFFF" d="M388.567,133.592c0.156-0.189,0.312-0.408,0.47-0.597c0.313-0.407,0.659-0.659,1.099-0.283
			c0.22,0.188,2.511,2.386,5.302,2.386c2.543,0,4.205-1.601,4.205-3.451c0-2.166-1.882-3.451-5.489-4.959
			c-3.451-1.504-5.523-2.917-5.523-6.494c0-2.133,1.695-5.583,6.682-5.583c3.077,0,5.366,1.599,5.366,1.599
			c0.189,0.093,0.565,0.47,0.189,1.067c-0.126,0.188-0.251,0.408-0.377,0.595c-0.282,0.439-0.598,0.565-1.099,0.284
			c-0.22-0.126-2.194-1.443-4.109-1.443c-3.326,0-4.33,2.133-4.33,3.451c0,2.102,1.599,3.326,4.235,4.423
			c4.236,1.726,6.965,3.326,6.965,6.967c0,3.263-3.105,5.646-6.777,5.646c-3.702,0-6.212-2.164-6.62-2.541
			C388.504,134.438,388.19,134.188,388.567,133.592"/>
		<path fill="#FFFFFF" d="M412.166,115.52c0-0.314,0.283-0.597,0.597-0.597h1.255c0.313,0,0.596,0.282,0.596,0.597v20.769
			c0,0.316-0.282,0.596-0.596,0.596h-1.255c-0.312,0-0.597-0.279-0.597-0.596V115.52z"/>
		<path fill="#FFFFFF" d="M429.582,117.025h-5.459c-0.346,0-0.596-0.282-0.596-0.597v-0.908c0-0.315,0.25-0.597,0.596-0.597h13.303
			c0.346,0,0.598,0.282,0.598,0.597v0.908c0,0.314-0.252,0.597-0.598,0.597h-5.459v19.264c0,0.314-0.281,0.597-0.596,0.597h-1.193
			c-0.311,0-0.596-0.282-0.596-0.597V117.025z"/>
		<path fill="#FFFFFF" d="M450.861,111.628c-0.127-0.25,0-0.501,0.188-0.595l4.705-2.636c0.191-0.126,0.66-0.188,0.816,0.095
			l0.564,1.128c0.125,0.25,0.062,0.565-0.188,0.659l-5.053,2.103c-0.438,0.188-0.596,0.188-0.721-0.063L450.861,111.628z
			 M446.937,115.52c0-0.314,0.252-0.597,0.598-0.597h12.361c0.346,0,0.598,0.282,0.598,0.597v0.909c0,0.314-0.252,0.597-0.598,0.597
			h-10.541v7.655h9.004c0.312,0,0.598,0.283,0.598,0.597v0.91c0,0.346-0.283,0.597-0.598,0.597h-9.004v8h10.541
			c0.346,0,0.598,0.281,0.598,0.597v0.909c0,0.316-0.252,0.596-0.598,0.596h-12.361c-0.346,0-0.598-0.279-0.598-0.596V115.52z"/>
		<path fill="#FFFFFF" d="M490.779,126.596c2.57,0,4.768-2.104,4.768-4.802c0-2.541-2.195-4.485-4.768-4.485h-4.988v9.287H490.779
			L490.779,126.596z M483.404,115.52c0-0.314,0.252-0.597,0.598-0.597h6.934c3.859,0,7.027,3.138,7.027,6.935
			c0,3.89-3.168,7.059-6.996,7.059h-5.176v7.373c0,0.315-0.283,0.596-0.598,0.596h-1.191c-0.346,0-0.598-0.28-0.598-0.596V115.52
			L483.404,115.52z"/>
		<path fill="#FFFFFF" d="M518.521,129.418c-1.539-3.42-3.045-6.871-4.582-10.292h-0.25l-4.58,10.292H518.521z M503.617,136.068
			l9.537-21.114c0.094-0.19,0.252-0.346,0.533-0.346H514c0.283,0,0.439,0.156,0.533,0.346l9.477,21.114
			c0.188,0.41-0.062,0.816-0.533,0.816h-1.256c-0.281,0-0.471-0.188-0.533-0.346l-2.32-5.176h-11.139l-2.291,5.176
			c-0.062,0.156-0.25,0.346-0.533,0.346h-1.254C503.679,136.886,503.427,136.479,503.617,136.068"/>
		<path fill="#FFFFFF" d="M541.462,126.218c2.414,0,4.518-2.007,4.518-4.58c0-2.385-2.104-4.424-4.518-4.424h-6.088v9.004H541.462z
			 M532.896,115.52c0-0.314,0.25-0.597,0.598-0.597h8.125c3.766,0,6.842,2.949,6.842,6.684c0,2.885-1.914,5.302-4.646,6.4
			l4.301,7.97c0.219,0.407,0,0.909-0.533,0.909h-1.602c-0.281,0-0.439-0.157-0.502-0.28l-4.174-8.315h-5.992v8
			c0,0.315-0.281,0.596-0.596,0.596h-1.225c-0.346,0-0.598-0.28-0.598-0.596v-20.77H532.896z"/>
		<path fill="#FFFFFF" d="M559.101,115.52c0-0.314,0.283-0.597,0.598-0.597h1.254c0.312,0,0.596,0.282,0.596,0.597v20.769
			c0,0.316-0.281,0.596-0.596,0.596h-1.254c-0.314,0-0.598-0.279-0.598-0.596V115.52z"/>
		<path fill="#FFFFFF" d="M572,133.592c0.156-0.189,0.312-0.408,0.471-0.597c0.314-0.407,0.658-0.659,1.098-0.283
			c0.221,0.188,2.51,2.386,5.303,2.386c2.543,0,4.205-1.601,4.205-3.451c0-2.166-1.883-3.451-5.49-4.959
			c-3.451-1.504-5.521-2.917-5.521-6.494c0-2.133,1.693-5.583,6.684-5.583c3.074,0,5.363,1.599,5.363,1.599
			c0.189,0.093,0.564,0.47,0.189,1.067c-0.127,0.188-0.252,0.408-0.377,0.595c-0.283,0.439-0.598,0.565-1.1,0.284
			c-0.219-0.126-2.195-1.443-4.109-1.443c-3.326,0-4.33,2.133-4.33,3.451c0,2.102,1.6,3.326,4.236,4.423
			c4.236,1.726,6.965,3.326,6.965,6.967c0,3.263-3.105,5.646-6.777,5.646c-3.701,0-6.211-2.164-6.619-2.541
			C571.937,134.438,571.623,134.188,572,133.592"/>
		<path fill="#FFFFFF" d="M609.5,119.44l-2.258,1.757c-0.252,0.188-0.502,0.22-0.723-0.031l-0.598-0.659
			c-0.219-0.25-0.092-0.533,0.064-0.69l4.393-4.267h0.848c0.312,0,0.564,0.283,0.564,0.597v20.142c0,0.314-0.252,0.598-0.564,0.598
			h-1.131c-0.346,0-0.596-0.283-0.596-0.598V119.44L609.5,119.44z"/>
	</g>
</g>
</svg>
