<?xml version="1.0" encoding="UTF-8" standalone="no"?>
<svg
   xmlns:svg="http://www.w3.org/2000/svg"
   xmlns="http://www.w3.org/2000/svg"
   version="1.1"
   x="0px"
   y="0px"
   width="94.556"
   height="79.357002"
   viewBox="368 0 94.555997 79.357002">
  <g
     id="g8"
     transform="translate(-11.199,-12.562)">
    <circle
       cx="426.47699"
       cy="14.438"
       r="1.876"
       id="circle2"
       style="fill:#c8910f" />
    <polygon
       points="379.199,91.919 473.755,91.919 426.477,72.232 379.199,91.919 "
       id="polygon4"
       style="fill:#c8910f" />
    <path
       d="M 437.102,54.053 V 45.756 L 434.16,42.897 V 32.753 l 1.447,-1.437 c -0.198,-0.217 -5.035,-5.582 -6.672,-12.893 h -4.972 c -1.569,7.01 -6.082,12.232 -6.626,12.843 l -0.013,0.024 1.471,1.462 v 10.144 l -2.943,2.859 v 8.297 c -12.395,4.122 -21.59,15.251 -22.876,28.694 l 32.282,-13.443 1.219,-0.507 1.22,0.507 32.281,13.443 C 458.691,69.305 449.496,58.175 437.102,54.053 Z m -7.474,-17.974 c 0,-0.547 0.189,-1.307 1.165,-1.307 0.974,0 1.164,0.773 1.164,1.307 v 8.354 c -0.769,-0.124 -1.545,-0.224 -2.329,-0.295 z m -4.722,-0.539 c 0,-0.764 0.266,-1.825 1.628,-1.825 1.359,0 1.625,1.081 1.625,1.825 v 8.498 c -0.539,-0.025 -1.081,-0.042 -1.627,-0.042 -0.545,0 -1.087,0.015 -1.626,0.041 z m -3.878,0.539 c 0,-0.547 0.19,-1.307 1.166,-1.307 0.974,0 1.163,0.773 1.163,1.307 v 8.068 c -0.784,0.073 -1.561,0.172 -2.329,0.298 z"
       id="path6"
       style="fill:#c8910f" />
  </g>
</svg>
