<?xml version="1.0" encoding="UTF-8"?>
<svg  width="841.89px" height="252px" version="1.1" viewBox="0 0 3939.5 1491" xml:space="preserve" xmlns="http://www.w3.org/2000/svg" xmlns:xlink="http://www.w3.org/1999/xlink"><defs><clipPath id="al">
			<use xlink:href="#a"/>
		</clipPath><clipPath id="as">
			<use xlink:href="#w"/>
		</clipPath><clipPath id="aw">
			<use xlink:href="#d"/>
		</clipPath><clipPath id="ao">
			<use xlink:href="#t"/>
		</clipPath><clipPath id="bf">
			<use xlink:href="#y"/>
		</clipPath><clipPath id="aq">
			<use xlink:href="#aa"/>
		</clipPath><clipPath id="bn">
			<use xlink:href="#s"/>
		</clipPath><clipPath id="bk">
			<use xlink:href="#ab"/>
		</clipPath><clipPath id="bi">
			<use xlink:href="#o"/>
		</clipPath><clipPath id="bg">
			<use xlink:href="#g"/>
		</clipPath><clipPath id="ar">
			<use xlink:href="#u"/>
		</clipPath><clipPath id="av">
			<use xlink:href="#n"/>
		</clipPath><clipPath id="bh">
			<use xlink:href="#v"/>
		</clipPath><clipPath id="bm">
			<use xlink:href="#ad"/>
		</clipPath><clipPath id="be">
			<use xlink:href="#j"/>
		</clipPath><clipPath id="bd">
			<use xlink:href="#k"/>
		</clipPath><clipPath id="au">
			<use xlink:href="#ag"/>
		</clipPath><clipPath id="bq">
			<use xlink:href="#l"/>
		</clipPath><clipPath id="bc">
			<use xlink:href="#z"/>
		</clipPath><clipPath id="ay">
			<use xlink:href="#af"/>
		</clipPath><clipPath id="am">
			<use xlink:href="#x"/>
		</clipPath><clipPath id="ba">
			<use xlink:href="#h"/>
		</clipPath><clipPath id="bl">
			<use xlink:href="#f"/>
		</clipPath><clipPath id="an">
			<use xlink:href="#m"/>
		</clipPath><clipPath id="br">
			<use xlink:href="#ae"/>
		</clipPath><clipPath id="bo">
			<use xlink:href="#ac"/>
		</clipPath><clipPath id="ak">
			<use xlink:href="#i"/>
		</clipPath><clipPath id="bb">
			<use xlink:href="#c"/>
		</clipPath><clipPath id="aj">
			<use xlink:href="#ai"/>
		</clipPath><clipPath id="at">
			<use xlink:href="#p"/>
		</clipPath><clipPath id="ax">
			<use xlink:href="#b"/>
		</clipPath><clipPath id="az">
			<use xlink:href="#r"/>
		</clipPath><clipPath id="ap">
			<use xlink:href="#e"/>
		</clipPath><clipPath id="bj">
			<use xlink:href="#ah"/>
		</clipPath><clipPath id="bp">
			<use xlink:href="#q"/>
		</clipPath><rect id="a" width="4846.5" height="2203.3"/><rect id="w" width="4846.5" height="2203.3"/><rect id="d" width="4846.5" height="2203.3"/><rect id="t" width="4846.5" height="2203.3"/><rect id="y" width="4846.5" height="2203.3"/><rect id="aa" width="4846.5" height="2203.3"/><rect id="s" width="4846.5" height="2203.3"/><rect id="ab" width="4846.5" height="2203.3"/><rect id="o" width="4846.5" height="2203.3"/><rect id="g" width="4846.5" height="2203.3"/><rect id="u" width="4846.5" height="2203.3"/><rect id="n" width="4846.5" height="2203.3"/><rect id="v" width="4846.5" height="2203.3"/><rect id="ad" width="4846.5" height="2203.3"/><rect id="j" width="4846.5" height="2203.3"/><rect id="k" width="4846.5" height="2203.3"/><rect id="ag" width="4846.5" height="2203.3"/><rect id="l" width="4846.5" height="2203.3"/><rect id="z" width="4846.5" height="2203.3"/><rect id="af" width="4846.5" height="2203.3"/><rect id="x" width="4846.5" height="2203.3"/><rect id="h" width="4846.5" height="2203.3"/><rect id="f" width="4846.5" height="2203.3"/><rect id="m" width="4846.5" height="2203.3"/><rect id="ae" width="4846.5" height="2203.3"/><rect id="ac" width="4846.5" height="2203.3"/><rect id="i" width="4846.5" height="2203.3"/><rect id="c" width="4846.5" height="2203.3"/><rect id="ai" width="4846.5" height="2203.3"/><rect id="p" width="4846.5" height="2203.3"/><rect id="b" width="4846.5" height="2203.3"/><rect id="r" width="4846.5" height="2203.3"/><rect id="e" width="4846.5" height="2203.3"/><rect id="ah" width="4846.5" height="2203.3"/><rect id="q" width="4846.5" height="2203.3"/></defs>
<style type="text/css">
	.st0{fill:#00386E;}
	.st1{clip-path:url(#SVGID_00000182490510034215469130000003379405924390098097_);fill:#EDA627;}
	.st2{clip-path:url(#SVGID_00000039837009824387806200000006454010441576900004_);fill:#EDA627;}
	.st3{clip-path:url(#SVGID_00000048462754170801462340000013075806914643096480_);fill:#EDA627;}
	.st4{clip-path:url(#SVGID_00000168800600967101975130000000587629066028649873_);fill:#EDA627;}
	.st5{clip-path:url(#SVGID_00000098207192711343362640000016375801758859116162_);fill:#EDA627;}
	.st6{clip-path:url(#SVGID_00000074431087581891583280000006488224484329018502_);fill:#EDA627;}
	.st7{clip-path:url(#SVGID_00000127741243671772101590000001837434011041542546_);fill:#EDA627;}
	.st8{clip-path:url(#SVGID_00000158010056673690919790000004582265952160562096_);fill:#EDA627;}
	.st9{clip-path:url(#SVGID_00000025417220702680758950000002797808082744792468_);fill:#EDA627;}
	.st10{clip-path:url(#SVGID_00000083073163576058544880000011499699861216440460_);fill:#EDA627;}
	.st11{clip-path:url(#SVGID_00000151542767476224920880000013633931991932078501_);fill:#EDA627;}
	.st12{clip-path:url(#SVGID_00000040554053817087684140000016851793114029130175_);fill:#EDA627;}
	.st13{clip-path:url(#SVGID_00000105427484194378862490000001906737164781816473_);fill:#EDA627;}
	.st14{clip-path:url(#SVGID_00000080188586123787243850000017075759337053644188_);fill:#EDA627;}
	.st15{clip-path:url(#SVGID_00000157297420402097154130000009434805199270747779_);fill:#EDA627;}
	.st16{clip-path:url(#SVGID_00000030482280289962363940000014018555164065305734_);fill:#EDA627;}
	.st17{clip-path:url(#SVGID_00000127738077188715683960000008013589121090848957_);fill:#EDA627;}
	.st18{clip-path:url(#SVGID_00000156552265197753105790000003996989155116042118_);fill:#EDA627;}
	.st19{clip-path:url(#SVGID_00000180343765050119308270000003833790408818222270_);fill:#EDA627;}
	.st20{clip-path:url(#SVGID_00000137133408531037007270000010667580696561122238_);fill:#EDA627;}
	.st21{clip-path:url(#SVGID_00000009549296623045091200000015424049348689408136_);fill:#FFFFFF;}
	.st22{clip-path:url(#SVGID_00000181777190423813909480000006809905166496930958_);fill:#FFFFFF;}
	.st23{clip-path:url(#SVGID_00000054954736700741606770000017320029047562332836_);fill:#FFFFFF;}
	.st24{clip-path:url(#SVGID_00000097488055945142291000000009815967430681149878_);fill:#FFFFFF;}
	.st25{clip-path:url(#SVGID_00000147200082109637460960000013957148363034932361_);fill:#FFFFFF;}
	.st26{clip-path:url(#SVGID_00000034810581687003351470000006370769372671597736_);fill:#FFFFFF;}
	.st27{clip-path:url(#SVGID_00000077306188738183088010000017190125555728023188_);fill:#FFFFFF;}
	.st28{clip-path:url(#SVGID_00000096058001440386629080000000992769945645215672_);fill:#FFFFFF;}
	.st29{clip-path:url(#SVGID_00000069389414908507854450000006540376725989044909_);fill:#FFFFFF;}
	.st30{clip-path:url(#SVGID_00000163032944085648327450000010256951203365350048_);fill:#FFFFFF;}
	.st31{clip-path:url(#SVGID_00000029018427437342275510000000186583254425634487_);fill:#FFFFFF;}
	.st32{clip-path:url(#SVGID_00000102534141542705011100000003162189721314200715_);fill:#FFFFFF;}
	.st33{clip-path:url(#SVGID_00000108996268616740588030000007170941537480250260_);fill:#FFFFFF;}
	.st34{clip-path:url(#SVGID_00000029750280611597281470000010353588959776588435_);fill:#FFFFFF;}
	.st35{clip-path:url(#SVGID_00000119811985406832323770000012174251192508446369_);fill:#FFFFFF;}
</style>


<g transform="translate(-453.4,-262)">
	
		
		<clipPath>
			<use xlink:href="#a"/>
		</clipPath>
		<path d="m2354.9 507.22 0.34 55.49c12.78-3.6 26.42-6.44 40.06-8.15v-68.1c0-16.81 10.72-31.39 27.87-31.39s27.88 14.58 27.88 31.39v68.1c13.63 1.71 27.18 4.54 39.96 8.15l0.34-55.49c0-16.64 8.15-25.21 20.5-25.21 3.77 0 7.38 0.78 7.38 0.78v-24.79c-14.32-11.83-58.41-44.25-72.81-130.62h-46.49c-14.49 86.36-58.58 118.79-72.81 130.62v24.79s3.52-0.78 7.38-0.78c12.25 0 20.4 8.57 20.4 25.21" clip-path="url(#al)" fill="#eda627"/>
	
	
		
		<clipPath>
			<use xlink:href="#w"/>
		</clipPath>
		<path d="m2423.1 309.35c13.07 0 23.67-10.61 23.67-23.67s-10.6-23.68-23.67-23.68-23.67 10.61-23.67 23.67 10.6 23.68 23.67 23.68" clip-path="url(#as)" fill="#eda627"/>
	
	
		
		<clipPath>
			<use xlink:href="#d"/>
		</clipPath>
		<polygon points="2874.4 1070.3 2876.5 1060.5 2423.1 855.38 1969.7 1060.5 1971.8 1070.3" clip-path="url(#aw)" fill="#eda627"/>
	
	
		
		<clipPath>
			<use xlink:href="#t"/>
		</clipPath>
		<path d="m2759.3 966.06c-4.89-107.89-62.01-202.4-147.17-259.44-25.21-16.81-52.92-30.45-82.34-40.14v-63.21c-28.55-14.24-69.55-24.27-106.69-24.53-37.22 0.25-78.22 10.29-106.78 24.53v63.21c-22.9 7.46-44.68 17.41-65.18 29.42-94.52 55.4-159.1 155.15-164.24 270.16l336.19-153.69z" clip-path="url(#ao)" fill="#eda627"/>
	
	
		
		<clipPath>
			<use xlink:href="#y"/>
		</clipPath>
		<path d="m1273.4 1698.5c0 22.41-10.17 32.36-28.21 32.36-20.12 0-29.45-12.04-29.45-33.4v-77.16h-25.31v80.49c0 33.82 20.74 52.27 53.93 52.27 34.43 0 54.14-19.29 54.14-54.56v-78.2h-25.1z" clip-path="url(#bf)" fill="#eda627"/>
	
	
		
		<clipPath>
			<use xlink:href="#aa"/>
		</clipPath>
		<polygon points="1369.2 1749.9 1393.2 1749.9 1393.2 1655.8 1455.3 1749.9 1482.2 1749.9 1482.2 1620.3 1458.2 1620.3 1458.2 1714.7 1396.8 1620.3 1369.2 1620.3" clip-path="url(#aq)" fill="#eda627"/>
	
	
		
		<clipPath>
			<use xlink:href="#s"/>
		</clipPath>
		
			<rect x="1554" y="1620.3" width="25.1" height="129.65" clip-path="url(#bn)" fill="#eda627"/>
	
	
		
		<clipPath>
			<use xlink:href="#ab"/>
		</clipPath>
		<polygon points="1733.4 1620.3 1698 1724.4 1662.5 1620.3 1636.4 1620.3 1682.4 1749.9 1713.1 1749.9 1759.6 1620.3" clip-path="url(#bk)" fill="#eda627"/>
	
	
		
		<clipPath>
			<use xlink:href="#o"/>
		</clipPath>
		<polygon points="1905 1749.9 1905 1728.6 1841.5 1728.6 1841.5 1695.6 1893.6 1695.6 1893.6 1674.2 1841.5 1674.2 1841.5 1641.6 1905 1641.6 1905 1620.3 1816.6 1620.3 1816.6 1749.9" clip-path="url(#bi)" fill="#eda627"/>
	
	
		
		<clipPath>
			<use xlink:href="#g"/>
		</clipPath>
		<path d="m2066.6 1659.7c0-23.85-17.43-39.41-50.21-39.41h-45.42v129.65h25.31v-46.26l18.67-1.25 28.83 47.51h28.83l-34.02-52.9c17.63-6.01 28.01-18.88 28.01-37.34m-51.66 23.66-18.88 0.41v-42.32h16.38c18.05 0 28.22 6.44 28.22 19.92 0 14.1-10.16 21.15-25.72 21.99" clip-path="url(#bg)" fill="#eda627"/>
	
	
		
		<clipPath>
			<use xlink:href="#u"/>
		</clipPath>
		<path d="m2182.4 1673.6c-17.84-4.77-29.46-8.92-29.46-19.5 0-8.92 6.64-15.34 21.78-15.34 12.24 0 26.76 4.35 38.17 11.2l6.23-21.36c-12.45-7.05-26.97-11.41-44.6-11.41-28.83 0-46.47 15.34-46.47 38.37 0 25.52 21.58 33.82 40.24 39 19.08 5.18 28.83 9.13 28.83 19.91 0 10.37-9.96 17.22-24.06 17.22-15.55 0-29.25-5.19-41.28-12.45l-5.81 21.78c12.24 7.48 29.46 12.04 46.67 12.04 30.49 0 49.38-16.81 49.38-40.46 0-24.69-20.13-33.62-39.62-39" clip-path="url(#ar)" fill="#eda627"/>
	
	
		
		<clipPath>
			<use xlink:href="#n"/>
		</clipPath>
		
			<rect x="2287.1" y="1620.3" width="25.1" height="129.65" clip-path="url(#av)" fill="#eda627"/>
	
	
		
		<clipPath>
			<use xlink:href="#v"/>
		</clipPath>
		<polygon points="2485.2 1642.5 2485.2 1620.3 2373.4 1620.3 2373.4 1642.5 2416.8 1642.5 2416.8 1749.9 2441.8 1749.9 2441.8 1642.5" clip-path="url(#bh)" fill="#eda627"/>
	
	
		
		<clipPath>
			<use xlink:href="#ad"/>
		</clipPath>
		<polygon points="2634.4 1641.6 2634.4 1620.3 2597.8 1620.3 2619.6 1594.8 2593.3 1594.8 2580.3 1620.3 2546 1620.3 2546 1749.9 2634.4 1749.9 2634.4 1728.6 2570.9 1728.6 2570.9 1695.6 2622.9 1695.6 2622.9 1674.2 2570.9 1674.2 2570.9 1641.6" clip-path="url(#bm)" fill="#eda627"/>
	
	
		
		<clipPath>
			<use xlink:href="#j"/>
		</clipPath>
		<path d="m2828.9 1620.3h-41.89v129.65h25.31v-40.24l14.73-0.2c34.85-0.2 55.38-15.98 55.38-45.84-0.01-25.32-17.63-43.37-53.53-43.37m-0.82 68.04-16.19 0.42v-47.3h15.35c19.92 0 29.87 7.88 29.87 23.02 0.01 15.15-9.74 23.44-29.03 23.86" clip-path="url(#be)" fill="#eda627"/>
	
	
		
		<clipPath>
			<use xlink:href="#k"/>
		</clipPath>
		<path d="m2971.6 1620.3-47.3 129.65h25.52l10.58-30.7h52.27l10.79 30.7h25.51l-46.67-129.65zm-4.57 77.99 19.72-56.21 19.5 56.21z" clip-path="url(#bd)" fill="#eda627"/>
	
	
		
		<clipPath>
			<use xlink:href="#ag"/>
		</clipPath>
		<path d="m3201.9 1659.7c0-23.85-17.42-39.41-50.2-39.41h-45.43v129.65h25.31v-46.26l18.67-1.25 28.83 47.51h28.83l-34.02-52.9c17.64-6.01 28.01-18.88 28.01-37.34m-51.65 23.66-18.88 0.41v-42.32h16.39c18.04 0 28.21 6.44 28.21 19.92 0 14.1-10.17 21.15-25.72 21.99" clip-path="url(#au)" fill="#eda627"/>
	
	
		
		<clipPath>
			<use xlink:href="#l"/>
		</clipPath>
		
			<rect x="3268.7" y="1620.3" width="25.1" height="129.65" clip-path="url(#bq)" fill="#eda627"/>
	
	
		
		<clipPath>
			<use xlink:href="#z"/>
		</clipPath>
		<path d="m3413.9 1673.6c-17.85-4.77-29.46-8.92-29.46-19.5 0-8.92 6.64-15.34 21.78-15.34 12.24 0 26.76 4.35 38.17 11.2l6.23-21.36c-12.45-7.05-26.97-11.41-44.6-11.41-28.83 0-46.47 15.34-46.47 38.37 0 25.52 21.58 33.82 40.24 39 19.08 5.18 28.83 9.13 28.83 19.91 0 10.37-9.96 17.22-24.06 17.22-15.55 0-29.25-5.19-41.28-12.45l-5.81 21.78c12.24 7.48 29.46 12.04 46.67 12.04 30.49 0 49.37-16.81 49.37-40.46 0.01-24.69-20.11-33.62-39.61-39" clip-path="url(#bc)" fill="#eda627"/>
	
	
		
		<clipPath>
			<use xlink:href="#af"/>
		</clipPath>
		<polygon points="3569.9 1653.3 3600.8 1645.8 3600.8 1728.6 3567.5 1728.6 3567.5 1749.9 3655.9 1749.9 3655.9 1728.6 3624.6 1728.6 3624.6 1619 3569.3 1632.3" clip-path="url(#ay)" fill="#eda627"/>
	
	
		
		<clipPath>
			<use xlink:href="#x"/>
		</clipPath>
		<path d="m1036.2 1251.3c20.92 1.16 29.26 8.57 29.26 25.76l0.2 124.9-120.8-165.25h-74.79v3.54l29.98 36.85v164.32c0 24.93-6.97 31.05-22.85 33.42-13.89-3.07-21.01-13.13-26.93-27.85l-81.09-210.28h-29.27l-81.69 202.22c-5.28 14.49-11.49 34.16-41.77 36.75v14.2h89.67v-14.2c-17.51-0.94-32.17-9.11-25.75-25.7l14.02-36.02 87.19-0.01 15.34 41.89c4.46 12.91-4.34 16.42-24.93 19.84l-0.03 14.2h183.89v-14.23c-20.94-1.84-29.98-5.83-29.98-34.22 0 0-0.03-96.75-0.01-143.52l140.83 191.96h25.12l0.24-212.84c0-17.19 7.88-24.69 30.02-25.76v-14.59h-85.88zm-333.12 139.6 36.11-91.29 33.72 91.29z" clip-path="url(#am)" fill="#fff"/>
	
	
		
		<clipPath>
			<use xlink:href="#h"/>
		</clipPath>
		<path d="m2291.3 1251.3c20.93 1.16 29.25 8.56 29.25 25.76l0.2 120.82-120.79-161.17h-74.79v3.54l29.98 36.85-0.01 164.37c0 28.39-9.04 32.38-29.98 34.22v14.18l85.79 0.02v-14.19c-20.94-1.84-29.98-5.83-29.98-34.22 0 0-0.02-96.79-0.01-143.55l140.83 191.96h25.12l0.25-212.84c0-17.2 7.88-24.69 30.02-25.76v-14.59h-85.88z" clip-path="url(#ba)" fill="#fff"/>
	
	
		
		<clipPath>
			<use xlink:href="#f"/>
		</clipPath>
		<path d="m534.71 1441.4-0.05-185.16h26.89c27.02 0 44.57 16.32 44.57 53.58 0 48.54-27.86 54.89-53.15 55.85v17.81h1.92c60.92 0 105.99-27.35 105.99-74.83 0-43.42-38.01-71.98-101.66-71.98h-105.57v14.62c21.92 2.22 29.65 7.31 29.65 34.79v155.31c0 28.39-7.27 31.28-29.9 34.23v14.24h111.6l0.05-14.24c-21.74-1.77-30.34-5.83-30.34-34.22" clip-path="url(#bl)" fill="#fff"/>
	
	
		
		<clipPath>
			<use xlink:href="#m"/>
		</clipPath>
		<path d="m2593.8 1344.2c-29.98-18.33-62.4-31.8-62.4-58.98 0-25.59 19.47-32.84 35.14-32.84 28.17 0 47.09 19.87 60.12 49.9h15.65l-6.93-68.79-5.84-2.17c-6 5.76-10.72 8.01-17.15 8.01-12.91 0-24.61-7.62-48.76-7.62-41.18 0-85.33 19.76-85.33 66.13 0 45.09 39.18 62.9 73.26 83.99 23.74 14.68 46.16 29.08 46.16 54.34 0 19.12-14.93 38.89-45.82 38.89-26.5 0-46.28-26.91-60.56-64.12h-15.45l6.62 79.48 6.18 2.46c5.51-4.07 11.39-6.35 18.79-6.35 14.24 0 23.59 7.94 52.35 7.94 40.44 0 91.2-18.11 91.2-71.99 0-41.89-25.14-58.65-57.23-78.28" clip-path="url(#an)" fill="#fff"/>
	
	
		
		<clipPath>
			<use xlink:href="#ae"/>
		</clipPath>
		<path d="m1140.5 1236.7s-9.65 66.95-9.65 66.94l16.69-0.06 15.42-30.52c5.52-10.89 18.26-16.16 31.96-16.16l21.09-0.04-0.07 184.6c0 20.92-2.69 32.89-31.84 34.25v14.18h114.94v-14.18c-29.15-1.35-31.84-13.33-31.84-34.25l-0.07-184.6 21.09 0.04c13.71 0 26.44 5.27 31.96 16.16l15.42 30.52 16.69 0.06c0 0.01-9.65-66.94-9.65-66.94z" clip-path="url(#br)" fill="#fff"/>
	
	
		
		<clipPath>
			<use xlink:href="#ac"/>
		</clipPath>
		<path d="m1995 1232.8c-74.77 0-121.87 48.84-121.93 130.39 0.06 81.55 47.16 130.39 121.93 130.39s121.87-48.84 121.93-130.39c-0.06-81.56-47.16-130.39-121.93-130.39m0 243.65c-42.4 0-67.48-43.85-67.5-113.26 0.03-69.42 25.1-113.26 67.5-113.26s67.49 43.84 67.51 113.26c-0.03 69.41-25.11 113.26-67.51 113.26" clip-path="url(#bo)" fill="#fff"/>
	
	
		
		<clipPath>
			<use xlink:href="#i"/>
		</clipPath>
		<path d="m2794.1 1232.8c-74.77 0-121.87 48.84-121.93 130.39 0.06 81.55 47.16 130.39 121.93 130.39s121.87-48.84 121.93-130.39c-0.06-81.56-47.16-130.39-121.93-130.39m0 243.65c-42.4 0-67.49-43.85-67.51-113.26 0.02-69.42 25.11-113.26 67.51-113.26s67.48 43.84 67.5 113.26c-0.02 69.41-25.1 113.26-67.5 113.26" clip-path="url(#ak)" fill="#fff"/>
	
	
		
		<clipPath>
			<use xlink:href="#c"/>
		</clipPath>
		<path d="m3524.6 1232.8c-74.77 0-121.87 48.84-121.93 130.39 0.06 81.55 47.16 130.39 121.93 130.39s121.87-48.84 121.93-130.39c-0.06-81.56-47.16-130.39-121.93-130.39m0 243.65c-42.4 0-67.48-43.85-67.5-113.26 0.02-69.42 25.1-113.26 67.5-113.26s67.49 43.84 67.51 113.26c-0.03 69.41-25.11 113.26-67.51 113.26" clip-path="url(#bb)" fill="#fff"/>
	
	
		
		<clipPath>
			<use xlink:href="#ai"/>
		</clipPath>
		<path d="m1519.6 1251.4c22.55 1.45 30 10.28 30 25.66l0.15 70.52h-106.78l0.16-70.52c0-15.38 7.45-24.21 29.99-25.66v-14.75h-111.19v14.65c17.45 2.12 29.75 7.54 29.75 25.76v171.3c0 16.41-7.54 24.56-24.64 26.6-1.5 0.18-3.02 0.27-4.95 0.43v14.43h110.55v-14.13c-3.06-0.54-5.87-0.98-8.66-1.55-14.73-2.99-20.6-9.58-20.85-24.77v-78.05h106.47v78.05c-0.25 15.18-6.12 21.77-20.86 24.77-2.78 0.57-5.59 1.01-8.65 1.55v14.13h110.54v-14.43c-1.93-0.16-3.44-0.25-4.95-0.43-17.09-2.04-24.64-10.19-24.64-26.6v-171.3c0-18.23 12.3-23.64 29.75-25.76v-14.65h-111.19z" clip-path="url(#aj)" fill="#fff"/>
	
	
		
		<clipPath>
			<use xlink:href="#p"/>
		</clipPath>
		<path d="m1823 1458.1c-5.77 8.31-14.61 12.31-25.65 12.31l-41.02 0.02c-15.11 0-20.56-7.16-20.56-24.95v-74.47h46.12c8.39 0 13.32 5.42 15.43 13.36l4.14 15.68h15.11v-82.03h-15.11l-4.3 16.29c-2.31 7.28-7.44 12.65-15.27 13.17h-46.12v-92.14h48.61c13.06 0.21 23.46 6.22 31.3 16.42l16.46 23.56h14.94l-8.15-58.67h-184.34v14.37c24.88 1.08 29.76 13.04 29.76 34.43v155.96c0 26.31-4.32 29.59-29.67 34.05v14.37h194.01l12.26-63.08h-16.63z" clip-path="url(#at)" fill="#fff"/>
	
	
		
		<clipPath>
			<use xlink:href="#b"/>
		</clipPath>
		<polygon points="1812.5 1186.8 1797.9 1149.9 1795.2 1149.9 1718.1 1196 1722.9 1208.8 1812.5 1189.3" clip-path="url(#ax)" fill="#fff"/>
	
	
		
		<clipPath>
			<use xlink:href="#r"/>
		</clipPath>
		<path d="m3820.7 1251.3c20.93 1.16 29.25 8.56 29.25 25.76l0.2 124.89-120.79-165.24h-74.79v3.54l29.98 36.93-0.01 164.29c0 28.39-9.04 32.38-29.98 34.22v14.2h85.79v-14.19c-20.94-1.84-29.98-5.83-29.98-34.22 0 0-0.02-96.71-0.01-143.47l140.83 191.89h25.12l0.25-212.84c0-17.2 7.87-24.69 30.02-25.76v-14.59h-85.88z" clip-path="url(#az)" fill="#fff"/>
	
	
		
		<clipPath>
			<use xlink:href="#e"/>
		</clipPath>
		<path d="m4084.1 1251.3c20.93 1.16 29.25 8.56 29.25 25.76l0.2 124.89-120.79-165.24h-74.79v3.54l29.98 36.93-0.01 164.29c0 28.39-9.04 32.38-29.98 34.22v14.18l85.79 0.02v-14.19c-20.94-1.84-29.98-5.83-29.98-34.22 0 0-0.02-96.71-0.01-143.47l140.83 191.89h25.13l0.25-212.84c0-17.2 7.88-24.69 30.02-25.76v-14.59h-85.88v14.59z" clip-path="url(#ap)" fill="#fff"/>
	
	
		
		<clipPath>
			<use xlink:href="#ah"/>
		</clipPath>
		<path d="m4376.2 1426.8-21.33 31.35c-5.77 8.31-14.61 12.31-25.66 12.31l-41.01 0.03c-15.1 0-20.55-7.16-20.55-24.95v-74.4h46.11c8.39 0 13.32 5.43 15.44 13.37l4.14 15.67h15.1v-82.03h-15.1l-4.31 16.29c-2.3 7.28-7.43 12.66-15.27 13.18h-46.11l-0.34-92.23h48.61c13.06 0.21 23.46 6.22 31.29 16.42l16.47 23.56h14.94l-8.15-58.67h-184.34v14.37c24.88 1.08 29.77 13.04 29.77 34.43 0 0 0.33 103.46 0.33 155.96 0 26.3-4.32 29.59-29.67 34.05v14.37h194.01l12.27-63.08z" clip-path="url(#bj)" fill="#fff"/>
	
	
		
		<clipPath>
			<use xlink:href="#q"/>
		</clipPath>
		<path d="m3321.4 1357.4c35.82-6.53 49.43-29.26 49.43-53.53 0-53.57-42.73-67.22-106.7-67.22h-98.99v14.8c18.17 1.77 29.29 5.57 29.29 31.01v159.06c0 23.07-4.5 29.59-25.03 33.13-18.05-1.56-23.03-5.08-28.94-15.17l-55.86-87.97c24.63-8.95 50.86-28.46 50.86-65.2 0-44.52-37.91-69.67-101.14-69.67h-108v14.62c21.92 2.22 29.65 7.31 29.65 34.8v155.31c0 28.39-7.27 31.28-29.89 34.22v14.23h111.64v-14.23c-21.74-1.78-30.33-5.83-30.33-34.22l-0.02-185.8h30.87c20.35 0 42.48 15.31 42.48 51.16 0 43.32-28.69 57.82-52.5 57.82-0.9 0-1.7-0.01-2.57-0.02v18.63c4.46 0.35 8.54 2.6 10.86 6.47l53.29 89.12c3.8 6.55 10.26 11.07 19.75 11.07h55.39v0.01h112.65c71.19 0 103.15-27.74 103.15-67.23 0-37.41-28.72-57.49-59.34-65.2m-75.07-102.04h19.06c31.01 0 50.75 11.89 50.75 47.15 0 30.31-13.26 46.84-52.12 46.84h-17.69zm27.66 215.11c-17.08 0-28.05-0.87-28.05-29.2v-74.39h23.5c37.78 0 55.65 15.85 55.65 53.16-0.02 35.24-17.12 50.43-51.1 50.43" clip-path="url(#bp)" fill="#fff"/>
	
</g></svg>
