<?xml version="1.0" encoding="UTF-8"?>
<svg data-name="Calque 1" version="1.1" width="94.556" height="79.357002" viewBox="0 0 505.66 450.67" xmlns="http://www.w3.org/2000/svg">
<defs>
<style>.cls-1 {
        fill: #ed9b27;
      }

      .cls-1, .cls-2 {
        stroke-width: 0px;
      }

      .cls-2 {
        fill: #00386e;
      }</style>
</defs>
<g transform="translate(-1123.6 -152.84)">
<path class="cls-1" d="m1338.3 289.56 0.19 30.94c7.13-2.01 14.73-3.59 22.34-4.54v-37.98c0-9.37 5.98-17.5 15.54-17.5s15.55 8.13 15.55 17.5v37.98c7.6 0.95 15.16 2.53 22.28 4.54l0.19-30.94c0-9.28 4.55-14.06 11.43-14.06 2.1 0 4.11 0.43 4.11 0.43v-13.82c-7.98-6.6-32.57-24.68-40.6-72.83h-25.92c-8.08 48.16-32.67 66.24-40.6 72.83v13.82s1.96-0.43 4.11-0.43c6.84 0 11.39 4.78 11.39 14.06z"/>
<circle class="cls-1" transform="rotate(-85.93 1376.5 165.97)" cx="1376.4" cy="166.02" r="13.2"/>
<polygon class="cls-1" points="1124.7 603.51 1628 603.51 1629.2 598.08 1376.4 483.7 1123.6 598.08"/>
<path class="cls-1" d="m1563.9 545.41c-2.73-60.16-34.58-112.86-82.06-144.66-14.06-9.38-29.51-16.98-45.91-22.38v-35.25c-15.92-7.94-38.78-13.54-59.49-13.68-20.75 0.14-43.62 5.74-59.54 13.68v35.25c-12.77 4.16-24.92 9.71-36.34 16.4-52.71 30.89-88.71 86.51-91.58 150.64l187.47-85.7 187.47 85.7z"/>
  </g>
</svg>
