<?xml version="1.0" encoding="utf-8"?>
<!-- Generator: Adobe Illustrator 16.0.0, SVG Export Plug-In . SVG Version: 6.00 Build 0)  -->
<!DOCTYPE svg PUBLIC "-//W3C//DTD SVG 1.1//EN" "http://www.w3.org/Graphics/SVG/1.1/DTD/svg11.dtd">
<svg version="1.1" xmlns="http://www.w3.org/2000/svg" xmlns:xlink="http://www.w3.org/1999/xlink" x="0px" y="0px"
	 width="282.232px" height="282.232px" viewBox="150.531 605.063 282.232 282.232"
	 enable-background="new 150.531 605.063 282.232 282.232" xml:space="preserve">
<g id="_x2D_--" display="none">
	<rect x="116.272" y="-356.429" display="inline" fill="#FFFFFF" width="4471.75" height="5688"/>
	<g display="inline">
		<path d="M345.886,961.997c5.5,3.52,18.26,9.02,31.68,9.02c24.86,0,32.561-15.84,32.34-27.72
			c-0.22-20.021-18.26-28.601-36.96-28.601h-10.78v-14.52h10.78c14.08,0,31.9-7.261,31.9-24.2c0-11.44-7.26-21.561-25.08-21.561
			c-11.44,0-22.44,5.061-28.601,9.46l-5.06-14.08c7.479-5.5,22-11,37.4-11c28.16,0,40.92,16.72,40.92,34.101
			c0,14.74-8.8,27.28-26.4,33.66v0.439c17.601,3.521,31.9,16.721,31.9,36.74c0,22.881-17.82,42.9-52.141,42.9
			c-16.06,0-30.14-5.06-37.18-9.68L345.886,961.997z"/>
	</g>
</g>
<g id="fond">
	<circle fill="#00326E" cx="291.646" cy="746.181" r="141.116"/>
</g>
<g id="A" display="none">
	<g display="inline">
		<path fill="#FFFFFF" d="M224.252,709.115l-24.715-4.23v-16.477h102.311c18.703,0,33.656,5.159,44.865,15.475
			c10.537,9.724,15.809,21.486,15.809,35.291c0,2.672-0.223,5.344-0.668,8.016c-2.004,14.102-11.172,22.711-27.498,25.828v10.465
			l49.541,77.596h-30.615c-35.256-34.289-53.66-52.175-55.219-53.66c-7.053,3.489-20.596,10.131-40.635,19.928
			c-0.373,1.261-4.084,12.616-11.133,34.066h-31.172l8.35-51.211l1.002-0.557l42.527-26.719v-55.441h-42.75V709.115z
			 M375.102,856.291c-12.545-19.669-27.387-42.898-44.531-69.691h-60.563c-1.857,1.188-9.279,5.863-22.266,14.027
			c-12.768,8.09-19.371,12.246-19.816,12.469c0.146-0.816-2.266,13.693-7.236,43.529h22.154c0.668-2.004,4.23-12.878,10.688-32.619
			l45.422-22.377c36.588,35.55,55.365,53.771,56.332,54.662H375.102z M229.039,693.195v29.502h42.75v49.318h43.752v-16.031
			l-22.711-4.119V735.5h44.197v4.787h-16.699v28.945c7.494,0.372,14.174-0.519,20.039-2.672c9.797-3.636,15.398-10.354,16.811-20.15
			c2.227-15.512-2.338-28.5-13.693-38.965c-10.318-9.5-24.197-14.25-41.637-14.25H229.039z M293.275,682.953
			c-5.42,0-10.059-1.93-13.916-5.789c-3.861-3.858-5.789-8.498-5.789-13.916c0-5.492,1.928-10.168,5.789-14.027
			c3.857-3.858,8.496-5.789,13.916-5.789c5.49,0,10.166,1.931,14.027,5.789c3.857,3.859,5.789,8.535,5.789,14.027
			c0,5.418-1.932,10.058-5.789,13.916C303.441,681.023,298.766,682.953,293.275,682.953z"/>
	</g>
	<g id="Calque_2" display="inline">
	</g>
	<g id="Calque_7" display="inline">
	</g>
</g>
<g id="B">
	<g>
		<polygon fill="#FFFFFF" stroke="#00326E" stroke-width="4" stroke-miterlimit="10" points="374.954,715.665 350.285,724.06 
			362.493,731.605 327.187,765.549 292.211,751.674 224.608,817.886 240.425,828.541 297.711,772.435 332.553,786.252 
			378.865,741.735 392.842,750.377 396.232,728.826 399.621,707.272 		"/>
		
			<rect x="291.045" y="780.233" fill="#FFFFFF" stroke="#00326E" stroke-width="4" stroke-miterlimit="10" width="17.127" height="47.533"/>
		
			<rect x="262.502" y="810.38" fill="#FFFFFF" stroke="#00326E" stroke-width="4" stroke-miterlimit="10" width="17.127" height="17.387"/>
		
			<rect x="323.012" y="789.045" fill="#FFFFFF" stroke="#00326E" stroke-width="4" stroke-miterlimit="10" width="17.127" height="38.722"/>
		
			<rect x="354.408" y="767.251" fill="#FFFFFF" stroke="#00326E" stroke-width="4" stroke-miterlimit="10" width="17.121" height="60.516"/>
	</g>
	<g opacity="0.8">
		<path fill="#FFFFFF" d="M231.729,726.631c6.455,0,12.256-2.094,17.404-6.281c2.617,1.135,4.601,2.008,5.954,2.617
			c1.352,0.611,3.161,1.484,5.431,2.617c2.268,1.135,4.012,2.116,5.234,2.944c1.221,0.83,2.638,1.897,4.253,3.206
			c1.613,1.309,2.791,2.552,3.533,3.729c0.74,1.178,1.374,2.552,1.897,4.122s0.785,3.229,0.785,4.973v44.885h-88.984v-44.885
			c0.262-2.791,0.959-5.32,2.094-7.59c1.133-2.268,2.441-4.188,3.926-5.758c1.482-1.57,3.488-3.096,6.02-4.58
			c2.529-1.482,4.776-2.683,6.739-3.599s4.515-1.983,7.655-3.206C218.904,724.363,224.924,726.631,231.729,726.631z
			 M231.663,672.717c-6.412,0-11.888,2.27-16.423,6.805c-4.537,4.537-6.805,10.033-6.805,16.488c0,6.457,2.268,11.953,6.805,16.488
			c4.535,4.537,10.011,6.805,16.423,6.805s11.908-2.268,16.488-6.805c4.58-4.535,6.87-10.031,6.87-16.488
			c0-6.455-2.29-11.951-6.87-16.488C243.571,674.986,238.075,672.717,231.663,672.717z"/>
	</g>
</g>
<g id="C" display="none">
	<g display="inline">
		<path fill="#FFFFFF" d="M320.88,663.367c1.921,9.91-0.188,18.254-6.324,25.037l-28.566,31.97c-0.76-0.839-2.057-2.062-3.893-3.671
			c-0.885-0.645-2.131-1.422-3.735-2.332l29.484-33.535c3.091-3.478,3.983-8.324,2.675-14.535
			c-1.662-7.884-6.954-10.885-15.871-9.006c-3.744,0.789-6.917,2.498-9.523,5.127l-43.093,44.137
			c-4.644,4.807-6.359,10.074-5.151,15.808c0.403,1.911,1.123,3.755,2.164,5.532c3.477,5.838,8.239,8.119,14.292,6.843
			c5.096-1.073,10.339-4.216,15.728-9.429c0.641,0.283,1.693,0.934,3.157,1.955c0.901,0.727,2.295,2.012,4.181,3.859
			c-7.525,6.91-15.032,11.152-22.517,12.73c-9.794,2.064-17.676-1.39-23.641-10.361c-1.946-2.916-3.263-6.007-3.95-9.273
			c-2.283-10.828,0.938-20.406,9.662-28.732l44.092-42.354c2.909-2.775,7.229-4.768,12.963-5.977
			c6.45-1.359,12.063-0.961,16.843,1.191C315.739,651.021,319.414,656.025,320.88,663.367z M289.456,784.764l-6.921,6.823
			l-35.076-35.022c-4.436-4.471-8.029-9.285-10.779-14.445c1.412,0.785,3.832,1.813,7.262,3.086
			c1.487,0.354,3.628,0.441,6.419,0.269c0.569,1.128,1.77,2.87,3.598,5.229L289.456,784.764z M326.525,764.725
			c2.678,2.848,4.464,6.379,5.353,10.599c2.064,9.794-1.345,17.499-10.224,23.113c-3.378,2.128-6.978,3.591-10.8,4.397
			c-7.725,1.627-14.277,0.723-19.659-2.718l7.058-7.351c3.677,2.053,7.743,2.609,12.204,1.669c2.389-0.503,4.478-1.442,6.268-2.818
			c5.065-3.978,7.079-8.435,6.038-13.374c-0.654-3.105-2.545-6.156-5.673-9.158l-44.522-43.137
			c-4.307-4.248-10.082-5.609-17.328-4.082c-1.354,0.285-2.635,0.723-3.84,1.309c-4.481,2.026-6.653,4.938-6.518,8.734
			c-0.914-0.389-2.295-1.803-4.139-4.243c-0.621-1.366-1.334-3.169-2.139-5.413c0.51-1.52,2.884-4.266,7.121-8.236
			c2.188-1.459,4.674-2.482,7.462-3.07c5.495-1.158,11.381-0.652,17.66,1.517c5.7,1.793,9.996,4.215,12.884,7.265L326.525,764.725z
			 M345.629,780.783c1.904,9.828-0.204,18.176-6.325,25.036l-38.724,42.968c-5.318,5.943-12.236,9.814-20.756,11.611
			c-10.194,2.148-18.479-1.055-24.854-9.607c-2.202-2.947-3.646-6.051-4.334-9.315c-2.048-9.714,1.43-19.056,10.436-28.024
			l43.728-42.9c1.785-1.789,4.411-3.34,7.876-4.653l4.912,4.952c1.177,1.25,2.061,2.479,2.647,3.685
			c-4.095,0.697-7.549,2.464-10.359,5.302l-43.093,44.139c-4.928,5.031-6.829,10.215-5.705,15.549c0.42,1.99,1.317,3.881,2.692,5.67
			c3.932,5.242,8.766,7.26,14.499,6.051c5.495-1.157,10.703-4.459,15.627-9.904l38.698-43.088c3.502-3.898,4.512-8.977,3.026-15.234
			c-0.066-0.316-0.889-1.85-2.465-4.596c-0.281-2.518-0.662-4.518-1.14-5.997c-0.647-2.274-2.327-5.124-5.044-8.542
			C337.307,764.781,343.525,770.416,345.629,780.783z"/>
	</g>
</g>
</svg>
