<svg xmlns="http://www.w3.org/2000/svg" viewBox="0 0 282.23 282.23">
  <defs>
    <style>
      .cls-1 {
        fill: #00326e;
      }

      .cls-2 {
        fill: #c89108;
        stroke: #c89108;
        stroke-miterlimit: 10;
        stroke-width: 3px;
      }

      .cls-3 {
        opacity: 0.93;
      }

      .cls-4 {
        fill: #fff;
      }
    </style>
  </defs>
  <g id="FOND">
    <circle class="cls-1" cx="141.1" cy="141.17" r="141.12" transform="translate(-58.5 141.12) rotate(-45)"/>
  </g>
  <g id="Sanity">
    <path class="cls-2" d="M160.85,235.38H89.24L161.9,60.24H89.24v-16h95.34L111.5,219.42h73.08v16Z"/>
    <g id="D">
      <g class="cls-3">
        <path class="cls-4" d="M75.59,119.2c5.4-3.65,13-9.11,19.74-5.72,6.27,3.14,3.79,12,2.19,17.13a375.74,375.74,0,0,1-18.1,46.82,4.05,4.05,0,0,0,7,4.09,192.38,192.38,0,0,1,55.86-51.37l-6.1-3.5q-.31,8.49-.62,17c-.16,4.19-.54,8.56.6,12.66,2.56,9.23,11.91,11.1,19.55,6.6,4-2.34,7.25-5.69,10.78-8.6a126.81,126.81,0,0,1,12-8.76,134.21,134.21,0,0,1,13.3-7.56,30.68,30.68,0,0,1,6.82-2.88c1.54-.33,5-.35,4,2.14-2,4.82,5.86,6.92,7.81,2.16,1.61-3.94-.36-8.32-3.69-10.68-4.17-3-9.35-2-13.78-.18a123.33,123.33,0,0,0-26.29,15.39c-4,3-7.66,6.31-11.5,9.46-2.41,2-7.8,6.3-10.46,2.55-2.22-3.11-1.18-8.8-1-12.3q.32-8.48.62-17a4.07,4.07,0,0,0-6.09-3.49,202.37,202.37,0,0,0-58.76,54.27l7,4.09q6.6-14.31,12.15-29.08c3.31-8.87,7.34-18.22,8.58-27.66,1.09-8.33-2-16.64-10.49-19.46-9.12-3-17.81,1.93-25.15,6.88-4.3,2.9-.25,9.92,4.09,7Z"/>
      </g>
    </g>
  </g>
</svg>
