<?xml version="1.0" encoding="UTF-8"?>
<svg id="Calque_1" xmlns="http://www.w3.org/2000/svg" version="1.1" width="40px" height="40px" viewBox="0 0 40 40">
  <!-- Generator: Adobe Illustrator 29.1.0, SVG Export Plug-In . SVG Version: 2.1.0 Build 142)  -->
  <defs>
    <style>
      .st0 {
        font-family: Arial-BoldMT, Arial;
        font-size: 7px;
        font-weight: 700;
        isolation: isolate;
      }

      .st0, .st1 {
        fill: #f9b49d;
      }

      .st2 {
        opacity: .9;
      }

      .st3 {
        fill: #00326e;
      }
    </style>
  </defs>
  <g id="_00326E">
    <path class="st3" d="M19.6.3c11,0,20,9,20,20s-9,20-20,20S-.4,31.4-.4,20.3H-.4c0-11,9-20,20-20Z"/>
  </g>
  <g id="B">
    <g class="st2">
      <path class="st1" d="M22.8,6.4c.9-.2,1.8-.2,2.6,0l-2.8,2.8v2c.1,0,1.2,1,1.2,1h2c0,.1,2.8-2.7,2.8-2.7.3.9.3,1.8.1,2.6-.2.9-.7,1.7-1.3,2.4-1.2,1.2-3,1.7-4.7,1.3-2.9,2-5.5,4.5-7.5,7.4.3.8.3,1.7,0,2.6-.4,1.8-1.9,3.2-3.7,3.6-.9.2-1.8.2-2.6-.1l2.8-2.8v-2c-.1,0-1.2-1.1-1.2-1.1h-2c0-.1-2.8,2.7-2.8,2.7-.3-.9-.3-1.8,0-2.6.4-1.9,2-3.4,3.9-3.7.9-.2,1.9,0,2.8.3,2.6-1.9,4.9-4.3,7-7.2-.4-.9-.5-1.9-.3-2.8.2-1,.7-1.9,1.3-2.6.7-.7,1.5-1.1,2.4-1.3v.2Z"/>
    </g>
  </g>
  <g id="Calque_2_-_copie">
    <text class="st0" transform="translate(20.3 32.3) rotate(-44)"><tspan x="0" y="0">DEVE</tspan></text>
  </g>
</svg>