<svg xmlns="http://www.w3.org/2000/svg" viewBox="0 0 282.23 282.23"><defs><style>.cls-1{fill:#00326e;}.cls-2{opacity:0.9;}.cls-3,.cls-4{fill:#f49898;}.cls-4{font-size:48px;font-family:MyriadPro-Regular, Myriad Pro;letter-spacing:0.04em;}.cls-5{letter-spacing:0.05em;}</style></defs><g id="_00326E" data-name="00326E"><path class="cls-1" d="M141.12,0A141.12,141.12,0,1,1,0,141.12,141.12,141.12,0,0,1,141.12,0Z"/></g><g id="C"><g id="B"><g class="cls-2"><path class="cls-3" d="M170.36,49.91a34.24,34.24,0,0,1,18.48.67L169.21,70.21,170,84.5l7.43,7.44,14.1.76,19.63-19.63A33.13,33.13,0,0,1,212,91.56a32.68,32.68,0,0,1-9.24,16.58,34.52,34.52,0,0,1-33.17,9.15,224.69,224.69,0,0,0-53.17,52,32.84,32.84,0,0,1,.57,18.2,34.49,34.49,0,0,1-25.92,25.54,33.13,33.13,0,0,1-18.49-.86l19.63-19.63-.76-14.1L84,171l-14.11-.76L50.28,189.9a33.13,33.13,0,0,1-.86-18.49A34.41,34.41,0,0,1,77,145.11a33.42,33.42,0,0,1,20,2.29q27.63-20,49.17-50.51a33,33,0,0,1-2-19.73,34.73,34.73,0,0,1,9.43-18A33.78,33.78,0,0,1,170.36,49.91Z"/></g></g><text class="cls-4" transform="translate(165.33 223.89) rotate(-45)">D<tspan class="cls-5" x="33.79" y="0">AF</tspan></text></g></svg>