<?xml version="1.0" encoding="utf-8"?>
<!-- Generator: Adobe Illustrator 25.4.1, SVG Export Plug-In . SVG Version: 6.00 Build 0)  -->
<svg version="1.1" id="Calque_1" xmlns="http://www.w3.org/2000/svg" xmlns:xlink="http://www.w3.org/1999/xlink" x="0px" y="0px"
	 width="40px" height="40px" viewBox="0 0 282.2 282.2" style="enable-background:new 0 0 282.2 282.2;" xml:space="preserve">
<style type="text/css">
	.st0{fill:#00326E;}
	.st1{opacity:0.92;}
	.st2{opacity:0.9;}
	.st3{fill:#FFFFFF;}
	.st4{opacity:0.92;enable-background:new    ;}
</style>
<g id="_00326E">
	<circle class="st0" cx="141.1" cy="141.1" r="141.1"/>
</g>
<g id="C">
	<g id="B" class="st1">
		<g class="st2">
			<g>
				<path class="st3" d="M174.8,49.9c6.1-1.5,12.5-1.2,18.5,0.7l-19.6,19.6l0.8,14.3l7.4,7.4l14.1,0.8l19.6-19.6
					c2,6,2.3,12.4,0.9,18.5c-1.4,6.3-4.6,12.1-9.2,16.6c-8.6,8.8-21.3,12.2-33.2,9.1c-20.5,14.3-38.5,31.8-53.2,52
					c1.9,5.9,2.1,12.2,0.6,18.2c-3.1,12.7-13.1,22.6-25.9,25.5c-6.1,1.5-12.5,1.2-18.5-0.8l19.6-19.6l-0.8-14.1l-7.4-7.5l-14.1-0.8
					l-19.6,19.7c-2-6-2.3-12.4-0.8-18.5c3-13.5,13.9-23.9,27.5-26.3c6.7-1.3,13.7-0.5,20,2.3c18.4-13.3,34.8-30.2,49.2-50.5
					c-2.7-6.2-3.4-13.1-2-19.7c1.3-6.8,4.6-13.1,9.4-18C162.6,54.5,168.4,51.3,174.8,49.9z"/>
			</g>
		</g>
	</g>
	<g class="st4">
		<path class="st3" d="M129.5,216.7c1.5-2.1,3.5-4.4,5.8-6.8c4.2-4.2,8.2-6.3,12.1-6.4c3.9-0.2,7.7,1.3,11.4,5
			c3.7,3.7,5.6,7.9,5.6,12.2c0,4.3-2.4,9-6.8,13.4c-2.1,2.1-4,3.8-5.6,5.1L129.5,216.7z M152.7,233.9c0.9-0.6,2-1.7,3.2-2.8
			c6.3-6.3,6.2-13.3,0-19.5c-5.4-5.4-11.8-5.8-18.1,0.4c-1.5,1.5-2.5,2.8-3.2,3.8L152.7,233.9z"/>
		<path class="st3" d="M172.4,211.7c2.1-0.5,4.8-1.8,6.8-3.8c3-3,3.2-6.4,0.9-8.7c-2.1-2.1-4.6-2.1-8.9-0.2
			c-5.1,2.4-9.3,2.8-12.5-0.4c-3.6-3.6-3.3-9.2,1.2-13.6c2.3-2.3,4.6-3.5,6.2-3.9l1.6,3.2c-1.2,0.3-3.4,1.2-5.4,3.3
			c-3.1,3.1-2.4,6.2-0.9,7.7c2.1,2.1,4.6,1.8,9-0.1c5.4-2.4,9.2-2.5,12.6,0.9c3.5,3.5,4,9.2-1.4,14.6c-2.2,2.2-5.3,4-7.3,4.4
			L172.4,211.7z"/>
		<path class="st3" d="M174.9,170.7l22.9,22.9l-3,3l-22.9-22.9L174.9,170.7z"/>
		<path class="st3" d="M184.7,160.9l13.5,13.5c5.1,5.1,9.6,5,12.6,2c3.4-3.4,3.3-7.8-1.7-12.9L195.6,150l3-3l13.3,13.3
			c7,7,6.2,13.6,1.3,18.6c-4.7,4.7-10.9,5.5-18-1.6l-13.5-13.5L184.7,160.9z"/>
		<path class="st3" d="M228.3,163l-22.9-22.9l3.2-3.2l18.9,4.2c4.4,1,8.1,2.1,11.5,3.3l0-0.1c-3.3-2.8-6.2-5.5-9.7-9.1l-9.6-9.6
			l2.8-2.8l22.9,22.9l-3,3l-18.9-4.3c-4.1-1-8.3-2-11.9-3.4l-0.1,0.1c3.1,2.7,5.9,5.4,9.7,9.2l9.8,9.8L228.3,163z"/>
	</g>
</g>
</svg>
