<?xml version="1.0" encoding="utf-8"?>
<!-- Generator: Adobe Illustrator 25.4.1, SVG Export Plug-In . SVG Version: 6.00 Build 0)  -->
<svg version="1.1" id="Calque_1" xmlns="http://www.w3.org/2000/svg" xmlns:xlink="http://www.w3.org/1999/xlink" x="0px" y="0px"
	 width="40px" height="40px" viewBox="0 0 282.2 282.2" style="enable-background:new 0 0 282.2 282.2;" xml:space="preserve">
<style type="text/css">
	.st0{fill:#00326E;}
	.st1{opacity:0.9;}
	.st2{fill:#F49898;}
	.st3{enable-background:new    ;}
</style>
<g id="_00326E">
	<g>
		<path class="st0" d="M141.1,0C219,0,282.2,63.2,282.2,141.1S219,282.2,141.1,282.2S0,219.1,0,141.1l0,0C0,63.2,63.2,0,141.1,0z"/>
	</g>
</g>
<g id="B">
	<g class="st1">
		<g>
			<path class="st2" d="M170.4,49.9c6.1-1.5,12.5-1.2,18.5,0.7l-19.6,19.6l0.8,14.3l7.4,7.4l14.1,0.8l19.6-19.6
				c2,6,2.3,12.4,0.8,18.5c-1.4,6.3-4.6,12.1-9.2,16.6c-8.6,8.7-21.3,12.2-33.2,9.2c-20.5,14.3-38.5,31.8-53.2,52
				c1.9,5.9,2.1,12.2,0.6,18.2c-3.1,12.7-13.1,22.6-25.9,25.5c-6.1,1.5-12.5,1.2-18.5-0.9l19.6-19.6l-0.8-14.1L84,171l-14.1-0.8
				l-19.6,19.7c-2-6-2.3-12.4-0.9-18.5c3.1-13.5,13.9-23.9,27.6-26.3c6.7-1.3,13.7-0.5,20,2.3c18.4-13.3,34.8-30.2,49.2-50.5
				c-2.7-6.2-3.4-13.1-2-19.7c1.3-6.8,4.6-13.1,9.4-18C158.2,54.5,164,51.3,170.4,49.9z"/>
		</g>
	</g>
</g>
<g class="st3">
	<path class="st2" d="M135.6,208.8c1.5-2.1,3.5-4.4,5.8-6.8c4.2-4.2,8.2-6.3,12.1-6.4c3.9-0.2,7.7,1.3,11.4,5
		c3.7,3.7,5.6,7.9,5.6,12.2c0,4.3-2.4,9-6.8,13.4c-2.1,2.1-4,3.8-5.6,5.1L135.6,208.8z M158.8,226.1c0.9-0.6,2-1.7,3.2-2.8
		c6.3-6.3,6.2-13.3,0-19.5c-5.4-5.4-11.8-5.8-18.1,0.4c-1.5,1.5-2.5,2.8-3.2,3.8L158.8,226.1z"/>
	<path class="st2" d="M177.5,197.7l4.8,9.6l-3.1,3.1l-15.1-30.7l3.6-3.6l30.7,15.1l-3.2,3.2l-9.6-4.8L177.5,197.7z M182.7,187.9
		l-8.8-4.3c-2-1-3.7-2-5.4-3l-0.1,0.1c1,1.7,2,3.5,3,5.3l4.4,8.9L182.7,187.9z"/>
	<path class="st2" d="M179.6,164.2l12.3-12.3l2.5,2.5l-9.4,9.4l7.6,7.6l8.7-8.7l2.4,2.4l-8.7,8.7l10.4,10.4l-3,3L179.6,164.2z"/>
	<path class="st2" d="M197.1,147.3c1-1.6,2.9-3.8,4.9-5.9c3-3,5.4-4.3,7.9-4.6c2.1-0.3,4.1,0.3,5.9,2.1c2.2,2.2,2.7,5.6,1.2,8.9
		l0.1,0.1c2.7-1.6,7.1-2.4,10.5,1c2,2,2.7,4.2,2.6,6.5c-0.1,3.1-2,6.3-5.8,10c-2,2-3.7,3.5-4.9,4.3L197.1,147.3z M209.4,153.7
		l2.7-2.7c3.1-3.1,3.3-6.6,1.1-8.8c-2.7-2.7-5.8-1.7-8.8,1.3c-1.4,1.4-2,2.2-2.4,2.8L209.4,153.7z M220.4,164.7
		c0.7-0.5,1.6-1.3,2.6-2.3c3.1-3.1,4.8-7,1.4-10.3c-3.1-3.1-7.1-1.7-10.3,1.5l-2.4,2.4L220.4,164.7z"/>
</g>
</svg>
