<?xml version="1.0" encoding="utf-8"?>
<!-- Generator: Adobe Illustrator 23.0.2, SVG Export Plug-In . SVG Version: 6.00 Build 0)  -->
<svg version="1.1" xmlns="http://www.w3.org/2000/svg" xmlns:xlink="http://www.w3.org/1999/xlink" x="0px" y="0px"
	 viewBox="-1057.768 907.139 282.232 282.232" enable-background="new -1057.768 907.139 282.232 282.232" xml:space="preserve">
<g id="_x2D_--" display="none">
</g>
<g id="fond" display="none">
	<path display="inline" fill="#21558B" d="M-916.652,907.14c77.938,0,141.117,63.18,141.117,141.115
		c0,77.938-63.18,141.117-141.117,141.117c-77.935,0-141.115-63.18-141.115-141.117
		C-1057.768,970.319-994.588,907.14-916.652,907.14z"/>
</g>
<g id="_x30_0326E">
	<path fill="#00326E" d="M-916.652,907.14c77.938,0,141.117,63.18,141.117,141.115c0,77.938-63.18,141.117-141.117,141.117
		c-77.935,0-141.115-63.18-141.115-141.117C-1057.768,970.319-994.588,907.14-916.652,907.14z"/>
</g>
<g id="A" display="none">
	<g id="Calque_2" display="inline">
	</g>
	<g id="Calque_7" display="inline">
	</g>
</g>
<g id="B" display="none">
</g>
<g id="B_bis">
	<path opacity="0.13" fill="#FFFFFF" d="M-789.514,990.657c9.05,18.617,14.126,35.522,14.126,57.612
		c0,77.938-63.18,141.117-141.117,141.117c-77.935,0-141.115-63.18-141.115-141.117c0-19.484,3.949-40.045,11.09-56.928"/>
	<g>
		<path fill="#FFFFFF" d="M-1036.757,990.965v-8.232h8.232v8.232H-1036.757z"/>
		<path fill="#FFFFFF" d="M-1020.087,990.965v-8.232h8.232v8.232H-1020.087z"/>
		<path fill="#FFFFFF" d="M-1003.417,990.965v-8.232h8.232v8.232H-1003.417z"/>
		<path fill="#FFFFFF" d="M-986.748,990.965v-8.232h8.232v8.232H-986.748z"/>
		<path fill="#FFFFFF" d="M-970.078,990.965v-8.232h8.232v8.232H-970.078z"/>
		<path fill="#FFFFFF" d="M-953.408,990.965v-8.232h8.232v8.232H-953.408z"/>
		<path fill="#FFFFFF" d="M-936.738,990.965v-8.232h8.232v8.232H-936.738z"/>
		<path fill="#FFFFFF" d="M-920.068,990.965v-8.232h8.232v8.232H-920.068z"/>
		<path fill="#FFFFFF" d="M-903.398,990.965v-8.232h8.232v8.232H-903.398z"/>
		<path fill="#FFFFFF" d="M-886.728,990.965v-8.232h8.232v8.232H-886.728z"/>
		<path fill="#FFFFFF" d="M-870.058,990.965v-8.232h8.232v8.232H-870.058z"/>
		<path fill="#FFFFFF" d="M-853.388,990.965v-8.232h8.232v8.232H-853.388z"/>
		<path fill="#FFFFFF" d="M-836.718,990.965v-8.232h8.232v8.232H-836.718z"/>
		<path fill="#FFFFFF" d="M-820.048,990.965v-8.232h8.232v8.232H-820.048z"/>
		<path fill="#FFFFFF" d="M-803.378,990.965v-8.232h8.232v8.232H-803.378z"/>
	</g>
	<g>
		<g>
			<path fill="#FFFFFF" d="M-970.693,1034.447c-1.128,0-2.221,0.075-2.26,0.204v118.625c0.039,0.128,1.132,0.2,2.26,0.2h21.701
				v-119.029H-970.693z"/>
			<path d="M-974.111,1034.319h4.064v119.285h-4.064c-0.61,0-1.198-1.238-1.749-2.57V1035.75
				C-975.309,1036.701-974.721,1034.319-974.111,1034.319z"/>
		</g>
		<path fill="#FFFFFF" d="M-903.932,1015.709h-29.329c-0.578,0-1.139,0.077-4.227,0.212v137.223
			c3.088,0.135,3.649,0.212,4.227,0.212h29.329c0.708,0,1.391-0.109,2.03-0.305v-137.036
			C-902.54,1015.82-903.223,1015.709-903.932,1015.709z"/>
		<g>
			<path fill="#FFFFFF" d="M-892.353,1039.171c-0.512,0.116-0.992,0.294-1.435,0.513l31.934,114.48
				c0.507,0.004,1.021-0.043,1.534-0.156l9.857-2.216l-32.036-114.837L-892.353,1039.171z"/>
			<path fill="#FFFFFF" d="M-872.014,1034.597l-10.485,2.358l32.036,114.837l10.48-2.358c0.628-0.145,1.205-0.37,1.729-0.661
				l-31.892-114.326C-870.759,1034.411-871.387,1034.456-872.014,1034.597z"/>
			<path d="M-895.069,1045.365l29.101,104.328c0.681,2.442,1.438,4.446,4.113,4.471l-31.934-114.48
				C-896.134,1040.836-895.746,1042.926-895.069,1045.365z"/>
			<path fill="#FFFFFF" d="M-870.146,1034.447l31.892,114.326c2.157-1.213,1.638-3.196,0.984-5.533l-29.1-104.33
				C-867.022,1036.572-867.604,1034.597-870.146,1034.447z"/>
			<polygon fill="#21558B" points="-862.644,1055.545 -886.261,1060.859 -887.789,1056.544 -864.172,1051.23 			"/>
			<polygon fill="#21558B" points="-858.516,1071.121 -882.134,1076.435 -883.803,1072.148 -860.186,1066.834 			"/>
		</g>
	</g>
	<path d="M-941.738,1021.456v124.154c1.268,4.138,3.493,6.768,4.502,7.529v-137.214
		C-938.245,1016.684-940.47,1019.316-941.738,1021.456z"/>
	<rect x="-928.465" y="1031.503" fill="#21558B" width="22.189" height="34.848"/>
	<g>
		<path fill="#00326E" d="M-959.502,1043.379v1.955h-10.544v-1.955H-959.502z"/>
		<path fill="#00326E" d="M-948.956,1043.379v1.955H-959.5v-1.955H-948.956z"/>
		<path fill="#00326E" d="M-959.502,1059.26v1.955h-10.544v-1.955H-959.502z"/>
		<path fill="#00326E" d="M-948.956,1059.26v1.955H-959.5v-1.955H-948.956z"/>
		<path fill="#00326E" d="M-959.502,1075.14v1.955h-10.544v-1.955H-959.502z"/>
		<path fill="#00326E" d="M-948.956,1075.14v1.955H-959.5v-1.955H-948.956z"/>
	</g>
	<g>
		<path fill="#FFFFFF" d="M-988.984,1007.729v-41.441h12.211v41.441H-988.984z"/>
		<path fill="#FFFFFF" d="M-854.811,1007.729v-41.441h12.212v41.441H-854.811z"/>
	</g>
</g>
<g id="C">
</g>
<g id="titres">
</g>
<g id="réserve" display="none">
</g>
</svg>
