<?xml version="1.0" encoding="UTF-8"?><svg xmlns="http://www.w3.org/2000/svg" width="40px" height="40px" viewBox="0 0 282.23 282.23"><defs><style>.cls-1{fill:#00326e;}.cls-2{fill:#369;}.cls-3{fill:#fff;opacity:.85;}</style></defs><g id="_0326E"><circle class="cls-1" cx="141.12" cy="141.12" r="141.12" transform="translate(-58.45 141.12) rotate(-45)"/></g><g id="C"><path class="cls-3" d="M38.44,92.77c0-6.15,5.34-11.13,11.91-11.13H232.54c6.58,0,11.91,4.99,11.91,11.13v106.24c0,6.15-5.33,11.13-11.91,11.13H50.36c-6.58,0-11.91-4.98-11.91-11.13V92.77Z"/><path class="cls-2" d="M244.45,185.03v13.98c0,6.15-5.33,11.13-11.91,11.13H50.36c-6.58,0-11.91-4.98-11.91-11.13v-14.01"/><g><path class="cls-1" d="M208.66,124.75c0,13.18-10.68,23.86-23.86,23.86s-23.86-10.68-23.86-23.86,10.68-23.86,23.86-23.86,23.86,10.68,23.86,23.86Z"/><path class="cls-1" d="M134.28,184.62c0-17.05,22.62-30.87,50.52-30.87,27.91,0,50.52,13.82,50.52,30.87"/></g><g><path d="M57.53,133.19v34.92h-2.66v-34.92h2.66Z"/><path d="M66.88,133.19v34.92h-2.66v-34.92h2.66Z"/><path d="M76.23,133.19v34.92h-2.66v-34.92h2.66Z"/><path d="M85.58,133.19v34.92h-2.66v-34.92h2.66Z"/><path d="M94.93,133.19v34.92h-2.66v-34.92h2.66Z"/><path d="M104.27,133.19v34.92h-2.66v-34.92h2.66Z"/><path d="M113.62,133.19v34.92h-2.66v-34.92h2.66Z"/><path d="M122.97,133.19v34.92h-2.66v-34.92h2.66Z"/></g></g></svg>