<?xml version="1.0" encoding="UTF-8"?><svg xmlns="http://www.w3.org/2000/svg" width="40px" height="40px" viewBox="0 0 282.23 282.23"><defs><style>.cls-1{fill:#00326e;}.cls-2{fill:#ED9B27;}.cls-3{fill:#fff;opacity:.85;}</style></defs><g id="_0326E"><circle class="cls-1" cx="141.12" cy="141.12" r="141.12" transform="translate(-58.45 141.12) rotate(-45)"/></g><g id="C"><path class="cls-3" d="M38.6,92.77c0-6.15,5.34-11.13,11.91-11.13H232.7c6.58,0,11.91,4.99,11.91,11.13v106.24c0,6.15-5.33,11.13-11.91,11.13H50.51c-6.58,0-11.91-4.98-11.91-11.13V92.77Z"/><path class="cls-2" d="M244.61,185.38v13.98c0,6.15-5.33,11.13-11.91,11.13H50.51c-6.58,0-11.91-4.98-11.91-11.13v-14.01"/><g><path class="cls-1" d="M208.81,125.1c0,13.18-10.68,23.86-23.86,23.86s-23.86-10.68-23.86-23.86,10.68-23.86,23.86-23.86,23.86,10.68,23.86,23.86Z"/><path class="cls-1" d="M134.43,184.97c0-17.05,22.62-30.87,50.52-30.87,27.91,0,50.52,13.82,50.52,30.87"/></g><g><path d="M57.68,132.54v34.92h-2.66v-34.92h2.66Z"/><path d="M67.03,132.54v34.92h-2.66v-34.92h2.66Z"/><path d="M76.38,132.54v34.92h-2.66v-34.92h2.66Z"/><path d="M85.73,132.54v34.92h-2.66v-34.92h2.66Z"/><path d="M95.08,132.54v34.92h-2.66v-34.92h2.66Z"/><path d="M104.43,132.54v34.92h-2.66v-34.92h2.66Z"/><path d="M113.78,132.54v34.92h-2.66v-34.92h2.66Z"/><path d="M123.13,132.54v34.92h-2.66v-34.92h2.66Z"/></g></g></svg>