<?xml version="1.0" encoding="UTF-8"?><svg xmlns="http://www.w3.org/2000/svg" width="40px" height="40px" viewBox="0 0 282.23 282.23"><defs><style>.cls-1{fill:#00326e;}.cls-2,.cls-3{fill:#36aadc;}.cls-4{fill:#fff;stroke:#00326e;stroke-width:3px;}.cls-4,.cls-5,.cls-6,.cls-3{stroke-miterlimit:10;}.cls-5{stroke-width:7px;}.cls-5,.cls-6{fill:none;}.cls-5,.cls-6,.cls-3{stroke:#36aadc;stroke-linecap:round;}.cls-6{stroke-width:18px;}.cls-3{stroke-width:10px;}</style></defs><g id="_0326E"><circle class="cls-1" cx="141.12" cy="141.12" r="141.12" transform="translate(-58.45 141.12) rotate(-45)"/></g><g id="C"><circle class="cls-3" cx="157.34" cy="144.1" r="57.41"/><path class="cls-1" d="M217.74,201.5l-29.45-26.03-37.18-64.82h95.65v80.5c0,2.08-26.83,10.58-29.02,10.34Z"/><line class="cls-6" x1="152.85" y1="195.48" x2="141.05" y2="247.38"/><line class="cls-5" x1="203.03" y1="63.8" x2="151.59" y2="144.1"/><line class="cls-5" x1="98.93" y1="72.49" x2="150.59" y2="143.1"/><line class="cls-5" x1="142.68" y1="34.03" x2="157.34" y2="138.69"/><line class="cls-5" x1="151.59" y1="144.1" x2="32.67" y2="145.52"/><line class="cls-5" x1="151.59" y1="144.1" x2="72.71" y2="206.26"/><circle class="cls-1" cx="164.83" cy="144.01" r="54.13"/><g><path class="cls-4" d="M179.7,132.14c-2.9-2.45-5.99-3.66-9.27-3.64-1.81,.02-3.3,.45-4.49,1.28-1.26,.9-1.88,2.01-1.85,3.31,.02,1.92,1.22,3.33,3.6,4.21,2.83,.97,5.67,1.94,8.52,2.89,3.18,1.21,5.76,2.7,7.73,4.46,2.33,2.12,3.56,5.44,3.71,9.98-.52,8.75-3.35,14.29-8.48,16.65-4.92,2.26-9.17,3.29-12.76,3.1-4.87-.24-8.76-.95-11.66-2.14-3.26-1.28-5.82-2.63-7.7-4.03l6.13-11.48c3.97,3.68,8.21,5.58,12.73,5.7,1.85,.05,3.42-.39,4.71-1.32,1.38-1,2.11-2.39,2.21-4.17-.14-2.78-2.74-4.85-7.81-6.2-2.19-.57-4.38-1.26-6.59-2.07-2.35-.86-4.22-1.96-5.6-3.31-1.5-1.45-2.48-3.11-2.96-4.99-.43-1.71-.63-3.48-.61-5.31,.12-5.66,1.9-10.14,5.35-13.46,3.45-3.31,8.01-4.98,13.69-5.01,6.15-.02,11.86,1.49,17.11,4.53l-5.7,11.01Z"/><path class="cls-4" d="M203.03,118.06h14.22v54.93h-14.22v-54.93Z"/></g><circle class="cls-2" cx="91.13" cy="61.82" r="8.5"/><circle class="cls-2" cx="140.55" cy="19.88" r="8.5"/><circle class="cls-2" cx="18.66" cy="145.58" r="8.5"/><circle class="cls-2" cx="62.2" cy="214.54" r="8.5"/><circle class="cls-2" cx="209.75" cy="53.03" r="8.5"/></g></svg>