<?xml version="1.0" encoding="UTF-8"?><svg xmlns="http://www.w3.org/2000/svg" width="40px" height="40px" viewBox="0 0 282.23 282.23"><defs><style>.cls-1{fill:#00326e;}.cls-2{fill:#369;}.cls-3{fill:#e68925;}.cls-4{fill:#fff;opacity:.85;}</style></defs><g id="_0326E"><path class="cls-1" d="M141.12,0c77.94,0,141.12,63.18,141.12,141.12s-63.18,141.12-141.12,141.12S0,219.05,0,141.12,63.18,0,141.12,0Z"/></g><g id="C"><path class="cls-4" d="M39.52,92.77c0-6.15,5.34-11.13,11.91-11.13H233.61c6.58,0,11.91,4.99,11.91,11.13v106.24c0,6.15-5.33,11.13-11.91,11.13H51.43c-6.58,0-11.91-4.98-11.91-11.13V92.77Z"/><path class="cls-2" d="M245.53,185.03v13.98c0,6.15-5.33,11.13-11.91,11.13H51.43c-6.58,0-11.91-4.98-11.91-11.13v-14.01"/><g><path class="cls-1" d="M209.73,124.75c0,13.18-10.68,23.86-23.86,23.86s-23.86-10.68-23.86-23.86c0-13.18,10.68-23.86,23.86-23.86s23.86,10.68,23.86,23.86Z"/><path class="cls-1" d="M135.35,184.62c0-17.05,22.62-30.87,50.52-30.87,27.91,0,50.52,13.82,50.52,30.87"/></g><g><path class="cls-3" d="M58.6,133.19v34.92h-2.66v-34.92h2.66Z"/><path class="cls-3" d="M67.95,133.19v34.92h-2.66v-34.92h2.66Z"/><path class="cls-3" d="M77.3,133.19v34.92h-2.66v-34.92h2.66Z"/><path class="cls-3" d="M86.65,133.19v34.92h-2.66v-34.92h2.66Z"/><path class="cls-3" d="M96,133.19v34.92h-2.66v-34.92h2.66Z"/><path class="cls-3" d="M105.35,133.19v34.92h-2.66v-34.92h2.66Z"/><path class="cls-3" d="M114.7,133.19v34.92h-2.66v-34.92h2.66Z"/><path class="cls-3" d="M124.05,133.19v34.92h-2.66v-34.92h2.66Z"/></g></g></svg>