<?xml version="1.0" encoding="utf-8"?>
<!-- Generator: Adobe Illustrator 23.0.2, SVG Export Plug-In . SVG Version: 6.00 Build 0)  -->
<svg version="1.1" xmlns="http://www.w3.org/2000/svg" xmlns:xlink="http://www.w3.org/1999/xlink" x="0px" y="0px"
	 viewBox="-151.544 1209.214 282.232 282.233" enable-background="new -151.544 1209.214 282.232 282.233" xml:space="preserve">
<g id="_x2D_--" display="none">
	<rect x="116.272" y="-356.429" display="inline" fill="#FFFFFF" width="4471.75" height="5688"/>
</g>
<g id="fond" display="none">
	
		<ellipse transform="matrix(0.7071 -0.7071 0.7071 0.7071 -957.8815 388.1289)" display="inline" fill="#21558B" cx="-10.428" cy="1350.33" rx="141.116" ry="141.117"/>
</g>
<g id="_x30_0326E">
	
		<ellipse transform="matrix(0.7071 -0.7071 0.7071 0.7071 -957.8815 388.1289)" fill="#00326E" cx="-10.428" cy="1350.33" rx="141.116" ry="141.117"/>
</g>
<g id="A" display="none">
	<g id="Calque_2" display="inline">
	</g>
	<g id="Calque_7" display="inline">
	</g>
	<g display="inline">
		<path fill="#FFFFFF" d="M-5.83,1349.038l24.238-35.669l99.485-72.68c11.146,3.598,17.095,11.63,17.846,24.099l-99.77,72.673
			L-5.83,1349.038z M7.559,1335.472l3.961,5.212l22.296-6.117c3.288-2.787,4.945-4.869,4.973-6.247
			c0.011-0.57-0.135-0.989-0.437-1.257c-0.306-0.267-0.789-0.408-1.454-0.421c-1.379-0.027-3.771,0.757-7.178,2.353
			c2.905-2.651,4.375-4.88,4.411-6.686c0.018-0.902-0.217-1.584-0.708-2.046c-0.489-0.462-1.258-0.703-2.303-0.724
			c-1.094-0.021-3.342,0.742-6.749,2.29c3.045-2.506,4.587-4.732,4.626-6.682c0.01-0.522-0.125-0.917-0.405-1.185
			c-0.28-0.266-0.729-0.406-1.347-0.419c-2.139-0.042-4.437,0.839-6.898,2.645L7.559,1335.472z M27.149,1311.261
			c0.812-0.174,1.479-0.256,2.002-0.246c1.899,0.038,2.833,0.96,2.797,2.766l-0.085,0.711l59.985-44.086
			c-1.545-1.219-3.071-2.176-4.578-2.872L27.149,1311.261z M33.875,1317.241c2.174,0.566,3.24,1.989,3.195,4.271l60.275-44.295
			c-0.682-1.582-1.652-3.004-2.911-4.265L33.875,1317.241z M39.082,1324.332c0.902,0.065,1.563,0.305,1.983,0.717
			c0.419,0.412,0.622,0.999,0.607,1.759c-0.013,0.666-0.342,1.634-0.985,2.903l59.912-43.944c-0.53-2.054-1.113-3.849-1.748-5.383
			L39.082,1324.332z M100.078,1258.091c7.099,3.943,11.446,10.066,13.04,18.369l18.594-13.535
			c-1.49-8.774-5.886-14.828-13.188-18.158L100.078,1258.091z"/>
	</g>
	<g display="inline" opacity="0.8">
		<path fill="#FFFFFF" d="M-25.258,1268.977v69.873h-72.266v-72.266h69.8c2.437-1.692,4.63-3.125,6.579-4.297l1.404,2.539
			C-21.321,1265.966-23.16,1267.35-25.258,1268.977z M-63.806,1320.734l-2.147,1.416c-1.854,1.205-3.447,2.409-4.78,3.613
			c-0.261-1.172-0.911-3.06-1.952-5.664l-1.073-2.783c-2.439-6.021-4.497-10.229-6.173-12.622s-3.488-3.687-5.439-3.882
			c2.634-2.408,4.943-3.613,6.928-3.613c2.668,0,5.611,3.63,8.832,10.889l1.756,3.906c8.489-15.234,19.776-28.775,33.86-40.625
			h-58.743v62.646h62.598v-60.938c-7.547,6.901-14.337,14.624-20.37,23.169C-56.545,1304.792-60.977,1312.955-63.806,1320.734z"/>
		<path fill="#FFFFFF" d="M-97.523,1440.85v-72.266h72.266v72.266H-97.523z M-92.641,1436.016h62.598v-62.646h-62.598V1436.016z"/>
		<path fill="#FFFFFF" d="M-0.912,1440.85v-72.266h72.266v72.266H-0.912z M3.971,1436.016h62.598v-62.646H3.971V1436.016z"/>
	</g>
</g>
<g id="B" display="none">
</g>
<g id="B_bis">
	<g opacity="0.9">
		<g>
			<path fill="#F8F8F8" d="M-38.166,1430.557l13.516-48.469c-9.5-3.561-17.291-8.621-23.368-15.184
				c-5.977-6.379-9.949-13.951-11.915-22.712c-1.907-8.438-1.5-17.526,1.215-27.263c2.557-9.171,7.246-16.987,14.067-23.451
				c6.859-6.602,14.99-10.949,24.395-13.042c9.583-2.193,19.032-1.993,28.345,0.604c9.736,2.715,17.834,7.482,24.298,14.303
				c6.765,7.361,11.106,15.797,13.018,25.301c2.075,10.01,1.736,19.951-1.017,29.826c-4.447,15.947-11.441,30.114-20.978,42.51
				c-9.58,12.534-20.917,22.375-34.01,29.523C-17.779,1426.433-26.969,1429.118-38.166,1430.557z"/>
		</g>
	</g>
</g>
<g id="C">
</g>
<g id="titres">
</g>
<g id="réserve" display="none">
</g>
</svg>
