<?xml version="1.0" encoding="utf-8"?>
<!-- Generator: Adobe Illustrator 23.0.2, SVG Export Plug-In . SVG Version: 6.00 Build 0)  -->
<svg version="1.1" xmlns="http://www.w3.org/2000/svg" xmlns:xlink="http://www.w3.org/1999/xlink" x="0px" y="0px"
	 width="40px" height="40px" viewBox="754.682 1209.214 282.232 282.233" enable-background="new 754.682 1209.214 282.232 282.233" xml:space="preserve">
<g id="_x2D_--" display="none">
	<rect x="116.272" y="-356.429" display="inline" fill="#FFFFFF" width="4471.75" height="5688"/>
</g>
<g id="fond" display="none">
	
		<ellipse transform="matrix(0.7071 -0.7071 0.7071 0.7071 -692.4543 1028.9268)" display="inline" fill="#21558B" cx="895.797" cy="1350.33" rx="141.116" ry="141.117"/>
</g>
<g id="_x30_0326E">
	
		<ellipse transform="matrix(0.7071 -0.7071 0.7071 0.7071 -692.4543 1028.9268)" fill="#00326E" cx="895.797" cy="1350.33" rx="141.116" ry="141.117"/>
</g>
<g id="A" display="none">
	<g display="inline">
		<path fill="#FFFFFF" d="M956.667,1434.653h-22.124v22.236H812.58v-166.211h22.124v-22.236h22.236v-22.124h121.851v166.211h-22.124
			V1434.653z M929.04,1296.182H818.083v155.205H929.04V1296.182z M840.207,1273.945v16.733h94.336v138.472h16.621v-155.205H840.207z
			 M862.443,1251.821v16.621h94.224v138.584h16.621v-155.205H862.443z"/>
	</g>
	<g display="inline">
		<path fill="#FFFFFF" d="M873.001,1389.369c8.285,0,15.731-2.688,22.34-8.063c3.359,1.457,5.905,2.577,7.643,3.359
			c1.734,0.785,4.058,1.905,6.971,3.359c2.91,1.457,5.149,2.717,6.719,3.779c1.566,1.065,3.386,2.435,5.459,4.115
			c2.07,1.68,3.582,3.275,4.535,4.787c0.95,1.512,1.764,3.275,2.435,5.291c0.672,2.016,1.008,4.145,1.008,6.383v42.612H815.892
			v-42.612c0.336-3.582,1.23-6.829,2.688-9.742c1.454-2.91,3.134-5.375,5.039-7.391c1.902-2.016,4.478-3.974,7.727-5.879
			c3.246-1.902,6.131-3.443,8.65-4.619c2.52-1.176,5.795-2.546,9.826-4.115C856.54,1386.459,864.267,1389.369,873.001,1389.369z
			 M872.917,1320.166c-8.231,0-15.259,2.913-21.08,8.734c-5.824,5.824-8.734,12.879-8.734,21.164c0,8.288,2.91,15.343,8.734,21.164
			c5.821,5.824,12.85,8.734,21.08,8.734c8.23,0,15.285-2.91,21.164-8.734c5.879-5.821,8.818-12.876,8.818-21.164
			c0-8.285-2.939-15.34-8.818-21.164C888.202,1323.079,881.147,1320.166,872.917,1320.166z"/>
	</g>
	<g id="Calque_2" display="inline">
	</g>
	<g id="Calque_7" display="inline">
	</g>
</g>
<g id="B" display="none">
</g>
<g id="B_bis">
	
		<rect x="801.96" y="1272.217" fill="#00326E" stroke="#FFFFFF" stroke-width="2" stroke-miterlimit="10" width="79.828" height="101.884"/>
	
		<rect x="817.96" y="1284.217" fill="#00326E" stroke="#FFFFFF" stroke-width="2" stroke-miterlimit="10" width="79.828" height="101.884"/>
	
		<rect x="834.96" y="1298.217" fill="#00326E" stroke="#FFFFFF" stroke-width="2" stroke-miterlimit="10" width="79.828" height="101.884"/>
	<g>
		<path fill="#FFFFFF" d="M873.035,1348.331c4.191,0,7.957-1.359,11.3-4.078c1.699,0.736,2.987,1.304,3.865,1.699
			c0.878,0.396,2.053,0.964,3.526,1.699c1.473,0.736,2.604,1.374,3.398,1.912c0.793,0.538,1.713,1.231,2.761,2.081
			s1.813,1.657,2.295,2.421c0.48,0.766,0.892,1.657,1.231,2.677s0.51,2.096,0.51,3.229v29.142h-57.773v-29.142
			c0.17-1.813,0.623-3.454,1.359-4.928c0.735-1.473,1.585-2.719,2.549-3.738c0.963-1.02,2.265-2.01,3.908-2.974
			c1.643-0.963,3.101-1.742,4.376-2.336c1.273-0.596,2.931-1.288,4.97-2.082C864.709,1346.858,868.617,1348.331,873.035,1348.331z
			 M872.993,1313.327c-4.164,0-7.719,1.474-10.663,4.418c-2.945,2.945-4.418,6.514-4.418,10.705c0,4.192,1.473,7.761,4.418,10.705
			c2.944,2.945,6.499,4.418,10.663,4.418c4.162,0,7.73-1.473,10.705-4.418c2.973-2.944,4.46-6.513,4.46-10.705
			c0-4.191-1.487-7.76-4.46-10.705C880.724,1314.801,877.155,1313.327,872.993,1313.327z"/>
	</g>
	<g>
		<g>
			<path fill="#ED9B27" d="M962.133,1322.963c5.853,3.633,10.191,8.437,13.018,14.41c0.727,1.292,1.312,2.706,1.756,4.238
				c0.443,1.534,0.787,2.927,1.029,4.178c0.242,1.253,0.424,2.827,0.545,4.723c0.121,1.897,0.182,3.351,0.182,4.359
				c0,1.011,0,2.585,0,4.723c0,2.14,0,3.572,0,4.299c0.727,0,1.896,0,3.512,0c1.614,0,2.664,0,3.148,0c0.161,0,0.403,0,0.727,0
				c0.969,0,1.614,0.121,1.938,0.363c0.322,0.242,0.443,0.929,0.363,2.059c0,5.976,0,14.694,0,26.156c0,11.464,0,20.183,0,26.156
				c-0.081,0.405-0.081,1.05,0,1.938c0.08,0.89,0.061,1.635-0.061,2.24s-0.505,1.029-1.15,1.271h-85.371
				c-0.404-0.081-1.07-0.081-1.998,0c-0.929,0.079-1.695,0.061-2.301-0.061s-0.989-0.505-1.15-1.15v-53.645c0-2.18,0-3.349,0-3.512
				c-0.081-0.646-0.041-1.108,0.121-1.393c0.161-0.282,0.524-0.424,1.09-0.424c0.646,0,1.574,0,2.785,0s2.32,0,3.33,0
				c1.009,0,1.998,0,2.967,0c0-1.211-0.021-3.027-0.061-5.449c-0.041-2.422-0.041-4.62,0-6.6c0.04-1.978,0.182-3.814,0.424-5.51
				c1.291-8.071,5.287-14.913,11.988-20.525c6.7-5.61,14.168-8.335,22.402-8.174c0.646-0.079,1.291-0.121,1.938-0.121
				C950.003,1317.514,956.279,1319.33,962.133,1322.963z M941.365,1329.26c-4.198-0.079-8.174,0.989-11.928,3.209
				c-3.754,2.222-6.6,5.188-8.537,8.9c-0.889,1.616-1.574,3.433-2.059,5.449c-0.484,2.019-0.747,3.754-0.787,5.207
				c-0.041,1.453-0.041,3.451,0,5.994c0.04,2.543,0.061,4.38,0.061,5.51h48.922c-0.081-1.211-0.102-3.007-0.061-5.389
				c0.04-2.38,0.04-4.299,0-5.752c-0.041-1.453-0.263-3.167-0.666-5.146c-0.404-1.978-1.01-3.772-1.816-5.389
				c-1.938-3.954-4.864-7.063-8.779-9.324c-3.916-2.259-8.094-3.391-12.533-3.391C942.535,1329.139,941.93,1329.181,941.365,1329.26
				z M942.334,1379.029c-2.18,0-4.117,0.687-5.813,2.059c-1.05,0.727-1.857,1.655-2.422,2.785c-0.969,1.534-1.453,3.19-1.453,4.965
				c0,1.776,0.464,3.411,1.393,4.904c0.928,1.495,2.159,2.646,3.693,3.451c0,0.565-0.081,1.171-0.242,1.816l-2.422,11.262h13.926
				l-2.422-11.867c-0.081-0.321-0.121-0.646-0.121-0.969c1.614-0.727,2.946-1.877,3.996-3.451c1.049-1.574,1.574-3.288,1.574-5.146
				c0-2.743-1.05-5.044-3.148-6.902c-1.534-1.938-3.512-2.906-5.934-2.906C942.697,1379.029,942.495,1379.029,942.334,1379.029z"/>
		</g>
	</g>
</g>
<g id="C">
</g>
<g id="titres">
</g>
<g id="réserve" display="none">
</g>
</svg>
