<?xml version="1.0" encoding="utf-8"?>
<!-- Generator: Adobe Illustrator 23.0.2, SVG Export Plug-In . SVG Version: 6.00 Build 0)  -->
<svg version="1.1" xmlns="http://www.w3.org/2000/svg" xmlns:xlink="http://www.w3.org/1999/xlink" x="0px" y="0px"
	 width="40px" height="40px" viewBox="-149.079 -1812.768 283.465 283.465" enable-background="new -149.079 -1812.768 283.465 283.465" xml:space="preserve">
<g id="_x2D_--" display="none">
</g>
<g id="fond" display="none">
	<path display="inline" fill="#21558B" d="M-6.731-1811.533c77.938,0,141.117,63.18,141.117,141.115
		c0,77.938-63.18,141.117-141.117,141.117c-77.935,0-141.115-63.18-141.115-141.117
		C-147.846-1748.354-84.667-1811.533-6.731-1811.533z"/>
</g>
<g id="_x30_0326E">
	<path fill="#00326E" d="M-6.731-1811.533c77.938,0,141.117,63.18,141.117,141.115c0,77.938-63.18,141.117-141.117,141.117
		c-77.935,0-141.115-63.18-141.115-141.117C-147.846-1748.354-84.667-1811.533-6.731-1811.533z"/>
</g>
<g id="A" display="none">
	<g id="Calque_2" display="inline">
	</g>
	<g id="Calque_7" display="inline">
	</g>
</g>
<g id="B" display="none">
	<g display="inline" opacity="0.5">
		<path fill="#FFFFFF" d="M-10.085-1707.423c5.78,0,10.976-1.875,15.586-5.625c2.344,1.016,4.12,1.798,5.332,2.344
			c1.21,0.547,2.831,1.329,4.863,2.344c2.03,1.016,3.593,1.895,4.688,2.637c1.093,0.743,2.362,1.699,3.809,2.871
			c1.444,1.172,2.499,2.285,3.164,3.34c0.663,1.055,1.23,2.285,1.699,3.691s0.703,2.891,0.703,4.453v40.195h-79.688v-40.195
			c0.234-2.5,0.858-4.765,1.875-6.797c1.015-2.031,2.187-3.75,3.516-5.156c1.327-1.406,3.124-2.772,5.391-4.102
			c2.265-1.328,4.277-2.402,6.035-3.223s4.043-1.776,6.855-2.871C-21.57-1709.454-16.179-1707.423-10.085-1707.423z
			 M-10.144-1755.704c-5.742,0-10.646,2.032-14.707,6.094c-4.063,4.063-6.094,8.985-6.094,14.766c0,5.782,2.03,10.704,6.094,14.766
			c4.062,4.063,8.965,6.094,14.707,6.094s10.664-2.031,14.766-6.094c4.102-4.062,6.152-8.983,6.152-14.766
			c0-5.781-2.051-10.703-6.152-14.766C0.52-1753.672-4.402-1755.704-10.144-1755.704z"/>
	</g>
	<g display="inline" opacity="0.9">
		<path fill="#FFFFFF" d="M-74.811-1669.56c7.226,0,13.719-2.344,19.482-7.031c2.93,1.271,5.149,2.248,6.665,2.93
			c1.513,0.685,3.538,1.662,6.079,2.93c2.538,1.271,4.49,2.369,5.859,3.296c1.366,0.929,2.952,2.124,4.761,3.589
			c1.806,1.465,3.124,2.856,3.955,4.175c0.828,1.318,1.538,2.856,2.124,4.614s0.879,3.614,0.879,5.566v50.244h-99.609v-50.244
			c0.293-3.124,1.073-5.956,2.344-8.496c1.268-2.538,2.732-4.688,4.395-6.445c1.659-1.758,3.904-3.465,6.738-5.127
			c2.831-1.659,5.347-3.003,7.544-4.028s5.054-2.22,8.569-3.589C-89.167-1672.098-82.428-1669.56-74.811-1669.56z M-74.884-1729.911
			c-7.178,0-13.308,2.541-18.384,7.617c-5.079,5.079-7.617,11.231-7.617,18.457c0,7.228,2.538,13.38,7.617,18.457
			c5.076,5.079,11.206,7.617,18.384,7.617s13.33-2.538,18.457-7.617c5.127-5.077,7.69-11.229,7.69-18.457
			c0-7.226-2.563-13.378-7.69-18.457C-61.554-1727.371-67.707-1729.911-74.884-1729.911z"/>
	</g>
	<g display="inline" opacity="0.9">
		<path fill="#FFFFFF" d="M57.086-1668.108c6.663,0,12.651-2.329,17.965-6.986c2.702,1.262,4.749,2.233,6.146,2.911
			c1.395,0.68,3.263,1.651,5.605,2.911c2.341,1.262,4.141,2.354,5.403,3.275c1.26,0.923,2.723,2.11,4.39,3.566
			c1.665,1.456,2.881,2.838,3.647,4.148c0.764,1.31,1.418,2.838,1.958,4.584c0.541,1.747,0.811,3.591,0.811,5.531v49.922H11.159
			v-49.922c0.27-3.104,0.99-5.917,2.161-8.441c1.169-2.522,2.52-4.658,4.052-6.404c1.53-1.746,3.601-3.443,6.214-5.094
			c2.611-1.649,4.93-2.984,6.957-4.002c2.026-1.019,4.66-2.206,7.902-3.566C43.848-1670.63,50.062-1668.108,57.086-1668.108z
			 M57.018-1728.073c-6.619,0-12.271,2.524-16.952,7.568c-4.684,5.046-7.024,11.159-7.024,18.338c0,7.182,2.34,13.295,7.024,18.339
			c4.681,5.046,10.333,7.568,16.952,7.568c6.619,0,12.292-2.522,17.02-7.568c4.728-5.044,7.092-11.157,7.092-18.339
			c0-7.179-2.364-13.292-7.092-18.338C69.311-1725.548,63.637-1728.073,57.018-1728.073z"/>
	</g>
</g>
<g id="B_bis">
</g>
<g id="C">
	<g>
		<path fill="#ED9B27" d="M-79.27-1767.911c1.658,0.034,3.063,0.618,4.215,1.752c1.15,1.135,1.727,2.531,1.727,4.189
			c0,1.523-0.551,2.878-1.65,4.063c-1.101,1.186-2.497,1.777-4.189,1.777c-1.727,0-3.141-0.601-4.24-1.803
			c-1.101-1.201-1.65-2.547-1.65-4.037c0.033-1.76,0.66-3.19,1.879-4.291C-81.961-1767.36-80.659-1767.911-79.27-1767.911z
			 M-83.333-1743.586h8.227v48.75h-8.227V-1743.586z"/>
		<path fill="#ED9B27" d="M-56.695-1694.836v-48.75h8.125v5.84h0.356c3.458-4.705,8.104-7.092,13.937-7.16
			c11.055-0.135,16.582,6.687,16.582,20.465v29.605h-8.227v-29.148c0-9.005-3.444-13.457-10.332-13.355
			c-4.581,0.068-7.778,1.625-9.594,4.672s-2.723,7.347-2.723,12.898v24.934H-56.695z"/>
		<path fill="#ED9B27" d="M-5.377-1743.586h9.346l14.559,32.874l14.71-32.874h9.222l-23.817,51.847L-5.377-1743.586z"/>
		<path fill="#ED9B27" d="M58.127-1699.254c0-1.591,0.55-2.953,1.65-4.088c1.1-1.134,2.445-1.684,4.037-1.65
			c1.625,0.034,2.996,0.593,4.113,1.676c1.117,1.084,1.692,2.438,1.727,4.063c0.033,1.592-0.517,2.912-1.65,3.961
			c-1.135,1.049-2.497,1.625-4.088,1.727c-1.592-0.102-2.954-0.686-4.088-1.752C58.694-1696.385,58.127-1697.697,58.127-1699.254z"
			/>
	</g>
	<path opacity="0.85" fill="#FFFFFF" d="M23.469-1645.939c0-16.997-13.779-30.776-30.776-30.776
		c-16.997,0-30.776,13.779-30.776,30.776c0,11.877,6.733,22.176,16.586,27.307l-16.231,58.919l60.842,0.934l-16.456-59.737
		C16.633-1623.607,23.469-1633.971,23.469-1645.939z"/>
</g>
<g id="titres">
</g>
<g id="réserve" display="none">
	<g display="inline" opacity="0.8">
		<path fill="#FFFFFF" d="M-89.63-1699.364v61.035h-24.414v-61.035H-89.63z M39.887-1699.364v98.633H-82.062v-98.633H39.887z
			 M-21.026-1723.778c0,6.756-2.381,12.512-7.141,17.273c-4.762,4.761-10.52,7.141-17.273,7.141c-6.756,0-12.512-2.38-17.273-7.141
			c-4.76-4.761-7.141-10.517-7.141-17.273c0-6.754,2.381-12.512,7.141-17.273c4.762-4.761,10.518-7.141,17.273-7.141
			c6.754,0,12.512,2.38,17.273,7.141C-23.407-1736.291-21.026-1730.532-21.026-1723.778z M33.295-1723.778
			c0,6.756-2.38,12.512-7.142,17.273c-4.76,4.761-10.519,7.141-17.272,7.141c-6.756,0-12.513-2.38-17.272-7.141
			c-4.762-4.761-7.142-10.517-7.142-17.273c0-6.754,2.38-12.512,7.142-17.273c4.76-4.761,10.517-7.141,17.272-7.141
			c6.754,0,12.513,2.38,17.272,7.141C30.915-1736.291,33.295-1730.532,33.295-1723.778z M52.216-1674.95l36.621-30.518v110.229
			l-36.621-30.884V-1674.95z"/>
	</g>
</g>
</svg>
