<?xml version="1.0" encoding="UTF-8"?><svg xmlns="http://www.w3.org/2000/svg" width="40px" height="40px" viewBox="0 0 282.23 282.23"><g id="_00326E"><circle cx="141.12" cy="141.12" r="141.12" transform="translate(-58.45 141.12) rotate(-45)" style="fill:#00326e;"/></g><g id="C"><rect x="60.37" y="89.8" width="167.74" height="135.57" style="fill:#ED9B27;"/><polygon points="226.65 89.04 61.67 89.8 93.54 43.85 196.14 43.85 226.65 89.04" style="fill:none; stroke:#f9f8f7; stroke-miterlimit:10; stroke-width:2px;"/><line x1="106.09" y1="66.83" x2="184.99" y2="66.83" style="fill:none; stroke:#fcfcfc; stroke-miterlimit:10; stroke-width:5px;"/><path d="m99.06,122.78h4.12c7.55,0,11.32,5.95,11.32,17.86v1.76c-1.74,2.42-3.31,5.41-4.72,8.96.28,3.19,1.86,4.78,4.72,4.78h4.18c2.7,2.91,4.7,5.87,5.99,8.9l-1.21.61h-8.96c-3.59,2.26-7.75,7.81-12.47,16.65h-7.75c-8.76,0-15.12-1.37-19.07-4.12,0-9.48,2.58-16.83,7.75-22.04h7.75c1.01,0,2-1.59,2.97-4.78-3.59-5.69-5.39-9.06-5.39-10.11v-1.21c0-.89.2-1.67.61-2.36-.4-.73-.61-1.53-.61-2.42v-.61c0-7.91,3.59-11.87,10.78-11.87Zm44.08.54c12.31,0,18.47,5.97,18.47,17.92v.54l-.61,4.18c.77.12,1.15.52,1.15,1.21v3.57c0,1.37-2.38,5.73-7.14,13.08,0,5.17,1.79,7.75,5.39,7.75h9.51c7.14,7.51,10.72,17.05,10.72,28.64v2.97c-1.13,3.39-13.04,5.57-35.72,6.54h-5.93c-18.08,0-29-2.18-32.76-6.54v-1.21c0-13.68,3.57-23.61,10.72-29.79h7.75c4.76,0,7.14-2.38,7.14-7.14h.61c-5.57-8.19-8.36-13.95-8.36-17.26v-1.21l1.15-.61-.54-4.18v-4.12c0-8.19,6.15-12.98,18.47-14.35Zm39.29,2.42h2.97c8.76,0,13.14,5.75,13.14,17.26v5.93c0,.81-.4,1.21-1.21,1.21h-3.57c0,1.98-1.6,3.77-4.78,5.39,0,3.15,2.18,4.72,6.54,4.72,5.97,0,8.96,3.19,8.96,9.57v5.93c0,1.86-7.14,3.25-21.43,4.18-2.1-5.53-5.67-10.49-10.72-14.89h-7.14c0-3.55,4.16-5.33,12.47-5.33l.61-4.18c-2.79-2.14-4.18-3.94-4.18-5.39h-3.57c-.77,0-1.15-.4-1.15-1.21v-6.54c0-11.1,4.36-16.65,13.08-16.65Z" style="fill:#00326e;"/></g></svg>