<?xml version="1.0" encoding="UTF-8"?><svg xmlns="http://www.w3.org/2000/svg" width="40px" height="40px" viewBox="0 0 282.23 282.23"><g id="_00326E"><circle cx="141.12" cy="141.12" r="141.12" transform="translate(-58.45 141.12) rotate(-45)" style="fill:#00326e;"/></g><g id="C"><path d="m28.32,92.15c0-7.31,2.56-13.47,7.67-18.48,5.01-4.88,11.15-7.35,18.43-7.41,2.91-.03,5.84.49,8.79,1.57,2.64.98,4.71,2.08,6.2,3.3v10.92c-4.06-5.08-9.16-7.82-15.29-8.23-5.08.17-9.24,1.95-12.49,5.33-3.25,3.39-4.88,7.62-4.88,12.7s1.54,9.5,4.62,12.85c3.15,3.45,7.29,5.26,12.44,5.43,6.97-.44,12.27-3.25,15.89-8.43v11.02c-1.62,1.22-3.71,2.3-6.25,3.25-2.84,1.12-5.89,1.66-9.14,1.62-7.25-.03-13.39-2.42-18.43-7.16-5.04-4.74-7.57-10.83-7.57-18.28Z" style="fill:#c89109;"/><path d="m83.65,67.57h8.23v27.98c0,4.6.69,8.11,2.08,10.51,1.52,2.67,4.54,4.03,9.04,4.06,4.13.03,7.02-1.17,8.68-3.61,1.56-2.3,2.34-5.84,2.34-10.61v-28.34h8.23v29.15c0,13.88-6.38,20.84-19.14,20.87-12.97,0-19.45-6.96-19.45-20.87v-29.15Z" style="fill:#c89109;"/><path d="m144.32,43.25c1.66.03,3.06.62,4.21,1.75,1.15,1.13,1.73,2.53,1.73,4.19,0,1.49-.54,2.84-1.62,4.04-1.08,1.2-2.49,1.8-4.21,1.8s-3.14-.6-4.24-1.8c-1.1-1.2-1.65-2.55-1.65-4.04.03-1.76.64-3.19,1.83-4.29,1.18-1.1,2.5-1.65,3.96-1.65Zm-4.06,24.32h8.23v66.12h-8.23v-66.12Z" style="fill:#c89109;"/><path d="m207.32,67.57v48.75h-8.23v-6.7h-.2c-1.79,2.3-4.06,4.18-6.8,5.64-3.01,1.59-6.31,2.37-9.9,2.34-7.28-.1-13.02-2.67-17.21-7.72-4.2-5.04-6.3-11.02-6.3-17.93s2.13-13.23,6.4-18.15,9.97-7.44,17.11-7.54c3.18-.03,6.28.71,9.29,2.23,2.88,1.46,5.35,3.49,7.41,6.09h.2v-7.01h8.23Zm-40.22,23.97c0,5.18,1.42,9.55,4.27,13.1,2.91,3.66,6.89,5.48,11.93,5.48s8.72-1.72,11.73-5.15c3.01-3.44,4.52-7.91,4.52-13.43,0-4.77-1.41-8.89-4.21-12.34-2.95-3.59-6.99-5.38-12.14-5.38-4.67,0-8.52,1.72-11.55,5.15-3.03,3.44-4.54,7.63-4.54,12.57Z" style="fill:#c89109;"/><path d="m237.57,66.25c2.74-.03,5.33.81,7.77,2.54,2.27,1.66,4.01,3.79,5.23,6.4l-6.86,3.66c-1.69-3.38-3.91-5.06-6.65-5.03-1.66.03-3.1.59-4.32,1.68-1.22,1.08-1.83,2.34-1.83,3.76.03,2.1,1.44,3.96,4.21,5.59,1.02.61,3.33,1.59,6.96,2.95,2.95,1.12,5.57,2.71,7.87,4.77,2.37,2.17,3.57,5.28,3.61,9.34.03,4.2-1.47,7.84-4.52,10.92-3.12,3.18-7.11,4.77-11.98,4.77s-8.58-1.34-11.63-4.01c-2.81-2.44-4.66-5.15-5.54-8.12l7.26-3.1c.74,1.62,1.79,3.28,3.15,4.98,1.46,1.83,3.74,2.76,6.86,2.79,2.64,0,4.65-.8,6.02-2.41,1.37-1.61,2.02-3.33,1.96-5.15-.07-2.47-1.37-4.59-3.91-6.35-1.39-.91-3.78-2.01-7.16-3.3-2.88-1.08-5.4-2.57-7.57-4.47-2.27-1.96-3.4-4.79-3.4-8.48.03-3.86,1.41-7.09,4.14-9.7,2.72-2.61,6.17-3.94,10.33-4.01Z" style="fill:#c89109;"/><path d="m176.12,165.22c0-17-13.78-30.78-30.78-30.78s-30.78,13.78-30.78,30.78c0,11.88,6.73,22.18,16.59,27.31l-16.23,58.92,60.84.93-16.46-59.74c9.98-5.09,16.81-15.45,16.81-27.42Z" style="fill:#fff; opacity:.85;"/></g></svg>