<svg xmlns="http://www.w3.org/2000/svg" width="40px" height="40px" viewBox="0 0 282.23 282.23">
  <title>Sifac</title>
  <path d="M141.12,0A141.12,141.12,0,1,1,0,141.12,141.12,141.12,0,0,1,141.12,0Z" style="fill: #00326e"/>
  <g>
    <g>
      <path d="M91.63,37.08l6.82,10.18c1.79,2.67,3.27,5.08,4.85,7.74h.22c1.58-2.79,3.16-5.26,4.81-7.82l6.6-10.1h9.42l-16.22,23,16.65,24.57H115l-7-10.68c-1.85-2.77-3.42-5.44-5.09-8.29h-.22c-1.56,2.9-3.19,5.4-5,8.29L90.79,84.62H81.24L98.16,60.36,82,37.08Z" style="fill: #c89108"/>
      <path d="M179.07,36.08v21H200.3v7.36H179.07V85.62h-8.28V64.44H149.57V57.08h21.22v-21Z" style="fill: #c89108"/>
    </g>
    <path d="M139.12,139.53a27.7,27.7,0,0,1,20.37,8.58A28,28,0,0,1,168,168.54a27.1,27.1,0,0,1-8.46,20.12,28.14,28.14,0,0,1-20.43,8.28q-12.45,0-20.48-8t-8-20.48a28,28,0,0,1,8.34-20.49A27.4,27.4,0,0,1,139.12,139.53Z" style="fill: #d1d2d3"/>
    <polygon points="161.86 250.51 116.73 250.51 129.33 188.8 147.79 188.8 161.86 250.51" style="fill: #d1d2d3"/>
    <path d="M255.6,118.82h-50v-6.9h50Zm0,18.47h-50v-6.9h50Z" style="fill: #c89108"/>
    <path d="M25.1,121.08H85.46V130H25.1Z" style="fill: #c89108"/>
    <g>
      <path d="M49.55,106.32c0-3.57,2.41-6.07,5.79-6.07s5.69,2.5,5.69,6.07-2.22,6.08-5.79,6.08C51.87,112.4,49.55,109.79,49.55,106.32Z" style="fill: #c89108"/>
      <path d="M49.55,145.86c0-3.57,2.41-6.08,5.79-6.08S61,142.29,61,145.86s-2.22,6.07-5.79,6.07C51.87,151.93,49.55,149.33,49.55,145.86Z" style="fill: #c89108"/>
    </g>
  </g>
</svg>
