<?xml version="1.0" encoding="utf-8"?>
<!-- Generator: Adobe Illustrator 23.0.2, SVG Export Plug-In . SVG Version: 6.00 Build 0)  -->
<svg version="1.1" xmlns="http://www.w3.org/2000/svg" xmlns:xlink="http://www.w3.org/1999/xlink" x="0px" y="0px"
	 width="40px" height="40px" viewBox="154.229 -1812.768 283.465 283.465" enable-background="new 154.229 -1812.768 283.465 283.465" xml:space="preserve">
<g id="_x2D_--" display="none">
</g>
<g id="fond" display="none">
	
		<ellipse transform="matrix(0.7071 -0.7071 0.7071 0.7071 1268.0288 -279.5426)" display="inline" fill="#21558B" cx="296.577" cy="-1670.417" rx="141.116" ry="141.117"/>
</g>
<g id="_x30_0326E">
	
		<ellipse transform="matrix(0.7071 -0.7071 0.7071 0.7071 1268.0288 -279.5426)" fill="#00326E" cx="296.577" cy="-1670.417" rx="141.116" ry="141.117"/>
</g>
<g id="A" display="none">
	<g id="Calque_2" display="inline">
	</g>
	<g id="Calque_7" display="inline">
	</g>
</g>
<g id="B" display="none">
	<g display="inline" opacity="0.9">
		<path fill="#FFFFFF" d="M335.829-1750.821c6.973-1.57,13.603-1.333,19.893,0.718l-21.123,21.123l0.82,15.381l7.998,7.998
			l15.176,0.82l21.123-21.123c2.186,6.29,2.493,12.92,0.923,19.893c-1.573,6.973-4.89,12.92-9.946,17.842
			c-4.787,4.787-10.356,8.033-16.714,9.741c-6.357,1.711-12.683,1.743-18.97,0.103c-22.424,15.724-41.496,34.386-57.217,55.986
			c2.051,6.29,2.256,12.817,0.615,19.585s-4.922,12.612-9.844,17.534c-5.06,5.06-11.074,8.376-18.047,9.946
			s-13.605,1.263-19.893-0.923l21.123-21.123l-0.82-15.176l-7.998-7.998l-15.176-0.82l-21.123,21.123
			c-2.188-6.287-2.496-12.92-0.923-19.893c1.57-6.973,4.887-12.987,9.946-18.047c5.467-5.467,12.029-8.886,19.688-10.254
			c7.655-1.365,14.833-0.545,21.533,2.461c19.822-14.355,37.459-32.47,52.91-54.346c-2.871-6.697-3.589-13.772-2.153-21.226
			c1.436-7.45,4.819-13.91,10.151-19.38C322.839-1745.932,328.856-1749.248,335.829-1750.821z"/>
	</g>
</g>
<g id="B_bis">
</g>
<g id="C">
	<g>
		<path fill="#ED9B27" d="M235.232-1744.907c2.742-0.033,5.332,0.813,7.77,2.539c2.268,1.659,4.012,3.792,5.23,6.398l-6.855,3.656
			c-1.693-3.385-3.91-5.061-6.652-5.027c-1.659,0.034-3.098,0.593-4.316,1.676c-1.219,1.084-1.828,2.336-1.828,3.758
			c0.033,2.1,1.438,3.961,4.215,5.586c1.016,0.609,3.334,1.592,6.957,2.945c2.945,1.117,5.568,2.709,7.871,4.773
			c2.369,2.167,3.571,5.281,3.605,9.344c0.033,4.198-1.473,7.838-4.52,10.918c-3.115,3.183-7.109,4.773-11.984,4.773
			c-4.706,0-8.582-1.337-11.629-4.012c-2.811-2.438-4.655-5.146-5.535-8.125l7.262-3.098c0.744,1.625,1.794,3.284,3.148,4.977
			c1.455,1.828,3.74,2.76,6.855,2.793c2.641,0,4.646-0.804,6.018-2.412c1.371-1.607,2.022-3.326,1.955-5.154
			c-0.068-2.471-1.371-4.587-3.91-6.348c-1.389-0.914-3.775-2.014-7.16-3.301c-2.878-1.083-5.4-2.572-7.566-4.469
			c-2.269-1.963-3.402-4.79-3.402-8.48c0.033-3.859,1.413-7.092,4.139-9.699C227.623-1743.501,231.068-1744.838,235.232-1744.907z"
			/>
		<path fill="#ED9B27" d="M263.343-1719.008c0-7.313,2.556-13.474,7.668-18.484c5.01-4.875,11.154-7.346,18.434-7.414
			c2.911-0.033,5.84,0.491,8.785,1.574c2.641,0.982,4.705,2.082,6.195,3.301v10.918c-4.063-5.078-9.158-7.82-15.285-8.227
			c-5.078,0.17-9.242,1.947-12.492,5.332c-3.25,3.386-4.875,7.617-4.875,12.695c0,5.214,1.54,9.496,4.621,12.848
			c3.148,3.453,7.295,5.265,12.441,5.434c6.974-0.439,12.271-3.25,15.895-8.43v11.02c-1.625,1.219-3.707,2.303-6.246,3.25
			c-2.844,1.117-5.891,1.658-9.141,1.625c-7.245-0.034-13.39-2.42-18.434-7.16C265.864-1705.466,263.343-1711.56,263.343-1719.008z"
			/>
		<path fill="#ED9B27" d="M367.98-1780.504v85.668h-8.227v-6.703h-0.203c-1.287,1.761-3.335,3.487-6.145,5.18
			c-3.115,1.861-6.754,2.793-10.918,2.793c-6.703,0-12.238-2.479-16.605-7.439c-4.367-4.959-6.551-11.027-6.551-18.205
			c0-7.447,2.217-13.592,6.652-18.434c4.333-4.773,9.868-7.193,16.605-7.262c3.622-0.033,6.923,0.745,9.902,2.336
			c2.844,1.523,5.196,3.521,7.059,5.992h0.203v-43.926H367.98z M327.762-1719.77c-0.034,5.281,1.404,9.699,4.316,13.254
			c2.945,3.69,6.906,5.519,11.883,5.484c5.416-0.033,9.529-1.997,12.34-5.891c2.606-3.656,3.91-7.888,3.91-12.695
			c0-4.638-1.371-8.717-4.113-12.238c-2.878-3.622-6.991-5.45-12.34-5.484c-4.436-0.033-8.201,1.617-11.299,4.951
			C329.361-1729.054,327.795-1724.848,327.762-1719.77z"/>
	</g>
	<path opacity="0.85" fill="#FFFFFF" d="M326.683-1645.939c0-16.997-13.779-30.776-30.776-30.776s-30.776,13.779-30.776,30.776
		c0,11.877,6.733,22.176,16.586,27.307l-16.231,58.919l60.842,0.934l-16.456-59.737
		C319.848-1623.607,326.683-1633.971,326.683-1645.939z"/>
</g>
<g id="titres">
</g>
<g id="réserve" display="none">
	<g display="inline" opacity="0.8">
		<path fill="#FFFFFF" d="M224.279-1577.706c44.334-1.854,89.355-1.854,135.059,0c-3.516,7.324-12.063,11.719-25.635,13.184
			c-3.321,0.392-17.432,0.586-42.334,0.586c-25.587,0-39.063-0.048-40.43-0.146C238.145-1565.449,229.26-1569.99,224.279-1577.706z
			 M344.543-1679.366c10.155-1.561,18.018,0.783,23.584,7.031c4.98,5.47,7.079,12.305,6.299,20.508
			c-0.685,8.302-3.955,14.454-9.814,18.457c-6.643,4.493-14.941,4.64-24.902,0.439c-8.203,21.583-17.432,37.354-27.686,47.314
			h-40.43c-25.781-27.832-36.28-62.695-31.494-104.59c11.719-1.758,28.367-2.49,49.951-2.197c29.1,0.392,46.63,0.49,52.588,0.293
			c1.268,0.783,1.952,2.541,2.051,5.273c0,0.783,0,2.051,0,3.809C344.591-1681.367,344.543-1680.146,344.543-1679.366z
			 M276.574-1601.437c1.073-2.538,0.634-5.663-1.318-9.375c-0.586-1.073-1.563-2.685-2.93-4.834
			c-1.271-1.952-2.149-3.465-2.637-4.541c-5.764-11.229-10.06-24.364-12.891-39.404h-3.955c0,0.293-0.197,0.732-0.586,1.318
			c-0.392,0.49-0.49,1.025-0.293,1.611c0.389,11.037,3.318,22.559,8.789,34.57C266.32-1609.786,271.594-1602.901,276.574-1601.437z
			 M281.555-1717.745c0.194-5.468-3.907-11.133-12.305-16.992c-8.789-6.152-13.575-11.668-14.355-16.553
			c-1.563-10.155,4.688-17.725,18.75-22.705c-0.685,1.563-1.516,3.321-2.49,5.273c-1.172,2.442-1.856,3.809-2.051,4.102
			c-1.271,2.833-1.758,5.617-1.465,8.35c0.682,4.786,5.566,10.451,14.648,16.992c8.789,6.251,13.133,11.769,13.037,16.553
			c-0.099,4.395-2.49,8.253-7.178,11.572c-1.856,1.271-6.397,3.662-13.623,7.178c0.487-1.952,1.806-4.296,3.955-7.031
			C280.431-1713.447,281.456-1715.694,281.555-1717.745z M309.094-1703.976c5.273-5.663,7.324-10.936,6.152-15.82
			c-0.879-3.612-3.809-7.713-8.789-12.305c-7.521-6.933-11.671-10.888-12.451-11.865c-4.006-4.784-5.566-9.521-4.688-14.209
			c1.172-6.347,7.42-11.62,18.75-15.82c-0.685,2.442-1.809,4.688-3.369,6.738c-1.465,1.856-2.296,3.566-2.49,5.127
			c-0.685,4.395,0.535,8.4,3.662,12.012c1.758,1.955,5.321,4.884,10.693,8.789c4.98,3.614,8.35,6.69,10.107,9.229
			c2.637,3.907,3.369,8.35,2.197,13.33c-0.783,3.028-3.369,5.91-7.764,8.643C320.813-1709.931,316.807-1707.88,309.094-1703.976z
			 M342.639-1643.771c5.859,3.809,10.888,4.445,15.088,1.904c3.516-2.245,5.516-6.006,6.006-11.279
			c0.487-5.273-0.831-9.276-3.955-12.012c-3.713-3.223-8.789-3.369-15.234-0.439c0.293,3.126,0.048,6.837-0.732,11.133
			C343.027-1649.776,342.639-1646.21,342.639-1643.771z"/>
	</g>
</g>
</svg>
