<?xml version="1.0" encoding="utf-8"?>
<!-- Generator: Adobe Illustrator 23.0.2, SVG Export Plug-In . SVG Version: 6.00 Build 0)  -->
<svg version="1.1" xmlns="http://www.w3.org/2000/svg" xmlns:xlink="http://www.w3.org/1999/xlink" x="0px" y="0px"
	 width="40px" height="40px" viewBox="754.682 907.139 282.232 282.232" enable-background="new 754.682 907.139 282.232 282.232" xml:space="preserve">
<g id="_x2D_--" display="none">
	<rect x="116.272" y="-356.429" display="inline" fill="#FFFFFF" width="4471.75" height="5688"/>
</g>
<g id="fond" display="none">
	
		<ellipse transform="matrix(0.7071 -0.7071 0.7071 0.7071 -478.8548 940.451)" display="inline" fill="#21558B" cx="895.797" cy="1048.254" rx="141.116" ry="141.117"/>
</g>
<g id="_x30_0326E">
	
		<ellipse transform="matrix(0.7071 -0.7071 0.7071 0.7071 -478.8548 940.451)" fill="#00326E" cx="895.797" cy="1048.254" rx="141.116" ry="141.117"/>
</g>
<g id="A" display="none">
	<g id="Calque_2" display="inline">
	</g>
	<g id="Calque_7" display="inline">
	</g>
</g>
<g id="B" display="none">
</g>
<g id="B_bis">
	<g>
		<path fill="#FFFFFF" d="M868.657,1025.843c8.671,0,16.463-2.813,23.379-8.438c3.516,1.524,6.18,2.697,7.998,3.516
			c1.815,0.821,4.246,1.994,7.295,3.516c3.046,1.524,5.389,2.843,7.031,3.955c1.64,1.115,3.543,2.549,5.713,4.307
			c2.167,1.758,3.749,3.428,4.746,5.01c0.994,1.582,1.846,3.428,2.549,5.537s1.055,4.337,1.055,6.68v60.293H808.892v-60.293
			c0.352-3.749,1.288-7.146,2.813-10.195c1.521-3.046,3.279-5.625,5.273-7.734c1.991-2.109,4.686-4.158,8.086-6.152
			c3.397-1.991,6.416-3.604,9.053-4.834s6.064-2.664,10.283-4.307C851.431,1022.797,859.517,1025.843,868.657,1025.843z
			 M868.569,953.421c-8.613,0-15.969,3.049-22.061,9.141c-6.095,6.095-9.141,13.478-9.141,22.148c0,8.674,3.046,16.057,9.141,22.148
			c6.092,6.095,13.447,9.141,22.061,9.141s15.996-3.046,22.148-9.141c6.152-6.092,9.229-13.475,9.229-22.148
			c0-8.671-3.076-16.054-9.229-22.148C884.565,956.47,877.183,953.421,868.569,953.421z"/>
	</g>
	<circle fill="#00326E" cx="939.121" cy="1084.465" r="68"/>
	<g>
		<path fill="#C89209" d="M946.707,1137.713c-14.531,0-26.924-5.155-37.178-15.469c-10.253-10.253-15.381-22.646-15.381-37.178
			c0-14.531,5.128-26.924,15.381-37.178c10.254-10.253,22.646-15.381,37.178-15.381c14.532,0,26.953,5.128,37.266,15.381
			c10.254,10.254,15.381,22.646,15.381,37.178c0,11.602-3.281,21.827-9.844,30.674l34.209,34.209c4.16,4.161,4.16,8.32,0,12.48
			c-4.101,4.101-8.231,4.101-12.393,0l-34.297-34.297C968.24,1134.52,958.133,1137.713,946.707,1137.713z M904.871,1084.759
			c0,11.397,4.014,21.138,12.041,29.224c8.086,8.028,17.828,12.041,29.224,12.041c11.396,0,21.108-4.013,29.136-12.041
			c8.086-8.086,12.129-17.826,12.129-29.224c0-11.396-4.043-21.107-12.129-29.136c-8.027-8.086-17.739-12.129-29.136-12.129
			c-11.396,0-21.138,4.043-29.224,12.129C908.885,1063.651,904.871,1073.363,904.871,1084.759z"/>
	</g>
	<g>
		<path fill="#C89209" d="M958.529,1023.594l5.275,11.264l11.264-5.418c2.945,1.521,5.846,3.328,8.697,5.418l-0.143,12.547
			l12.404-0.143c2.186,2.852,4.039,5.752,5.561,8.697l-5.418,11.264l11.264,5.275c0.664,3.328,1.045,6.75,1.141,10.266l-9.838,7.699
			l7.842,9.695c-0.855,3.422-1.996,6.654-3.422,9.695l-12.119,2.709l2.852,12.119c-2.281,2.662-4.705,5.133-7.271,7.414
			l-12.119-2.852l-2.709,12.119c-3.137,1.426-6.416,2.566-9.838,3.422l-9.695-7.842l-7.699,9.838
			c-3.422-0.096-6.844-0.477-10.266-1.141l-5.275-11.264l-11.264,5.418c-3.043-1.615-5.941-3.469-8.697-5.561l0.143-12.404
			l-12.404,0.143c-2.188-2.852-4.041-5.797-5.561-8.84l5.418-11.121l-11.264-5.418c-0.666-3.326-1.047-6.701-1.141-10.123
			l9.838-7.699l-7.842-9.695c0.855-3.422,1.996-6.701,3.422-9.838l12.119-2.709l-2.852-12.119c2.281-2.566,4.705-4.99,7.271-7.271
			l12.119,2.852l2.709-12.119c3.137-1.426,6.416-2.566,9.838-3.422l9.695,7.842l7.699-9.838
			C951.686,1022.549,955.107,1022.93,958.529,1023.594z M912.191,1084.617c0,9.41,3.351,17.466,10.052,24.167
			s14.757,10.052,24.167,10.052s17.466-3.351,24.167-10.052s10.052-14.757,10.052-24.167s-3.351-17.466-10.052-24.167
			s-14.757-10.052-24.167-10.052s-17.466,3.351-24.167,10.052S912.191,1075.207,912.191,1084.617z"/>
	</g>
</g>
<g id="C">
</g>
<g id="titres">
</g>
<g id="réserve" display="none">
</g>
</svg>
