<svg xmlns="http://www.w3.org/2000/svg" width="40px" height="40px" viewBox="0 0 282.23 282.23">
  <defs>
    <style>
      .cls-1 {
        fill: #00326e;
      }

      .cls-2 {
        fill: #ED9B27;
      }

      .cls-3 {
        fill: #fff;
      }
    </style>
  </defs>
  <title>c-</title>
  <g id="_00326E" data-name="00326E">
    <path class="cls-1" d="M141.12,0A141.12,141.12,0,1,1,0,141.12,141.12,141.12,0,0,1,141.12,0Z"/>
  </g>
  <g id="C">
    <path class="cls-2" d="M49,34.19A141.12,141.12,0,1,1,232.83,248.31"/>
    <path class="cls-2" d="M49,34.23A141.12,141.12,0,1,1,232.86,248.35"/>
    <path class="cls-3" d="M53.9,204.29,82.59,161l117.75-88.3q19.78,6.56,21.12,29.28L103.37,190.23Zm15.84-16.48,4.69,6.33,26.39-7.43c3.89-3.39,5.86-5.91,5.89-7.59a1.94,1.94,0,0,0-.52-1.53,2.65,2.65,0,0,0-1.72-.51Q102,177,96,179.94q5.14-4.83,5.22-8.12a3.22,3.22,0,0,0-.84-2.49,4,4,0,0,0-2.73-.88q-1.93,0-8,2.79,5.42-4.58,5.48-8.12a1.88,1.88,0,0,0-.48-1.44,2.32,2.32,0,0,0-1.59-.51c-2.53,0-5.26,1-8.17,3.21ZM92.93,158.4a10.73,10.73,0,0,1,2.37-.3q3.38.06,3.31,3.36l-.1.86,71-53.56a27.6,27.6,0,0,0-5.42-3.49Zm8,7.26q3.87,1,3.78,5.19L176,117a16.65,16.65,0,0,0-3.45-5.18Zm6.17,8.62a3.57,3.57,0,0,1,2.34.87,2.79,2.79,0,0,1,.72,2.13,9.51,9.51,0,0,1-1.17,3.53l70.92-53.39a51.19,51.19,0,0,0-2.07-6.53ZM179.25,93.8q12.6,7.19,15.44,22.32l22-16.45q-2.64-16-15.61-22.06Z"/>
  </g>
</svg>
