<svg xmlns="http://www.w3.org/2000/svg" width="40px" height="40px" viewBox="0 0 282.23 282.23">
  <defs>
    <style>
      .cls-1 {
        fill: #00326e;
      }

      .cls-2, .cls-3 {
        fill: #fff;
      }

      .cls-2 {
        opacity: 0.43;
      }
    </style>
  </defs>
  <title>C</title>
  <g id="_00326E" data-name="00326E">
    <path class="cls-1" d="M141.12,0A141.12,141.12,0,1,1,0,141.11,141.11,141.11,0,0,1,141.12,0Z"/>
  </g>
  <g id="C">
    <path class="cls-2" d="M49,34.19A141.12,141.12,0,1,1,232.9,248.31"/>
    <path class="cls-3" d="M58,204.29,86.66,161l117.75-88.3q19.78,6.56,21.12,29.28L107.45,190.23Zm15.85-16.48,4.69,6.33,26.39-7.43c3.89-3.39,5.85-5.91,5.88-7.59a1.9,1.9,0,0,0-.52-1.53,2.65,2.65,0,0,0-1.72-.51q-2.45,0-8.49,2.86,5.16-4.83,5.22-8.12a3.22,3.22,0,0,0-.84-2.49,4,4,0,0,0-2.72-.88q-2,0-8,2.79,5.4-4.58,5.47-8.12a1.84,1.84,0,0,0-.48-1.44,2.32,2.32,0,0,0-1.59-.51q-3.8-.07-8.16,3.21ZM97,158.4a10.72,10.72,0,0,1,2.36-.3q3.38.06,3.32,3.36l-.11.86,71-53.56a27.26,27.26,0,0,0-5.41-3.49Zm8,7.26q3.86,1,3.78,5.19L180.09,117a16.62,16.62,0,0,0-3.44-5.18Zm6.16,8.62a3.6,3.6,0,0,1,2.35.87,2.82,2.82,0,0,1,.71,2.13,9.26,9.26,0,0,1-1.16,3.53l70.91-53.39a51.19,51.19,0,0,0-2.07-6.53Zm72.2-80.48q12.6,7.19,15.43,22.32l22-16.45q-2.66-16-15.61-22.06Z"/>
  </g>
</svg>
