<?xml version="1.0" encoding="UTF-8"?>
<svg enable-background="new 0 0 433 433" version="1.1" width="40px" height="40px" viewBox="0 0 433 433" xml:space="preserve" xmlns="http://www.w3.org/2000/svg">
<style type="text/css">
	.st0{fill:#00326E;}
	.st1{fill:#FFFFFF;}
	.st2{display:none;}
	.st3{display:inline;fill:#FFFFFF;}
	.st4{display:inline;fill:#00326E;}
	.st5{display:inline;}
	.st6{opacity:0.1;fill:#FFFFFF;enable-background:new    ;}
	.st7{opacity:0.95;}
	.st8{display:none;fill:#FFFFFF;}
</style>

	<circle class="st0" cx="216.7" cy="216.3" r="216.3"/>
	
	<path class="st1" d="m143 147.2c7.4 0 14-2.4 19.9-7.2 3 1.3 5.3 2.3 6.8 3s3.6 1.7 6.2 3 4.6 2.4 6 3.4 3 2.2 4.9 3.7c1.8 1.5 3.2 2.9 4 4.3 0.8 1.3 1.6 2.9 2.2 4.7s0.9 3.7 0.9 5.7v51.4h-101.9v-51.4c0.3-3.2 1.1-6.1 2.4-8.7s2.8-4.8 4.5-6.6 4-3.5 6.9-5.2 5.5-3.1 7.7-4.1 5.2-2.3 8.8-3.7c6 5.1 12.9 7.7 20.7 7.7zm-0.1-61.8c-7.3 0-13.6 2.6-18.8 7.8s-7.8 11.5-7.8 18.9 2.6 13.7 7.8 18.9 11.5 7.8 18.8 7.8 13.6-2.6 18.9-7.8c5.2-5.2 7.9-11.5 7.9-18.9s-2.6-13.7-7.9-18.9-11.5-7.8-18.9-7.8z"/>
	<g class="st2">
		<path class="st3" d="m240.2 382.5c-17.1 0-31.6-6-43.6-18.2-12-12-18-26.6-18-43.6 0-17.1 6-31.6 18-43.6s26.6-18 43.6-18 31.6 6 43.7 18c12 12 18 26.6 18 43.6 0 13.6-3.8 25.6-11.6 36l51.9 51.9c4.9 4.9 4.9 9.8 0 14.6-4.8 4.8-9.7 4.8-14.5 0l-52-52c-10.2 7.5-22.1 11.3-35.5 11.3zm-49-62.2c0 13.4 4.7 24.8 14.1 34.3 9.5 9.4 20.9 14.1 34.3 14.1s24.8-4.7 34.2-14.1c9.5-9.5 14.2-20.9 14.2-34.3s-4.7-24.8-14.2-34.2c-9.4-9.5-20.8-14.2-34.2-14.2s-24.8 4.7-34.3 14.2c-9.4 9.5-14.1 20.9-14.1 34.2z"/>
	</g>
	<circle class="st0" cx="143.3" cy="225.8" r="38.1"/>
	<path class="st1" d="m143 267.1c8.6 0 16.4-2.8 23.3-8.4 3.5 1.5 6.1 2.7 8 3.5 1.8 0.8 4.2 2 7.3 3.5 3 1.5 5.4 2.8 7 3.9s3.5 2.5 5.7 4.3c2.2 1.7 3.7 3.4 4.7 5s1.8 3.4 2.5 5.5 1 4.3 1 6.6v60h-119v-60c0.4-3.7 1.3-7.1 2.8-10.1s3.3-5.6 5.2-7.7c2-2.1 4.7-4.1 8-6.1 3.4-2 6.4-3.6 9-4.8s6-2.6 10.2-4.3c7.1 6 15.2 9.1 24.3 9.1zm-0.1-72.1c-8.6 0-15.9 3-21.9 9.1-6.1 6.1-9.1 13.4-9.1 22s3 16 9.1 22c6.1 6.1 13.4 9.1 21.9 9.1s15.9-3 22-9.1 9.2-13.4 9.2-22-3.1-16-9.2-22-13.4-9.1-22-9.1z"/>

<g class="st2">
	
		<circle class="st4" cx="216.5" cy="216.1" r="216.5"/>
	
	<g class="st5">
		<path class="st6" d="m411.3 121.6c13.9 28.6 21.7 60.6 21.7 94.5 0 119.6-96.9 216.5-216.5 216.5s-216.5-96.9-216.5-216.5c0-29.9 6.1-58.4 17-84.3"/>
		<g class="st2">
			<path class="st1" d="M7.5,128.2v-12.6h12.6v12.6H7.5z"/>
			<path class="st3" d="M33.1,128.2v-12.6h12.6v12.6H33.1z"/>
			<path class="st3" d="M58.6,128.2v-12.6h12.6v12.6H58.6z"/>
			<path class="st1" d="M84.2,128.2v-12.6h12.6v12.6H84.2z"/>
			<path class="st1" d="m109.8 128.2v-12.6h12.6v12.6h-12.6z"/>
			<path class="st1" d="M135.4,128.2v-12.6H148v12.6H135.4z"/>
			<path class="st1" d="m160.9 128.2v-12.6h12.6v12.6h-12.6z"/>
			<path class="st1" d="m186.5 128.2v-12.6h12.6v12.6h-12.6z"/>
			<path class="st1" d="m212.1 128.2v-12.6h12.6v12.6h-12.6z"/>
			<path class="st1" d="m237.7 128.2v-12.6h12.6v12.6h-12.6z"/>
			<path class="st1" d="m263.2 128.2v-12.6h12.6v12.6h-12.6z"/>
			<path class="st1" d="m288.8 128.2v-12.6h12.6v12.6h-12.6z"/>
			<path class="st1" d="M314.4,128.2v-12.6H327v12.6H314.4z"/>
			<path class="st1" d="M340,128.2v-12.6h12.6v12.6H340z"/>
			<path class="st3" d="m365.5 128.2v-12.6h12.6v12.6h-12.6z"/>
			<path class="st3" d="m391.1 128.2v-12.6h12.6v12.6h-12.6z"/>
		
		
			<path class="st3" d="M105.4,154V90.4h18.7V154H105.4z"/>
			<path class="st3" d="M311.2,154V90.4H330V154H311.2z"/>
		
		
			<path class="st1" d="m190.7 73.1c4.8 0 7.2-1.9 7.2-5.8v-3.6c0-6.2-3.7-9.3-11.2-9.3v-7.8c4 0 7-1 8.9-2.9 1.8-1.8 2.7-4.2 2.7-7.4v-1.4c0-4-2-5.9-6-5.9-2.2 0-3.8 0.7-4.9 2.2-0.8 1.1-1.2 2.6-1.2 4.4v1.4h-10.2v-1.4c0-4.3 1.3-7.8 3.8-10.5 2.8-3.1 6.9-4.6 12-4.6 4.9 0 8.9 1.4 11.8 4.3 2.7 2.6 4 5.9 4 9.8v2.6c0 3.8-1.3 7-3.9 9.8-1.1 1.2-2.4 2.1-3.9 2.9 3.1 1.5 5.5 3.8 7.2 6.9 0.9 1.6 1.3 3.5 1.3 5.7v4.8c0 4.5-1.8 8.1-5.3 11-3.4 2.8-7.4 4.2-12.1 4.2-4.6 0-8.5-1.4-11.8-4.3-3.2-2.8-4.8-6.2-4.8-10.2v-1.5l10-0.7 0.2 2.1c0.1 1.5 0.8 2.8 1.9 3.7 1.2 1 2.6 1.5 4.3 1.5z"/>
			<path class="st1" d="m238.3 81.8v-46.6h-8.9v-6.4c2.5-0.3 4.9-1.1 7.2-2.5s3.9-3.1 4.9-5.1h7.3v60.6h-10.5z"/>
		</g>
	</g>
</g>

	<g class="st2">
		<circle class="st4" cx="215.9" cy="217.1" r="217.1"/>
	</g>
	
		<g class="st7">
			<path class="st8" d="m195.5 88.6v114h-117.9v-117.9h113.8c4-2.8 7.6-5.1 10.7-7l2.3 4.1c-2.5 1.9-5.5 4.2-8.9 6.8zm-62.9 84.4-3.5 2.3c-3 2-5.6 3.9-7.8 5.9-0.4-1.9-1.5-5-3.2-9.2l-1.8-4.5c-4-9.8-7.3-16.7-10.1-20.6-2.7-3.9-5.7-6-8.9-6.3 4.3-3.9 8.1-5.9 11.3-5.9 4.3 0 9.2 5.9 14.4 17.8l2.9 6.4c13.8-24.8 32.3-46.9 55.2-66.3h-95.7v102.2h102.1v-99.5c-12.3 11.3-23.4 23.9-33.2 37.8s-17.1 27.3-21.7 39.9z"/>
			<path class="st1" d="M234,202.6V84.7h117.9v117.9H234z M241.9,194.7H344V92.5H241.9V194.7z"/>
			<path class="st8" d="m77.6 350.3v-117.9h117.9v117.9h-117.9zm8-7.9h102.1v-102.2h-102.1v102.2z"/>
			<path class="st1" d="m351.8 236.3v114h-117.9v-117.9h113.8c4-2.8 7.6-5.1 10.7-7l2.3 4.1c-2.5 1.9-5.5 4.2-8.9 6.8zm-62.9 84.5-3.5 2.3c-3 2-5.6 3.9-7.8 5.9-0.4-1.9-1.5-5-3.2-9.2l-1.8-4.5c-4-9.8-7.3-16.7-10.1-20.6-2.7-3.9-5.7-6-8.9-6.3 4.3-3.9 8.1-5.9 11.3-5.9 4.3 0 9.2 5.9 14.4 17.8l2.9 6.4c13.8-24.8 32.3-46.9 55.2-66.3h-95.8v102.2h102.1v-99.6c-12.3 11.3-23.4 23.9-33.2 37.8-9.8 14-17 27.3-21.6 40z"/>
		</g>
	

</svg>
