<svg xmlns="http://www.w3.org/2000/svg" width="40px" height="40px" viewBox="0 0 282.23 282.23"><defs><style>.cls-1{fill:#00326e;}.cls-2{fill:#fff;opacity:0.85;}.cls-3{fill:#ED9B27;}</style></defs><g id="_00326E" data-name="00326E"><circle class="cls-1" cx="141.12" cy="141.12" r="141.12" transform="translate(-58.45 141.12) rotate(-45)"/></g><g id="C"><path class="cls-2" d="M46.4,209.41V102.65q0-11.41,10.81-11.42h5q3.77,0,5.36-1.24T70,85.15l.88-3.68q1.41-5.81,3.6-7.09T84.7,73.09h33.56c4.86,0,8,.4,9.31,1.19s2.52,3,3.52,6.45l1,3.41q1.5,5.25,2.77,6.17t7.07.92H202.6c4.15,0,7,.82,8.47,2.44s2.24,4.69,2.24,9.17v8.84h34.88q9.48,0,9.75,3.5c.06.49-1,3-3.07,7.46l-41.56,86.77Zm4.31-9.4,37.77-77.19q4.13-8.37,6.41-9.76t11.86-1.38H209v-8.84q0-7.09-6.59-7.1h-61c-5.51,0-8.91-.33-10.19-1S128.83,92,128,88.47l-1-4.24c-.76-3-1.63-4.86-2.59-5.57s-3.12-1.06-6.46-1.06H85.41q-5.62,0-7.56,1.1t-3,5.16L73.81,88.1q-1.4,5.25-3.12,6.45c-1.14.8-3.67,1.19-7.59,1.19H57.65q-4.21,0-5.58,1.34t-1.36,5.66Zm2.63,4.88H210.5l38.92-81.79a29.59,29.59,0,0,0,1.93-5q-.25-1.93-5.45-1.94H104.12q-5.1,0-7,1.2c-1.29.8-2.6,2.61-4,5.43Z"/><path class="cls-3" d="M53.34,204.89H210.5l38.92-81.79a29.59,29.59,0,0,0,1.93-5q-.25-1.93-5.45-1.94H104.12q-5.1,0-7,1.2c-1.29.8-2.6,2.61-4,5.43Z"/></g></svg>