<?xml version="1.0" encoding="UTF-8"?>
<svg id="Calque_1" xmlns="http://www.w3.org/2000/svg" width="11.4mm" height="11mm" version="1.1" viewBox="0 0 32.2 31.3">
  <!-- Generator: Adobe Illustrator 29.8.2, SVG Export Plug-In . SVG Version: 2.1.1 Build 3)  -->
  <defs>
    <style>
      .st0 {
        fill: #fff;
      }

      .st1 {
        fill: #00326e;
      }
    </style>
  </defs>
  <circle class="st1" cx="15.6" cy="15.6" r="15.6"/>
  <path class="st0" d="M18.5,10.5c-1.3-1.3-2.4-2.4-2.8-3.8-.4,1.3-1.6,2.5-2.8,3.8-1.9,1.9-4,4-4,7.2s3.1,6.8,6.8,6.8,6.8-3.1,6.8-6.8c0-3.2-2.1-5.3-4-7.2M11.8,19.3c-.4,0-2-2.7.9-5.5l1.9,2.1s.1.1,0,.2c-.5.5-2.4,2.4-2.6,3.1,0,.1-.1.1-.2.1M15.7,22.8c-1.3,0-2.3-1-2.3-2.3h0c0-.6.2-1.1.6-1.5.4-.5,1.8-2,1.8-2,0,0,1.3,1.5,1.8,2,.4.4.6,1,.6,1.6,0,1.3-1,2.3-2.3,2.3M20.2,19c0,.1-.2.3-.3.3-.3,0-.3-.1-.5-.4-.4-.7-4.4-4.7-5.1-5.5-.6-.7,0-1.2.2-1.4.3-.3,1.3-1.3,1.3-1.3,0,0,2.8,2.7,4,4.5s.8,3.4.5,3.9"/>
</svg>