<?xml version="1.0" encoding="UTF-8"?><svg xmlns="http://www.w3.org/2000/svg" width="40px" height="40px" viewBox="0 0 282.23 282.23"><g id="_00326E"><path d="m141.12,0c77.94,0,141.12,63.18,141.12,141.12s-63.18,141.12-141.12,141.12S0,219.05,0,141.12,63.18,0,141.12,0Z" style="fill:#00326e;"/></g><g id="C"><path d="m212.39,49.77v123.15c-2.67.02-6.3.09-8.99-.08V58.36h-124.36v164.54h133.35v8.63l-142.33-.05V49.77h142.33Zm-41.2,21.47v8.58h-59.93v-8.58h59.93Zm18.33,27.01h-93.66v-4.84h93.66v4.84Zm0,14.49h-93.66v-4.85h93.66v4.85Zm0,14.85h-93.66v-4.83h93.66v4.83Zm0,15.12h-93.66v-4.85h93.66v4.85Z" style="fill:#fff; opacity:.8;"/><g id="D"><g style="fill:none; opacity:.93;"><path d="m161.65,181.18c2.37-1.6,5.68-3.99,8.65-2.5,2.75,1.37,1.66,5.24.96,7.51-2.16,7.01-4.87,13.87-7.94,20.53-.96,2.09,1.72,3.65,3.07,1.79,6.57-9.06,14.93-16.72,24.49-22.52-.89-.51-1.78-1.02-2.67-1.53-.09,2.48-.18,4.96-.27,7.44-.07,1.84-.23,3.75.26,5.55,1.12,4.05,5.22,4.86,8.57,2.89,1.74-1.02,3.18-2.49,4.73-3.77,1.67-1.38,3.43-2.66,5.26-3.84,1.88-1.21,3.83-2.32,5.83-3.32.95-.47,1.94-1.03,2.99-1.26.67-.14,2.21-.15,1.76.94-.87,2.11,2.57,3.03,3.42.94.71-1.73-.16-3.65-1.62-4.68-1.83-1.3-4.1-.88-6.04-.08-4.1,1.7-7.99,4.09-11.53,6.75-1.75,1.31-3.36,2.76-5.04,4.15-1.05.86-3.42,2.76-4.59,1.12-.97-1.37-.52-3.86-.46-5.39.09-2.48.18-4.96.27-7.44.05-1.34-1.55-2.22-2.67-1.53-10.1,6.14-18.83,14.23-25.76,23.8,1.02.6,2.04,1.19,3.07,1.79,1.93-4.18,3.71-8.43,5.33-12.75,1.45-3.89,3.22-7.99,3.76-12.13.48-3.65-.86-7.29-4.6-8.53-4-1.33-7.81.85-11.03,3.02-1.88,1.27-.11,4.35,1.79,3.07h0Z" style="fill:#d1940d;"/></g></g><g id="D-2"><g style="fill:none; opacity:.93;"><path d="m93.58,181.47c2.37-1.6,5.68-3.99,8.65-2.5,2.75,1.37,1.66,5.24.96,7.51-2.16,7.01-4.87,13.87-7.94,20.53-.96,2.09,1.72,3.65,3.07,1.79,6.57-9.06,14.93-16.72,24.49-22.52-.89-.51-1.78-1.02-2.67-1.53-.09,2.48-.18,4.96-.27,7.44-.07,1.84-.23,3.75.26,5.55,1.12,4.05,5.22,4.86,8.57,2.89,1.74-1.02,3.18-2.49,4.73-3.77,1.67-1.38,3.43-2.66,5.26-3.84,1.88-1.21,3.83-2.32,5.83-3.32.95-.47,1.94-1.03,2.99-1.26.67-.14,2.21-.15,1.76.94-.87,2.11,2.57,3.03,3.42.94.71-1.73-.16-3.65-1.62-4.68-1.83-1.3-4.1-.88-6.04-.08-4.1,1.7-7.99,4.09-11.53,6.75-1.75,1.31-3.36,2.76-5.04,4.15-1.05.86-3.42,2.76-4.59,1.12-.97-1.37-.52-3.86-.46-5.39.09-2.48.18-4.96.27-7.44.05-1.34-1.55-2.22-2.67-1.53-10.1,6.14-18.83,14.23-25.76,23.8,1.02.6,2.04,1.19,3.07,1.79,1.93-4.18,3.71-8.43,5.33-12.75,1.45-3.89,3.22-7.99,3.76-12.13.48-3.65-.86-7.29-4.6-8.53-4-1.33-7.81.85-11.03,3.02-1.88,1.27-.11,4.35,1.79,3.07h0Z" style="fill:#fff;"/></g></g></g></svg>