<?xml version="1.0" encoding="utf-8"?>
<!-- Generator: Adobe Illustrator 16.0.0, SVG Export Plug-In . SVG Version: 6.00 Build 0)  -->
<!DOCTYPE svg PUBLIC "-//W3C//DTD SVG 1.1//EN" "http://www.w3.org/Graphics/SVG/1.1/DTD/svg11.dtd">
<svg version="1.1" xmlns="http://www.w3.org/2000/svg" xmlns:xlink="http://www.w3.org/1999/xlink" x="0px" y="0px"
	 width="282.232px" height="282.232px" viewBox="-453.618 -1509.46 282.232 282.232"
	 enable-background="new -453.618 -1509.46 282.232 282.232" xml:space="preserve">
<g id="_x2D_--" display="none">
</g>
<g id="fond">
	<circle fill="#20558A" cx="-312.503" cy="-1368.344" r="141.116"/>
</g>
<g id="A">
	<g id="Calque_2">
	</g>
	<g id="Calque_7">
	</g>
	<path opacity="0.1" fill="#FFFFFF" d="M-185.512-1429.808c9.05,18.617,14.126,39.522,14.126,61.612
		c0,77.938-63.178,141.117-141.111,141.117c-77.932,0-141.108-63.18-141.108-141.117c0-19.484,3.949-43.045,11.089-59.928"/>
	<g>
		<path fill="#FFFFFF" d="M-449.312-1428.543v-8.232h8.232v8.232H-449.312z"/>
		<path fill="#FFFFFF" d="M-432.642-1428.543v-8.232h8.232v8.232H-432.642z"/>
		<path fill="#FFFFFF" d="M-415.972-1428.543v-8.232h8.232v8.232H-415.972z"/>
		<path fill="#FFFFFF" d="M-399.302-1428.543v-8.232h8.232v8.232H-399.302z"/>
		<path fill="#FFFFFF" d="M-382.632-1428.543v-8.232h8.232v8.232H-382.632z"/>
		<path fill="#FFFFFF" d="M-365.962-1428.543v-8.232h8.232v8.232H-365.962z"/>
		<path fill="#FFFFFF" d="M-349.292-1428.543v-8.232h8.232v8.232H-349.292z"/>
		<path fill="#FFFFFF" d="M-332.622-1428.543v-8.232h8.232v8.232H-332.622z"/>
		<path fill="#FFFFFF" d="M-315.952-1428.543v-8.232h8.232v8.232H-315.952z"/>
		<path fill="#FFFFFF" d="M-299.282-1428.543v-8.232h8.232v8.232H-299.282z"/>
		<path fill="#FFFFFF" d="M-282.612-1428.543v-8.232h8.232v8.232H-282.612z"/>
		<path fill="#FFFFFF" d="M-265.942-1428.543v-8.232h8.232v8.232H-265.942z"/>
		<path fill="#FFFFFF" d="M-249.272-1428.543v-8.232h8.232v8.232H-249.272z"/>
		<path fill="#FFFFFF" d="M-232.603-1428.543v-8.232h8.232v8.232H-232.603z"/>
		<path fill="#FFFFFF" d="M-215.933-1428.543v-8.232h8.232v8.232H-215.933z"/>
		<path fill="#FFFFFF" d="M-199.263-1428.543v-8.232h8.232v8.232H-199.263z"/>
	</g>
	<g>
		<path opacity="0.5" fill="#FFFFFF" d="M-207.177-1307.769v17.942h-26.344v-17.942H-207.177z"/>
		<path opacity="0.5" fill="#FFFFFF" d="M-253.417-1307.769v17.942h-26.344v-17.942H-253.417z"/>
		<path fill="#FFFFFF" d="M-299.656-1307.769v17.942H-326v-17.942H-299.656z"/>
		<path fill="#FFFFFF" d="M-345.896-1307.769v17.942h-26.344v-17.942H-345.896z"/>
		<path fill="#FFFFFF" d="M-392.136-1307.769v17.942h-26.344v-17.942H-392.136z"/>
		<path fill="#FFFFFF" d="M-207.177-1337.737v17.942h-26.344v-17.942H-207.177z"/>
		<path fill="#FFFFFF" d="M-253.417-1337.737v17.942h-26.344v-17.942H-253.417z"/>
		<path opacity="0.5" fill="#FFFFFF" d="M-299.656-1337.737v17.942H-326v-17.942H-299.656z"/>
		<path opacity="0.5" fill="#FFFFFF" d="M-345.896-1337.737v17.942h-26.344v-17.942H-345.896z"/>
		<path fill="#FFFFFF" d="M-392.136-1337.737v17.942h-26.344v-17.942H-392.136z"/>
		<path fill="#FFFFFF" d="M-207.177-1367.706v17.943h-26.344v-17.943H-207.177z"/>
		<path fill="#FFFFFF" d="M-253.417-1367.706v17.943h-26.344v-17.943H-253.417z"/>
		<path fill="#FFFFFF" d="M-299.656-1367.706v17.943H-326v-17.943H-299.656z"/>
		<path fill="#FFFFFF" d="M-345.896-1367.706v17.943h-26.344v-17.943H-345.896z"/>
		<path opacity="0.5" fill="#FFFFFF" d="M-392.136-1367.706v17.943h-26.344v-17.943H-392.136z"/>
		<path fill="#C89108" d="M-207.177-1397.673v17.942h-26.344v-17.942H-207.177z"/>
		<path fill="#C89108" d="M-253.417-1397.673v17.942h-26.344v-17.942H-253.417z"/>
		<path fill="#C89108" d="M-299.656-1397.673v17.942H-326v-17.942H-299.656z"/>
		<path fill="#C89108" d="M-345.896-1397.673v17.942h-26.344v-17.942H-345.896z"/>
		<path fill="#C89108" d="M-392.136-1397.673v17.942h-26.344v-17.942H-392.136z"/>
	</g>
	<g>
		<path fill="#FFFFFF" d="M-368.554-1415.938v-34.043h11.76v34.043H-368.554z"/>
		<path fill="#FFFFFF" d="M-268.474-1415.938v-34.043h11.76v34.043H-268.474z"/>
	</g>
</g>
<g id="B" display="none">
	<g id="miu_1_" display="inline" opacity="0.9">
		<g id="Artboard-1_1_" transform="translate(-827.000000, -227.000000)">
			<path id="editor-attachment-paper-clip-2_1_" fill="#FFFFFF" d="M497.542-1068.775l94.14-87.336c0,0,35.491-32.93,3.928-62.213
				c-31.567-29.29-67.063,3.633-67.063,3.633l-94.13,87.341c-3.855,3.579,3.159,10.094,7.014,6.508l94.13-87.343
				c0,0,25.929-28.778,53.031-3.63c24.553,22.774-3.924,49.198-3.924,49.198l-94.139,87.334c0,0-17.67,16.393-35.206,0.126
				c-17.543-16.27,0.135-32.671,0.135-32.671l94.136-87.334c0,0,11.063-10.272,21.298-0.764c10.24,9.491-0.257,20.294-0.257,20.294
				l-89.504,83.038c-3.855,3.577,3.158,10.083,7.014,6.508l89.504-83.039c0,0,20.092-16.213,0.958-33.974
				c-17.249-15.998-36.028,1.43-36.028,1.43l-94.135,87.335c0,0-24.694,22.907-0.136,45.685
				C472.858-1045.876,497.542-1068.775,497.542-1068.775z"/>
		</g>
	</g>
</g>
<g id="C" display="none">
</g>
</svg>
