<svg xmlns="http://www.w3.org/2000/svg" width="40px" height="40px" viewBox="0 0 282.23 282.23">
  <defs>
    <style>
      .cls-1 {
        fill: #00326e;
      }

      .cls-2 {
        opacity: 0.8;
      }

      .cls-3 {
        fill: #fff;
      }

      .cls-4 {
        fill: #ED9B27;
      }
    </style>
  </defs>
  <title>C_--19-Enquet</title>
  <g id="_00326E" data-name="00326E">
    <path class="cls-1" d="M141.12,0A141.12,141.12,0,1,1,0,141.12,141.12,141.12,0,0,1,141.12,0Z"/>
  </g>
  <g id="C">
    <g class="cls-2">
      <g>
        <path class="cls-3" d="M84.83,95.47v-8.3h82.5v8.3Z"/>
        <path class="cls-3" d="M84.83,128.47v-8.3h82.5v8.3Z"/>
        <path class="cls-3" d="M84.83,157.47v-8.3h82.5v8.3Z"/>
      </g>
    </g>
    <g>
      <path class="cls-3" d="M51.5,89.57c0-3.7,2.5-6.3,6-6.3s5.9,2.6,5.9,6.3-2.3,6.3-6,6.3C53.9,95.87,51.5,93.17,51.5,89.57Z"/>
      <path class="cls-3" d="M51.5,120.57c0-3.7,2.5-6.3,6-6.3s5.9,2.6,5.9,6.3-2.3,6.3-6,6.3C53.9,126.87,51.5,124.17,51.5,120.57Z"/>
      <path class="cls-3" d="M51.5,151.57c0-3.7,2.5-6.3,6-6.3s5.9,2.6,5.9,6.3-2.3,6.3-6,6.3C53.9,157.87,51.5,155.17,51.5,151.57Z"/>
    </g>
    <path class="cls-4" d="M146.91,219.78q11.51-16.12,24-30.74a340.63,340.63,0,0,1,26-27.28q13.5-12.66,20.15-17t8.95-4.87c1.54-.33,4.78-.35,9.75,0a87.88,87.88,0,0,1,10.12,1c1.14.24,1.62.79,1.45,1.65a2.57,2.57,0,0,1-.94,1.46,38.61,38.61,0,0,1-4.23,2.66q-17.51,10.66-40.59,33.74a322.64,322.64,0,0,0-40.94,50q-7.2,10.72-9.46,12.72t-11.8.14q-6.84-1.4-7.9-3.05a70.82,70.82,0,0,1-3.86-8.67,138.06,138.06,0,0,0-11.4-22.65c-2.3-3.69-3.28-6.32-3-7.89q.66-3.26,6.15-5.65t8.67-1.75q4.06.84,9.1,6.52T146.91,219.78Z"/>
  </g>
</svg>
