<?xml version="1.0" encoding="utf-8"?>
<!-- Generator: Adobe Illustrator 23.0.2, SVG Export Plug-In . SVG Version: 6.00 Build 0)  -->
<svg version="1.1" xmlns="http://www.w3.org/2000/svg" xmlns:xlink="http://www.w3.org/1999/xlink" x="0px" y="0px"
	 width="40px" height="40px" viewBox="-1057.768 1209.214 282.232 282.233" enable-background="new -1057.768 1209.214 282.232 282.233" xml:space="preserve">
<g id="Blanc" display="none">
	<rect x="-1195.509" y="1048.255" display="inline" fill="#FFFFFF" width="1346.039" height="1141.58"/>
</g>
<g id="_x2D_--" display="none">
</g>
<g id="fond" display="none">
	<path display="inline" fill="#21558B" d="M-916.652,1209.214c77.938,0,141.117,63.18,141.117,141.115
		c0,77.938-63.18,141.117-141.117,141.117c-77.935,0-141.115-63.18-141.115-141.117
		C-1057.768,1272.394-994.588,1209.214-916.652,1209.214z"/>
</g>
<g id="_x30_0326E">
	<path fill="#00326E" d="M-916.652,1209.214c77.938,0,141.117,63.18,141.117,141.115c0,77.938-63.18,141.117-141.117,141.117
		c-77.935,0-141.115-63.18-141.115-141.117C-1057.768,1272.394-994.588,1209.214-916.652,1209.214z"/>
</g>
<g id="A" display="none">
	<g id="Calque_2" display="inline">
	</g>
	<g id="Calque_7" display="inline">
	</g>
	
		<circle display="inline" opacity="0.8" fill="#FFFFFF" stroke="#FFFFFF" stroke-width="17" stroke-miterlimit="10" cx="-917.768" cy="1352.232" r="106"/>
	
		<text transform="matrix(1 0 0 1 -984.3232 1425.252)" display="inline" fill="#21558B" font-family="'FranklinGothic-Medium'" font-size="214px">€</text>
</g>
<g id="B" display="none">
</g>
<g id="C" display="none">
</g>
<g id="D">
	<g opacity="0.93">
		<g>
			<path fill="#FFFFFF" d="M-1008.779,1323.684c8.007-5.404,19.187-13.499,29.249-8.465c9.287,4.646,5.615,17.698,3.254,25.373
				c-7.287,23.696-16.455,46.874-26.829,69.378c-3.249,7.049,5.813,12.329,10.362,6.057c22.192-30.605,50.467-56.493,82.761-76.113
				c-3.009-1.727-6.019-3.454-9.028-5.181c-0.309,8.381-0.619,16.761-0.928,25.142c-0.229,6.209-0.794,12.682,0.89,18.756
				c3.793,13.682,17.652,16.441,28.974,9.778c5.883-3.462,10.739-8.423,15.968-12.745c5.658-4.677,11.608-8.987,17.773-12.971
				c6.348-4.102,12.928-7.852,19.7-11.211c3.227-1.6,6.562-3.497,10.113-4.258c2.276-0.488,7.461-0.521,5.948,3.173
				c-2.925,7.141,8.679,10.251,11.571,3.19c2.39-5.836-0.531-12.326-5.463-15.825c-6.187-4.391-13.859-2.985-20.414-0.262
				c-13.847,5.753-26.987,13.828-38.961,22.806c-5.906,4.429-11.344,9.34-17.04,14.015c-3.561,2.922-11.552,9.336-15.501,3.78
				c-3.282-4.618-1.747-13.045-1.556-18.225c0.309-8.381,0.619-16.761,0.928-25.142c0.168-4.539-5.227-7.49-9.028-5.181
				c-34.132,20.737-63.631,48.1-87.066,80.418c3.454,2.019,6.908,4.038,10.362,6.057c6.518-14.139,12.549-28.504,18-43.089
				c4.91-13.138,10.881-26.998,12.714-40.987c1.618-12.344-2.911-24.646-15.541-28.831c-13.521-4.48-26.397,2.866-37.266,10.202
				C-1021.202,1317.619-1015.203,1328.02-1008.779,1323.684L-1008.779,1323.684z"/>
		</g>
	</g>
</g>
</svg>
