<?xml version="1.0" encoding="UTF-8"?><svg xmlns="http://www.w3.org/2000/svg" width="40px" height="40px" viewBox="0 0 282.23 282.23"><g id="_00326E"><circle cx="141.12" cy="141.12" r="141.12" transform="translate(-58.45 141.12) rotate(-45)" style="fill:#00326e;"/></g><g id="C"><rect x="49.04" y="77.34" width="190.25" height="126.84" rx="11.29" ry="11.29" style="fill:#fff;"/><line x1="48.1" y1="114.81" x2="240.35" y2="114.81" style="fill:#00326e; stroke:#000; stroke-miterlimit:10; stroke-width:23px;"/><path d="m153.64,206.58c6.03-8.15,12.29-15.92,18.78-23.29,6.49-7.37,13.23-14.24,20.22-20.6,6.99-6.36,12.19-10.63,15.6-12.8s5.7-3.37,6.87-3.61c1.17-.23,3.62-.2,7.37.11,3.75.31,6.29.62,7.63.93.85.2,1.21.63,1.05,1.29-.1.42-.34.79-.74,1.11-.4.33-1.48.98-3.25,1.98-8.98,5.29-19.45,13.74-31.42,25.35-11.97,11.61-22.65,24.23-32.04,37.87-3.78,5.43-6.25,8.65-7.42,9.65-1.18,1.04-4.16,1.02-8.93-.08-3.42-.79-5.39-1.61-5.9-2.47-.51-.86-1.42-3.1-2.74-6.73-2.13-6.04-4.84-11.92-8.12-17.61-1.66-2.87-2.35-4.91-2.07-6.12.38-1.66,1.97-3.08,4.78-4.25,2.8-1.17,5-1.58,6.59-1.21,2.04.47,4.29,2.19,6.74,5.15,2.46,2.97,4.78,8.08,6.99,15.32Z" style="fill:#ED9B27; stroke:#ED9B27; stroke-miterlimit:10; stroke-width:2px;"/><path d="m52.08,159.27v-9.12h30.41v9.12h-30.41Z"/><path d="m92.98,159.27v-9.12h30.41v9.12h-30.41Z"/><path d="m133.88,159.27v-9.12h30.41v9.12h-30.41Z"/></g></svg>