<?xml version="1.0" encoding="utf-8"?>
<!-- Generator: Adobe Illustrator 23.0.2, SVG Export Plug-In . SVG Version: 6.00 Build 0)  -->
<svg version="1.1" xmlns="http://www.w3.org/2000/svg" xmlns:xlink="http://www.w3.org/1999/xlink" x="0px" y="0px"
	 width="40px" height="40px" viewBox="452.606 907.139 282.232 282.232" enable-background="new 452.606 907.139 282.232 282.232" xml:space="preserve">
<g id="_x30_0326E">
	<path fill="#00326E" d="M624.714,1173.283l6.262-12.854l-13.019-6.262c-0.771-3.844-1.21-7.745-1.318-11.7l11.371-8.899
		l-9.064-11.206c0.989-3.955,2.307-7.745,3.955-11.371l14.007-3.131l-3.296-14.007c2.637-2.966,5.438-5.768,8.405-8.404
		l14.007,3.296l3.131-14.007c3.625-1.648,7.416-2.966,11.371-3.955l11.206,9.064l8.899-11.371c3.955,0.111,7.91,0.551,11.865,1.318
		l6.097,13.019l13.019-6.262c3.084,1.594,6.123,3.472,9.118,5.604c2.678-10.86,4.109-22.212,4.109-33.899
		c0-77.936-63.18-141.115-141.117-141.115c-77.936,0-141.115,63.18-141.115,141.115c0,77.938,63.18,141.117,141.115,141.117
		c14.076,0,27.665-2.071,40.493-5.907l-3.074,0.035C628.612,1180.204,626.47,1176.8,624.714,1173.283z"/>
</g>
<g id="réserve" display="none">
</g>
<g id="A_-_à_vérifier" display="none">
	<g display="inline">
		<path fill="#FFFFFF" d="M606.766,1066.73c0.216,0.648,0.379,1.236,0.487,1.762c0.108,0.526,0.162,1.006,0.162,1.438
			c0,0.835-0.193,1.508-0.58,2.018c-0.387,0.511-0.981,0.913-1.786,1.206c-0.805,0.295-1.809,0.487-3.015,0.58
			s-2.629,0.139-4.268,0.139c-0.557,0-1.678-0.038-3.363-0.115s-3.765-0.178-6.239-0.302c-2.475-0.123-5.234-0.239-8.279-0.348
			c-3.047-0.108-6.193-0.193-9.439-0.255c0.834,4.824,2.117,9.107,3.85,12.849c1.731,3.742,3.818,6.889,6.262,9.439
			c2.443,2.552,5.188,4.484,8.234,5.799c3.045,1.314,6.285,1.972,9.718,1.972c2.01,0,4.059-0.217,6.146-0.65
			c2.087-0.433,4.175-1.128,6.262-2.087c2.088-0.958,4.159-2.203,6.216-3.734c2.057-1.53,4.059-3.409,6.008-5.636
			c0.246,0.124,0.525,0.278,0.834,0.464s0.604,0.387,0.882,0.603c0.278,0.217,0.511,0.457,0.696,0.72s0.277,0.549,0.277,0.858
			c0,0.277-0.092,0.557-0.277,0.834c-4.268,5.566-8.969,9.688-14.102,12.362c-5.135,2.675-10.593,4.013-16.375,4.013
			c-4.546,0-8.883-0.789-13.012-2.365c-4.128-1.578-7.839-3.936-11.133-7.074c-3.293-3.139-6.061-7.066-8.303-11.782
			s-3.75-10.213-4.523-16.491c-2.721,0.124-5.172,0.318-7.352,0.58c-2.181,0.264-3.92,0.627-5.219,1.09
			c-0.155-0.371-0.232-0.695-0.232-0.974c0-0.958,0.309-1.786,0.928-2.481c0.619-0.696,1.469-1.291,2.552-1.786
			c1.082-0.494,2.381-0.896,3.896-1.206c1.515-0.309,3.185-0.557,5.01-0.742c-0.031-0.587-0.054-1.175-0.069-1.763
			c-0.016-0.587-0.023-1.19-0.023-1.81c0-3.216,0.186-6.354,0.557-9.416c-2.629,0.124-5.002,0.31-7.12,0.557
			c-2.118,0.248-3.797,0.604-5.033,1.066c-0.155-0.371-0.231-0.695-0.231-0.974c0-0.989,0.332-1.848,0.997-2.574
			s1.584-1.346,2.76-1.855c1.175-0.511,2.581-0.912,4.222-1.206c1.639-0.294,3.416-0.518,5.334-0.673
			c1.206-5.782,3.068-11.156,5.59-16.119c2.52-4.964,5.628-9.27,9.323-12.919c3.695-3.648,7.917-6.51,12.664-8.582
			c4.747-2.071,9.95-3.107,15.608-3.107c3.154,0,6.224,0.333,9.208,0.997c2.984,0.666,5.636,1.647,7.956,2.946
			c2.318,1.299,4.174,2.915,5.566,4.847c1.391,1.934,2.087,4.168,2.087,6.703c0,1.33-0.239,2.536-0.719,3.618
			c-0.479,1.083-1.122,2.011-1.925,2.783c-0.805,0.773-1.74,1.368-2.807,1.786c-1.067,0.417-2.174,0.626-3.316,0.626
			c-0.959,0-1.918-0.093-2.877-0.278l-0.417-0.417c0.371-1.578,0.557-3.077,0.557-4.5c0-2.412-0.472-4.445-1.415-6.1
			s-2.18-2.992-3.711-4.013c-1.53-1.021-3.255-1.755-5.172-2.203c-1.918-0.448-3.866-0.673-5.845-0.673
			c-2.907,0-5.583,0.426-8.024,1.275c-2.443,0.852-4.67,2.034-6.68,3.549c-2.012,1.516-3.813,3.333-5.404,5.45
			c-1.594,2.119-2.992,4.446-4.198,6.981c-1.206,2.536-2.212,5.242-3.015,8.117c-0.805,2.877-1.424,5.83-1.855,8.86
			c5.967,0.031,11.542,0.132,16.722,0.302s10.012,0.255,14.496,0.255c1.763,0,3.433-0.085,5.01-0.255s2.906-0.348,3.989-0.533
			c0.216,0.648,0.379,1.236,0.487,1.762c0.108,0.526,0.162,1.006,0.162,1.438c0,0.835-0.193,1.516-0.58,2.041
			c-0.387,0.526-0.981,0.928-1.786,1.206s-1.809,0.472-3.015,0.58s-2.629,0.162-4.268,0.162c-0.649,0-1.956-0.047-3.92-0.139
			c-1.964-0.094-4.376-0.201-7.236-0.325c-2.86-0.123-6.062-0.239-9.602-0.348c-3.542-0.108-7.229-0.178-11.063-0.209
			c-0.063,0.99-0.116,1.979-0.162,2.969c-0.047,0.99-0.07,1.979-0.07,2.969c0,2.319,0.094,4.546,0.279,6.68
			c5.195,0,10.205,0.093,15.029,0.278s9.168,0.278,13.034,0.278c1.763,0,3.433-0.085,5.01-0.255S605.683,1066.916,606.766,1066.73z"
			/>
	</g>
	
		<line display="inline" fill="none" stroke="#FFFFFF" stroke-width="8" stroke-miterlimit="10" x1="598.285" y1="932.188" x2="598.285" y2="958.19"/>
	
		<line display="inline" fill="none" stroke="#FFFFFF" stroke-width="8" stroke-miterlimit="10" x1="598.285" y1="1139.224" x2="598.285" y2="1169.28"/>
	
		<line display="inline" fill="none" stroke="#FFFFFF" stroke-width="8" stroke-miterlimit="10" x1="716.749" y1="1046.732" x2="690.746" y2="1046.732"/>
	
		<line display="inline" fill="none" stroke="#FFFFFF" stroke-width="8" stroke-miterlimit="10" x1="509.713" y1="1046.732" x2="483.71" y2="1046.732"/>
	<g display="inline">
		<path fill="#FFFFFF" d="M656.041,961.429c0,4.097-2.943,7.425-7.168,7.425c-3.072,0-7.04-1.92-7.04-7.425
			c0-5.376,4.736-7.424,7.04-7.424C654.377,954.005,656.041,958.869,656.041,961.429z"/>
	</g>
	<g display="inline">
		<path fill="#FFFFFF" d="M697,1000.448c0,4.097-2.943,7.425-7.168,7.425c-3.072,0-7.04-1.92-7.04-7.425
			c0-5.376,4.736-7.424,7.04-7.424C695.336,993.024,697,997.889,697,1000.448z"/>
	</g>
	<g display="inline">
		<path fill="#FFFFFF" d="M550.66,953.021c2.304,0,7.04,2.048,7.04,7.424c0,5.505-3.968,7.425-7.04,7.425
			c-4.225,0-7.168-3.328-7.168-7.425C543.492,957.886,545.156,953.021,550.66,953.021z"/>
	</g>
	<g display="inline">
		<path fill="#FFFFFF" d="M509.703,992.041c2.304,0,7.04,2.048,7.04,7.424c0,5.505-3.968,7.425-7.04,7.425
			c-4.225,0-7.168-3.328-7.168-7.425C502.535,996.905,504.199,992.041,509.703,992.041z"/>
	</g>
	<g id="Calque_2" display="inline">
	</g>
	<g id="Calque_7" display="inline">
	</g>
</g>
<g id="B" display="none">
</g>
<g id="B_bis">
	<g opacity="0.7">
		<path fill="#FFFFFF" d="M673.684,1101.982c-21.919,16.42-45.463,25.371-77.288,25.371c-31.484,0-58.271-8.209-80.361-24.629
			c-22.09-16.416-33.135-36.393-33.135-59.922c0-23.359,11.045-43.291,33.135-59.795s48.877-24.756,80.361-24.756
			c31.825,0,58.696,8.252,80.615,24.756c21.923,16.504,32.881,36.436,32.881,59.795
			C709.893,1066.332,695.607,1085.566,673.684,1101.982z M565.42,1121.006l-53.066,32.246l17.012-42.91L565.42,1121.006z"/>
	</g>
	<g>
		<path fill="#21558B" d="M522.462,1008.582c3.164-0.039,6.152,0.938,8.965,2.93c2.616,1.914,4.629,4.375,6.035,7.383l-7.91,4.219
			c-1.954-3.906-4.512-5.84-7.676-5.801c-1.914,0.039-3.574,0.684-4.98,1.934s-2.109,2.695-2.109,4.336
			c0.038,2.422,1.66,4.57,4.863,6.445c1.172,0.703,3.847,1.836,8.027,3.398c3.398,1.289,6.425,3.125,9.082,5.508
			c2.733,2.5,4.121,6.094,4.16,10.781c0.038,4.844-1.699,9.043-5.215,12.598c-3.595,3.672-8.203,5.508-13.828,5.508
			c-5.43,0-9.902-1.543-13.418-4.629c-3.243-2.813-5.371-5.938-6.387-9.375l8.379-3.574c0.858,1.875,2.07,3.789,3.633,5.742
			c1.679,2.109,4.315,3.184,7.91,3.223c3.047,0,5.361-0.928,6.943-2.783s2.334-3.838,2.256-5.947
			c-0.079-2.852-1.582-5.293-4.512-7.324c-1.603-1.055-4.356-2.324-8.262-3.809c-3.32-1.25-6.231-2.969-8.73-5.156
			c-2.617-2.266-3.926-5.527-3.926-9.785c0.038-4.453,1.631-8.184,4.775-11.191C513.682,1010.203,517.657,1008.66,522.462,1008.582z
			"/>
		<path fill="#21558B" d="M558.181,1066.355v-56.25h9.375v6.152h0.293c3.206-5,7.761-7.559,13.665-7.676
			c6.842-0.117,12.003,2.969,15.482,9.258h0.117c1.329-2.422,3.422-4.551,6.276-6.387c3.01-1.953,6.606-2.91,10.79-2.871
			c6.529,0.078,11.183,2.363,13.958,6.855c2.542,4.219,3.813,9.414,3.813,15.586v35.332h-9.492v-33.809
			c0-10.117-3.447-15.195-10.339-15.234c-8.264-0.039-12.396,6.016-12.396,18.164v30.879h-9.375v-32.695
			c0-11.016-3.427-16.465-10.28-16.348c-8.343,0.117-12.513,6.563-12.513,19.336v29.707H558.181z"/>
		<path fill="#21558B" d="M666.614,1008.582c3.164-0.039,6.152,0.938,8.965,2.93c2.616,1.914,4.629,4.375,6.035,7.383l-7.91,4.219
			c-1.954-3.906-4.512-5.84-7.676-5.801c-1.914,0.039-3.574,0.684-4.98,1.934s-2.109,2.695-2.109,4.336
			c0.038,2.422,1.66,4.57,4.863,6.445c1.172,0.703,3.847,1.836,8.027,3.398c3.398,1.289,6.425,3.125,9.082,5.508
			c2.733,2.5,4.121,6.094,4.16,10.781c0.038,4.844-1.699,9.043-5.215,12.598c-3.595,3.672-8.203,5.508-13.828,5.508
			c-5.43,0-9.902-1.543-13.418-4.629c-3.243-2.813-5.371-5.938-6.387-9.375l8.379-3.574c0.858,1.875,2.07,3.789,3.633,5.742
			c1.679,2.109,4.315,3.184,7.91,3.223c3.047,0,5.361-0.928,6.943-2.783s2.334-3.838,2.256-5.947
			c-0.079-2.852-1.582-5.293-4.512-7.324c-1.603-1.055-4.356-2.324-8.262-3.809c-3.32-1.25-6.231-2.969-8.73-5.156
			c-2.617-2.266-3.926-5.527-3.926-9.785c0.038-4.453,1.631-8.184,4.775-11.191C657.834,1010.203,661.81,1008.66,666.614,1008.582z"
			/>
	</g>
	<g>
		<defs>
			<path id="SVGID_15_" d="M593.347,907.364c77.938,0,141.117,63.18,141.117,141.115c0,77.938-63.179,141.117-141.117,141.117
				c-77.935,0-141.114-63.18-141.114-141.117C452.232,970.544,515.412,907.364,593.347,907.364z"/>
		</defs>
		<clipPath id="SVGID_1_">
			<use xlink:href="#SVGID_15_"  overflow="visible"/>
		</clipPath>
	</g>
	<g>
		<path fill="#00326E" d="M640.936,1181.269c-0.82,0.291-1.641,0.579-2.467,0.855
			C639.295,1181.847,640.116,1181.56,640.936,1181.269z"/>
		<path fill="#00326E" d="M645.299,1179.646c-1.066,0.418-2.137,0.825-3.216,1.218
			C643.161,1180.471,644.233,1180.065,645.299,1179.646z"/>
		<path fill="#00326E" d="M655.346,1175.235c-0.344,0.167-0.69,0.333-1.036,0.497
			C654.656,1175.567,655.002,1175.402,655.346,1175.235z"/>
		<path fill="#00326E" d="M648.833,1178.202c-0.554,0.235-1.114,0.46-1.672,0.688
			C647.719,1178.662,648.279,1178.437,648.833,1178.202z"/>
		<path fill="#00326E" d="M658.427,1173.69c-0.259,0.134-0.518,0.269-0.779,0.401
			C657.908,1173.958,658.167,1173.824,658.427,1173.69z"/>
		<path fill="#00326E" d="M661.211,1172.214c-0.099,0.054-0.197,0.11-0.296,0.163
			C661.014,1172.323,661.112,1172.268,661.211,1172.214z"/>
		<path fill="#00326E" d="M637.247,1182.52c-0.816,0.264-1.634,0.524-2.457,0.773
			C635.613,1183.043,636.431,1182.784,637.247,1182.52z"/>
		<path fill="#00326E" d="M652.134,1176.748c-0.418,0.19-0.839,0.375-1.259,0.561
			C651.295,1177.122,651.716,1176.938,652.134,1176.748z"/>
		<path fill="#ED9B27" d="M663.522,1170.939c-0.004-0.004-0.008-0.007-0.012-0.011c-0.762,0.435-1.528,0.865-2.299,1.285
			C661.984,1171.792,662.759,1171.375,663.522,1170.939z"/>
		<path fill="#ED9B27" d="M660.915,1172.377c-0.824,0.447-1.655,0.882-2.488,1.313
			C659.26,1173.259,660.091,1172.824,660.915,1172.377z"/>
		<path fill="#ED9B27" d="M657.648,1174.091c-0.763,0.388-1.531,0.769-2.302,1.144
			C656.118,1174.86,656.885,1174.479,657.648,1174.091z"/>
		<path fill="#ED9B27" d="M654.311,1175.732c-0.723,0.344-1.447,0.684-2.177,1.016
			C652.863,1176.416,653.588,1176.075,654.311,1175.732z"/>
		<path fill="#ED9B27" d="M650.875,1177.309c-0.679,0.301-1.358,0.603-2.042,0.893
			C649.518,1177.911,650.196,1177.609,650.875,1177.309z"/>
		<path fill="#ED9B27" d="M718.312,1114.562c0.006,0.008,0.013,0.015,0.019,0.023c5.406-10.131,9.609-20.999,12.426-32.414
			c-0.009-0.006-0.018-0.012-0.027-0.018C727.916,1093.567,723.714,1104.432,718.312,1114.562z"/>
		<path fill="#ED9B27" d="M638.469,1182.123c-0.406,0.135-0.814,0.265-1.221,0.396
			C637.655,1182.388,638.063,1182.259,638.469,1182.123z"/>
		<path fill="#ED9B27" d="M634.248,1183.464c0.182-0.054,0.361-0.116,0.543-0.171c-0.191,0.058-0.384,0.114-0.576,0.171
			L634.248,1183.464z"/>
		<path fill="#ED9B27" d="M647.161,1178.89c-0.62,0.254-1.238,0.511-1.863,0.756C645.923,1179.401,646.541,1179.144,647.161,1178.89
			z"/>
		<path fill="#ED9B27" d="M642.083,1180.865c-0.38,0.139-0.765,0.268-1.147,0.404
			C641.318,1181.133,641.702,1181.003,642.083,1180.865z"/>
		<path fill="#ED9B27" d="M721.612,1076.549l-13.019,6.262l-6.097-13.019c-3.955-0.767-7.91-1.207-11.865-1.318l-8.899,11.371
			l-11.206-9.064c-3.955,0.989-7.745,2.307-11.371,3.955l-3.131,14.007l-14.007-3.296c-2.966,2.637-5.768,5.438-8.405,8.404
			l3.296,14.007l-14.007,3.131c-1.648,3.625-2.966,7.416-3.955,11.371l9.064,11.206l-11.371,8.899
			c0.108,3.955,0.548,7.856,1.318,11.7l13.019,6.262l-6.262,12.854c1.756,3.517,3.898,6.921,6.427,10.217l3.074-0.035
			c0.192-0.057,0.385-0.113,0.576-0.171c0.823-0.25,1.641-0.509,2.457-0.773c0.407-0.132,0.816-0.261,1.221-0.396
			c0.827-0.276,1.647-0.564,2.467-0.855c0.382-0.136,0.767-0.265,1.147-0.404c1.078-0.393,2.15-0.8,3.216-1.218
			c0.625-0.245,1.243-0.502,1.863-0.756c0.558-0.228,1.117-0.453,1.672-0.688c0.684-0.291,1.363-0.592,2.042-0.893
			c0.42-0.186,0.841-0.371,1.259-0.561c0.729-0.332,1.454-0.672,2.177-1.016c0.346-0.165,0.692-0.33,1.036-0.497
			c0.771-0.375,1.539-0.755,2.302-1.144c0.26-0.132,0.519-0.267,0.779-0.401c0.833-0.431,1.664-0.866,2.488-1.313
			c0.099-0.054,0.197-0.109,0.296-0.163c0.771-0.421,1.537-0.851,2.299-1.285c-1.006-0.838-1.996-1.715-2.954-2.672
			c-7.745-7.745-11.618-17.056-11.618-27.932s3.873-20.187,11.618-27.932c7.745-7.745,17.056-11.618,27.932-11.618
			s20.187,3.873,27.932,11.618c0.651,0.651,1.281,1.386,1.891,2.171c5.403-10.13,9.604-20.996,12.418-32.409
			C727.735,1080.021,724.696,1078.143,721.612,1076.549z"/>
	</g>
	<g>
		<path fill="none" d="M645.106,1136.394c0-22.084,17.903-39.987,39.987-39.987c13.873,0,26.093,7.068,33.265,17.796
			c10.421-19.68,16.331-42.116,16.331-65.936c0-77.936-63.18-141.116-141.116-141.116s-141.116,63.18-141.116,141.116
			c0,77.936,63.18,141.116,141.116,141.116c25.723,0,49.835-6.886,70.602-18.909
			C652.735,1163.438,645.106,1150.809,645.106,1136.394z"/>
	</g>
</g>
<g id="C">
</g>
<g id="titres__x2B__img">
</g>
</svg>
