<?xml version="1.0" encoding="UTF-8"?><svg xmlns="http://www.w3.org/2000/svg" width="40px" height="40px" viewBox="0 0 282.23 282.23"><g id="_00326E"><circle cx="141.12" cy="141.12" r="141.12" transform="translate(-58.45 141.12) rotate(-45)" style="fill:#00326e;"/></g><g id="C"><g style="opacity:.81;"><g id="Graduation_Cap"><path d="m59.21,245.83v-88.08l18,8.71v36.37c0,22.45,29.55,40.65,66,40.65s66-18.2,66-40.65v-36.37l35.36-17.11c3.94-1.91,6.64-5.85,6.64-10.39s-2.7-8.49-6.64-10.39l-96-46.45c-1.62-.78-3.44-1.22-5.36-1.22s-3.74.44-5.36,1.22l-96,46.45c-3.94,1.9-6.64,5.85-6.64,10.39s2.7,8.49,6.64,10.39l5.36,2.6v93.89m144-43c0,10.74-20.96,23.23-48,23.23s-48-12.48-48-23.23v-27.66l42.64,20.64c1.62.78,3.44,1.22,5.36,1.22s3.74-.43,5.36-1.22l42.64-20.64v27.66Zm-48-103.84l82.6,39.97-82.6,39.97-82.6-39.97" style="fill:#fff;"/></g></g><rect x="40.21" y="219.89" width="25" height="12" style="fill:#fff; opacity:.72;"/><rect x="135.63" y="27.38" width="12.66" height="26.5" style="fill:#c89209;"/><rect x="179.71" y="44.31" width="26.5" height="12.66" transform="translate(52.63 192.43) rotate(-60)" style="fill:#c89209;"/><rect x="218.71" y="78.31" width="26.5" height="12.66" transform="translate(11.74 196.32) rotate(-46.94)" style="fill:#c89209;"/><rect x="84.97" y="37.38" width="12.66" height="26.5" transform="translate(-13.09 52.43) rotate(-30)" style="fill:#c89209;"/><rect x="45.97" y="71.38" width="12.66" height="26.5" transform="translate(-43.7 58.51) rotate(-43.06)" style="fill:#c89209;"/><polyline points="143.3 99.03 225.89 139 143.3 178.97 60.7 139" style="fill:#c89209;"/></g></svg>