<?xml version="1.0" encoding="UTF-8"?>
<svg version="1.1" width="40px" height="40px" viewBox="0 0 141.46 141.46" xmlns="http://www.w3.org/2000/svg">
 <style type="text/css">.st0{fill:#0E326D;}
	.st1{fill:#FFFFFF;}</style>
 <g transform="translate(-3.01 -3.2)">
  <circle class="st0" cx="73.74" cy="73.93" r="70.73"/>
  <circle class="st1" cx="41.98" cy="45.39" r="10"/>
  <rect class="st1" x="73.49" y="35.89" width="47.91" height="75.95"/>
  <path class="st1" d="m21.85 64.08 0.04-0.22c0.33-1.84 2.23-5.36 7.04-5.54 0.7-0.03 1.93-0.04 3.48-0.04 7.49 0 23.01 0.26 23.17 0.26l0.86 0.01 14.83 11.98c3.45-2.68 11.51-8.92 13.8-10.52 1.67-1.28 3.56-1.96 5.45-1.96 3.32 0 6.32 2.11 7.45 5.25 1.26 3.49 0.01 7.24-3.34 10.05-2.9 2.82-18.33 15.01-18.49 15.13-1.35 1.07-2.85 1.61-4.46 1.61-2.65 0-4.63-1.52-5.13-1.95l-4.45-3.4-0.2 31.77-40.05 0.14z"/>
  <path class="st0" d="m90.52 60.56c4.77 0 8.11 6.25 2.43 10.95-2.25 2.24-15.08 12.44-18.35 15.03-1.01 0.8-2.01 1.07-2.91 1.07-2.03 0-3.55-1.39-3.55-1.39l-8.49-6.49-0.22 34.31-35.07 0.12v-49.86s0.6-3.34 4.68-3.49c0.68-0.03 1.88-0.04 3.39-0.04 7.56 0 23.12 0.26 23.12 0.26l15.71 12.68s12.55-9.79 15.3-11.69c1.32-1.02 2.69-1.46 3.96-1.46m0-5c-2.43 0-4.82 0.84-6.92 2.43-2.09 1.46-8.42 6.34-12.29 9.35l-12.63-10.19-1.34-1.08-1.72-0.03c-0.16 0-15.69-0.26-23.21-0.26-1.7 0-2.87 0.01-3.58 0.04-5.56 0.21-8.77 4.09-9.41 7.6l-0.08 0.44v55.32l5.02-0.02 35.07-0.12 4.95-0.02 0.03-4.95 0.15-24.28 0.41 0.31c0.83 0.7 3.32 2.5 6.7 2.5 2.15 0 4.23-0.74 6.01-2.15 1.61-1.27 15.52-12.27 18.61-15.24 4.07-3.46 5.61-8.33 4.02-12.76-1.47-4.11-5.41-6.89-9.79-6.89z"/>
 </g>
</svg>
