<svg xmlns="http://www.w3.org/2000/svg" width="40px" height="40px" viewBox="0 0 282.23 282.23">
  <defs>
    <style>
      .cls-1 {
        fill: #00326e;
      }

      .cls-2, .cls-4 {
        fill: #fff;
      }

      .cls-2, .cls-3 {
        stroke: #00326e;
      }

      .cls-2, .cls-3, .cls-4 {
        stroke-miterlimit: 10;
      }

      .cls-2 {
        stroke-width: 3px;
      }

      .cls-3 {
        fill: #c89109;
      }

      .cls-3, .cls-4 {
        stroke-width: 4px;
      }

      .cls-4 {
        stroke: #fff;
      }
    </style>
  </defs>
  <title>E</title>
  <g id="_00326E" data-name="00326E">
    <path class="cls-1" d="M141.12,0A141.12,141.12,0,1,1,0,141.12,141.12,141.12,0,0,1,141.12,0Z"/>
  </g>
  <g id="E">
    <path class="cls-2" d="M221.16,129.64H123.07a8.63,8.63,0,0,0-8.78,8.46v57.7a8.63,8.63,0,0,0,8.78,8.46h60.1S214.85,229,213.8,224.79c-1.59-6.37-3.18-16.21-4.06-20.53h11.42a8.63,8.63,0,0,0,8.78-8.46V138.1A8.63,8.63,0,0,0,221.16,129.64Z"/>
    <path class="cls-3" d="M56.14,69.72H167.53a10,10,0,0,1,10,10v68a10,10,0,0,1-10,10H99.28S63.45,186.8,64.5,181.83c2.37-11.28,3.94-19.93,4.89-24.2H56.14a10,10,0,0,1-10-10v-68A10,10,0,0,1,56.14,69.72Z"/>
    <line class="cls-4" x1="67.6" y1="99.6" x2="151.85" y2="99.6"/>
    <line class="cls-4" x1="67.6" y1="115.68" x2="109.85" y2="115.68"/>
  </g>
</svg>
