<?xml version="1.0" encoding="utf-8"?>
<!-- Generator: Adobe Illustrator 26.3.1, SVG Export Plug-In . SVG Version: 6.00 Build 0)  -->
<svg version="1.1" xmlns="http://www.w3.org/2000/svg" xmlns:xlink="http://www.w3.org/1999/xlink" x="0px" y="0px"
	 width="40px" height="40px" viewBox="-151.544 -905.311 282.232 282.233" enable-background="new -151.544 -905.311 282.232 282.233" xml:space="preserve">
<g id="blanc">
</g>
<g id="_x30_0326E">
	
		<ellipse transform="matrix(0.7071 -0.7071 0.7071 0.7071 537.3135 -231.2012)" fill="#00326E" cx="-10.428" cy="-764.195" rx="141.116" ry="141.117"/>
</g>
<g id="réserve" display="none">
	<path display="inline" opacity="0.15" fill="#FFFFFF" d="M116.99-825.808c9.05,18.617,14.126,39.522,14.126,61.612
		c0,77.938-63.178,141.117-141.111,141.117c-77.932,0-141.108-63.18-141.108-141.117c0-19.484,3.949-38.045,11.089-54.928"/>
	<g display="inline">
		<path fill="#FFFFFF" d="M-146.236-821.5v-8.232h8.232v8.232H-146.236z"/>
		<path fill="#FFFFFF" d="M-129.566-821.5v-8.232h8.232v8.232H-129.566z"/>
		<path fill="#FFFFFF" d="M-112.896-821.5v-8.232h8.232v8.232H-112.896z"/>
		<path fill="#FFFFFF" d="M-96.227-821.5v-8.232h8.232v8.232H-96.227z"/>
		<path fill="#FFFFFF" d="M-79.557-821.5v-8.232h8.232v8.232H-79.557z"/>
		<path fill="#FFFFFF" d="M-62.887-821.5v-8.232h8.232v8.232H-62.887z"/>
		<path fill="#FFFFFF" d="M-46.217-821.5v-8.232h8.232v8.232H-46.217z"/>
		<path fill="#FFFFFF" d="M-29.547-821.5v-8.232h8.232v8.232H-29.547z"/>
		<path fill="#FFFFFF" d="M-12.877-821.5v-8.232h8.232v8.232H-12.877z"/>
		<path fill="#FFFFFF" d="M3.793-821.5v-8.232h8.232v8.232H3.793z"/>
		<path fill="#FFFFFF" d="M20.463-821.5v-8.232h8.232v8.232H20.463z"/>
		<path fill="#FFFFFF" d="M37.133-821.5v-8.232h8.232v8.232H37.133z"/>
		<path fill="#FFFFFF" d="M53.803-821.5v-8.232h8.232v8.232H53.803z"/>
		<path fill="#FFFFFF" d="M70.473-821.5v-8.232h8.232v8.232H70.473z"/>
		<path fill="#FFFFFF" d="M87.143-821.5v-8.232h8.232v8.232H87.143z"/>
		<path fill="#FFFFFF" d="M103.812-821.5v-8.232h8.232v8.232H103.812z"/>
	</g>
	<g display="inline">
		<path fill="#FFFFFF" d="M41.76-765.423h-98.438l49.219-40L41.76-765.423z M38.792-688.157h-92.5v-5.469h92.5V-688.157z
			 M-44.255-701.126h-5.469v-59.297h5.469V-701.126z M-33.24-701.126h-5.469v-59.297h5.469V-701.126z M-22.224-701.126h-5.469
			v-59.297h5.469V-701.126z M-11.208-701.126h-5.469v-59.297h5.469V-701.126z M1.76-701.126h-5.469v-59.297H1.76V-701.126z
			 M12.776-701.126H7.307v-59.297h5.469V-701.126z M23.792-701.126h-5.469v-59.297h5.469V-701.126z M34.807-701.126h-5.469v-59.297
			h5.469V-701.126z"/>
	</g>
	<g display="inline">
		<path fill="#FFFFFF" d="M-82.422-804.736v-41.441h12.211v41.441H-82.422z"/>
		<path fill="#FFFFFF" d="M51.745-804.736v-41.441h12.211v41.441H51.745z"/>
	</g>
</g>
<g id="A_-_à_vérifier" display="none">
	<g display="inline">
		<path fill="#FFFFFF" d="M-58.64-695.158v-8.164c0-6.945,0.876-12.442,2.632-16.489c1.754-4.045,5.388-9.005,10.903-14.878
			l14.18-14.932c4.512-4.797,6.768-7.912,6.768-9.346c0-1.574-2.758-5.156-8.271-10.742l-14.18-14.609
			c-4.799-4.869-8.003-9.381-9.614-13.535c-1.611-4.152-2.417-9.883-2.417-17.188v-8.809c0-6.086,3.975-10.651,11.924-13.696
			c7.949-3.043,19.873-4.565,35.771-4.565c31.797,0,47.695,6.088,47.695,18.262v8.809c0,7.305-0.806,13.035-2.417,17.188
			c-1.611,4.154-4.817,8.666-9.614,13.535l-14.18,14.609c-5.443,5.586-8.164,9.168-8.164,10.742c0,1.434,2.219,4.549,6.66,9.346
			l14.18,14.932c5.514,5.873,9.147,10.833,10.903,14.878c1.754,4.047,2.632,9.544,2.632,16.489v8.164
			c0,6.59-4.047,11.566-12.139,14.932c-8.094,3.365-19.945,5.049-35.557,5.049c-15.613,0-27.465-1.684-35.557-5.049
			C-54.595-683.592-58.64-688.568-58.64-695.158z M-53.376-821.057v10.312c0,4.941,0.715,8.755,2.148,11.44
			c1.432,2.686,5.119,7.216,11.064,13.589l12.139,12.891c6.086,6.66,9.131,11.352,9.131,14.072c0,2.793-2.793,7.197-8.379,13.213
			l-13.965,14.932c-5.443,5.801-8.827,10.135-10.151,12.998c-1.326,2.865-1.987,7.197-1.987,12.998v7.734
			c0,4.656,1.682,7.879,5.049,9.668c8.234,4.512,20.695,6.768,37.383,6.768c16.758,0,29.219-2.256,37.383-6.768
			c3.365-1.789,5.049-5.012,5.049-9.668v-7.734c0-5.801-0.661-10.133-1.982-12.998c-1.32-2.863-4.692-7.197-10.117-12.998
			L5.463-745.539c-5.568-6.016-8.352-10.562-8.352-13.643c0-2.434,3.07-6.982,9.21-13.643l11.994-12.891
			c5.925-6.373,9.601-10.903,11.029-13.589c1.427-2.686,2.142-6.499,2.142-11.44v-10.312c-9.812,6.23-23.955,9.346-42.432,9.346
			c-9.238,0-17.386-0.787-24.438-2.363C-42.438-815.648-48.435-817.977-53.376-821.057z M-10.945-816.975
			c9.883,0,19.014-1.109,27.393-3.33c8.379-2.219,12.496-4.619,12.354-7.197c-0.145-2.648-3.993-4.869-11.548-6.66
			c-7.557-1.789-16.956-2.686-28.198-2.686c-11.316,0-20.77,0.913-28.359,2.739c-7.592,1.826-11.387,4.101-11.387,6.821
			c0,2.508,4.206,4.853,12.622,7.036C-29.655-818.065-20.613-816.975-10.945-816.975z M-48.005-694.836
			c1.146-4.297,5.45-8.379,12.909-12.246l9.467-4.834c5.951-3.078,9.52-5.156,10.703-6.23s2.528-3.473,4.035-7.197
			c1.572,3.725,2.931,6.123,4.075,7.197s4.685,3.152,10.62,6.23l9.439,4.834c7.436,3.867,11.728,7.949,12.872,12.246
			c-9.096,4.584-21.449,6.875-37.061,6.875C-26.558-687.961-38.912-690.252-48.005-694.836z M-41.99-799.787
			c10.598,6.732,20.947,10.098,31.045,10.098s20.48-3.365,31.152-10.098c-1.787,2.865-5.721,7.592-11.796,14.18l-8.901,9.775
			c-4.005,4.369-6.436,7.396-7.293,9.077c-0.857,1.684-1.572,4.888-2.144,9.614c-0.145,1.434-0.465,3.582-0.965,6.445
			c-0.504-2.863-0.826-5.012-0.969-6.445c-0.574-4.727-1.292-7.931-2.153-9.614c-0.861-1.682-3.3-4.708-7.316-9.077l-8.931-9.775
			C-36.359-792.195-40.268-796.922-41.99-799.787z"/>
	</g>
	<g id="Calque_2" display="inline">
	</g>
	<g id="Calque_7" display="inline">
	</g>
</g>
<g id="B" display="none">
	<g display="inline">
		<path fill="#FFFFFF" d="M-35.643-778.45l-46.113,23.372c1.268,3.774,3.645,7.893,7.128,12.357l-53.23,65.986l-4.661-20.869
			l45.433-56.204c2.02-2.525,3.498-4.091,4.434-4.698c0.936-0.606,2.665-1.553,5.186-2.841l45.357-22.986
			c3.085-1.546,5.561-2.173,7.428-1.88c3.68,0.577,5.164,3.129,4.454,7.657c-0.106,0.679-0.313,1.633-0.623,2.86l-12.873,49.652
			c-0.68,2.503-1.223,4.303-1.626,5.399c-0.403,1.097-1.648,2.96-3.737,5.59l-45.349,56.307l-21.347-0.218l53.111-65.787
			c4.446,1.973,9.037,3.389,13.774,4.248l13.066-50.058C-30.738-771.447-34.008-774.076-35.643-778.45z M-71.461-739.18
			c4.912,4.753,9.801,8.723,14.667,11.909l-53.464,66.146l-14.648-11.799L-71.461-739.18z"/>
	</g>
	<g display="inline" opacity="0.9">
		<path fill="#FFFFFF" d="M61.125-679.538H39.001v22.236H-82.962v-166.211h22.124v-22.236h22.236v-22.124H83.249v166.211H61.125
			V-679.538z M33.498-818.01H-77.459v155.205H33.498V-818.01z M-55.335-840.246v16.733h94.336v138.472h16.621v-155.205H-55.335z
			 M-33.099-862.37v16.621h94.224v138.584h16.621V-862.37H-33.099z"/>
	</g>
</g>
<g id="C">
	<g id="B_00000054233663340786904600000017310070990732997799_">
		<g>
			<g opacity="0.9">
				<path fill="#00AAD3" d="M21.329-855.4c6.48-1.459,12.642-1.239,18.488,0.667l-19.631,19.631l0.762,14.295l7.433,7.433
					l14.104,0.762l19.631-19.631c2.032,5.846,2.317,12.008,0.858,18.488c-1.462,6.48-4.545,12.007-9.244,16.582
					c-4.449,4.449-9.625,7.466-15.533,9.053c-5.908,1.59-11.787,1.62-17.63,0.096c-20.84,14.613-38.565,31.957-53.176,52.032
					c1.906,5.846,2.097,11.912,0.572,18.202c-1.525,6.29-4.574,11.721-9.149,16.296c-4.703,4.703-10.292,7.784-16.772,9.244
					s-12.644,1.174-18.488-0.858l19.631-19.631l-0.762-14.104l-7.433-7.433l-14.104-0.762l-19.631,19.631
					c-2.033-5.843-2.32-12.007-0.858-18.488c1.459-6.481,4.542-12.07,9.243-16.772c5.081-5.081,11.179-8.258,18.297-9.53
					c7.114-1.269,13.785-0.507,20.012,2.287c18.422-13.341,34.813-30.177,49.173-50.507c-2.668-6.224-3.335-12.799-2.001-19.727
					c1.335-6.924,4.479-12.928,9.434-18.011C9.256-850.857,14.848-853.938,21.329-855.4z"/>
			</g>
		</g>
	</g>
	<g>
		<path fill="#00AAD3" d="M-2.076-711.737c1.528-2.07,3.463-4.412,5.805-6.755c4.243-4.243,8.248-6.279,12.119-6.415
			c3.903-0.169,7.738,1.29,11.438,4.99c3.733,3.734,5.635,7.943,5.601,12.187c0,4.277-2.376,8.961-6.822,13.408
			c-2.105,2.104-3.972,3.767-5.635,5.091L-2.076-711.737z M21.107-694.458c0.883-0.611,2.004-1.664,3.158-2.817
			c6.313-6.314,6.211-13.272,0.033-19.451c-5.363-5.431-11.846-5.803-18.092,0.442c-1.527,1.527-2.547,2.817-3.157,3.768
			L21.107-694.458z"/>
		<path fill="#00AAD3" d="M24.092-737.972c1.189-1.663,2.852-3.734,5.229-6.11c2.918-2.919,5.736-4.378,8.316-4.514
			c2.342-0.17,4.752,0.747,6.789,2.784c2.07,2.07,3.088,4.311,3.122,6.653c0.103,3.224-1.595,6.62-4.479,9.504
			c-0.883,0.883-1.732,1.663-2.581,2.172l9.165,9.165l-2.953,2.953L24.092-737.972z M38.078-729.893
			c0.814-0.475,1.696-1.222,2.681-2.207c3.564-3.564,4.006-7.468,0.849-10.625c-3.021-3.021-6.618-2.342-9.877,0.917
			c-1.29,1.29-2.174,2.375-2.547,3.021L38.078-729.893z"/>
		<path fill="#00AAD3" d="M48.429-762.852l22.878,22.878l-2.953,2.953l-22.878-22.878L48.429-762.852z"/>
	</g>
</g>
<g id="titres__x2B__img" display="none">
</g>
</svg>
