<?xml version="1.0" encoding="UTF-8"?><svg xmlns="http://www.w3.org/2000/svg" width="40px" height="40px" viewBox="0 0 282.23 282.23"><g id="_00326E"><path d="m172.11,266.14l6.26-12.85-13.02-6.26c-.77-3.84-1.21-7.75-1.32-11.7l11.37-8.9-9.06-11.21c.99-3.96,2.31-7.75,3.96-11.37l14.01-3.13-3.3-14.01c2.64-2.97,5.44-5.77,8.4-8.4l14.01,3.3,3.13-14.01c3.63-1.65,7.42-2.97,11.37-3.96l11.21,9.06,8.9-11.37c3.95.11,7.91.55,11.87,1.32l6.1,13.02,13.02-6.26c3.08,1.59,6.12,3.47,9.12,5.6,2.68-10.86,4.11-22.21,4.11-33.9C282.23,63.18,219.05,0,141.12,0S0,63.18,0,141.12s63.18,141.12,141.12,141.12c14.08,0,27.67-2.07,40.49-5.91l-3.07.04c-2.53-3.3-4.67-6.7-6.43-10.22Z" style="fill:#00326e;"/></g><g id="C"><path d="m269.16,169.41l-13.02,6.26-6.1-13.02c-3.96-.77-7.91-1.21-11.87-1.32l-8.9,11.37-11.21-9.06c-3.96.99-7.75,2.31-11.37,3.96l-3.13,14.01-14.01-3.3c-2.97,2.64-5.77,5.44-8.4,8.4l3.3,14.01-14.01,3.13c-1.65,3.63-2.97,7.42-3.96,11.37l9.06,11.21-11.37,8.9c.11,3.96.55,7.86,1.32,11.7l13.02,6.26-6.26,12.85c1.76,3.52,3.9,6.92,6.43,10.22l3.11-.04c10.3-3.08,20.11-7.3,29.27-12.52-1.01-.84-2-1.72-2.97-2.68-7.75-7.75-11.62-17.06-11.62-27.93s3.87-20.19,11.62-27.93c7.75-7.75,17.06-11.62,27.93-11.62s20.19,3.87,27.93,11.62c.66.66,1.29,1.4,1.91,2.19,5.41-10.13,9.61-21,12.43-32.41-3-2.14-6.05-4.02-9.15-5.62Z" style="fill:#c89209;"/><path d="m192.65,229.26c0-22.08,17.9-39.99,39.99-39.99,13.87,0,26.09,7.07,33.26,17.8,10.42-19.68,16.33-42.12,16.33-65.94C282.23,63.19,219.05.01,141.12.01S0,63.19,0,141.13s63.18,141.12,141.12,141.12c25.72,0,49.84-6.89,70.6-18.91-11.44-7.04-19.07-19.67-19.07-34.08Z" style="fill:none;"/><path d="m39.27,170.48h9.38v-43.75h12.5v43.75h9.38l-15.62,25-15.62-25Z" style="fill:#c89108;"/><path d="m176.75,46.64l15.62,25h-9.38v43.75h-12.5v-43.75h-9.38l15.62-25Z" style="fill:#c89108;"/><path d="m146.97,45.74v130.84h-11.06V45.74h11.06Z" style="fill:#c89108;"/><path d="m122.37,45.74v130.84h-11.06V45.74h11.06Z" style="fill:#c89108;"/><path d="m97.76,45.74v130.84h-11.06V45.74h11.06Z" style="fill:#c89108;"/></g></svg>