<?xml version="1.0" encoding="utf-8"?>
<!-- Generator: Adobe Illustrator 23.0.2, SVG Export Plug-In . SVG Version: 6.00 Build 0)  -->
<svg version="1.1" xmlns="http://www.w3.org/2000/svg" xmlns:xlink="http://www.w3.org/1999/xlink" x="0px" y="0px"
	 width="40px" height="40px" viewBox="1064.151 -1812.768 283.465 283.465" enable-background="new 1064.151 -1812.768 283.465 283.465" xml:space="preserve">
<g id="_x30_0326E">
	<path fill="#00326E" d="M1206.499-1811.535c77.938,0,141.117,63.18,141.117,141.115c0,77.938-63.18,141.117-141.117,141.117
		c-77.935,0-141.115-63.18-141.115-141.117C1065.384-1748.355,1128.564-1811.535,1206.499-1811.535z"/>
</g>
<g id="réserve" display="none">
</g>
<g id="A_-_à_vérifier" display="none">
	<g id="Calque_2" display="inline">
	</g>
	<g id="Calque_7" display="inline">
	</g>
</g>
<g id="B" display="none">
	<g display="inline">
		<path fill="#FFFFFF" stroke="#FFFFFF" stroke-width="3" d="M1114.566-1725.147h179.279v114.491h-179.279V-1725.147z
			 M1178.626-1667.841l-59.609-50.804v101.491L1178.626-1667.841z M1122.196-1721.356l78.875,67.224
			c0.848,0.723,1.907,1.084,3.181,1.084c1.271,0,2.331-0.361,3.18-1.084l78.875-67.224H1122.196z M1226.695-1665.13l-16.083,13.561
			c-1.757,1.541-3.877,2.312-6.36,2.312s-4.635-0.771-6.451-2.312l-15.993-13.561l-59.611,50.683h164.02L1226.695-1665.13z
			 M1229.877-1667.841l59.519,50.687v-101.491L1229.877-1667.841z"/>
	</g>
</g>
<g id="B_bis">
</g>
<g id="C">
	<g>
		<rect x="1088.686" y="-1764.616" fill="none" width="30.598" height="30.598"/>
		<rect x="1128.584" y="-1764.916" fill="none" width="30.598" height="30.598"/>
		<rect x="1169.081" y="-1764.616" fill="none" width="30.598" height="30.598"/>
		<rect x="1169.081" y="-1804.514" fill="none" width="30.598" height="30.599"/>
		<rect x="1208.979" y="-1724.72" fill="none" width="30.598" height="30.599"/>
		<rect x="1208.979" y="-1764.616" fill="none" width="30.598" height="30.598"/>
		<rect x="1208.979" y="-1804.514" fill="none" width="30.598" height="30.599"/>
		<rect x="1248.871" y="-1724.72" fill="none" width="30.6" height="30.599"/>
		<rect x="1248.871" y="-1764.616" fill="none" width="30.6" height="30.598"/>
		<rect x="1288.769" y="-1724.72" fill="none" width="30.598" height="30.599"/>
		
			<rect x="1288.769" y="-1724.72" opacity="0.69" fill="#FFFFFF" stroke="#00326E" stroke-width="3" stroke-miterlimit="10" width="30.598" height="30.599"/>
		
			<rect x="1248.871" y="-1764.616" fill="#ED9B27" stroke="#00326E" stroke-width="3" stroke-miterlimit="10" width="30.6" height="30.598"/>
		
			<rect x="1248.871" y="-1724.72" opacity="0.69" fill="#FFFFFF" stroke="#00326E" stroke-width="3" stroke-miterlimit="10" width="30.6" height="30.599"/>
		
			<rect x="1169.081" y="-1764.616" fill="#FFFFFF" stroke="#00326E" stroke-width="3" stroke-miterlimit="10" width="30.598" height="30.598"/>
		
			<rect x="1208.979" y="-1764.616" fill="#FFFFFF" stroke="#00326E" stroke-width="3" stroke-miterlimit="10" width="30.598" height="30.598"/>
		
			<rect x="1208.979" y="-1724.72" fill="#ED9B27" stroke="#00326E" stroke-width="3" stroke-miterlimit="10" width="30.598" height="30.599"/>
		
			<rect x="1208.979" y="-1804.514" opacity="0.54" fill="#FFFFFF" stroke="#00326E" stroke-width="3" stroke-miterlimit="10" width="30.598" height="30.599"/>
		<rect x="1128.584" y="-1764.916" fill="#FFFFFF" width="30.598" height="30.598"/>
	</g>
	
		<rect x="1128.584" y="-1764.916" fill="#ED9B27" stroke="#00326E" stroke-width="3" stroke-miterlimit="10" width="30.598" height="30.598"/>
	<path opacity="0.81" fill="#FFFFFF" d="M1280.232-1555.516v-50.4c0-3.9-1.401-7.224-4.2-9.975
		c-2.801-2.749-6.149-4.125-10.05-4.125s-7.226,1.376-9.975,4.125c-2.752,2.751-4.125,6.075-4.125,9.975v10.35h-2.851v-21
		c0-3.9-1.376-7.224-4.125-9.975c-2.751-2.749-6.075-4.125-9.975-4.125c-3.9,0-7.252,1.376-10.05,4.125
		c-2.801,2.751-4.2,6.075-4.2,9.975v21h-2.7v-21c0-3.9-1.401-7.224-4.2-9.975c-2.801-2.749-6.149-4.125-10.05-4.125
		s-7.252,1.376-10.05,4.125c-2.801,2.751-4.2,6.075-4.2,9.975v21h-2.7v-67.35c0-3.9-1.401-7.249-4.2-10.05
		c-2.801-2.799-6.149-4.2-10.05-4.2c-3.899,0-7.226,1.401-9.975,4.2c-2.752,2.801-4.125,6.15-4.125,10.05v73.95l-12.601-26.25
		c-1.199-2.6-2.977-4.575-5.324-5.925c-2.352-1.35-4.826-2.074-7.426-2.175c-0.3,0-0.651,0.026-1.05,0.075
		c-0.4,0.052-0.75,0.075-1.05,0.075c-0.701,0.101-1.401,0.251-2.1,0.45c-0.701,0.201-1.402,0.501-2.101,0.9
		c-2.501,1.2-4.45,2.977-5.85,5.325c-1.401,2.351-2.101,4.826-2.101,7.425c0,1,0.125,2.025,0.375,3.075
		c0.249,1.05,0.574,2.077,0.976,3.075l29.819,61.837c17.301,7.568,36.406,11.776,56.498,11.776c26.583,0,51.447-7.355,72.675-20.135
		c0.139-0.453,0.267-0.904,0.383-1.354C1280.008-1552.542,1280.232-1554.117,1280.232-1555.516z"/>
</g>
<g id="titres__x2B__img">
</g>
</svg>
