<?xml version="1.0" encoding="utf-8"?>
<!-- Generator: Adobe Illustrator 23.0.2, SVG Export Plug-In . SVG Version: 6.00 Build 0)  -->
<svg version="1.1" xmlns="http://www.w3.org/2000/svg" xmlns:xlink="http://www.w3.org/1999/xlink" x="0px" y="0px"
	 viewBox="1056.757 -1509.46 282.232 282.232" enable-background="new 1056.757 -1509.46 282.232 282.232" xml:space="preserve">
<g id="_x30_0326E">
	<path fill="#00326E" d="M1197.872-1509.04c77.938,0,141.117,63.18,141.117,141.115c0,77.937-63.18,141.117-141.117,141.117
		c-77.936,0-141.115-63.18-141.115-141.117C1056.757-1445.86,1119.937-1509.04,1197.872-1509.04z"/>
</g>
<g id="réserve" display="none">
</g>
<g id="A_-_à_vérifier" display="none">
	<g display="inline" opacity="0.7">
		<path fill="#FFFFFF" d="M1344.757-1211.91h-300v-139.453h56.689l35.156-73.242l33.252,73.242h58.154v-23.438h-66.943l58.74-42.92
			h-36.914l45.117-43.359h-23.291l37.061-29.883l36.914,29.883h-23.291l45.117,43.359h-36.914l58.887,42.92h-67.09v23.438h89.355
			V-1211.91z M1201.642-1271.969l-65.039-146.631l-68.848,146.631h43.652v-42.773c0-6.249,1.854-12.012,5.566-17.285
			c4.589-6.738,11.133-10.107,19.629-10.107c8.397,0,14.941,3.369,19.629,10.107c3.611,5.273,5.42,11.037,5.42,17.285v42.773
			H1201.642z"/>
	</g>
	<g id="Calque_2" display="inline">
	</g>
	<g id="Calque_7" display="inline">
	</g>
</g>
<g id="B" display="none">
	<g display="inline" opacity="0.95">
		<path fill="#FFFFFF" d="M1256.055-1347.963l-48.953,17.416l11.297,40.245h-88.139l11.297-40.48l-13.887-4.942l-18.121,62.722
			l-11.297-10.592l25.771-53.424l-31.772-10.944l81.902-29.302L1256.055-1347.963z M1210.514-1294.773l-8.943-33.772l-27.064,9.648
			l-27.419-9.885l-8.943,34.009H1210.514z M1205.336-1299.245h-62.015l5.884-23.771l25.301,9.414l24.594-8.237L1205.336-1299.245z"
			/>
	</g>
	<path display="inline" opacity="0.8" fill="#FFFFFF" d="M1140.036-1325.491l-0.221,0.29c0.044,0.012,0.082,0.037,0.107,0.05
		L1140.036-1325.491z M1150.843-1463.332v81.727c1.401-0.264,2.848-0.415,4.331-0.415c1.276,0,2.527,0.126,3.747,0.34v-73.566
		h111.713v154.777h-43.005l4.477,8.072h46.601v-170.934H1150.843z M1187.852-1443.139v8.072h53.833v-8.072H1187.852z
		 M1171.381-1417.729h84.14v-4.551h-84.14V-1417.729z M1171.381-1404.099h84.14v-4.564h-84.14V-1404.099z M1171.381-1390.13h84.14
		v-4.539h-84.14V-1390.13z M1171.381-1375.909h84.14v-4.564h-84.14V-1375.909z"/>
</g>
<g id="B_bis">
</g>
<g id="C">
	<g opacity="0.82">
		<g>
			<path fill="none" d="M1323.451-1406.017v-15.3h4.843c-0.639-1.563-1.296-3.116-1.989-4.65h-2.854v-5.936
				c-6.524-12.808-14.951-24.481-24.9-34.661v0.547h-15.3v-14.096c-2.605-1.992-5.282-3.894-8.026-5.704h-11.924v-7.05
				c-1.632-0.86-3.281-1.693-4.95-2.49v9.54h-15.3v-15.3h1.333c-14.632-5.136-30.363-7.939-46.75-7.939
				c-31.573,0-60.723,10.371-84.233,27.89h4.703v15.3h-15.301v-6.576c-28.432,25.816-46.285,63.074-46.285,104.503
				c0,57.845,34.809,107.551,84.618,129.34l-29.819-61.837c-0.401-0.999-0.727-2.025-0.976-3.075
				c-0.25-1.05-0.375-2.074-0.375-3.075c0-2.599,0.699-5.074,2.101-7.425c1.399-2.348,3.349-4.125,5.85-5.325
				c0.698-0.398,1.399-0.699,2.101-0.9c0.698-0.199,1.398-0.35,2.1-0.45c0.3,0,0.649-0.023,1.05-0.075
				c0.398-0.049,0.75-0.075,1.05-0.075c2.6,0.101,5.074,0.825,7.426,2.175c2.348,1.35,4.125,3.326,5.324,5.925l12.601,26.25v-73.95
				c0-3.9,1.373-7.249,4.125-10.05c2.749-2.799,6.075-4.2,9.975-4.2c3.9,0,7.249,1.401,10.05,4.2c2.799,2.801,4.2,6.15,4.2,10.05
				v67.35h2.7v-21c0-3.9,1.399-7.224,4.2-9.975c2.798-2.749,6.149-4.125,10.05-4.125s7.249,1.376,10.05,4.125
				c2.799,2.751,4.2,6.075,4.2,9.975v21h2.7v-21c0-3.9,1.399-7.224,4.2-9.975c2.798-2.749,6.149-4.125,10.05-4.125
				c3.899,0,7.224,1.376,9.975,4.125c2.749,2.751,4.125,6.075,4.125,9.975v21h2.851v-10.35c0-3.9,1.373-7.224,4.125-9.975
				c2.749-2.749,6.074-4.125,9.975-4.125s7.249,1.376,10.05,4.125c2.799,2.751,4.2,6.075,4.2,9.975v50.4
				c0,1.399-0.225,2.974-0.675,4.725c-0.116,0.449-0.244,0.9-0.383,1.354c41.008-24.687,68.441-69.628,68.441-120.981
				c0-13.194-1.816-25.963-5.203-38.077H1323.451z M1118.104-1406.017h-15.301v-15.3h15.301V-1406.017z M1118.104-1425.968h-15.301
				v-15.3h15.301V-1425.968z M1118.104-1445.917h-15.301v-15.3h15.301V-1445.917z M1158.303-1425.968h-15.3v-15.3h15.3V-1425.968z
				 M1158.303-1465.868h-15.3v-15.3h15.3V-1465.868z M1178.253-1426.118h-15.3v-15.3h15.3V-1426.118z M1178.253-1466.017h-15.3
				v-15.3h15.3V-1466.017z M1198.503-1425.968h-15.3v-15.3h15.3V-1425.968z M1198.503-1445.917h-15.3v-15.3h15.3V-1445.917z
				 M1198.503-1465.868h-15.3v-15.3h15.3V-1465.868z M1218.453-1406.017h-15.3v-15.3h15.3V-1406.017z M1218.453-1425.968h-15.3
				v-15.3h15.3V-1425.968z M1218.453-1445.917h-15.3v-15.3h15.3V-1445.917z M1218.453-1465.868h-15.3v-15.3h15.3V-1465.868z
				 M1218.453-1485.818h-15.3v-15.3h15.3V-1485.818z M1238.402-1406.017h-15.301v-15.3h15.301V-1406.017z M1238.402-1425.968
				h-15.301v-15.3h15.301V-1425.968z M1238.402-1445.917h-15.301v-15.3h15.301V-1445.917z M1238.402-1465.868h-15.301v-15.3h15.301
				V-1465.868z M1238.402-1485.818h-15.301v-15.3h15.301V-1485.818z M1258.351-1406.017h-15.3v-15.3h15.3V-1406.017z
				 M1258.351-1445.917h-15.3v-15.3h15.3V-1445.917z M1258.351-1465.868h-15.3v-15.3h15.3V-1465.868z M1298.551-1406.167h-15.3
				v-15.3h15.3V-1406.167z M1298.551-1446.068h-15.3v-15.3h15.3V-1446.068z M1318.801-1406.017h-15.3v-15.3h15.3V-1406.017z"/>
			<path fill="#FFFFFF" d="M1275.225-1485.818c-3.847-2.538-7.826-4.891-11.924-7.05v7.05H1275.225z"/>
			<rect x="1243.051" y="-1461.218" fill="#C89109" width="15.3" height="15.3"/>
			<rect x="1223.101" y="-1501.118" fill="#FFFFFF" width="15.301" height="15.3"/>
			<rect x="1243.051" y="-1421.318" fill="#C89109" width="15.3" height="15.3"/>
			<rect x="1303.501" y="-1421.318" fill="#C89109" width="15.3" height="15.3"/>
			<rect x="1223.101" y="-1481.167" fill="#C89109" width="15.301" height="15.3"/>
			<rect x="1283.251" y="-1461.368" fill="#FFFFFF" width="15.3" height="15.3"/>
			<rect x="1283.251" y="-1421.468" fill="#C89109" width="15.3" height="15.3"/>
			<rect x="1243.051" y="-1481.167" fill="#FFFFFF" width="15.3" height="15.3"/>
			<path fill="#FFFFFF" d="M1243.051-1485.818h15.3v-9.54c-4.527-2.161-9.189-4.083-13.967-5.76h-1.333V-1485.818z"/>
			<rect x="1223.101" y="-1461.218" fill="#FFFFFF" width="15.301" height="15.3"/>
			<rect x="1223.101" y="-1441.267" fill="#C89109" width="15.301" height="15.3"/>
			<path fill="#FFFFFF" d="M1298.551-1466.017v-0.547c-4.764-4.874-9.876-9.403-15.3-13.549v14.096H1298.551z"/>
			<path fill="#FFFFFF" d="M1323.451-1406.017h10.096c-1.462-5.23-3.222-10.334-5.252-15.3h-4.843V-1406.017z"/>
			<rect x="1223.101" y="-1421.318" fill="#FFFFFF" width="15.301" height="15.3"/>
			<rect x="1183.203" y="-1441.267" fill="#C89109" width="15.3" height="15.3"/>
			<rect x="1203.154" y="-1441.267" fill="#FFFFFF" width="15.3" height="15.3"/>
			<rect x="1203.154" y="-1421.318" fill="#FFFFFF" width="15.3" height="15.3"/>
			<rect x="1183.203" y="-1461.218" fill="#FFFFFF" width="15.3" height="15.3"/>
			<rect x="1183.203" y="-1481.167" fill="#C89109" width="15.3" height="15.3"/>
			<rect x="1203.154" y="-1501.118" fill="#FFFFFF" width="15.3" height="15.3"/>
			<rect x="1203.154" y="-1481.167" fill="#FFFFFF" width="15.3" height="15.3"/>
			<rect x="1203.154" y="-1461.218" fill="#C89109" width="15.3" height="15.3"/>
			<rect x="1102.803" y="-1461.218" fill="#C89109" width="15.301" height="15.3"/>
			<rect x="1102.803" y="-1441.267" fill="#FFFFFF" width="15.301" height="15.3"/>
			<rect x="1162.953" y="-1481.318" fill="#FFFFFF" width="15.3" height="15.3"/>
			<rect x="1143.003" y="-1441.267" fill="#FFFFFF" width="15.3" height="15.3"/>
			<rect x="1162.953" y="-1441.417" fill="#C89109" width="15.3" height="15.3"/>
			<rect x="1143.003" y="-1481.167" fill="#C89109" width="15.3" height="15.3"/>
		</g>
		<path fill="#C89109" d="M1271.366-1253.038v-50.4c0-3.9-1.401-7.224-4.2-9.975c-2.801-2.749-6.149-4.125-10.05-4.125
			s-7.226,1.376-9.975,4.125c-2.752,2.751-4.125,6.075-4.125,9.975v10.35h-2.851v-21c0-3.9-1.376-7.224-4.125-9.975
			c-2.751-2.749-6.075-4.125-9.975-4.125c-3.9,0-7.252,1.376-10.05,4.125c-2.801,2.751-4.2,6.075-4.2,9.975v21h-2.7v-21
			c0-3.9-1.401-7.224-4.2-9.975c-2.801-2.749-6.149-4.125-10.05-4.125s-7.252,1.376-10.05,4.125c-2.801,2.751-4.2,6.075-4.2,9.975
			v21h-2.7v-67.35c0-3.9-1.401-7.249-4.2-10.05c-2.801-2.799-6.149-4.2-10.05-4.2c-3.899,0-7.226,1.401-9.975,4.2
			c-2.752,2.801-4.125,6.15-4.125,10.05v73.95l-12.601-26.25c-1.199-2.6-2.977-4.575-5.324-5.925
			c-2.352-1.35-4.826-2.074-7.426-2.175c-0.3,0-0.651,0.026-1.05,0.075c-0.4,0.052-0.75,0.075-1.05,0.075
			c-0.701,0.101-1.401,0.251-2.1,0.45c-0.701,0.201-1.402,0.501-2.101,0.9c-2.501,1.2-4.45,2.977-5.85,5.325
			c-1.401,2.351-2.101,4.826-2.101,7.425c0,1,0.125,2.025,0.375,3.075c0.249,1.05,0.574,2.077,0.976,3.075l29.819,61.837
			c17.301,7.568,36.406,11.776,56.498,11.776c26.583,0,51.447-7.355,72.675-20.135c0.139-0.453,0.267-0.904,0.383-1.354
			C1271.142-1250.064,1271.366-1251.639,1271.366-1253.038z"/>
	</g>
</g>
<g id="titres__x2B__img" display="none">
</g>
</svg>
