<?xml version="1.0" encoding="UTF-8"?>
<svg width="40px" height="40px" enable-background="new 452.606 302.988 282.232 282.232" version="1.1" width="40px" height="40px" viewBox="452.61 302.99 282.23 282.23" xml:space="preserve" xmlns="http://www.w3.org/2000/svg"><g display="none"><rect x="116.27" y="-356.43" width="4471.8" height="5688" display="inline" fill="#fff"/></g><circle cx="593.72" cy="444.11" r="141.12" fill="#00326e"/><g display="none"/><g transform="matrix(2.8405 0 0 2.8405 520.63 332.28)"><path d="m5.6708 69.79v-7.157l5.1796-9.9558c2.8488-5.4757 7.6077-12.593 10.575-15.816l5.3958-5.8601 0.09926 18.885-4.5389 4.3077c-2.4964 2.3692-7.2777 8.458-10.625 13.531l-6.0861 9.2229v-7.157zm21.459-1.2888 0.4777-8.75 6.125-10.279c3.3687-5.6535 7.9954-12.092 10.281-14.308l4.1565-4.0286-0.02662 18.615-4.5543 4.375c-2.5049 2.4062-7.3405 8.5938-10.746 13.75l-6.1916 9.375 0.4777-8.75z" fill="#09a0af"/><path d="m5.3583 77.852c-3.5722 1.4317-1.7861 0.71586 0 0zm8.8866-46.541c-6.9785-11.226-8.5741-15.608-8.5741-23.546v-7.7102l6.0682 9.2229c3.3375 5.0726 8.0331 11.216 10.435 13.653l4.3666 4.4297-4.0048 4.6328c-2.2026 2.5481-4.2264 4.6318-4.4973 4.6306-0.27089-0.0012-1.978-2.3919-3.7935-5.3125zm21.25 0c-6.9785-11.226-8.5741-15.608-8.5741-23.546v-7.7102l6.099 9.3427c3.3544 5.1385 8.0447 11.288 10.423 13.666l4.3238 4.3238-3.9927 4.6189c-2.196 2.5404-4.2144 4.6179-4.4853 4.6167-0.27089-0.0012-1.978-2.3919-3.7935-5.3125z" fill="#9fcfd6"/></g></svg>
