<?xml version="1.0" encoding="utf-8"?>
<!-- Generator: Adobe Illustrator 23.0.2, SVG Export Plug-In . SVG Version: 6.00 Build 0)  -->
<svg version="1.1" xmlns="http://www.w3.org/2000/svg" xmlns:xlink="http://www.w3.org/1999/xlink" x="0px" y="0px"
	 width="40px" height="40px" viewBox="-755.694 1813.364 282.232 282.233" enable-background="new -755.694 1813.364 282.232 282.233" xml:space="preserve">
<g id="_x2D_--" display="none">
</g>
<g id="fond" display="none">
	<path display="inline" fill="#21558B" d="M-614.58,1813.364c77.938,0,141.117,63.18,141.117,141.115
		c0,77.938-63.179,141.117-141.117,141.117c-77.935,0-141.114-63.18-141.114-141.117
		C-755.694,1876.544-692.514,1813.364-614.58,1813.364z"/>
</g>
<g id="_x30_0326E">
	<path fill="#00326E" d="M-614.58,1813.364c77.938,0,141.117,63.18,141.117,141.115c0,77.938-63.179,141.117-141.117,141.117
		c-77.935,0-141.114-63.18-141.114-141.117C-755.694,1876.544-692.514,1813.364-614.58,1813.364z"/>
</g>
<g id="A" display="none">
	<g id="Calque_2" display="inline">
	</g>
	<g id="Calque_7" display="inline">
	</g>
	<g display="inline" opacity="0.8">
		<path fill="#FFFFFF" d="M-732.867,2050.004c1.025,0,2.006-0.302,2.939-0.91c0.932-0.605,1.352-1.516,1.26-2.729l-4.199-1.399
			V2050.004z"/>
		<path fill="#FFFFFF" d="M-737.067,2050.564l-7,7v2.38c1.96,0,3.64-0.886,5.04-2.66c1.399-1.772,2.1-3.546,2.1-5.319
			c0-0.187-0.023-0.442-0.07-0.771C-737.046,2050.868-737.067,2050.658-737.067,2050.564z"/>
	</g>
</g>
<g id="B" display="none">
</g>
<g id="B_bis">
	<g opacity="0.9">
		<path fill="#FFFFFF" d="M-615.628,1908.739c6.263,0,11.89-2.031,16.885-6.094c2.539,1.102,4.463,1.948,5.776,2.539
			c1.312,0.594,3.066,1.44,5.269,2.539c2.2,1.102,3.892,2.054,5.078,2.856c1.185,0.806,2.559,1.841,4.126,3.11
			c1.565,1.27,2.708,2.476,3.428,3.618c0.718,1.143,1.333,2.476,1.841,3.999s0.762,3.133,0.762,4.824v43.545h-86.328v-43.545
			c0.254-2.707,0.931-5.161,2.031-7.363c1.099-2.199,2.368-4.063,3.809-5.586c1.438-1.523,3.384-3.003,5.84-4.443
			c2.454-1.438,4.634-2.603,6.538-3.491s4.38-1.924,7.427-3.11C-628.07,1906.54-622.23,1908.739-615.628,1908.739z
			 M-615.692,1856.435c-6.221,0-11.533,2.202-15.933,6.602c-4.401,4.402-6.602,9.734-6.602,15.996c0,6.265,2.2,11.597,6.602,15.996
			c4.399,4.402,9.712,6.602,15.933,6.602s11.553-2.199,15.996-6.602c4.443-4.399,6.665-9.731,6.665-15.996
			c0-6.262-2.222-11.594-6.665-15.996C-604.139,1858.637-609.471,1856.435-615.692,1856.435z"/>
	</g>
	<g>
		<g>
			
				<line fill="none" stroke="#FFFFFF" stroke-width="5" stroke-miterlimit="10" x1="-696.445" y1="2007.256" x2="-582.608" y2="2007.256"/>
			<g>
				<polygon fill="#FFFFFF" points="-592.515,2021.782 -538.311,2007.256 -592.515,1992.73 				"/>
			</g>
		</g>
	</g>
	<g>
		<line fill="#FFFFFF" x1="-538.311" y1="2043.256" x2="-696.445" y2="2043.256"/>
		<g>
			
				<line fill="none" stroke="#C89209" stroke-width="5" stroke-miterlimit="10" x1="-538.311" y1="2043.256" x2="-652.148" y2="2043.256"/>
			<g>
				<polygon fill="#C89209" points="-642.241,2028.73 -696.445,2043.256 -642.241,2057.782 				"/>
			</g>
		</g>
	</g>
</g>
<g id="C">
</g>
<g id="titres">
</g>
<g id="réserve" display="none">
</g>
</svg>
