<?xml version="1.0" encoding="utf-8"?>
<!-- Generator: Adobe Illustrator 23.0.2, SVG Export Plug-In . SVG Version: 6.00 Build 0)  -->
<svg version="1.1" xmlns="http://www.w3.org/2000/svg" xmlns:xlink="http://www.w3.org/1999/xlink" x="0px" y="0px"
	 viewBox="-1057.768 1209.214 282.232 282.233" enable-background="new -1057.768 1209.214 282.232 282.233" xml:space="preserve">
<g id="_x2D_--" display="none">
</g>
<g id="fond" display="none">
	<path display="inline" fill="#21558B" d="M-916.652,1209.214c77.938,0,141.117,63.18,141.117,141.115
		c0,77.938-63.18,141.117-141.117,141.117c-77.935,0-141.115-63.18-141.115-141.117
		C-1057.768,1272.394-994.588,1209.214-916.652,1209.214z"/>
</g>
<g id="_x30_0326E">
	<path fill="#00326E" d="M-916.652,1209.214c77.938,0,141.117,63.18,141.117,141.115c0,77.938-63.18,141.117-141.117,141.117
		c-77.935,0-141.115-63.18-141.115-141.117C-1057.768,1272.394-994.588,1209.214-916.652,1209.214z"/>
</g>
<g id="A" display="none">
	<g id="Calque_2" display="inline">
	</g>
	<g id="Calque_7" display="inline">
	</g>
	
		<circle display="inline" opacity="0.8" fill="#FFFFFF" stroke="#FFFFFF" stroke-width="17" stroke-miterlimit="10" cx="-917.768" cy="1352.232" r="106"/>
	<g display="inline">
		<path fill="#21558B" d="M-864.262,1381.365c-2.16,15.396-7.873,26.906-17.137,34.535c-9.266,7.627-20.898,11.441-34.9,11.441
			c-16.162,0-28.753-5.172-37.774-15.518c-9.022-10.344-14.681-23.354-16.98-39.027h-11.808v-12.853h10.554
			c-0.141-1.322-0.209-3.308-0.209-5.956c0-3.273,0.068-5.572,0.209-6.896h-10.554v-12.748h11.599
			c2.508-17.693,9.211-31.103,20.115-40.229c10.901-9.125,22.377-13.688,34.43-13.688c14.141,0,25.844,3.832,35.109,11.494
			c9.264,7.664,15.047,18.565,17.346,32.706l-23.929,2.612c-3.344-18.111-12.784-27.168-28.317-27.168
			c-6.549,0-12.609,2.787-18.182,8.359c-5.574,5.574-9.127,14.211-10.658,25.914h32.288v12.748h-33.438l-0.209,6.479l0.209,6.374
			h33.438v12.853h-32.288c1.811,11.844,5.729,20.48,11.755,25.914c6.024,5.434,12.451,8.15,19.279,8.15
			c6.688,0,12.521-2.646,17.502-7.941c4.979-5.293,7.853-11.98,8.621-20.063L-864.262,1381.365z"/>
	</g>
</g>
<g id="B" display="none">
</g>
<g id="B_bis">
	<g>
		<path fill="#FFFFFF" d="M-970.111,1373.732c8.423,0.074,14.806,2.979,19.146,8.718c4.119,5.518,6.16,11.918,6.124,19.201
			c0,0.221-0.019,0.543-0.056,0.966c-0.036,0.423-0.055,0.745-0.055,0.966h-41.658c0.074,5.003,1.692,9.178,4.855,12.524
			c3.274,3.495,7.485,5.261,12.636,5.297c3.862,0.037,7.136-1.048,9.821-3.255c2.574-2.097,4.689-4.671,6.346-7.725l7.559,4.414
			c-2.317,4.378-5.518,7.89-9.601,10.538c-4.304,2.759-9.196,4.139-14.677,4.139c-7.688,0-13.959-2.511-18.814-7.532
			c-4.855-5.021-7.283-11.614-7.283-19.78c0-8.056,2.262-14.787,6.786-20.194C-984.347,1376.455-978.057,1373.696-970.111,1373.732z
			 M-986.168,1395.969h31.837c-0.662-3.936-2.409-7.229-5.241-9.877c-2.943-2.722-6.383-4.101-10.318-4.138
			c-3.973-0.036-7.504,1.296-10.594,4C-983.574,1388.657-985.469,1391.996-986.168,1395.969z"/>
		<path fill="#FFFFFF" d="M-927.54,1428.136v-52.969h8.828v6.346h0.388c3.757-5.112,8.805-7.706,15.143-7.78
			c12.012-0.146,18.017,7.266,18.017,22.236v32.167h-8.938v-31.671c0-9.784-3.743-14.621-11.227-14.511
			c-4.978,0.074-8.452,1.766-10.425,5.076c-1.972,3.311-2.958,7.982-2.958,14.015v27.091H-927.54z"/>
		<path fill="#FFFFFF" d="M-862.844,1356.076h8.939v19.091h9.49v8.276h-9.49v44.692h-8.939v-44.692h-5.572v-8.276h5.572V1356.076z"
			/>
	</g>
	<g opacity="0.69">
		<g>
			<g>
				
					<line fill="none" stroke="#FFFFFF" stroke-width="10" stroke-miterlimit="10" x1="-922.004" y1="1323.483" x2="-853.935" y2="1283.173"/>
				<g>
					<polygon fill="#FFFFFF" points="-848.279,1305.323 -826.766,1267.088 -870.636,1267.568 					"/>
				</g>
			</g>
		</g>
		
			<line fill="none" stroke="#FFFFFF" stroke-width="9" stroke-miterlimit="10" x1="-1017.294" y1="1329.57" x2="-941.919" y2="1287.193"/>
		
			<line fill="none" stroke="#FFFFFF" stroke-width="9" stroke-miterlimit="10" x1="-916.651" y1="1326.53" x2="-945.832" y2="1288.927"/>
	</g>
</g>
<g id="C">
</g>
<g id="titres">
</g>
<g id="réserve" display="none">
</g>
</svg>
