<?xml version="1.0" encoding="utf-8"?>
<!-- Generator: Adobe Illustrator 23.0.2, SVG Export Plug-In . SVG Version: 6.00 Build 0)  -->
<svg version="1.1" xmlns="http://www.w3.org/2000/svg" xmlns:xlink="http://www.w3.org/1999/xlink" x="0px" y="0px"
	 viewBox="-1057.768 1813.364 282.231 282.233" enable-background="new -1057.768 1813.364 282.231 282.233" xml:space="preserve">
<g id="_x2D_--" display="none">
</g>
<g id="fond" display="none">
	<path display="inline" fill="#21558B" d="M-916.653,1813.364c77.938,0,141.117,63.18,141.117,141.115
		c0,77.938-63.179,141.117-141.117,141.117c-77.935,0-141.114-63.18-141.114-141.117
		C-1057.768,1876.544-994.588,1813.364-916.653,1813.364z"/>
</g>
<g id="_x30_0326E">
	<path fill="#00326E" d="M-916.653,1813.364c77.938,0,141.117,63.18,141.117,141.115c0,77.938-63.179,141.117-141.117,141.117
		c-77.935,0-141.114-63.18-141.114-141.117C-1057.768,1876.544-994.588,1813.364-916.653,1813.364z"/>
</g>
<g id="A" display="none">
	<g id="Calque_2" display="inline">
	</g>
	<g id="Calque_7" display="inline">
	</g>
	<g display="inline" opacity="0.8">
		<path fill="#FFFFFF" d="M-1034.708,1979.305c-0.934-0.467-1.868-0.932-2.8-1.401c-0.934-0.466-2.054-0.98-3.359-1.54l-1.4,1.4
			c1.306,1.308,2.916,2.334,4.83,3.08c1.912,0.748,3.802,1.121,5.67,1.121h0.7c-0.095-0.187-0.305-0.442-0.63-0.771
			c-0.328-0.326-0.584-0.536-0.771-0.63C-1033.027,1980.193-1033.775,1979.772-1034.708,1979.305z"/>
		<path fill="#FFFFFF" d="M-968.067,1903.564c-0.095,0-0.351,0.07-0.771,0.21s-0.863,0.304-1.33,0.489
			c-0.468,0.188-0.909,0.35-1.33,0.49c-0.42,0.141-0.678,0.211-0.77,0.211c-0.094,0-0.328-0.211-0.7-0.631
			c-0.374-0.42-0.608-0.676-0.7-0.77c-0.188-0.186-0.653-0.441-1.399-0.77c-0.748-0.326-1.214-0.537-1.4-0.631
			c-0.188,0.188-0.444,0.654-0.77,1.4c-0.328,0.748-0.538,1.214-0.63,1.4c-0.095,0.373-0.141,0.653-0.141,0.84
			c0,0.094,0.046,0.279,0.141,0.559c0.651,0.654,1.609,1.12,2.869,1.4c1.261,0.281,2.566,0.469,3.921,0.56
			c1.352,0.094,2.59,0.118,3.71,0.07c1.119-0.047,1.819-0.07,2.1-0.07v-5.04c-0.188,0-0.654,0.024-1.4,0.07
			C-967.416,1903.402-967.882,1903.473-968.067,1903.564z"/>
		<path fill="#FFFFFF" d="M-976.468,1893.764c-0.28-0.186-0.77-0.629-1.47-1.33c-0.7-0.699-1.145-1.19-1.33-1.469
			c-0.188-0.561,0.046-1.726,0.7-3.5h4.899c-0.094-0.561-0.094-1.471,0-2.73c0.092-1.26,0.21-2.59,0.351-3.99
			c0.14-1.4,0.302-2.73,0.49-3.99c0.186-1.26,0.371-2.121,0.56-2.59c0.092-0.186,0.42-0.535,0.98-1.05
			c0.56-0.512,1.165-1.096,1.819-1.75c0.652-0.651,1.26-1.235,1.82-1.75c0.56-0.512,0.886-0.862,0.979-1.05
			c0.187-0.186,0.372-0.746,0.561-1.68c0.186-0.933,0.28-1.492,0.28-1.681c-1.4,0-2.639,0.118-3.71,0.351
			c-1.074,0.233-2.078,0.468-3.011,0.699c-0.934,0.234-1.89,0.469-2.87,0.7c-0.979,0.234-2.029,0.351-3.149,0.351
			c-0.654,0-1.354-0.047-2.101-0.141c-0.748-0.092-1.214-0.559-1.399-1.4c0.28-0.56,0.746-0.955,1.399-1.19
			c0.652-0.232,1.282-0.42,1.891-0.56c0.606-0.14,1.166-0.325,1.68-0.56c0.512-0.231,0.771-0.63,0.771-1.19
			c0-0.745-0.421-1.281-1.261-1.609c-0.84-0.326-1.75-0.536-2.729-0.63c-0.98-0.092-1.938-0.116-2.87-0.07
			c-0.935,0.048-1.448,0.07-1.54,0.07c-0.468,0-1.728,0.094-3.78,0.28c-2.054,0.188-4.154,0.49-6.3,0.91
			c-2.148,0.42-3.968,1.004-5.46,1.75c-1.494,0.748-1.96,1.68-1.4,2.799c-3.174,0.188-5.998,0.469-8.47,0.841
			c-2.474,0.374-4.808,0.958-7,1.75c-2.194,0.794-4.269,1.868-6.229,3.22c-1.96,1.354-4.061,3.15-6.301,5.391
			c-0.094,0.279-0.14,0.514-0.14,0.699c0,0.094,0.046,0.328,0.14,0.7c0.092,0.188,0.28,0.49,0.561,0.91
			c0.28,0.42,0.56,0.864,0.84,1.33c0.28,0.468,0.56,0.888,0.84,1.26c0.28,0.374,0.466,0.608,0.561,0.7h0.56
			c1.212,0,2.31-0.256,3.29-0.77c0.981-0.513,2.076-0.771,3.29-0.771c2.332,0,4.06,0.794,5.18,2.38
			c1.12,1.588,1.936,3.594,2.45,6.02c0.512,2.429,0.862,5.041,1.05,7.84c0.186,2.801,0.512,5.414,0.98,7.841
			c0.466,2.428,1.212,4.434,2.24,6.019c1.025,1.589,2.611,2.38,4.76,2.38c1.212,0,2.17-0.231,2.87-0.699
			c0.699-0.467,1.609-1.213,2.729-2.24l9.8-9.801c1.026-0.84,2.03-1.422,3.011-1.75c0.979-0.325,1.935-0.676,2.87-1.049
			c0.932-0.373,1.842-0.841,2.729-1.4C-978.172,1896.004-977.308,1895.072-976.468,1893.764z"/>
		<path fill="#FFFFFF" d="M-862.298,1885.645c1.632-0.84,3.103-1.633,4.41-2.381c1.306-0.745,1.96-1.211,1.96-1.4
			c0-0.092-0.048-0.326-0.14-0.7c-0.095-0.186-0.305-0.441-0.63-0.77c-0.328-0.326-0.584-0.536-0.771-0.631h-1.399
			c-0.561,0.188-1.471,0.515-2.73,0.98c-1.26,0.469-2.52,0.958-3.78,1.471c-1.26,0.514-2.357,1.049-3.29,1.609
			c-0.934,0.561-1.399,1.074-1.399,1.54v3.5c0.466,0,1.47-0.326,3.01-0.979C-865.518,1887.232-863.932,1886.484-862.298,1885.645z"
			/>
		<path fill="#FFFFFF" d="M-1019.518,2051.482c0.416-0.63,1.189-2.539,1.623-3.185c1.819-2.706,3.5-5.202,5.04-7.49
			c1.54-2.286,2.869-4.2,3.989-5.739c1.12-1.541,1.727-2.356,1.82-2.451c2.519-2.146,4.69-3.64,6.51-4.479
			c1.82-0.84,3.29-1.773,4.41-2.8c1.12-1.026,1.936-2.52,2.45-4.481c0.512-1.959,0.77-5.131,0.77-9.519
			c0-2.052-0.398-3.592-1.189-4.62c-0.794-1.026-1.82-1.842-3.08-2.45c-1.26-0.606-2.639-1.166-4.13-1.68
			c-1.494-0.512-2.94-1.236-4.34-2.17c-3.268-2.24-5.788-4.246-7.56-6.02c-1.773-1.772-3.57-3.242-5.39-4.41
			c-1.82-1.166-3.99-2.053-6.51-2.66c-2.521-0.606-6.114-0.91-10.78-0.91h-0.561l-4.199,2.8h-0.7c-1.309,0-2.685-0.607-4.13-1.819
			c-1.448-1.213-2.708-2.637-3.78-4.271c-1.074-1.632-1.89-3.312-2.45-5.04c-0.56-1.727-0.608-3.151-0.14-4.27
			c-1.028,1.027-1.914,1.773-2.66,2.239c-0.449,0.281-0.993,0.466-1.609,0.578c0.148,0.27,0.28,0.558,0.39,0.871
			c0.693,1.97,1.058,4.03,1.75,6c0.214,0.609,0.267,1.237,0.194,1.85c0.083,0.049,0.171,0.103,0.254,0.151
			c2.893,1.729,5.297,3.198,7.211,4.41c1.911,1.214,2.869,1.914,2.869,2.1v15.4c0,1.309,0.42,2.613,1.261,3.92
			c0.84,1.309,1.819,2.613,2.939,3.92c1.12,1.309,2.216,2.59,3.29,3.85c1.072,1.26,1.842,2.498,2.311,3.711v1.68
			c0,0.748,0.021,1.588,0.069,2.52c0.046,0.934,0.07,1.82,0.07,2.66v1.54c0,0.678-0.01,1.354-0.031,2.027
			c0.128,0.412,0.215,0.856,0.241,1.341c0.157,2.927,12.133,14.585,14.027,16.646"/>
		<path fill="#FFFFFF" d="M-1041.708,1926.944c0.28,0.653,0.421,1.12,0.421,1.399c-1.309,0-2.919-0.14-4.83-0.42
			c-1.914-0.279-3.734-0.77-5.46-1.47c-1.262-0.511-2.382-1.137-3.368-1.871c-0.492,6.672-2.769,9.463-2.823,16.149
			c-0.057,7.041-0.107,15.72,0,22.75c0,4.75-0.023,4.505,0,4.5c1.681-0.371,5.746-2.958,8.08-2.958c1.306,0,2.286,0.28,2.939,0.84
			c0.652,0.56,1.212,1.168,1.681,1.819c0.466,0.654,0.979,1.261,1.54,1.82c0.56,0.561,1.445,0.84,2.66,0.84v-9.379
			c0.932,0.188,1.726-0.141,2.38-0.98c0.651-0.84,1.26-1.891,1.819-3.15c0.561-1.26,1.166-2.541,1.82-3.85
			c0.652-1.307,1.446-2.38,2.38-3.221c0.561-0.465,1.353-1.19,2.38-2.17c1.026-0.979,2.052-1.981,3.08-3.01
			c1.026-1.025,1.96-1.982,2.8-2.869c0.841-0.887,1.353-1.471,1.54-1.75c0.092-0.092,0.186-0.42,0.28-0.98
			c0.092-0.561,0.21-1.166,0.351-1.82c0.14-0.652,0.279-1.26,0.42-1.82c0.14-0.559,0.256-0.885,0.35-0.979
			c0.372-0.559,0.956-0.91,1.75-1.05c0.792-0.141,1.586-0.303,2.38-0.49c0.792-0.185,1.492-0.49,2.101-0.91
			c0.605-0.42,0.909-1.236,0.909-2.449c0-0.092-0.048-0.326-0.14-0.701c-0.56-0.56-1.26-1.375-2.1-2.449
			c-0.841-1.072-1.729-2.191-2.66-3.36c-0.934-1.166-1.845-2.262-2.73-3.29c-0.888-1.025-1.658-1.725-2.31-2.1
			c-0.188-0.092-0.654,0.094-1.4,0.56c-0.748,0.468-1.214,0.749-1.399,0.841c-0.095,0-0.328,0.024-0.7,0.069
			c-0.374,0.048-0.654,0.07-0.84,0.07c-0.188,0-0.608-0.046-1.261-0.14c-0.188-0.092-0.607-0.351-1.26-0.771
			c-0.654-0.42-1.378-0.862-2.17-1.33c-0.794-0.466-1.54-0.91-2.24-1.33c-0.699-0.42-1.144-0.676-1.33-0.771
			c-0.374-0.092-0.607-0.14-0.699-0.14c-0.935,0-1.589,0.421-1.96,1.261c-0.374,0.84-0.561,1.773-0.561,2.799
			c0,1.029,0.07,1.984,0.21,2.871c0.141,0.888,0.21,1.424,0.21,1.609c-1.308-0.186-2.124-0.07-2.45,0.35
			c-0.328,0.42-0.443,0.934-0.35,1.541C-1042.176,1925.662-1041.987,1926.293-1041.708,1926.944z"/>
		<path fill="#FFFFFF" d="M-950.638,1922.885c0.326-0.652,0.722-1.236,1.19-1.75c0.466-0.512,1.26-0.771,2.38-0.771
			c0.185,0,0.651,0.188,1.399,0.56c0.746,0.375,1.212,0.654,1.4,0.84c0.092,0.281,0.14,0.515,0.14,0.701
			c0,0.748-0.188,1.424-0.56,2.029c-0.374,0.608-0.771,1.215-1.19,1.82c-0.42,0.608-0.817,1.26-1.189,1.96
			c-0.374,0.7-0.561,1.47-0.561,2.31c2.706,0,4.433-0.816,5.181-2.449c0.746-1.633,1.12-3.616,1.12-5.951
			c0-0.56-0.024-1.19-0.07-1.889c-0.048-0.701-0.189-1.377-0.42-2.031c-0.234-0.651-0.584-1.19-1.05-1.609
			c-0.469-0.42-1.169-0.63-2.101-0.63c-1.028,0-2.1,0.304-3.22,0.909c-1.12,0.609-2.17,1.354-3.15,2.24
			c-0.979,0.889-1.773,1.891-2.38,3.01c-0.608,1.121-0.91,2.195-0.91,3.221c1.307,0,2.216-0.256,2.731-0.77
			C-951.386,1924.123-950.966,1923.538-950.638,1922.885z"/>
		<path fill="#FFFFFF" d="M-874.268,1896.564v-4.2h-3.22c0,0.84,0.42,1.658,1.26,2.45
			C-875.388,1895.608-874.735,1896.193-874.268,1896.564z"/>
		<path fill="#FFFFFF" d="M-1021.897,1903.844c-1.448-2.985-3.384-5.551-5.811-7.699c-2.428-2.146-5.25-3.803-8.47-4.971
			c-1.882-0.682-3.844-1.14-5.869-1.423c-0.682,2.199-1.785,4.315-2.903,6.505c-0.035,0.067-0.087,0.12-0.125,0.186
			c0.741,0.236,1.506,0.467,2.317,0.683c2.101,0.56,4.152,1.284,6.16,2.171c2.006,0.888,3.382,2.31,4.13,4.27
			c-1.308-0.186-2.38-0.046-3.22,0.42c-0.84,0.468-1.26,1.26-1.26,2.38c0,0.188,0.021,0.444,0.069,0.771
			c0.046,0.328,0.116,0.537,0.21,0.629c1.681,0.188,3.196,0.609,4.551,1.261c1.352,0.653,2.659,1.33,3.92,2.03
			c1.26,0.699,2.565,1.33,3.92,1.89c1.352,0.56,2.87,0.84,4.55,0.84C-1019.728,1910.145-1020.451,1906.832-1021.897,1903.844z"/>
		<path fill="#FFFFFF" d="M-885.188,2013.885c-0.748,0-1.634,0.489-2.66,1.47c-1.028,0.979-1.984,2.124-2.87,3.43
			c-0.888,1.307-1.634,2.59-2.24,3.85c-0.607,1.26-0.909,2.17-0.909,2.729c0,3.828,1.352,5.74,4.06,5.74
			c1.586,0,2.73-0.677,3.43-2.03c0.7-1.352,1.143-2.986,1.33-4.9c0.187-1.912,0.21-3.826,0.07-5.74
			C-885.117,2016.522-885.188,2015.004-885.188,2013.885z"/>
		<path fill="#FFFFFF" d="M-776.893,1933.982c-1.875-9.875-4.875-27.625-14.125-43.375c-0.774-1.318-5.146-1.542-6.639-1.87
			c-1.493-0.326-2.987-0.49-4.479-0.49h-1.54c-0.374,0-1.028,0.07-1.96,0.21c-0.935,0.14-1.938,0.28-3.01,0.421
			c-1.074,0.139-2.078,0.279-3.011,0.42c-0.934,0.14-1.539,0.258-1.819,0.35c0.185-0.746,0.466-1.75,0.84-3.01
			c0.372-1.26,1.026-2.122,1.96-2.59c-0.188-0.187-0.63-0.652-1.33-1.4c-0.7-0.746-1.518-1.54-2.45-2.381
			c-0.934-0.84-1.819-1.586-2.66-2.239c-0.84-0.651-1.493-0.979-1.96-0.979c-0.094,0-0.35,0.14-0.77,0.42
			c-0.42,0.279-0.889,0.584-1.4,0.91c-0.514,0.328-0.958,0.629-1.33,0.909c-0.374,0.28-0.607,0.468-0.699,0.56
			c-0.374,0.188-0.91,0.469-1.61,0.841c-0.7,0.374-1.099,0.56-1.19,0.56c-1.96,0.28-4.014,0.608-6.159,0.98
			c-2.148,0.374-4.179,0.934-6.091,1.68c-1.914,0.748-3.64,1.799-5.18,3.15c-1.54,1.354-2.729,3.149-3.57,5.39
			c-2.52-0.28-4.714-0.466-6.58-0.559c-1.867-0.092-3.548,0.023-5.039,0.349c-1.494,0.328-2.87,1.004-4.131,2.029
			c-1.26,1.029-2.544,2.521-3.85,4.48h-15.4c-0.56,2.614-1.634,4.154-3.22,4.62c-1.588,0.468-3.313,0.7-5.18,0.7
			c-0.374,0-1.099-0.046-2.17-0.141c-1.074-0.092-1.75-0.186-2.03-0.279c-0.468-1.4-0.958-2.381-1.47-2.94
			c-0.515-0.56-1.145-0.956-1.891-1.19c-0.748-0.231-1.634-0.42-2.659-0.56c-1.028-0.14-2.289-0.441-3.78-0.909
			c-0.84-0.281-1.448-0.816-1.82-1.61c-0.374-0.792-0.748-1.586-1.12-2.38c-0.374-0.792-0.84-1.516-1.4-2.17
			c-0.56-0.652-1.4-0.981-2.521-0.981c-0.934,0-1.704,0.094-2.31,0.28c-0.608,0.189-1.284,0.608-2.03,1.26
			c-0.28,0.188-1.12,0.864-2.519,2.03c-1.4,1.168-3.011,2.498-4.83,3.99c-1.82,1.494-3.618,2.988-5.391,4.479
			c-1.773,1.494-3.128,2.66-4.06,3.5c-0.469,0.468-0.818,0.818-1.05,1.05c-0.234,0.234-0.398,0.469-0.49,0.7
			c-0.094,0.233-0.118,0.538-0.07,0.91c0.046,0.374,0.07,0.935,0.07,1.68c0,1.028,0.07,2.03,0.21,3.011
			c0.14,0.979,0.42,1.89,0.84,2.729c0.42,0.84,0.98,1.519,1.68,2.03c0.7,0.514,1.656,0.77,2.87,0.77c1.866,0,3.29-0.42,4.27-1.26
			c0.98-0.84,1.701-1.866,2.17-3.08c0.466-1.212,0.815-2.542,1.05-3.99c0.231-1.445,0.536-2.775,0.91-3.99
			c0.372-1.211,0.956-2.24,1.75-3.08c0.792-0.84,2.03-1.26,3.71-1.26c0,0.188,0.07,0.349,0.21,0.49s0.162,0.305,0.07,0.49
			l-2.801,4.199c-0.094,0.375-0.14,0.609-0.14,0.701c0,0.84,0.28,1.424,0.84,1.75c0.56,0.328,1.212,0.489,1.96,0.489
			c1.586,0,3.057-0.28,4.41-0.84c1.352-0.559,2.776-0.84,4.271-0.84c0.745,0,1.47,0.14,2.17,0.42c0.699,0.28,0.861,1.12,0.489,2.521
			c-0.279,1.213-0.84,2.054-1.68,2.52c-0.84,0.468-1.798,0.769-2.87,0.91c-1.074,0.14-2.218,0.21-3.43,0.21
			c-1.12,0-2.148,0.164-3.08,0.489c-0.934,0.328-1.68,0.91-2.24,1.75c-0.56,0.84-0.794,2.149-0.7,3.92
			c-3.268-0.84-6.113-0.909-8.54-0.209c-2.428,0.699-4.598,1.844-6.51,3.43c-1.914,1.588-3.688,3.478-5.319,5.67
			c-1.635,2.193-3.244,4.364-4.83,6.51c-0.188,0.188-0.444,0.469-0.771,0.84c-0.328,0.375-0.538,0.561-0.63,0.561
			c-1.309,0.279-2.404,0.374-3.29,0.279c-0.888-0.092-1.61-0.092-2.17,0c-0.559,0.095-0.98,0.399-1.26,0.91
			c-0.28,0.515-0.42,1.519-0.42,3.01c0,1.774,0.21,3.199,0.63,4.271c0.42,1.074,1.655,1.61,3.71,1.61
			c0.185,0,0.651-0.021,1.399-0.07c0.746-0.046,1.212-0.115,1.4-0.21c0.652-0.746,1.4-1.61,2.24-2.59
			c0.84-0.979,1.726-1.937,2.66-2.87c0.932-0.932,1.935-1.796,3.01-2.59c1.071-0.792,2.17-1.376,3.29-1.75h1.399
			c0.933,0.279,1.773,0.818,2.521,1.609c0.746,0.795,1.47,1.588,2.17,2.381c0.7,0.793,1.4,1.518,2.1,2.17
			c0.7,0.654,1.471,0.979,2.311,0.979c0.092,0,0.326-0.046,0.7-0.14l1.399-1.4c0.372-0.092,0.606-0.14,0.7-0.14
			c0.092,0,0.326,0.048,0.7,0.14c0.28,0.188,0.77,0.631,1.47,1.33c0.7,0.7,1.142,1.189,1.33,1.471c0.56-0.467,1.12-1.166,1.68-2.101
			c0.56-0.932,1.166-1.866,1.82-2.8c0.652-0.932,1.306-1.75,1.96-2.45c0.652-0.7,1.352-1.05,2.1-1.05c0.841,0,2.076,0.118,3.71,0.35
			c1.633,0.234,3.29,0.608,4.971,1.12c1.68,0.515,3.126,1.214,4.34,2.101c1.212,0.888,1.82,2.029,1.82,3.43
			c-0.469,0-1.215-0.021-2.24-0.07c-1.028-0.046-2.148-0.07-3.36-0.07c-1.214,0-2.358,0.024-3.43,0.07
			c-1.074,0.049-1.798,0.07-2.17,0.07c-0.469,0-1.028,0.188-1.681,0.56c-0.653,0.374-1.283,0.794-1.89,1.261
			c-0.608,0.468-1.12,1.004-1.54,1.609c-0.42,0.608-0.63,1.098-0.63,1.471c0,0.094,0.046,0.328,0.14,0.699
			c0.092,0.188,0.442,0.444,1.051,0.77c0.606,0.328,1.235,0.701,1.89,1.121c0.651,0.42,1.26,0.888,1.82,1.399
			c0.56,0.515,0.84,1.05,0.84,1.61v0.699c-0.188,0.469-0.444,1.051-0.771,1.75c-0.328,0.701-0.538,1.051-0.63,1.051h-19.6
			c-1.12,0-2.17-0.372-3.15-1.12c-0.979-0.746-1.96-1.54-2.94-2.38c-0.98-0.84-1.984-1.632-3.011-2.381
			c-1.027-0.745-2.193-1.119-3.5-1.119c-3.268,0-6.418,0.77-9.449,2.31c-3.034,1.54-5.74,3.57-8.12,6.091
			c-2.38,2.52-4.271,5.344-5.67,8.469c-1.4,3.129-2.101,6.23-2.101,9.311c0,3.92,0.84,6.86,2.521,8.82
			c1.68,1.96,3.825,3.314,6.439,4.06c2.612,0.749,5.482,1.145,8.61,1.19c3.126,0.048,6.182,0.164,9.17,0.35
			c1.212,0.654,2.03,1.494,2.45,2.52c0.42,1.029,0.746,2.078,0.979,3.151c0.232,1.074,0.56,2.099,0.981,3.08
			c0.42,0.98,1.281,1.799,2.59,2.45c-1.494,6.441-1.448,12.788,0.14,19.04c1.586,6.254,4.341,12.04,8.261,17.359
			c0.279,0.095,0.955,0.188,2.029,0.281c1.072,0.094,1.796,0.139,2.17,0.139c2.706,0,4.9-0.465,6.58-1.399
			c1.681-0.932,3.221-2.941,4.62-6.021c-0.56-1.491-0.42-3.031,0.42-4.619c0.84-1.586,1.842-3.196,3.011-4.83
			c1.165-1.632,2.309-3.266,3.43-4.9c1.12-1.632,1.68-3.242,1.68-4.83c0-1.865-0.28-3.406-0.84-4.619
			c-0.56-1.213-0.84-2.612-0.84-4.201c0-0.186,0.021-0.441,0.07-0.77c0.046-0.326,0.069-0.535,0.069-0.63l8.4-11.2
			c0.746-1.025,1.491-2.076,2.24-3.15c0.745-1.071,1.119-2.262,1.119-3.569c-2.613,0-4.924-0.582-6.93-1.75
			c-2.008-1.166-3.688-2.706-5.04-4.62c-1.353-1.912-2.38-4.036-3.08-6.37c-0.7-2.331-1.05-4.712-1.05-7.14
			c0-0.186,0.021-0.652,0.07-1.4c0.046-0.746,0.069-1.212,0.069-1.4c0.841,1.309,1.773,2.988,2.801,5.041
			c1.025,2.054,2.191,4.059,3.5,6.019c1.306,1.96,2.775,3.664,4.409,5.109c1.632,1.449,3.522,2.171,5.671,2.171
			c0.279,0,0.886-0.046,1.819-0.14l9.8-9.801v-1.4c-0.56-0.186-1.47-0.396-2.729-0.629c-1.26-0.233-2.521-0.582-3.78-1.051
			c-1.26-0.466-2.38-1.05-3.359-1.75c-0.981-0.699-1.471-1.609-1.471-2.73c0-0.746,0.116-1.561,0.35-2.45
			c0.232-0.886,0.861-1.33,1.89-1.33c0.092,0,0.326,0.049,0.7,0.141c1.68,1.308,3.195,2.31,4.55,3.01
			c1.352,0.699,2.706,1.308,4.06,1.82c1.352,0.514,2.801,1.027,4.341,1.539c1.54,0.514,3.29,1.19,5.25,2.03
			c2.052,0.84,3.756,2.334,5.109,4.479c1.352,2.149,2.542,4.365,3.57,6.65c1.025,2.288,2.006,4.294,2.939,6.02
			c0.933,1.729,1.961,2.591,3.08,2.591c0.186,0,0.42-0.046,0.7-0.14c1.306-1.307,2.216-2.427,2.73-3.36
			c0.512-0.932,0.861-1.796,1.05-2.591c0.186-0.791,0.372-1.562,0.56-2.31c0.187-0.745,0.652-1.586,1.4-2.521
			c0.746-0.932,1.842-1.981,3.29-3.149c1.446-1.166,3.57-2.59,6.37-4.271c0.185,1.4,0.606,3.36,1.26,5.881
			c0.652,2.52,1.516,5.018,2.59,7.49c1.072,2.474,2.332,4.598,3.78,6.369c1.446,1.774,3.102,2.66,4.97,2.66
			c-0.56-2.892-0.514-4.781,0.141-5.67c0.651-0.886,1.516-1.47,2.59-1.75c1.071-0.279,2.075-0.561,3.01-0.84
			c0.932-0.28,1.4-1.26,1.4-2.939c0-1.026-0.28-1.961-0.841-2.801c-0.56-0.84-0.84-1.771-0.84-2.8c0-0.187,0.022-0.442,0.07-0.771
			c0.046-0.325,0.07-0.535,0.07-0.629c2.705-1.307,5.67-2.892,8.89-4.761c3.22-1.866,5.856-4.012,7.91-6.44
			c-0.188-1.68-0.328-3.241-0.42-4.69c-0.095-1.445-0.024-2.775,0.21-3.99c0.232-1.211,0.7-2.38,1.399-3.5
			c0.7-1.119,1.702-2.191,3.011-3.22c0.56,0.188,1.002,0.63,1.33,1.33c0.325,0.7,0.605,1.424,0.84,2.17
			c0.232,0.748,0.396,1.47,0.489,2.17c0.093,0.7,0.141,1.143,0.141,1.33h1.399c0.933-2.521,2.263-4.922,3.99-7.21
			c1.727-2.286,3.452-4.55,5.18-6.79c1.727-2.24,4.97-4.979,5.014-7.715 M-905.067,1963.764c-0.748,0-1.12-0.465-1.12-1.4
			c0-0.932,0.372-1.399,1.12-1.399c0.746,0,1.12,0.468,1.12,1.399C-903.947,1963.299-904.321,1963.764-905.067,1963.764z"/>
		<polygon fill="#FFFFFF" points="-826.668,1997.364 -818.268,2008.564 -814.067,2008.564 -814.067,2007.164 -825.268,1997.364 		
			"/>
		<path fill="#FFFFFF" d="M-800.487,1998.064c0.372-1.026,0.582-2.191,0.63-3.5c0.046-1.307,0.07-2.52,0.07-3.641
			c-1.028,0-2.055,0.259-3.08,0.771c-1.028,0.515-1.96,1.19-2.801,2.03c-0.84,0.84-1.518,1.773-2.029,2.8
			c-0.515,1.028-0.771,2.008-0.771,2.94c0,0.84,0.28,1.424,0.84,1.75c0.561,0.328,1.212,0.489,1.96,0.489
			c1.492,0,2.637-0.349,3.431-1.05C-801.445,1999.954-800.861,1999.092-800.487,1998.064z"/>
	</g>
</g>
<g id="B" display="none">
</g>
<g id="B_bis">
	<path opacity="0.9" fill="#FFFFFF" d="M-814.505,2007.6c0,6.149-5.336,11.134-11.914,11.134h-182.193
		c-6.58,0-11.914-4.985-11.914-11.134v-106.238c0-6.15,5.334-11.135,11.914-11.135h182.193c6.578,0,11.914,4.984,11.914,11.135
		V2007.6z"/>
	<path fill="#00326E" d="M-933.353,1940.112c0,14.085-11.418,25.503-25.504,25.503c-14.084,0-25.502-11.418-25.502-25.503
		c0-14.084,11.418-25.502,25.502-25.502C-944.771,1914.61-933.353,1926.028-933.353,1940.112z"/>
	<path fill="#00326E" d="M-1012.865,2004.117c0-18.226,24.18-33.003,54.006-33.003c29.83,0,54.01,14.776,54.01,33.003"/>
	<g>
		<path fill="#00326E" d="M-871.571,1990.156v-38.186c0-4.45-0.491-7.394-1.472-8.829c-0.981-1.436-3.075-2.248-6.28-2.439v-3.518
			h14.068h14.14v52.972c0,4.45,0.49,7.394,1.472,8.829c0.98,1.436,3.074,2.249,6.28,2.439v3.518h-17.944h-18.016v-3.518
			c3.205-0.19,5.312-1.004,6.316-2.439C-872.051,1997.55-871.571,1994.606-871.571,1990.156z M-861.379,1903.449
			c3.205,0,5.909,1.102,8.11,3.302c2.2,2.201,3.302,4.905,3.302,8.111s-1.102,5.91-3.302,8.11c-2.201,2.201-4.905,3.302-8.11,3.302
			c-3.207,0-5.911-1.101-8.111-3.302c-2.201-2.2-3.302-4.904-3.302-8.11s1.101-5.91,3.302-8.111
			C-867.29,1904.551-864.586,1903.449-861.379,1903.449z"/>
	</g>
</g>
<g id="C">
</g>
<g id="titres">
</g>
<g id="réserve" display="none">
</g>
</svg>
