<?xml version="1.0" encoding="utf-8"?>
<!-- Generator: Adobe Illustrator 23.0.2, SVG Export Plug-In . SVG Version: 6.00 Build 0)  -->
<svg version="1.1" xmlns="http://www.w3.org/2000/svg" xmlns:xlink="http://www.w3.org/1999/xlink" x="0px" y="0px"
	 width="40px" height="40px" viewBox="1056.757 302.988 282.232 282.232" enable-background="new 1056.757 302.988 282.232 282.232" xml:space="preserve">
<g id="_x30_0326E">
	<path fill="#00326E" d="M1197.872,302.989c77.938,0,141.117,63.18,141.117,141.115c0,77.938-63.18,141.117-141.117,141.117
		c-77.936,0-141.115-63.18-141.115-141.117C1056.757,366.169,1119.937,302.989,1197.872,302.989z"/>
</g>
<g id="réserve" display="none">
</g>
<g id="A_-_à_vérifier" display="none">
	<g id="Calque_2" display="inline">
	</g>
	<g id="Calque_7" display="inline">
	</g>
</g>
<g id="B" display="none">
</g>
<g id="B_bis">
	<g opacity="0.83">
		<path fill="#FFFFFF" d="M1199.687,371.186c37.666,0,70.661,14.287,98.989,42.861v1.763c-6.248,7.732-11.01,11.597-14.287,11.597
			c-24.988-23.811-53.53-35.718-85.63-35.718c-30.615,0-58.851,11.907-84.702,35.718c-3.279,0-8.041-3.864-14.287-11.597v-1.763
			C1128.096,385.473,1161.401,371.186,1199.687,371.186z M1197.924,410.429h2.69c27.213,0,50.685,10.701,70.415,32.1v1.763
			c-6.805,7.176-11.566,10.762-14.287,10.762h-0.835c-16.205-16.08-35.532-24.121-57.983-24.121
			c-20.473,0-39.213,8.35-56.221,25.049h-0.928c-2.104-1.113-6.557-5.01-13.359-11.689v-1.763
			C1147.207,421.13,1170.709,410.429,1197.924,410.429z M1199.687,449.672c17.317,0,31.882,6.835,43.696,20.503v1.855
			c-2.104,2.783-6.557,6.649-13.359,11.597h-0.928c-7.918-7.607-16.235-11.782-24.956-12.524h-9.834
			c-7.113,0-15.433,4.175-24.956,12.524h-0.928c-8.906-6.988-13.359-10.854-13.359-11.597v-1.855
			C1166.689,456.507,1181.564,449.672,1199.687,449.672z M1199.687,488.915c11.133,0,17.688,6.835,19.668,20.503
			c0,10.947-6.865,17.504-20.596,19.668c-10.886,0-17.411-6.833-19.575-20.503C1179.184,497.636,1186.018,491.081,1199.687,488.915z
			"/>
	</g>
</g>
<g id="C">
</g>
<g id="titres__x2B__img" display="none">
</g>
</svg>
