<?xml version="1.0" encoding="utf-8"?>
<!-- Generator: Adobe Illustrator 23.0.2, SVG Export Plug-In . SVG Version: 6.00 Build 0)  -->
<svg version="1.1" xmlns="http://www.w3.org/2000/svg" xmlns:xlink="http://www.w3.org/1999/xlink" x="0px" y="0px"
	 width="40px" height="40px" viewBox="-755.693 907.139 282.232 282.232" enable-background="new -755.693 907.139 282.232 282.232" xml:space="preserve">
<g id="_x2D_--" display="none">
</g>
<g id="fond" display="none">
	<path display="inline" fill="#21558B" d="M-614.578,907.151c77.938,0,141.117,63.18,141.117,141.115
		c0,77.938-63.18,141.117-141.117,141.117c-77.935,0-141.115-63.18-141.115-141.117
		C-755.693,970.331-692.513,907.151-614.578,907.151z"/>
</g>
<g id="_x30_0326E">
	<path fill="#00326E" d="M-614.578,907.151c77.938,0,141.117,63.18,141.117,141.115c0,77.938-63.18,141.117-141.117,141.117
		c-77.935,0-141.115-63.18-141.115-141.117C-755.693,970.331-692.513,907.151-614.578,907.151z"/>
</g>
<g id="A" display="none">
	<g id="Calque_2" display="inline">
	</g>
	<g id="Calque_7" display="inline">
	</g>
</g>
<g id="B" display="none">
</g>
<g id="B_bis">
	<path opacity="0.13" fill="#FFFFFF" d="M-486.514,990.657c9.05,18.617,12.126,35.522,12.126,57.612
		c0,77.938-62.18,141.117-140.117,141.117c-77.935,0-141.115-63.18-141.115-141.117c0-19.484,4.949-40.045,12.09-56.928"/>
	<g>
		<path fill="#FFFFFF" d="M-625.591,1114.56v-38.186c0-4.45-0.491-7.394-1.471-8.829c-0.981-1.436-3.076-2.248-6.281-2.439v-3.518
			h14.068h14.14v52.972c0,4.45,0.49,7.394,1.472,8.829c0.98,1.436,3.074,2.249,6.28,2.439v3.518h-17.944h-18.016v-3.518
			c3.205-0.19,5.312-1.004,6.316-2.439C-626.07,1121.953-625.591,1119.01-625.591,1114.56z M-615.399,1027.853
			c3.205,0,5.909,1.102,8.111,3.302c2.2,2.201,3.302,4.905,3.302,8.111s-1.102,5.91-3.302,8.11
			c-2.202,2.201-4.906,3.302-8.111,3.302c-3.207,0-5.911-1.101-8.111-3.302c-2.202-2.2-3.302-4.904-3.302-8.11s1.1-5.91,3.302-8.111
			C-621.31,1028.954-618.605,1027.853-615.399,1027.853z"/>
	</g>
	<g>
		<path fill="#FFFFFF" d="M-734.757,990.965v-8.232h8.232v8.232H-734.757z"/>
		<path fill="#FFFFFF" d="M-718.087,990.965v-8.232h8.232v8.232H-718.087z"/>
		<path fill="#FFFFFF" d="M-701.417,990.965v-8.232h8.232v8.232H-701.417z"/>
		<path fill="#FFFFFF" d="M-684.748,990.965v-8.232h8.232v8.232H-684.748z"/>
		<path fill="#FFFFFF" d="M-668.078,990.965v-8.232h8.232v8.232H-668.078z"/>
		<path fill="#FFFFFF" d="M-651.408,990.965v-8.232h8.232v8.232H-651.408z"/>
		<path fill="#FFFFFF" d="M-634.738,990.965v-8.232h8.232v8.232H-634.738z"/>
		<path fill="#FFFFFF" d="M-618.068,990.965v-8.232h8.232v8.232H-618.068z"/>
		<path fill="#FFFFFF" d="M-601.398,990.965v-8.232h8.232v8.232H-601.398z"/>
		<path fill="#FFFFFF" d="M-584.728,990.965v-8.232h8.232v8.232H-584.728z"/>
		<path fill="#FFFFFF" d="M-568.058,990.965v-8.232h8.232v8.232H-568.058z"/>
		<path fill="#FFFFFF" d="M-551.388,990.965v-8.232h8.232v8.232H-551.388z"/>
		<path fill="#FFFFFF" d="M-534.718,990.965v-8.232h8.232v8.232H-534.718z"/>
		<path fill="#FFFFFF" d="M-518.048,990.965v-8.232h8.232v8.232H-518.048z"/>
		<path fill="#FFFFFF" d="M-501.378,990.965v-8.232h8.232v8.232H-501.378z"/>
	</g>
	<g>
		<path fill="#FFFFFF" d="M-686.984,1007.729v-41.441h12.211v41.441H-686.984z"/>
		<path fill="#FFFFFF" d="M-552.811,1007.729v-41.441h12.212v41.441H-552.811z"/>
	</g>
</g>
<g id="C">
</g>
<g id="titres">
</g>
<g id="réserve" display="none">
</g>
</svg>
