<?xml version="1.0" encoding="UTF-8"?><svg xmlns="http://www.w3.org/2000/svg" width="40px" height="40px" viewBox="0 0 282.23 282.23"><g id="_00326E"><path d="m141.12,0C219.05,0,282.23,63.18,282.23,141.12s-63.18,141.12-141.12,141.12S0,219.05,0,141.12,63.18,0,141.12,0Z" style="fill:#00326e;"/></g><g id="C"><path d="m103.55,97.21c.9.45,1.75.94,1.73,1.07l-48.57,100.07c-.08.09-.99-.28-1.89-.72l-17.37-8.58,48.74-100.41,17.37,8.58Z" style="fill:#fff; opacity:.85;"/><path d="m106.79,98.68l-2.19-1.08-48.84,100.63,2.19,1.08c.33.16.76.08,1.61-.9l47.59-98.06c.18-.68-.03-1.51-.36-1.67Z"/><path d="m118.24,63.26l20.67,4.6c.41.09.79.25,2.93.87l-29.54,132.62c-2.2-.35-2.62-.37-3.02-.46l-20.67-4.6c-.5-.11-.96-.32-1.36-.61l29.5-132.44c.49-.09,1-.09,1.5.02Z" style="fill:#fff; opacity:.85;"/><g style="opacity:.6;"><polyline points="136.22 105.96 236.81 105.96 236.81 166.06 166.95 166.06" style="fill:none; stroke:#fff; stroke-miterlimit:10; stroke-width:11px;"/><polyline points="244 195.75 143.41 195.75 143.41 135.65 213.27 135.65" style="fill:none; stroke:#fff; stroke-miterlimit:10; stroke-width:11px;"/></g><line x1="46.1" y1="171.47" x2="64.45" y2="180.37" style="fill:none; stroke:#00326e; stroke-miterlimit:10; stroke-width:2px;"/><line x1="48.54" y1="166.59" x2="66.89" y2="175.49" style="fill:none; stroke:#00326e; stroke-miterlimit:10; stroke-width:1.5px;"/><line x1="43.77" y1="176.24" x2="62.11" y2="185.14" style="fill:none; stroke:#00326e; stroke-miterlimit:10; stroke-width:1.5px;"/><line x1="91.91" y1="179.35" x2="114.92" y2="184.44" style="fill:none; stroke:#00326e; stroke-miterlimit:10; stroke-width:3px;"/><line x1="93.57" y1="171.78" x2="116.58" y2="176.87" style="fill:none; stroke:#00326e; stroke-miterlimit:10; stroke-width:3px;"/><line x1="95.36" y1="163.94" x2="118.36" y2="169.03" style="fill:none; stroke:#00326e; stroke-miterlimit:10; stroke-width:3px;"/><line x1="141.95" y1="68.22" x2="111.97" y2="201.12" style="fill:none; stroke:#000; stroke-miterlimit:10; stroke-width:2px;"/></g></svg>