<?xml version="1.0" encoding="utf-8"?>
<!-- Generator: Adobe Illustrator 23.0.2, SVG Export Plug-In . SVG Version: 6.00 Build 0)  -->
<svg version="1.1" xmlns="http://www.w3.org/2000/svg" xmlns:xlink="http://www.w3.org/1999/xlink" x="0px" y="0px"
	 width="40px" height="40px" viewBox="1056.757 1209.214 282.232 282.233" enable-background="new 1056.757 1209.214 282.232 282.233" xml:space="preserve">
<g id="_x2D_--" display="none">
	<rect x="116.272" y="-356.429" display="inline" fill="#FFFFFF" width="4471.75" height="5688"/>
</g>
<g id="fond" display="none">
	<path display="inline" fill="#21558B" d="M1197.872,1209.214c77.938,0,141.117,63.18,141.117,141.115
		c0,77.938-63.18,141.117-141.117,141.117c-77.936,0-141.115-63.18-141.115-141.117
		C1056.757,1272.394,1119.937,1209.214,1197.872,1209.214z"/>
</g>
<g id="_x30_0326E">
	<path fill="#00326E" d="M1197.872,1209.214c77.938,0,141.117,63.18,141.117,141.115c0,77.938-63.18,141.117-141.117,141.117
		c-77.936,0-141.115-63.18-141.115-141.117C1056.757,1272.394,1119.937,1209.214,1197.872,1209.214z"/>
</g>
<g id="A" display="none">
	<g id="Calque_2" display="inline">
	</g>
	<g id="Calque_7" display="inline">
	</g>
</g>
<g id="B" display="none">
</g>
<g id="B_bis">
	
		<line fill="#FFFFFF" stroke="#FFFFFF" stroke-width="14" stroke-linecap="round" stroke-miterlimit="10" x1="1200.796" y1="1275.217" x2="1102.232" y2="1359.589"/>
	
		<line fill="#FFFFFF" stroke="#FFFFFF" stroke-width="14" stroke-linecap="round" stroke-miterlimit="10" x1="1202.232" y1="1275.217" x2="1300.796" y2="1359.589"/>
	<path opacity="0.67" fill="none" stroke="#FFFFFF" stroke-width="8" stroke-miterlimit="10" d="M1130.853,1337.458
		c0,0,0,21.02,0,26.652c0,29.685,30.892,53.75,69,53.75s69-24.065,69-53.75c0-11.276,0-27.824,0-27.824"/>
	
		<rect x="1142.232" y="1279.232" fill="#FFFFFF" stroke="#FFFFFF" stroke-width="0.5" stroke-miterlimit="10" width="14.24" height="38.17"/>
	<path opacity="0.65" fill="none" stroke="#FFFFFF" stroke-width="6" stroke-miterlimit="10" d="M1168.233,1355.747
		c3,14.485,15.677,25.485,35,25.485"/>
	<path opacity="0.65" fill="none" stroke="#FFFFFF" stroke-width="6" stroke-miterlimit="10" d="M1238.232,1355.747
		c-3,14.485-15.677,25.485-35,25.485"/>
</g>
<g id="C">
</g>
<g id="titres">
</g>
<g id="réserve" display="none">
</g>
</svg>
