<?xml version="1.0" encoding="utf-8"?>
<!-- Generator: Adobe Illustrator 23.0.2, SVG Export Plug-In . SVG Version: 6.00 Build 0)  -->
<svg version="1.1" xmlns="http://www.w3.org/2000/svg" xmlns:xlink="http://www.w3.org/1999/xlink" x="0px" y="0px"
	 viewBox="150.531 907.139 282.233 282.232" enable-background="new 150.531 907.139 282.233 282.232" xml:space="preserve">
<g id="_x2D_--" display="none">
	<rect x="116.272" y="-356.429" display="inline" fill="#FFFFFF" width="4471.75" height="5688"/>
	<g display="inline">
		<path d="M339.357,941.997c5.5,3.52,18.26,9.02,31.68,9.02c24.86,0,32.561-15.84,32.34-27.72
			c-0.22-20.021-18.26-28.601-36.96-28.601h-10.78v-14.52h10.78c14.08,0,31.9-7.261,31.9-24.2c0-11.44-7.26-21.561-25.08-21.561
			c-11.44,0-22.44,5.061-28.601,9.46l-5.06-14.08c7.479-5.5,22-11,37.4-11c28.16,0,40.92,16.72,40.92,34.101
			c0,14.74-8.8,27.28-26.4,33.66v0.439c17.601,3.521,31.9,16.721,31.9,36.74c0,22.881-17.82,42.9-52.141,42.9
			c-16.06,0-30.14-5.06-37.18-9.68L339.357,941.997z"/>
	</g>
</g>
<g id="fond" display="none">
	
		<ellipse transform="matrix(0.7071 -0.7071 0.7071 0.7071 -655.8063 513.2522)" display="inline" fill="#21558B" cx="291.647" cy="1048.254" rx="141.116" ry="141.117"/>
</g>
<g id="_x30_0326E">
	
		<ellipse transform="matrix(0.7071 -0.7071 0.7071 0.7071 -655.8063 513.2522)" fill="#00326E" cx="291.647" cy="1048.254" rx="141.116" ry="141.117"/>
</g>
<g id="A" display="none">
	<g display="inline">
		<path fill="#FFFFFF" d="M177.979,1127.609l10.421-9.268c8.748-6.816,15.223-8.779,19.424-5.889
			c4.201,2.893,8.691,2.695,13.47-0.592c2.831-2.813,3.685-6.036,2.565-9.67c-1.12-3.631-2.726-7.518-4.814-11.658
			c-2.09-4.14-3.211-8.438-3.361-12.896c-0.15-4.457,2.18-8.937,6.99-13.438c4.328-3.627,8.945-5.325,13.852-5.098
			c4.906,0.23,10.332,1.086,16.283,2.57c5.948,1.486,12.564,2.139,19.847,1.956c7.281-0.181,15.421-2.457,24.418-6.831
			c-5.466,8.344-8.733,16.1-9.8,23.268c-1.067,7.171-1.22,13.787-0.457,19.848c0.762,6.063,0.997,11.573,0.707,16.533
			c-0.291,4.963-2.471,9.4-6.542,13.316c-5.067,4.212-9.816,5.972-14.244,5.281c-4.429-0.69-8.576-2.315-12.442-4.875
			c-3.869-2.558-7.541-4.605-11.018-6.143c-3.478-1.535-6.741-1.021-9.793,1.543c-3.822,4.363-4.543,8.799-2.16,13.309
			c2.381,4.51-0.324,10.712-8.116,18.604l-10.421,9.268c-8.072,7.328-15.103,10.915-21.09,10.76
			c-5.988-0.154-12.102-3.864-18.34-11.129c-6.303-6.836-9.162-13.217-8.58-19.141
			C165.358,1141.315,169.759,1134.771,177.979,1127.609z M242.923,1104.955c2.73,2.904,5.732,4.511,9.008,4.818
			c3.273,0.311,6.108-0.562,8.502-2.617c2.412-2.367,3.596-5.012,3.551-7.935c-0.043-2.923-0.781-5.229-2.211-6.921
			c6.451-5.736,12.201-11.201,17.247-16.393c5.048-5.193,8.687-9.447,10.919-12.768c-3.593,1.79-8.252,4.896-13.98,9.324
			c-5.727,4.427-11.816,9.509-18.268,15.246c-1.512-1.617-3.717-2.619-6.615-3.004c-2.896-0.385-5.662,0.482-8.295,2.601
			c-2.32,2.138-3.518,4.851-3.592,8.138C239.112,1098.734,240.357,1101.904,242.923,1104.955z"/>
	</g>
	<g display="inline">
		<path fill="#FFFFFF" d="M310.007,1101.274v-7.051c0-5.999,0.757-10.745,2.272-14.241c1.516-3.493,4.653-7.776,9.417-12.849
			l12.246-12.896c3.896-4.143,5.845-6.834,5.845-8.071c0-1.36-2.382-4.453-7.144-9.277l-12.246-12.617
			c-4.145-4.205-6.911-8.102-8.304-11.689c-1.391-3.587-2.087-8.535-2.087-14.844v-7.607c0-5.257,3.433-9.199,10.298-11.829
			c6.865-2.627,17.163-3.942,30.894-3.942c27.461,0,41.191,5.258,41.191,15.771v7.607c0,6.309-0.696,11.257-2.087,14.844
			c-1.393,3.588-4.161,7.484-8.304,11.689l-12.246,12.617c-4.701,4.824-7.051,7.917-7.051,9.277c0,1.237,1.916,3.929,5.752,8.071
			l12.246,12.896c4.762,5.072,7.9,9.355,9.417,12.849c1.515,3.496,2.272,8.242,2.272,14.241v7.051c0,5.69-3.495,9.989-10.483,12.896
			c-6.99,2.906-17.226,4.36-30.708,4.36c-13.484,0-23.72-1.454-30.708-4.36C313.5,1111.264,310.007,1106.965,310.007,1101.274z
			 M314.553,992.544v8.906c0,4.268,0.617,7.562,1.855,9.88c1.236,2.32,4.421,6.232,9.556,11.736l10.483,11.133
			c5.256,5.752,7.886,9.804,7.886,12.153c0,2.412-2.412,6.216-7.236,11.411l-12.061,12.896c-4.701,5.01-7.623,8.753-8.767,11.226
			c-1.146,2.475-1.717,6.216-1.717,11.226v6.68c0,4.021,1.452,6.804,4.36,8.35c7.111,3.896,17.873,5.845,32.285,5.845
			c14.473,0,25.234-1.948,32.285-5.845c2.906-1.546,4.36-4.329,4.36-8.35v-6.68c0-5.01-0.571-8.751-1.712-11.226
			c-1.141-2.473-4.053-6.216-8.738-11.226l-12.024-12.896c-4.81-5.195-7.213-9.122-7.213-11.782c0-2.103,2.651-6.03,7.954-11.782
			l10.358-11.133c5.117-5.504,8.292-9.416,9.525-11.736c1.232-2.318,1.85-5.612,1.85-9.88v-8.906
			c-8.475,5.381-20.688,8.071-36.646,8.071c-7.979,0-15.015-0.68-21.106-2.041C324,997.215,318.82,995.204,314.553,992.544z
			 M351.198,996.069c8.535,0,16.421-0.958,23.657-2.876c7.236-1.916,10.792-3.989,10.669-6.216
			c-0.125-2.288-3.448-4.205-9.974-5.752c-6.525-1.546-14.644-2.319-24.353-2.319c-9.773,0-17.938,0.789-24.492,2.365
			c-6.557,1.578-9.834,3.542-9.834,5.892c0,2.165,3.633,4.19,10.901,6.077C335.04,995.127,342.849,996.069,351.198,996.069z
			 M319.191,1101.553c0.99-3.711,4.707-7.236,11.148-10.576l8.176-4.175c5.141-2.659,8.223-4.453,9.244-5.381
			c1.022-0.928,2.184-2.999,3.484-6.216c1.358,3.217,2.531,5.288,3.521,6.216c0.988,0.928,4.045,2.722,9.171,5.381l8.152,4.175
			c6.422,3.34,10.129,6.865,11.117,10.576c-7.855,3.959-18.524,5.938-32.007,5.938
			C337.714,1107.49,327.045,1105.512,319.191,1101.553z M324.387,1010.913c9.152,5.814,18.091,8.721,26.812,8.721
			s17.688-2.906,26.904-8.721c-1.544,2.475-4.94,6.557-10.188,12.246l-7.688,8.442c-3.459,3.773-5.558,6.387-6.298,7.84
			c-0.741,1.453-1.358,4.221-1.852,8.303c-0.125,1.238-0.401,3.094-0.834,5.566c-0.435-2.473-0.713-4.328-0.836-5.566
			c-0.496-4.082-1.116-6.85-1.859-8.303c-0.744-1.453-2.851-4.066-6.319-7.84l-7.713-8.442
			C329.25,1017.47,325.874,1013.388,324.387,1010.913z"/>
	</g>
	<g id="Calque_2" display="inline">
	</g>
	<g id="Calque_7" display="inline">
	</g>
</g>
<g id="B" display="none">
</g>
<g id="B_bis">
	<path opacity="0.9" fill="#FFFFFF" d="M256.348,1068.129c0,8.437-6.846,15.264-15.244,15.264c-8.431,0-15.277-6.827-15.277-15.264
		c0-8.411,6.847-15.251,15.277-15.251C249.502,1052.878,256.348,1059.718,256.348,1068.129z M257.234,1092.899l22.619,43.478
		l-13.44-0.515l-7.305,11.303l-16.282-31.282l-8.89,30.138l-9.329-9.694l-13.102,3.068l13.66-46.333
		c-8.216-5.269-13.66-14.459-13.66-24.933c0-16.345,13.252-29.584,29.585-29.584c16.339,0,29.597,13.227,29.597,29.584
		C270.688,1078.502,265.332,1087.631,257.234,1092.899z M225.953,1090.46l-0.221,0.289c0.044,0.012,0.082,0.038,0.107,0.05
		L225.953,1090.46z M236.76,952.619v81.726c1.401-0.263,2.848-0.415,4.331-0.415c1.276,0,2.527,0.126,3.747,0.34v-73.566h111.713
		v154.777h-83.009l4.477,8.072h86.604V952.619H236.76z M273.769,972.812v8.072h53.833v-8.072H273.769z M257.298,998.222h84.14
		v-4.551h-84.14V998.222z M257.298,1011.852h84.14v-4.564h-84.14V1011.852z M257.298,1025.821h84.14v-4.539h-84.14V1025.821z
		 M257.298,1040.041h84.14v-4.564h-84.14V1040.041z"/>
	<g>
		<path fill="#C89209" d="M251.202,1018.303l4.336,9.258l9.258-4.453c2.421,1.251,4.805,2.735,7.148,4.453l-0.117,10.313
			l10.195-0.117c1.796,2.344,3.319,4.728,4.57,7.148l-4.453,9.258l9.258,4.336c0.546,2.735,0.858,5.548,0.938,8.438l-8.086,6.328
			l6.445,7.969c-0.703,2.813-1.641,5.47-2.813,7.969l-9.961,2.227l2.344,9.961c-1.875,2.188-3.867,4.219-5.977,6.094l-9.961-2.344
			l-2.227,9.961c-2.578,1.172-5.273,2.109-8.086,2.813l-7.969-6.445l-6.328,8.086c-2.813-0.079-5.625-0.392-8.438-0.938
			l-4.336-9.258l-9.258,4.453c-2.501-1.327-4.884-2.851-7.148-4.57l0.117-10.195l-10.195,0.117c-1.798-2.344-3.321-4.765-4.57-7.266
			l4.453-9.141l-9.258-4.453c-0.548-2.733-0.86-5.508-0.938-8.32l8.086-6.328l-6.445-7.969c0.703-2.813,1.641-5.508,2.813-8.086
			l9.961-2.227l-2.344-9.961c1.875-2.109,3.867-4.102,5.977-5.977l9.961,2.344l2.227-9.961c2.578-1.172,5.273-2.109,8.086-2.813
			l7.969,6.445l6.328-8.086C245.577,1017.444,248.39,1017.757,251.202,1018.303z M213.116,1068.459
			c0,7.734,2.754,14.355,8.262,19.863s12.129,8.262,19.863,8.262s14.355-2.754,19.863-8.262s8.262-12.129,8.262-19.863
			s-2.754-14.355-8.262-19.863s-12.129-8.262-19.863-8.262s-14.355,2.754-19.863,8.262S213.116,1060.725,213.116,1068.459z"/>
	</g>
</g>
<g id="C">
</g>
<g id="titres">
</g>
<g id="réserve" display="none">
</g>
</svg>
