<?xml version="1.0" encoding="UTF-8"?>
<svg version="1.1" width="40px" height="40px" viewBox="0 0 40 40" xmlns="http://www.w3.org/2000/svg">
<defs>
<style>.st0 {
        fill: #e59029;
      }

      .st1 {
        fill: #e5912c;
      }

      .st2 {
        fill: #fff;
      }

      .st3 {
        fill: #ccc6c0;
      }

      .st4 {
        fill: #ed972f;
      }

      .st5 {
        fill: #00326e;
      }

      .st6 {
        fill: #ed9832;
      }</style>
</defs>
<path class="st5" d="M20,0c11,0,20,9,20,20s-9,20-20,20S0,31.1,0,20h0C0,9,9,0,20,0Z"/>
<path class="st6" d="M24.7,12.2c-.2,0-.3-.2-.3-.3v-2.1c0-.2.2-.3.3-.3s.3.2.3.3v2.1c0,.2-.2.3-.3.3Z"/>
<path class="st1" d="M35.1,20.4h-2.1c-.2,0-.3-.2-.3-.3s.2-.3.3-.3h2.1c.2,0,.3.2.3.3s-.2.3-.3.3Z"/>
<path class="st0" d="M30.5,14.6s-.2,0-.2-.1c-.1-.1-.1-.4,0-.5l1.5-1.5c.1-.1.4-.1.5,0s0,.4,0,.5l-1.5,1.5h-.2c0,.1-.1.1-.1.1Z"/>
<path class="st2" d="M30.3,25.1c-.3,0-.5-.3-.5-.6-.3-2.2-2.2-3.7-4.4-3.7s-1.8.3-2.6.8c-.2.1-.4.2-.6.1-.2,0-.4-.2-.5-.4-1-2.2-3.2-3.6-5.7-3.6s-6.3,2.8-6.3,6.3,0,.3,0,.4c0,.3-.2.6-.5.7-1.4.5-2.4,1.8-2.4,3.3s1.6,3.5,3.5,3.5h18.8c1.9,0,3.5-1.6,3.5-3.5s-1-2.9-2.5-3.3h.2Z"/>
<path class="st4" d="M22.5,20.2c2.6-2.3,7.3.4,7.3.5.2-.5.3-1.1.3-1.7,0-3.1-2.5-5.6-5.6-5.6s-4.4,2-5,3.7c.7.4,1.2.7,1.6,1.1"/>
<path class="st4" d="m26.8 19"/>
<path class="st3" d="M8.7,22.9c.5-3.7,3.7-6.7,7.5-6.5s1.6.1,2.4.4c.4-1.3,1-2.4,2.2-3.1-.6-.4-.7-.5-1.6-.5s-1.7.3-2.3.7c-.9-1.8-2.7-3.1-4.9-3.1s-5.4,2.4-5.4,5.4,0,.2,0,.4c-1.3.4-2.2,1.6-2.2,3.1s1.5,3.2,3.2,3.2h1.1Z"/>
</svg>
