<?xml version="1.0" encoding="UTF-8"?>
<svg id="Calque_1" xmlns="http://www.w3.org/2000/svg" version="1.1" width="40px" height="40px" viewBox="0 0 40 40">
  <!-- Generator: Adobe Illustrator 29.0.1, SVG Export Plug-In . SVG Version: 2.1.0 Build 192)  -->
  <defs>
    <style>
      .st0 {
        fill: #fff;
      }

      .st1 {
        fill: #00326e;
      }
    </style>
  </defs>
  <g id="_00326E">
    <path class="st1" d="M19.6.3c11,0,20,9,20,20s-9,20-20,20S-.4,31.4-.4,20.3H-.4C-.4,9.3,8.6.3,19.6.3Z"/>
  </g>
  <path class="st0" d="M22.2,17.5l6.7-4.7c-1-.9-.6-2.2.5-2.7s4.4-.7,5.2.7-.2,2.2-1.3,2.6-2.2.1-3.3.1l-6.3,4.5,1,1c.7,1.3.2,2.3-.9,3.2l3.9,2.8c1.6-.4,4.8-.4,5.7,1.3s-1.5,2.9-3,3.1c-2.3.2-6.1-.9-4-3.8-1.1-.8-2.3-1.5-3.4-2.2s-.2-.3-.4-.4c-.3-.1-1.5,0-1.8.2s0,.2-.3.2c-.4,0-1.6,0-1.9,0s-.8-.2-1-.3c-1.9-.5-4.3-1.6-3.2-3.9s.6-.4.3-.6l-4.6-2.2c-.6,0-1.2.3-1.9.3-1.3,0-3.7-.3-4-1.9-.5-3.1,7-3.2,7.2-.4s-.3,1-.1,1.2l4.6,2.2,1-.2c-.7-1.3-1.7-2.5-2-4.1-.6-4,3.5-6.9,7-4.9s2.7,4.4,1.5,6.9-1.3,1.9-1.3,2ZM22.1,10.2c-1.5-1.5-4-1.3-5.2.4-2.1,2.8,1,6,2.7,8.1.1,0,.9-.8,1-1,1.6-1.9,3.8-5.2,1.5-7.4ZM30.8,11c-.5,0-1.8.5-1,1s3.1.6,3.9-.3c-.5-.9-2-.9-2.9-.7ZM9.8,15c.7-.6.4-.8-.5-1.1s-2-.3-2.9,0c-2.1.7-.2,1.6,1,1.7s1.8,0,2.4-.5ZM19.2,20.1c-.3-.3-.9-1.3-1-1.4-.6-.5-2.7.8-2.7,1.5,0,1.6,3.8,1.9,4.9,1.8s3.4-.6,3.4-1.7-1.6-1.7-2.3-1.7-1.3,2.3-2.3,1.5ZM32.1,27.6c.8-.8-.8-1.4-1.5-1.5s-3.5,0-3.6.9,2.4,1.3,3.1,1.2,1.7-.4,1.9-.6Z"/>
  <path class="st0" d="M13.9,28.2c1.7.6,2.3,2.1.9,3.5s-6.9,1.4-7.5-1.1,3.7-3.2,5.3-2.8c.4-.4,1.3-2.2,2-1.4s-.5,1.4-.7,1.9ZM10.7,29c-.5,0-2.4.5-2.3,1.2.5,1.1,2.5,1.2,3.6,1.1s3.7-1.1,1.4-2-1.8-.4-2.7-.4Z"/>
  <path class="st0" d="M16.3,25.2c-.4.4-1.1.1-1-.5,0-1.1,1.8-.2,1,.5Z"/>
  <path class="st0" d="M20.4,10.8c0,0,.6.5.7.6,1.1,1.1.4,3.3-1.2,3.5s-2.6-1.1-2.3-2.6,1.7-2,2.7-1.4ZM19.3,11.9c-1.1.3-.5,2.1.7,1.6s.4-1.9-.7-1.6Z"/>
</svg>