<?xml version="1.0" encoding="UTF-8"?><svg xmlns="http://www.w3.org/2000/svg" width="40px" height="40px" viewBox="0 0 282.23 282.23"><defs><style>.cls-1{fill:#00326e;}.cls-2{fill:#fff;opacity:.38;}.cls-3{fill:#af9889;}</style></defs><g id="_0326E"><path class="cls-1" d="M141.12,0c77.94,0,141.12,63.18,141.12,141.12s-63.18,141.12-141.12,141.12S0,219.05,0,141.12,63.18,0,141.12,0Z"/></g><g id="C"><path class="cls-3" d="M134.13,174.39c0-90-93-116-92-114l-4,4c6,40-20,90,90,153v1c6.63,0,5-23.37,5-30"/><path class="cls-3" d="M145.87,203.39c0-90,93-116,92-114l4,4c-6,40,20,90-90,153v1c-6.63,0-5-23.37-5-30"/><path class="cls-2" d="M134.13,174.39c0-90-93-116-92-114l-4,4c6,40-20,90,90,153v1c6.63,0,5-23.37,5-30"/></g></svg>