<?xml version="1.0" encoding="utf-8"?>
<!-- Generator: Adobe Illustrator 23.0.2, SVG Export Plug-In . SVG Version: 6.00 Build 0)  -->
<svg version="1.1" xmlns="http://www.w3.org/2000/svg" xmlns:xlink="http://www.w3.org/1999/xlink" x="0px" y="0px"
	 width="40px" height="40px" viewBox="-453.618 302.988 282.232 282.232" enable-background="new -453.618 302.988 282.232 282.232" xml:space="preserve">
<g id="_x2D_--" display="none">
</g>
<g id="fond" display="none">
	<path display="inline" fill="#21558B" d="M-312.503,302.989c77.937,0,141.117,63.18,141.117,141.115
		c0,77.938-63.18,141.117-141.117,141.117c-77.936,0-141.115-63.18-141.115-141.117
		C-453.618,366.169-390.439,302.989-312.503,302.989z"/>
</g>
<g id="_x30_0326E">
	<path fill="#00326E" d="M-312.503,302.989c77.937,0,141.117,63.18,141.117,141.115c0,77.938-63.18,141.117-141.117,141.117
		c-77.936,0-141.115-63.18-141.115-141.117C-453.618,366.169-390.439,302.989-312.503,302.989z"/>
</g>
<g id="A" display="none">
	<g id="Calque_2" display="inline">
	</g>
	<g id="Calque_7" display="inline">
	</g>
</g>
<g id="B">
	<path fill="#6F90B8" d="M-316.504,482.599c0-90-93-116-92-114l-4,4c6,40-20,90,90,153v1c6.627,0,5-23.373,5-30"/>
	<path fill="#FFFFFF" d="M-304.769,511.6c0-90,93-116,92-114l4,4c-6,40,20,90-90,153v1c-6.627,0-5-23.373-5-30"/>
	<path opacity="0.68" fill="#6F90B8" d="M-304.769,511.6c0-90,93-116,92-114l4,4c-6,40,20,90-90,153v1c-6.627,0-5-23.373-5-30"/>
</g>
<g id="C" display="none">
</g>
</svg>
