<?xml version="1.0" encoding="UTF-8"?>
<svg version="1.1" width="40px" height="40px" viewBox="0 0 40 40" xmlns="http://www.w3.org/2000/svg">
<defs>
<style>.st0 {
        display: none;
      }

      .st0, .st1 {
        fill: #fff;
      }

      .st2 {
        fill: #00326e;
      }</style>
</defs>
<path class="st2" d="M20,0C31,0,40,9,40,20s-9,20-20,20S0,31.1,0,20h0C0,9,9,0,20,0Z"/>
<path class="st1" d="M27.6,16.5c.2.2.1,1.3.4,1.4s1.2.5,1.2.5c.4-.2.9-.9,1.4-.7s.4.3.5.4c.1.1.9.9.9,1,.2.5-.6,1-.7,1.5l.5,1.3c.3.1,1.3,0,1.4.4s0,1.8,0,2c0,.6-1.3.2-1.5.5s-.3.9-.5,1.2c0,.4,1.2,1.1.7,1.6l-1.3,1.3c-.5.2-.9-.6-1.4-.7l-1.3.5c0,.3-.2,1.4-.4,1.5s-1.7,0-1.9,0c-.4,0-.3-1.2-.5-1.5s-1.1-.4-1.3-.6c-.5.2-1,1-1.5.6s-1.1-1.1-1.2-1.2c-.3-.5.5-1,.7-1.4s-.1-.4-.2-.6-.2-.5-.3-.8c-.3,0-1.3,0-1.5-.4s0-1.8,0-2c0-.4,1.1-.3,1.4-.4s.4-1.1.6-1.3c-.3-.4-1.1-1-.7-1.5s1.1-1.1,1.2-1.2c.6-.3,1,.6,1.5.7l1.3-.5c.1-.3.1-1.3.4-1.5s1.6,0,1.9,0,.2,0,.3,0ZM25.9,20c-1.2.1-2.4,1.3-2.6,2.4-.7,2.9,2.3,5,4.8,3.5s1.4-6.4-2.2-5.9Z"/>
<path class="st1" d="M33.9,30.4c.2,0,.2,1,.1,1.2s-.1.3-.3.3c-1.6.2-3.5-.1-5.1,0-4.6,0-9.2,0-13.8,0s-5.5,0-8.3,0c-.3,0-.2-1.2-.1-1.3.1-.2,1,0,1.2-.2,0-.3,0-1.5,0-1.7h.2c0,0,13-.1,13-.1.8,0,.8.9,1.7.9s1-.6,1.3-.6c.7,0,.6.7.7,1.2s.3.5.5.6,1.8,0,2.2,0c.5,0,.8-.3,1-.8s0-.9.7-1,.5.3.7.4c.4.2.9.3,1.3,0s.5-.6.7-.7,1,0,1.1.2,0,1.1,0,1.4,0,.2.1.2h.9Z"/>
<path class="st1" d="M25.4,13.8c0-.1,0-.3,0-.4,0-.5.4-1.6.3-2s-.3-.3-.3-.7.2-.4.3-.5,0-1.6,0-1.8h0c-1.4-.7-2.9-1.4-4.3-2s-.3-.2-.4-.3c-.4-.1-.6.3-.3.6s.7.3,1,.4c1.2.5,2.3,1.2,3.5,1.6,0,0,0,0-.1.1-.7.5-2,1-2.8,1.4s-.9.5-1.2.5-.2,0-.3,0l-8-3.6c-.3-.1-.2-.5,0-.6l8-3.6,8.1,3.6c.2.1.2.4,0,.5-.8.3-1.6.6-2.3,1.1,0,0,0,1.7,0,1.9s.2.2.3.4c.2.4,0,.6-.2.9l.5,2.3c0,.1-.1.2-.2.3s-1.2,0-1.3,0Z"/>
<path class="st1" d="M14.9,10.3v1.4c0,.4.7,1.1,1.1,1.4,2,1.4,5.8,1.5,8,.6s.5-.3.7-.3c-.1.4.1.9.5,1s1.2.1,1.5,0c.6,0,1-.4.9-1,0-.8-.4-1.7-.3-2.6s0,0,0,0l7.1,4.1c.3.3,0,.7-.3.7H7c-.3-.1-.5-.4-.2-.7l8.1-4.6Z"/>
<path class="st1" d="m15.6 9.1h0.1l4.9 2.2h0.4l4-2v0.9 1.2c0 0.8 0 1-0.6 1.4-2 1.3-6 1.2-8-0.2s-0.6-0.5-0.7-0.8 0-0.6 0-0.7v-2z"/>
<rect class="st1" x="15.7" y="17.9" width="1.3" height="8.4"/>
<path class="st1" d="m18.7 17.9v8.5c-0.3-0.2-0.8 0.2-1.2 0v-8.3h0.2 1z"/>
<path class="st1" d="m10.6 18v8.4h-1.2s0 0 0 0v-8.4h1.2z"/>
<polygon class="st1" points="12.4 18 12.4 26.3 11.2 26.3 11.2 18"/>
<path class="st1" d="M8.8,26.9h4.2c.2,0,.2,1.1,0,1.1h-4.3c-.2,0-.2-.7-.1-.9s.1-.2.3-.2Z"/>
<path class="st1" d="M15.2,26.9h4.1c.2,0,.3,1.1,0,1.1h-4.1c-.3,0-.2-.9-.2-1s.1-.1.2-.1Z"/>
<path class="st1" d="M19.4,17.3c0,.1-.7,0-.8,0-.9,0-2.5.2-3.4,0s-.2,0-.2-.3,0-.6,0-.7c0-.2.4,0,.5,0,.8,0,1.4,0,2.1,0s1-.1,1.5,0,.2,0,.3.1v.9Z"/>
<path class="st1" d="M12.8,16.3c.5,0,.4.7.2,1h-4.2c-.4,0-.4-.9,0-1h4Z"/>
<path class="st0" d="M25.9,20c3.6-.4,5.2,4.2,2.2,5.9s-5.5-.7-4.8-3.5,1.4-2.3,2.6-2.4Z"/>
</svg>
