<svg id="ms-office-staff" xmlns="http://www.w3.org/2000/svg" version="1.1" width="40px" height="40px" viewBox="0 0 40 40">
  <defs>
    <style>
      .st0 {
        fill: none;
        stroke: #fff;
        stroke-miterlimit: 10;
        stroke-width: 1px;
      }

      .st1 {
        fill: #00326e;
      }
    </style>
  </defs>
  <g id="_00326E">
    <path class="st1" d="M20,0C31,0,40,9,40,20s-9,20-20,20S0,31.1,0,20h0C0,9,9,0,20,0Z"/>
  </g>
  <g id="icon">
    <path class="st0" d="M25.6,9.9c-.3-1.2-.7-1.9-1.9-1.9h-1c-1.9,0-2.5,3-2.6,3.2l-2.1,6.7.4-1.4c.4-1.1,1.4-1.9,2.6-1.9h6.6s1.9,0,1.9,0h-.6c-1.2,0-2.3-.8-2.6-1.9l-.8-2.7Z"/>
    <path class="st0" d="M13.9,29.1c.3,1.2,1.4,2,2.6,2h0c1.6,0,2.1-1.6,2.1-1.6l2.6-8.3-.4,1.4c-.3,1.1-1.4,1.9-2.6,1.9h-6.7s-1.5,0-1.5,0h.6c1.2,0,2.3.8,2.6,2l.8,2.7Z"/>
    <path class="st0" d="M23.8,7.9h-9.5c-3.7,0-5.3,3.5-6.4,6.9-1.3,4.1-3,9.6,1.9,9.6h4.1c1.2,0,2.3-.8,2.6-1.9.7-2.4,2-6.6,2.9-9.8.5-1.6.9-3,1.5-3.9.4-.5.9-.9,2.7-.9Z"/>
    <path class="st0" d="M16.4,31h9.5c2.7,0,4.3-3.5,5.4-6.9,1.3-4.1,3-9.6-1.9-9.6h-4.1c-1.2,0-2.3.8-2.6,1.9-.7,2.4-2,6.6-2.9,9.8-.5,1.6-.9,3-1.5,3.9-.4.5-.9.9-1.8.9Z"/>
  </g>
</svg>