<svg xmlns="http://www.w3.org/2000/svg" width="40px" height="40px" viewBox="0 0 282.23 282.23">
  <title>amatys</title>
  <path d="M141.12,0A141.12,141.12,0,1,1,0,141.11,141.11,141.11,0,0,1,141.12,0Z" style="fill: #00326e"/>
  <g>
    <path d="M109.42,170.24l-5,1c-1.86.4-5.79-1.36,1-15.82l1.78-4.5c18.44-39.35,19.65-37.48,71.25-69.41l47.42-24.9c15.28-9.4,22-7.15,10.67,10.44-3.69,5.75-48.53,59.27-63.3,74.09l-1.54,1.18C163.37,147.07,137.67,161.54,109.42,170.24Z" style="fill: #a47db8"/>
    <path d="M95.73,160.22l-1.64,6.54c-2.36,4.51-3,5.82-10.23,1.22l-16-12.34c-3.95-5.52-12.67-31.9-15.87-54.39V97.62c3-15.34,2.63-20.93,12-13.92,3.09,2.31,30.05,29.42,35,39.47l.23,1A324.61,324.61,0,0,1,95.73,160.22Z" style="fill: #a47db8"/>
    <path d="M86.47,175l2.24-.8c.82-.2,3.1-1.61,1.29,5l-.72,2.06c-5,18-5.06,17.16-26,32.13L43.66,225.15c-6.2,4.41-8.56,2.84-4.94-5.24,1.19-2.64,14.93-22.41,20.41-29.27l2.8-3A158.93,158.93,0,0,1,86.47,175Z" style="fill: #a47db8"/>
    <path d="M96.73,185.43,98,179.2c1.14-8.78,6.19-6.1,24.77,3.22l12.82,7.26c3.23,1.41,7.66,13.89,14.24,28.93l2.68,6.31c2.69,5.23,3.36,17.85-4.82,13.71-3.09-1.57-43.1-26.33-51-39.13l-.36-1.83C96,194.72,96.18,192.15,96.73,185.43Z" style="fill: #7959a0"/>
  </g>
</svg>
