<svg xmlns="http://www.w3.org/2000/svg" viewBox="0 0 282.23 282.23"><defs><style>.cls-1{fill:#00326e;}.cls-2,.cls-3{fill:#fff;}.cls-2{opacity:0.77;}.cls-3{stroke:#00326e;stroke-miterlimit:10;stroke-width:4px;}</style></defs><g id="_00326E" data-name="00326E"><path class="cls-1" d="M141.12,0A141.12,141.12,0,1,1,0,141.12,141.12,141.12,0,0,1,141.12,0Z"/></g><g id="C"><path class="cls-2" d="M227.83,116.56c20.43,1.26,26,20.75,24.52,30.49.09,7.3-9.23,24.09-23.15,24.09H116.27c-21.64,0-31.55-15.85-29.5-31.88,3.84-30.15,35.34-26.85,35.34-26.85s-1.4-28.52,22-34.08c15.53-4.72,25.63-1.25,34.22,13.24,9-4.85,24.37-4.73,33.65-.57C220.94,96.45,224.28,103.83,227.83,116.56Z"/><path class="cls-3" d="M188,129.44c22.9,1.47,29.2,24,27.48,35.27.1,8.46-10.35,27.87-25.94,27.87H63c-24.25,0-35.35-18.33-33.06-36.87,4.3-34.88,39.6-31.06,39.6-31.06S68,91.66,94.15,85.23c17.41-5.46,28.73-1.45,38.35,15.32,10.06-5.62,27.31-5.49,37.71-.67C180.3,106.18,184.05,114.72,188,129.44Z"/></g></svg>