<?xml version="1.0" encoding="utf-8"?>
<!-- Generator: Adobe Illustrator 23.0.2, SVG Export Plug-In . SVG Version: 6.00 Build 0)  -->
<svg version="1.1" xmlns="http://www.w3.org/2000/svg" xmlns:xlink="http://www.w3.org/1999/xlink" x="0px" y="0px"
	 width="40px" height="40px" viewBox="-151.545 1511.289 282.232 282.233" enable-background="new -151.545 1511.289 282.232 282.233" xml:space="preserve">
<g id="_x2D_--" display="none">
	<rect x="116.272" y="-356.429" display="inline" fill="#FFFFFF" width="4471.75" height="5688"/>
</g>
<g id="fond" display="none">
	<path display="inline" fill="#21558B" d="M-10.43,1511.289c77.938,0,141.117,63.18,141.117,141.115
		c0,77.938-63.18,141.117-141.117,141.117c-77.936,0-141.115-63.18-141.115-141.117
		C-151.545,1574.469-88.366,1511.289-10.43,1511.289z"/>
</g>
<g id="_x30_0326E">
	<path fill="#00326E" d="M-10.43,1511.289c77.938,0,141.117,63.18,141.117,141.115c0,77.938-63.18,141.117-141.117,141.117
		c-77.936,0-141.115-63.18-141.115-141.117C-151.545,1574.469-88.366,1511.289-10.43,1511.289z"/>
</g>
<g id="A" display="none">
	<g id="Calque_2" display="inline">
	</g>
	<g id="Calque_7" display="inline">
	</g>
</g>
<g id="B" display="none">
</g>
<g id="B_bis">
	<g opacity="0.5">
		<g>
			<g id="Graduation_x5F_Cap_6_">
				<g>
					<path fill="#FFFFFF" d="M-38.08,1646.754v-29.586l13.177,5.892v24.605c0,15.187,19.99,24.497,44.649,24.497
						c24.658,0,44.649-9.31,44.649-24.497v-24.602l23.924-11.576c2.662-1.289,4.489-3.956,4.489-7.032
						c0-3.075-1.827-5.743-4.489-7.031L23.374,1566c-1.095-0.53-2.325-0.825-3.628-0.825s-2.533,0.295-3.628,0.825l-64.944,31.425
						c-2.664,1.288-4.49,3.956-4.49,7.031c0,3.076,1.826,5.743,4.49,7.032l3.628,1.755v33.514 M55.217,1650.666
						c0,7.267-17.183,15.712-35.472,15.712c-18.29,0-35.472-8.445-35.472-15.712v-23.714l31.844,15.961
						c1.095,0.531,2.325,0.825,3.628,0.825s2.533-0.294,3.628-0.825l31.844-15.961V1650.666z"/>
				</g>
			</g>
		</g>
		<rect x="14.619" y="1528.983" fill="#FFFFFF" width="8.562" height="17.927"/>
		
			<rect x="44.438" y="1540.43" transform="matrix(0.5 -0.866 0.866 0.5 -1311.0535 818.5928)" fill="#FFFFFF" width="17.927" height="8.562"/>
		
			<rect x="70.821" y="1563.431" transform="matrix(0.6828 -0.7306 0.7306 0.6828 -1120.0406 555.533)" fill="#FFFFFF" width="17.927" height="8.562"/>
		<rect x="14.846" y="1528.983" fill="#FFFFFF" width="8.562" height="17.927"/>
		
			<rect x="-19.655" y="1535.748" transform="matrix(0.866 -0.5 0.5 0.866 -774.4248 199.2704)" fill="#FFFFFF" width="8.562" height="17.927"/>
		
			<rect x="-46.038" y="1558.749" transform="matrix(0.7306 -0.6828 0.6828 0.7306 -1081.7511 393.8818)" fill="#FFFFFF" width="8.562" height="17.927"/>
	</g>
	<g>
		<defs>
			<path id="SVGID_17_" d="M-10.356,1511.289c77.938,0,141.117,63.18,141.117,141.115c0,77.938-63.179,141.117-141.117,141.117
				c-77.935,0-141.114-63.18-141.114-141.117C-151.471,1574.469-88.291,1511.289-10.356,1511.289z"/>
		</defs>
		<clipPath id="SVGID_1_">
			<use xlink:href="#SVGID_17_"  overflow="visible"/>
		</clipPath>
		<g clip-path="url(#SVGID_1_)">
			<path fill="#FFFFFF" d="M-63.616,1704.94h-38.221l16.844-16.477h50.777v51.573l-16.844,16.844v-39.017l-47.116,46.965
				l-12.557-12.557L-63.616,1704.94z"/>
		</g>
	</g>
</g>
<g id="C">
</g>
<g id="titres">
</g>
<g id="réserve" display="none">
</g>
</svg>
