<?xml version="1.0" encoding="utf-8"?>
<!-- Generator: Adobe Illustrator 23.0.2, SVG Export Plug-In . SVG Version: 6.00 Build 0)  -->
<svg version="1.1" xmlns="http://www.w3.org/2000/svg" xmlns:xlink="http://www.w3.org/1999/xlink" x="0px" y="0px"
	 viewBox="452.606 1209.214 282.232 282.233" enable-background="new 452.606 1209.214 282.232 282.233" xml:space="preserve">
<g id="_x2D_--" display="none">
	<rect x="116.272" y="-356.429" display="inline" fill="#FFFFFF" width="4471.75" height="5688"/>
</g>
<g id="fond" display="none">
	
		<ellipse transform="matrix(0.7071 -0.7071 0.7071 0.7071 -780.9301 815.3274)" display="inline" fill="#21558B" cx="593.722" cy="1350.33" rx="141.116" ry="141.117"/>
</g>
<g id="_x30_0326E">
	
		<ellipse transform="matrix(0.7071 -0.7071 0.7071 0.7071 -780.9301 815.3274)" fill="#00326E" cx="593.722" cy="1350.33" rx="141.116" ry="141.117"/>
</g>
<g id="A" display="none">
	<g id="Calque_2" display="inline">
	</g>
	<g id="Calque_7" display="inline">
	</g>
</g>
<g id="B" display="none">
</g>
<g id="B_bis">
	<path fill="#FFFFFF" d="M655.935,1423.345c0,2.216,0.667,4.511-5.96,4.511h-112c-6.627,0-6.051-2.297-6.051-4.513l31.177-17.765
		c0-2.216,17.957-0.382,24.584-0.382h14c6.627,0,18.5-1.834,18.5,0.382L655.935,1423.345z"/>
	<path fill="none" stroke="#FFFFFF" stroke-width="5" stroke-miterlimit="10" d="M674.117,1405.073h-160.37
		c-12.296,0-22.263-9.968-22.263-22.263v-85.042c0-12.296,9.968-22.263,22.263-22.263h160.37c12.296,0,22.263,9.968,22.263,22.263
		v85.042C696.381,1395.106,686.413,1405.073,674.117,1405.073z"/>
	<g>
		<g>
			<path fill="#C89108" d="M611.095,1294.304c5.475,3.398,9.533,7.893,12.178,13.48c0.68,1.209,1.227,2.531,1.643,3.965
				c0.414,1.436,0.736,2.738,0.963,3.908c0.227,1.172,0.396,2.645,0.51,4.418c0.113,1.775,0.17,3.135,0.17,4.078
				c0,0.945,0,2.418,0,4.418c0,2.002,0,3.342,0,4.021c0.68,0,1.773,0,3.285,0c1.51,0,2.492,0,2.945,0c0.15,0,0.377,0,0.68,0
				c0.906,0,1.51,0.113,1.813,0.34c0.301,0.227,0.414,0.869,0.34,1.926c0,5.59,0,13.746,0,24.469c0,10.725,0,18.881,0,24.469
				c-0.076,0.379-0.076,0.982,0,1.813c0.074,0.832,0.057,1.529-0.057,2.096s-0.473,0.963-1.076,1.189h-79.863
				c-0.379-0.076-1.002-0.076-1.869,0c-0.869,0.074-1.586,0.057-2.152-0.057s-0.926-0.473-1.076-1.076v-50.184
				c0-2.039,0-3.133,0-3.285c-0.076-0.604-0.039-1.037,0.113-1.303c0.15-0.264,0.49-0.396,1.02-0.396c0.604,0,1.473,0,2.605,0
				s2.17,0,3.115,0c0.943,0,1.869,0,2.775,0c0-1.133-0.02-2.832-0.057-5.098c-0.039-2.266-0.039-4.322,0-6.174
				c0.037-1.85,0.17-3.568,0.396-5.154c1.207-7.551,4.945-13.951,11.215-19.201c6.268-5.248,13.254-7.797,20.957-7.646
				c0.604-0.074,1.207-0.113,1.813-0.113C599.747,1289.206,605.618,1290.905,611.095,1294.304z M591.667,1300.194
				c-3.928-0.074-7.646,0.926-11.158,3.002c-3.512,2.078-6.174,4.854-7.986,8.326c-0.832,1.512-1.473,3.211-1.926,5.098
				c-0.453,1.889-0.699,3.512-0.736,4.871c-0.039,1.359-0.039,3.229,0,5.607c0.037,2.379,0.057,4.098,0.057,5.154h45.766
				c-0.076-1.133-0.096-2.813-0.057-5.041c0.037-2.227,0.037-4.021,0-5.381c-0.039-1.359-0.246-2.963-0.623-4.814
				c-0.379-1.85-0.945-3.529-1.699-5.041c-1.813-3.699-4.551-6.607-8.213-8.723c-3.664-2.113-7.572-3.172-11.725-3.172
				C592.761,1300.081,592.194,1300.12,591.667,1300.194z M592.573,1346.753c-2.039,0-3.852,0.643-5.438,1.926
				c-0.982,0.68-1.738,1.549-2.266,2.605c-0.906,1.436-1.359,2.984-1.359,4.645c0,1.662,0.434,3.191,1.303,4.588
				c0.867,1.398,2.02,2.475,3.455,3.229c0,0.529-0.076,1.096-0.227,1.699l-2.266,10.535h13.027l-2.266-11.102
				c-0.076-0.301-0.113-0.604-0.113-0.906c1.51-0.68,2.756-1.756,3.738-3.229c0.98-1.473,1.473-3.076,1.473-4.814
				c0-2.566-0.982-4.719-2.945-6.457c-1.436-1.813-3.285-2.719-5.551-2.719C592.913,1346.753,592.724,1346.753,592.573,1346.753z"/>
		</g>
	</g>
</g>
<g id="C">
</g>
<g id="titres">
</g>
<g id="réserve" display="none">
</g>
</svg>
