<?xml version="1.0" encoding="UTF-8"?><svg xmlns="http://www.w3.org/2000/svg" width="40px" height="40px" viewBox="0 0 282.23 282.23"><defs><style>.cls-1{fill:#00326e;}.cls-2,.cls-3,.cls-4,.cls-5,.cls-6{fill:none;}.cls-2,.cls-3,.cls-4,.cls-6{stroke:#fff;stroke-miterlimit:10;}.cls-2,.cls-4{stroke-width:11px;}.cls-2,.cls-6{opacity:.7;}.cls-3,.cls-6{stroke-width:8px;}.cls-7{fill:#c89209;}</style></defs><g id="_0326E"><path class="cls-1" d="M172.11,266.14l6.26-12.85-13.02-6.26c-.77-3.84-1.21-7.75-1.32-11.7l11.37-8.9-9.06-11.21c.99-3.96,2.31-7.75,3.96-11.37l14.01-3.13-3.3-14.01c2.64-2.97,5.44-5.77,8.4-8.4l14.01,3.3,3.13-14.01c3.63-1.65,7.42-2.97,11.37-3.96l11.21,9.06,8.9-11.37c3.95,.11,7.91,.55,11.87,1.32l6.1,13.02,13.02-6.26c3.08,1.59,6.12,3.47,9.12,5.6,2.68-10.86,4.11-22.21,4.11-33.9C282.23,63.18,219.05,0,141.12,0S0,63.18,0,141.12s63.18,141.12,141.12,141.12c14.08,0,27.67-2.07,40.49-5.91l-3.07,.04c-2.53-3.3-4.67-6.7-6.43-10.22Z"/></g><g id="C"><path class="cls-5" d="M192.65,229.26c0-22.08,17.9-39.99,39.99-39.99,13.87,0,26.09,7.07,33.26,17.8,10.42-19.68,16.33-42.12,16.33-65.94C282.23,63.19,219.05,.01,141.12,.01S0,63.19,0,141.13s63.18,141.12,141.12,141.12c25.72,0,49.84-6.89,70.6-18.91-11.44-7.04-19.07-19.67-19.07-34.08Z"/><path class="cls-2" d="M141.05,276.09v-90.66c0-17.37,14.08-31.45,31.46-31.45h7.87c17.37,0,31.45,14.08,31.45,31.45v6.64"/><path class="cls-4" d="M140.83,276.09v-90.66c0-17.37-14.08-31.45-31.46-31.45h-7.87c-17.37,0-31.45,14.08-31.45,31.45v65.64"/><path class="cls-3" d="M129.08,101.94c0,14.5-11.75,26.25-26.25,26.25s-26.25-11.75-26.25-26.25,11.75-26.25,26.25-26.25,26.25,11.75,26.25,26.25Z"/><rect class="cls-6" x="155.6" y="78.69" width="48" height="48"/><path class="cls-7" d="M269.16,169.41l-13.02,6.26-6.1-13.02c-3.96-.77-7.91-1.21-11.87-1.32l-8.9,11.37-11.21-9.06c-3.96,.99-7.75,2.31-11.37,3.96l-3.13,14.01-14.01-3.3c-2.97,2.64-5.77,5.44-8.4,8.4l3.3,14.01-14.01,3.13c-1.65,3.63-2.97,7.42-3.96,11.37l9.06,11.21-11.37,8.9c.11,3.96,.55,7.86,1.32,11.7l13.02,6.26-6.26,12.85c1.76,3.52,3.9,6.92,6.43,10.22l3.11-.04c10.3-3.08,20.11-7.3,29.27-12.52-1.01-.84-2-1.72-2.97-2.68-7.75-7.75-11.62-17.06-11.62-27.93s3.87-20.19,11.62-27.93c7.75-7.75,17.06-11.62,27.93-11.62s20.19,3.87,27.93,11.62c.66,.66,1.29,1.4,1.91,2.19,5.41-10.13,9.61-21,12.43-32.41-3-2.14-6.05-4.02-9.15-5.62Z"/></g></svg>