<?xml version="1.0" encoding="UTF-8"?>
<svg id="passbolt" xmlns="http://www.w3.org/2000/svg" version="1.1" width="40px" height="40px" viewBox="0 0 40 40">
  <!-- Generator: Adobe Illustrator 29.2.1, SVG Export Plug-In . SVG Version: 2.1.0 Build 116)  -->
  <defs>
    <style>
      .st0 {
        fill: #fff;
      }

      .st1 {
        fill: #00326e;
      }
    </style>
  </defs>
  <g id="icon">
    <g id="_00326E">
      <path class="st1" d="M19.8,0C12.6,0,6.3,3.8,2.8,9.5c0,0,0,0,0,.1-.2.4-.5.8-.7,1.3,0,0,0,.1,0,.2-.7,1.5-1.3,3.1-1.7,4.8,0,1.4,0,3.6,0,3.8,0,.3,0,3.1,0,4.4,1.9,9.1,10,15.9,19.6,15.9s20-9,20-20S30.8,0,19.8,0Z"/>
    </g>
    <path class="st0" d="M5.1,8.8c-.7,0-1.4,0-2.1.2,0,0,0,0,0,0-.9,1.4-1.7,3-2.2,4.6-.2.5-.3,1-.5,1.4,0,.3-.2.6-.3.9,0,1.4,0,3.7,0,3.9,0,.2,0,2,0,3.4,0,0,0,.2,0,.3.2.5.3,1.1.4,1.6.4,1.3.8,2.5,1.4,3.7,1,.4,2.1.6,3.3.6,5.7,0,10.3-4.6,10.3-10.3s-4.6-10.3-10.3-10.3Z"/>
    <polygon class="st0" points="15 15.9 21.1 15.8 28.4 15.6 31.6 16.1 33 16.7 33.7 19.6 32.7 22.3 31.3 24.9 30 26.7 28.6 27.3 26.5 27.3 24.2 27.5 22.5 27.2 21.4 25.2 19.6 23.3 17.1 22.4 15 22.2 15 15.9"/>
    <path class="st1" d="M31.4,16.4s0,0,0,0c.8,0,1.5.7,1.5,1.5v2.5c0,.8-.7,1.5-1.5,1.5h-1.9v3.5c0,.8-.7,1.5-1.5,1.5h-4.2c-.9,0-1.5-.7-1.5-1.5v-3.5h-7.3c0,.2-.1.3-.2.5.4.3.8.6,1.1,1,.2,0,.3,0,.5,0,2.1,0,4.4,1.6,4.8,3.7.4,2.2,7.7,1.1,8.9,0,1.8-1.7,4.4-5.6,4-8.2-.6-4.3-5.1-3.9-8.5-3.8-3.7,0-7.3.3-11,.4.1.3.2.6.3.9h16.4Z"/>
    <path class="st1" d="M4.9,14.1h0c-.8,0-1.6.2-2.3.5-1.2.6-2.2,1.7-2.6,3.1,0,1.1,0,2,0,2.2,0,0,0,.3,0,.5.4,1.3,1.2,2.4,2.4,3,.7.4,1.5.6,2.4.6,2.8,0,5-2.2,5-5,.1-2.7-2.2-5-4.9-5Z"/>
  </g>
</svg>