<?xml version="1.0" encoding="UTF-8"?><svg xmlns="http://www.w3.org/2000/svg" width="40px" height="40px" viewBox="0 0 282.23 282.23"><defs><style>.cls-1{fill:#fff;}.cls-2{fill:#00326e;}</style></defs><g id="_0326E"><circle class="cls-2" cx="141.12" cy="141.12" r="141.12" transform="translate(-58.45 141.12) rotate(-45)"/></g><g id="C"><g><path class="cls-1" d="M40.59,112.79l.35-.4,.92-.96c7.49-7.18,16.06-10.77,25.72-10.77s17.97,3.41,24.79,10.24c6.78,6.78,10.19,14.98,10.24,24.6,.04,9.33-3.65,18.34-10.24,24.95s-15.09,10.27-24.79,10.27-18.23-3.63-25.72-10.9v32.1h-8.44v-61.18c0-7.58,3.54-13.73,7.17-17.94Zm1.27,17.24v11.23c.97,4.87,3.35,9.19,7.11,12.96,5.14,5.14,11.34,7.71,18.61,7.71s13.47-2.56,18.61-7.68c5.14-5.12,7.71-11.31,7.71-18.58s-2.57-13.47-7.71-18.61c-5.14-5.14-11.34-7.71-18.61-7.71s-13.47,2.57-18.61,7.71c-3.77,3.77-6.14,8.09-7.11,12.96Z"/><path class="cls-1" d="M227.57,109.84c-7.15-1.1-13.67,.48-19.55,4.76s-9.34,9.95-10.49,17.11c-1.15,7.16,.41,13.68,4.68,19.56,4.27,5.88,9.99,9.38,17.16,10.5,7.17,1.12,13.67-.44,19.51-4.69s9.4-9.98,10.56-17.12c.12-.96,.23-2.25,.32-3.85l8.81-2.46c-.02,3.14-.17,5.68-.45,7.64-1.55,9.56-6.24,17.19-14.09,22.89-7.82,5.68-16.5,7.76-26.07,6.24-9.56-1.51-17.18-6.18-22.86-13.99-5.7-7.85-7.8-16.56-6.28-26.12,1.52-9.56,6.18-17.18,13.99-22.86s16.57-7.8,26.17-6.28c1.92,.3,4.4,.97,7.44,1.99l-5.14,7.51c-1.55-.4-2.79-.68-3.72-.83Z"/><g><path class="cls-1" d="M124,152.15l46.56-28.16,6.22-3.72c-.68-1.27-1.15-2.14-1.4-2.61-.74-1.24-1.5-2.39-2.29-3.46-4.29-5.61-10.02-9.59-16.81-11.82-1.16,2.72-2.35,5.41-3.69,8.06,5.31,1.49,9.32,3.92,12,7.31l-44.8,26.62c.45,2.11,2.79,6.38,4.2,7.77h0Z"/><path class="cls-1" d="M149,109.65c-7.15-1.1-13.67,.48-19.55,4.76s-9.34,9.95-10.49,17.11c-1.15,7.16,.41,13.68,4.68,19.56,4.27,5.88,9.99,9.38,17.16,10.5,7.17,1.12,13.67-.44,19.51-4.69s9.4-9.98,10.56-17.12c.12-.96,.23-2.25,.32-3.85l8.81-2.46c-.02,3.14-.17,5.68-.45,7.64-1.55,9.56-6.24,17.19-14.09,22.89-7.82,5.68-16.5,7.76-26.07,6.24-9.56-1.51-17.18-6.18-22.86-13.99-5.7-7.85-7.8-16.56-6.28-26.12,1.52-9.56,6.18-17.18,13.99-22.86s16.57-7.8,26.17-6.28c1.92,.3,3.01,.44,6.05,1.46l-3.5,8.11c-1.55-.4-3.04-.75-3.97-.89Z"/></g></g></g></svg>