<svg enable-background="new 0 0 256 256" version="1.1" width="40px" height="40px" viewBox="0 0 256 256" xml:space="preserve" xmlns="http://www.w3.org/2000/svg">
<style type="text/css">
	.st0{fill:#00326E;}
	.st1{fill:#ED9B27;stroke:#ED9B27;stroke-width:2;stroke-miterlimit:28.1;}
	.st2{fill:#FFFFFF;stroke:#FFFFFF;stroke-miterlimit:28.1;}
</style>

	<circle class="st0" cx="127.9" cy="127.5" r="126.5"/>


	<g transform="translate(1.4066 1.4066) scale(2.81)">
		<path class="st1" d="m76.4 57.8c-0.5-0.2-1 0-1.2 0.5-5.3 12-17.1 19.7-30.2 19.7-17.4 0-31.6-13.5-32.9-30.5l5.6 6.1c0.3 0.4 0.9 0.4 1.3 0.1s0.4-0.9 0.1-1.3l-7.3-8c-0.1-0.1-0.2-0.2-0.3-0.2h-0.1s-0.2-0.1-0.3-0.1h-0.1c-0.1 0-0.2 0-0.2 0.1l-0.1 0.1c-0.1 0-0.1 0.1-0.2 0.2l-6.7 8.5c-0.3 0.4-0.2 1 0.2 1.3 0.2 0.1 0.4 0.2 0.6 0.2 0.3 0 0.6-0.1 0.7-0.4l5-6.6c1.3 18 16.4 32.3 34.7 32.3 13.8 0 26.3-8.2 31.9-20.8 0.2-0.4 0-1-0.5-1.2z"/>
		<path class="st1" d="m86 35.7c-0.4-0.3-1-0.2-1.3 0.2l-5 6.6c-1.3-18-16.4-32.3-34.7-32.3-13.8 0-26.3 8.2-31.9 20.8-0.2 0.5 0 1 0.5 1.2s1 0 1.2-0.5c5.3-12 17.1-19.7 30.2-19.7 17.4 0 31.6 13.5 32.9 30.5l-5.6-6.1c-0.4-0.4-0.9-0.4-1.3-0.1s-0.4 0.9-0.1 1.3l7.3 8 0.2 0.2h0.1s0.2 0.1 0.4 0.1h0.1c0.1 0 0.2 0 0.2-0.1 0 0 0.1 0 0.1-0.1 0.1 0 0.1-0.1 0.2-0.2l6.6-8.6c0.4-0.3 0.3-0.9-0.1-1.2z"/>
	
	
		<path class="st2" d="m45.2 35.8c-0.9 0-1.5-0.7-1.5-1.5 0-0.9 0.7-1.5 1.5-1.5 0.9 0 1.5 0.7 1.5 1.5s-0.7 1.5-1.5 1.5zm0-2.1c-0.3 0-0.5 0.2-0.5 0.5s0.2 0.5 0.5 0.5 0.5-0.2 0.5-0.5-0.2-0.5-0.5-0.5z"/>
		<path class="st2" d="m67.2 43.1h-1.2l-4.2-13.2c0.6-0.4 0.8-1.2 0.6-1.9-0.2-0.4-0.5-0.8-0.9-1s-0.9-0.2-1.3-0.1c-0.4 0.2-0.8 0.5-1 0.9-0.1 0.3-0.2 0.5-0.1 0.8l-10.9 4c-0.6-1.1-1.7-1.8-3-1.8-1.9 0-3.4 1.5-3.4 3.4 0 0.2 0 0.5 0.1 0.7l-10.9 4c-0.2-0.2-0.4-0.4-0.6-0.5-0.4-0.2-0.9-0.2-1.3-0.1-0.9 0.3-1.3 1.3-1 2.2 0.1 0.3 0.3 0.6 0.6 0.8l-4.2 13.1h-1.2c-0.3 0-0.5 0.2-0.5 0.5v1.7c0 1.3 1.1 2.4 2.4 2.4h8.9c1.3 0 2.4-1.1 2.4-2.4v-1.7c0-0.3-0.2-0.5-0.5-0.5h-1.2l-4.2-13.1c0.2-0.2 0.4-0.4 0.5-0.6 0.1-0.3 0.2-0.5 0.1-0.8l10.9-4c0.3 0.6 0.8 1 1.3 1.4v17.2c-2.9 0.2-5.3 2.6-5.4 5.5h-1.5c-0.3 0-0.5 0.2-0.5 0.5v2.7c0 0.3 0.2 0.5 0.5 0.5h17.2c0.3 0 0.5-0.2 0.5-0.5v-2.7c0-0.3-0.2-0.5-0.5-0.5h-1.5c-0.1-2.9-2.5-5.3-5.4-5.5v-17.3c1-0.6 1.7-1.7 1.7-3 0-0.2 0-0.5-0.1-0.7l10.9-4c0.1 0.2 0.3 0.3 0.4 0.4l-4.2 13.1h-1.2c-0.3 0-0.5 0.2-0.5 0.5v1.7c0 1.3 1.1 2.4 2.4 2.4h8.9c1.3 0 2.4-1.1 2.4-2.4v-1.7c0.2-0.1 0-0.4-0.3-0.4zm-37.8-3.8h0.2c0.1 0 0.2 0 0.3 0.1 0.2 0.1 0.3 0.2 0.4 0.4s0.1 0.4 0 0.5c-0.1 0.2-0.2 0.3-0.4 0.4-0.4 0.1-0.7-0.1-0.9-0.4-0.2-0.5 0-0.9 0.4-1zm6.1 17.2c0 0.8-0.6 1.4-1.4 1.4h-8.9c-0.8 0-1.4-0.6-1.4-1.4v-1.2h11.7v1.2zm-10-2.2 4.1-12.7 4.1 12.7h-8.2zm27.8 8.3h-16.2v-1.7h16.2v1.7zm-2-2.7h-12.2c0.1-2.5 2.2-4.5 4.8-4.5h2.5c2.6 0 4.7 2 4.9 4.5zm-5.4-5.5h-1.3v-16.8c0.2 0 0.4 0.1 0.7 0.1s0.5 0 0.7-0.1v16.8h-0.1zm-0.7-17.7c-1.3 0-2.4-1.1-2.4-2.4s1.1-2.4 2.4-2.4 2.4 1.1 2.4 2.4-1.1 2.4-2.4 2.4zm15-8.4c0.1-0.2 0.2-0.3 0.4-0.4h0.2c0.1 0 0.2 0 0.3 0.1 0.2 0.1 0.3 0.2 0.4 0.4 0.1 0.4-0.1 0.7-0.4 0.9-0.2 0.1-0.4 0.1-0.5 0-0.2-0.1-0.3-0.2-0.4-0.4-0.1-0.3-0.1-0.4 0-0.6zm0.7 2 4.1 12.9h-8.2l4.1-12.9zm5.8 15c0 0.8-0.6 1.4-1.4 1.4h-8.9c-0.8 0-1.4-0.6-1.4-1.4v-1.2h11.7v1.2z"/>
	</g>

</svg>
