<?xml version="1.0" encoding="UTF-8"?>
<!-- Generator: $$$/GeneralStr/196=Adobe Illustrator 27.6.0, SVG Export Plug-In . SVG Version: 6.00 Build 0)  -->
<svg id="Calque_1" enable-background="new 0 0 1085.5 1080" version="1.1" width="40px" height="40px" viewBox="0 0 1085.5 1080" xml:space="preserve" xmlns="http://www.w3.org/2000/svg">
<style type="text/css">
	.st0{fill:#00326E;}
	.st1{display:none;fill:#FFFFFF;}
	.st2{fill:#ED9B27;}
	.st3{fill:#FFFFFF;}
	.st4{fill:#878787;}
	.st5{fill:#BCBCBC;}
	.st6{fill:#7F7F7F;}
	.st7{fill:#989898;}
	.st8{fill:#CDCDCD;}
	.st9{fill:#A5A5A5;}
	.st10{fill:#646464;}
	.st11{fill:#8C8C8C;}
</style>
<circle class="st0" cx="540.7" cy="539.6" r="534.8"/>

	
		<path class="st1" d="m-1945.2-1815.2h4750v4750h-4750v-4750zm240.8 2376.2c1.8 46.2 3.1 92.4 5.6 138.5 4.4 83.5 15.4 166.3 30.2 248.6 30.9 171.5 83.2 336.3 154.3 495.2 25.8 57.7 55 113.8 86.2 168.9 39.6 70 82.9 137.6 129.8 202.8 24.7 34.3 50.9 67.6 77.8 100.3 114.8 139.5 244.6 263.1 390.3 370 38.7 28.4 78.1 55.7 118.7 81.3 41.8 26.2 84.1 51.4 127.5 75 51.1 27.8 103.3 53.3 156.2 77.4 35.6 16.2 72.4 29.8 109 43.6 163.7 61.6 332.4 102.4 506.2 122.2 62.3 7.1 124.8 11.8 187.5 13.4 112.8 3 225.3-2.7 337.3-17.3 85.5-11.2 170-27.1 253.4-48.7 87.6-22.7 173.7-50 257.7-84.3 42-17.2 83.8-34.8 125-53.8 56.2-25.9 110.6-55.5 164-86.7 30.4-17.8 60.4-36.2 89.8-55.6 28.4-18.7 56.1-38.7 83.6-58.8 29.6-21.5 59.4-42.9 87.9-65.8 89.9-72.3 173.8-150.9 250.2-237.6 23-26.1 45.7-52.3 67.9-79.1 25.8-31.1 50.7-62.8 74.1-95.7 23.1-32.4 44.2-66.2 66.8-98.9 30.7-44.3 57-91.1 82.5-138.4 19.1-35.6 36.1-72.4 54.3-108.5 24.5-48.6 44.7-99 64.1-149.7 78-204.5 122.3-416.2 135.1-634.5 5.4-92.4 4.6-184.8-2.1-277.1-5.8-80.3-15.9-159.9-30.5-239.1-33.2-180.8-89.6-354.2-168.1-520.3-35.7-75.5-75.8-148.6-120.5-219.4-27.7-43.8-56.8-86.4-87.1-128.4-25.5-35.4-51.9-70.1-79.9-103.5-20.7-24.7-42-48.9-63.4-73-7.9-8.9-16.9-16.8-25.1-25.4-3.5-3.6-5.9-8.2-9.4-11.8-15.4-15.9-31-31.7-46.7-47.3-10.8-10.7-21.2-21.9-32.9-31.6-12.1-10-23.6-20.5-34.5-31.8-13-13.5-27.9-25.3-42.1-37.5-9.5-8.1-19.5-15.6-29-23.7-20.2-17.1-39.3-35.6-62.8-48.4-1.6-0.9-2.9-2.4-4.3-3.7-5.6-5-10.9-10.4-16.9-14.9-23-17.5-47-33.5-70.4-50.4-11.8-8.5-24.2-16.2-36.2-24.4-11.8-8.1-25-13.9-36.3-23-7.3-5.9-15.7-10.3-23.9-15-7.6-4.3-15.8-7.8-23.3-12.3-8.1-4.8-15.4-11-23.6-15.5-28.8-15.8-57.8-31.3-86.9-46.5-22.8-11.9-45.7-23.8-68.9-34.9-54.2-25.8-109.7-48.8-165.9-69.7-210.5-78.3-428.2-121.6-652.5-131.1-130.6-5.5-260.8 0.3-390.3 18.7-90.3 12.8-179.5 31.3-267.6 55.2-72.8 19.7-143.8 44.4-214.5 70.4-34.2 12.6-67.9 26.8-100.7 42.7-35.7 17.3-72.1 33.4-106.9 52.5-43.7 24-87.6 47.6-129.9 74-48.8 30.5-96.4 62.7-143.3 96.1-37.5 26.8-73.4 55.7-108.9 84.9-33.1 27.2-64.9 56.3-96.1 85.7-68.8 64.8-132.4 134.4-192.8 206.9-28.2 33.9-53.8 70.1-79.8 105.8-33.4 46-64.6 93.6-93.8 142.5-25.9 43.4-50.5 87.5-73.5 132.6-25.2 49.6-48.5 100.1-69.7 151.5-41.4 100.2-74.9 203-100.6 308.3-27.4 112.2-45.2 225.9-54.4 340.9-4.4 55.7-6.4 111.4-7 167.2z"/>
		<path class="st2" d="m243.1 679.6c-0.6-214.2 216.2-365 416.7-289.8 243.9 92 273 424 48.3 556.8-205.6 119.9-464.6-28.8-465-267zm102.5 160.3c0.2-7.9-4.7-14-6.9-21.2-2.4-9.8-2.9-20.5 1.2-29.9 5.7-7.7 7-8.9 6.8-19.1 0.1-4.8 0.3-4.4-3.6-7.3-4.7-2.9-9-7.2-14.5-8.6-2.2-0.3-4.2-1.3-5.9-2.7-3.6-2.1-1.5-6.3-3.8-9-0.2-0.2-0.2-0.7-0.2-1.1-1.3-7.1-8-12.2-12-18-11.1-13.6-15.4-13.5-13.8-32.4 0.5-9.9-9-14.6-12.8-22.6-5.6-18.9 7.4-22.4-18.4-34.3-16.7 88.5 17.1 190.6 83.7 253.5-2.5-7.1-3.5-14.5-5-21.8-1.6-8.1-8.7-24.2 4.7-24.9 0.2-0.2 0.4-0.4 0.5-0.6zm-45.7-313.8c-0.6 0.7-0.6 0.8 0 1 5.1-2.7 10.2-5.3 15.9-6.7 4.4-0.9 5.6-5.4 7.2-9 5.2-11.9 19.9-7 30-7.2 2.8-0.2 6.5 0 6.4-3.7 0.8-12.5 8.8 6.5 23.5 2.5 6-0.8 2.3-8.4 4.1-12.2 2.3-4.5 1.5-9.9 2.5-14.7 3.8-8.5 7.9-18.6 18.1-20.7 14.9-2.8 8.7-15.8 14.4-25.2 2.9-5.4 12.3-6.7 12.7 1.1 1.4 6.6-12.6 23.8-2.9 26.7 17.8 1.6 31.5-13.1 48.6-13.6 9.3 1.3-4.1 16.7 12.2 12.2 19.9-6.6 13-18.7 21.4-30.8 1.1-1.5 2.6-2.3 4.6-2.6 15.8-2.3 40.2-4.7 42.6-24.3-1.5-5.4-4.7-10.1 0.9-14.9-104.8-4.7-208.9 51.9-262.2 142.1zm318.2-134.9h-0.9c11 14.2 26.9 21.3 10.9 39.7-4 4.2-1.8 10.7-5.2 15-2.4 2-12.6 2.6-12.1-2.3 0.5-11.9 0.9-15.4-12.5-16-14.9-2.9-23.5-5.3-34.4 7.9-5.7 5.2-14.2 5-20 9.7-12.3 9.5-2.9 31.6 12.7 23.4 5.4-0.4 0.9 13.2 9.4 10.6 12.7-4.9 2.5-21.2 9.9-29.8 1.4-2 3.9-5.8 6.5-3.2 9.7 9.3 4.2 24.5 5 36.5 0.7 10.7-9.3 8.1-16.5 8.3-5 0.4-8.4-4.3-13.5-3.8-5.5-0.2-11.3-0.6-14.2 5.1-2.1 3.9-6.4 3.9-9.8 5.9-1.9 1.1-3.8 3.2-6.1 1.8-7.8-3.2-0.7-12.7-6.1-13.1-7.7-0.3-1.8-25.5-14.5-18.2-4.8 5-19.9 19.8-18.7 26.1 0.4 3.5 6.2 2.7 7.7 0.2 0.2-0.4 0.9-0.5 1.3-0.7 1.4 1.6 0.6 3.6 0.9 5.4 0.2 6.4 6.4 4.7 10 2 11-5.1 16.9 5.1 7.6 8.4-3.4 0.2-6.8 0.1-10.1 0.3-6.1 2.9 0.2 13.7 1.8 18.3 1 2.2-0.1 5 1.3 7-2 2.1-8.4 2.4-10.4-0.1-2.2-2-7.7-4.4-9.6-1.2-1.2 4.6-5.2 6-9.1 7.8-1.8 4.5-1.7 9.8-4.6 13.9-0.7 0.9-0.5 1.7 0.3 2.4 4 3.6 10.2 4.1 13.6 8.4 3.1 4.9-0.5 11-4.2 14.6-9.9 10-22.1 17.3-32.9 26.3-6 4.3-9.6 11.1-15.7 15.2-5.1 2.9-10 7-9.8 13.4-0.2 8.5-0.6 17-1 25.5-1.2 4.9-3.4 9.4-2.5 14.7 3.5 27.5 18.2 63.5 51.6 59.8 15.2-0.2 29.5-6.7 44.6-7.3 8.4-0.3 8.1 11 14.9 13.1 5.7 2.3 17.1-2.4 18.3 6 2.3 9.6-6.8 13.1-3.6 19.7 3.3 5.9 6.4 11.8 9.4 17.8 6.6 11.5 17.7 21.6 19 35.4 0.8 5.2-5.3 8.6-7.8 12.6-3.4 4.4-2.2 10.6-3.1 15.9-0.7 7.8 7.3 12.5 11.9 17.7 4.7 6.9-1.8 17.4 5.2 23.9 3.9 5.4 2 12.6 3.2 18.6 10.5 13.3 27-4.5 39.5-5.5 19.3-0.4 21.1-23.2 41-22.8 5.5-1.4 12.5-4.9 11-11.5-1.3-18.4 6.9-38.4 26.4-42.6 4.8-2 9.8-4.8 8.8-10.8-2.7-20.4-7.2-44.4 5.8-62.2 13.3-15.9 45-50.1 38.9-71.3-12-1.1-20.9 13.9-32.8 9.9-17.3-8.4-48.3-54.9-57.3-73.2-5.5-13.3 3.1-6.7 9.2-2.3 7.7 7 18.6 9.6 24.5 18.8 10.2 12.3 15 28.4 26.1 40 8.5 6.8 16.3-9.3 20.9-14.8 7.8-12.6 15.8-25.3 22.8-38.3 3.2-7.6-10.1-17.4-16.6-17-1.8 2.6-3.4 9.9-7.6 8.1-7.4-4.2-37.6-17.7-24.1-27.7 13.6-2.5 26.8 5.4 39.5 9.2 2.6 1.2 5.4 1 8-0.3 23-12.7 14.2 7.8 22.6 14.1 6.6 4.4 10.5 11.4 12.6 18.9 4.8 10.9 8.8 22.1 14.3 32.6 2.1 4 7.4 14.4 12.1 13.7 1.6-11.4 4.8-24.4 1.2-35.7-9.1-16.1-9.3-36.5-3-53.6 0.4-0.8 0.9-1.8 0.7-2.6-6.6-19.1-15.1-37.5-25.4-54.9-40.6-68.4-109.7-119-187.2-136.8z"/>
		<path class="st3" d="m576.4 819c-2.4-12.9-12.4-22.5-18.8-33.5-3-6-6.1-11.9-9.4-17.8-1.7-2.9-0.5-5.6 1.4-8.1 2.8-4.3 4.7-14.8-1.9-16.4-11-1.2-16.9 1.4-22.2-10.6-7.2-12.2-49.2 12.1-71.4 0.5-20.8-9.6-28.3-35.8-31.6-56.8-0.8-5.2 1.3-9.8 2.5-14.7 0.4-8.5 0.8-17 1-25.5-0.4-8.9 8.8-11.6 14-16.9 6.6-8.2 14.8-14.6 23.2-20.7 8.3-7.7 31.1-18.5 25.4-31.9-3.5-4.3-9.6-4.8-13.6-8.4-0.9-0.8-1-1.5-0.3-2.4 2.9-4.1 2.7-9.4 4.6-13.9 4-1.8 7.9-3.2 9.1-7.8 1.9-3.2 7.5-0.8 9.6 1.2 2 2.5 8.3 2.2 10.4 0.1-1.4-2-0.3-4.8-1.3-7-1.6-4.5-7.9-15.4-1.8-18.3 3.4-0.2 6.8 0 10.1-0.3 9.3-3.3 3.4-13.5-7.6-8.4-3.5 2.7-9.8 4.4-10-2-0.3-1.9 0.4-3.8-0.9-5.4-0.4 0.2-1.1 0.3-1.3 0.7-1.6 2.6-7.1 3.3-7.7-0.2-1.3-6.2 14-21.2 18.7-26.1 12.7-7.4 6.8 17.8 14.5 18.2 5.3 0.4-1.7 10 6.1 13.1 3.7 1.9 6.2-3.2 9.9-3.3 2.7-0.2 4.4-2.4 6.1-4.3 2.9-5.7 8.6-5.3 14.2-5.1 5.1-0.5 8.5 4.2 13.5 3.8 7.2-0.2 17.3 2.4 16.5-8.3-0.8-12 4.7-27.2-5-36.5-2.6-2.6-5.1 1.3-6.5 3.2-7.4 8.6 2.9 24.9-9.9 29.8-8.5 2.6-4-11-9.4-10.6-15.6 8.3-25-13.8-12.7-23.4 5.9-4.8 14.4-4.5 20-9.7 10.9-13.1 19.6-10.8 34.4-7.9 13.3 0.6 13.1 4 12.5 16-0.4 4.9 9.5 4.3 12.1 2.3 2.1-2.1 1.8-5.3 2.3-8 0.9-6.9 7.2-11.3 9.3-17.8 3.2-10.9-10.7-20-16.6-27.8 0.1-0.3 0.1-0.7 0.2-1 77.5 17.9 146.6 68.5 187.1 136.9 10.3 17.3 18.8 35.8 25.4 54.9 0.1 0.8-0.4 1.8-0.7 2.6-6.3 17-6.1 37.5 3 53.6 3.6 11.3 0.4 24.3-1.2 35.7-4.5 0.9-10.2-10-12.1-13.7-5.5-10.5-9.5-21.8-14.3-32.6-2.1-7.5-6.1-14.5-12.6-18.9-8.3-6.2 0.4-26.8-22.6-14.1-2.6 1.3-5.3 1.4-8 0.3-12.8-3.8-26-11.7-39.5-9.2-13.5 9.9 16.8 23.5 24.1 27.7 4.2 1.8 5.8-5.5 7.6-8.1 6.5-0.5 19.8 9.5 16.6 17-7 13-15 25.7-22.8 38.3-4.6 5.5-12.5 21.5-20.9 14.8-11.1-11.5-15.9-27.7-26.1-40-5.9-9.2-16.8-11.8-24.5-18.8-5.9-4.4-14.8-11-9.2 2.3 8.9 18.2 40 64.8 57.2 73.2 11.9 3.9 20.8-11.1 32.8-9.9 6.2 21.1-25.8 55.5-38.9 71.3-13 17.9-8.5 41.8-5.8 62.2 0.9 6-3.9 8.8-8.8 10.8-19.5 4.2-27.7 24.2-26.4 42.6 1.5 6.6-5.5 10.1-11 11.5-19.9-0.4-21.8 22.4-41 22.8-12.6 1-29.1 18.8-39.5 5.5-1.2-6 0.7-13.3-3.2-18.6-6.9-6.5-0.5-17-5.2-23.9-3.2-2.8-5.8-6.1-8.8-9-5.1-4.1-3.2-19.8 0-24.6 3.2-4.7 9.3-8.5 7.6-14.7zm-30.2-248.9c14.8-5.5 1.8 8 9.3 19.9 2 5.7 8.2 1.5 12.7 2.1 5.6-0.3 8.1 6 13 7.6 7.5 4 15.7 5.8 23.6 8.8 2.9 0.7 8.4 1.5 8.1-2.9 0.3-7.3-0.3-23.1 10.6-20.9 4.7 1.1 9.9 0.4 14 3.3 2.9 1.3 15.7 8 17 4.6 2.4-4.5 4.9-9.3 6.1-14.3 0-5.1-0.2-11-2.5-15.7-14.5 3.8-17.2-10.8-9-19.9 5.3-6.8 14.3-2.8 19.9-9.4 1.7-8.6-5.3-9.3-10.9-13.3-3-1.8-5.5-4.9-9.2-5-6 0.5-13.2-2.1-18.6 1.1-10.2 4.6-3.1 33.4-13 30.3-2-1.2-4.6-0.7-6.6 0-7.5 3 2.6 15.6-9.8 17.3-9.1 0.2-2-13-8.8-15.9-1.5-0.9-3.4-1.2-4.6 0.6-0.9 4.3 1.6 11.4-2.1 14.4-4.2 1.2-9 0.2-12.5-2.3-4.1-4.6 1-13-4.2-17.2-5.3-3.6-14.3-0.9-17.7-6.9-1.1-2.7-3-4.8-5.1-6.7-4.5-3.3-9.8 2.4-13.8 4.3-5.6 3-7.2 9.9-13.2 12.2-7.3 8.7-6.2 17.7-19.8 18.5 0 2.8-0.1 5.7 0.1 8.7 7.8 8.2 8.3 6 18.8 5.8 12.1 0.8 19.3 0.7 28.2-9.1z"/>
		<path class="st3" d="m299.9 526.1c53.3-90.2 157.4-146.9 262.2-142.1-5.8 4.9-2.4 9.3-0.9 14.9-2.4 19.6-26.9 22.1-42.6 24.3-2 0.2-3.5 1-4.6 2.6-8.5 12.1-1.5 24.2-21.4 30.8-16.3 4.5-2.9-10.8-12.2-12.2-17.1 0.5-30.8 15.1-48.6 13.6-9.6-2.9 4.3-20 2.9-26.7-0.4-7.7-9.7-6.5-12.7-1.1-5.8 9.3 0.5 22.4-14.4 25.2-10.2 2.1-14.3 12.2-18.1 20.7-1.1 4.9-0.2 10.3-2.5 14.7-1.8 3.8 1.9 11.4-4.1 12.2-14.7 3.9-22.6-15.1-23.5-2.5 0.2 3.7-3.6 3.5-6.4 3.7-10.1 0.2-24.8-4.6-30 7.2-1.5 3.6-2.8 8.1-7.2 9-5.6 1.4-10.8 3.9-15.9 6.7 0.1-0.3 0-0.7 0-1z"/>
		<path class="st3" d="m345.1 887.2c-66.9-64.2-98.6-162-84.1-253.4 31.4 11.4 8 24.4 23.7 41.1 14.3 11 3.6 23.6 10.7 34.9 3.9 4.4 7.6 8.9 11.3 13.4 4 5.8 10.7 10.9 12 18 0 0.4 0 0.9 0.2 1.1 2.2 2.7 0.2 6.9 3.8 9 3 2.9 7.5 2.2 10.7 4.7 3.2 2.2 6.6 4.3 9.8 6.6 3.9 2.8 3.7 2.5 3.6 7.3 0.2 10.1-1.1 11.4-6.8 19.1-4.1 9.4-3.6 20.1-1.2 29.9 2.2 7.2 7.2 13.3 6.9 21.2-0.2 0.2-0.3 0.4-0.5 0.7-13.4 0.8-6.4 16.9-4.7 24.9 1.5 7.3 2.4 14.7 5 21.8l-0.1-0.2c-0.1-0.2-0.3-0.1-0.3-0.1z"/>
		<path class="st4" d="m618.1 391.2c-0.1 0.3-0.1 0.7-0.2 1-0.6-0.1-0.6-0.6-0.8-1.1 0.4 0.1 0.7 0.1 1 0.1z"/>
		<path class="st5" d="m584.1 425.1h-1.1 1.1z"/>
		<path class="st4" d="m576.4 819v1.1-1.1z"/>
		<path class="st6" d="m299.9 526.1v1c-0.6-0.2-0.6-0.3 0-1z"/>
		<path class="st7" d="m261.7 633.8h-0.7c0.2-0.6 0.5-0.4 0.7 0z"/>
		<path class="st8" d="m551.7 774.5c0.2 0.2 0.3 0.4 0.5 0.6-0.1-0.2-0.3-0.4-0.5-0.6z"/>
		<path class="st9" d="m345.2 840.5c0.2-0.2 0.3-0.4 0.5-0.7-0.2 0.3-0.4 0.5-0.5 0.7z"/>
		<path class="st10" d="m345.4 887.3c-0.1 0-0.2 0-0.3-0.1l0.2-0.1s0.1 0.2 0.1 0.2z"/>
		<path class="st2" d="m546.2 570.1c-8.9 9.8-16 9.9-28.5 9.4-10.6 0.2-10.9 2.5-18.8-5.8-0.2-3-0.1-5.9-0.1-8.7 13.6-0.8 12.6-9.9 19.8-18.5 6-2.3 7.6-9.2 13.2-12.2 4-2 9.4-7.6 13.8-4.3 2.1 1.9 4 4 5.1 6.7 3.5 6.1 12.5 3.3 17.7 6.9 5.2 4.2 0.2 12.6 4.2 17.2 3.5 2.4 8.4 3.4 12.5 2.3 3.7-2.9 1.2-10.1 2.1-14.4 3.1-3.7 8.4 1.5 8 5.3-0.1 3.8-0.1 10.7 5.4 10 12.4-1.7 2.3-14.3 9.8-17.3 4.4-2.7 8.6 2.8 10.8-1.2 4-9.3-0.1-22.2 8.9-29.1 5.4-3.3 12.5-0.6 18.6-1.1 3.7 0 6.3 3.1 9.2 5 5.5 3.9 12.6 4.6 10.9 13.3-5.6 6.6-14.6 2.7-19.9 9.4-8.2 9.1-5.5 23.7 9 19.9 2.3 4.6 2.5 10.5 2.5 15.7-1.2 5-3.8 9.8-6.1 14.3-1.2 3.4-14.3-3.4-17-4.6-4.1-2.9-9.3-2.2-14-3.3-10.9-2.2-10.3 13.5-10.6 20.9 0.3 4.5-5.2 3.7-8.1 2.9-7.8-2.9-16.1-4.7-23.6-8.8-4.9-1.6-7.4-7.9-13-7.6-4.5-0.5-10.6 3.7-12.7-2.1-7.3-12.2 5.7-25.6-9.1-20.2z"/>
		<path class="st11" d="m546.2 570.1c0.2-0.2 0.4-0.3 0.6-0.5-0.2 0.2-0.4 0.3-0.6 0.5z"/>
	

<rect class="st0" x="430.8" y="347.9" width="216.7" height="71.9"/>

	<path class="st2" d="m890.4 214.8-335-115.3c-20.8-7.7-16.7-7.7-37.2 0l-337.2 114c-59.1 23 69.8 46.4 80.4 54.4-35.5 34.3-37.8 70.1-38.1 111.5-29.1 9.9-31.1 54.1-3.2 66.9-5.8 42-21.8 90.3-69.5 147 5.9 4.6 11.1 8.4 15.9 11.6 3.3 2.2 35.4-17.3 38.4-15.5 3.1 1.8-22.9 24.9-20 26.4 6.4 3.2 12.7 5.6 19.9 8 66.6-28.8 58.6-105 53.5-180.6 20.8-13.8 19.4-48.6-2.2-60.5 1.3-40.7 9.9-76.9 40.4-100.6 1.7-2.8 230-93 232.5-94.8 8.9-3.7 18.7 1 22.1 9.9 3.5 8.6-0.6 18.3-9.3 21.8l-194.7 77.8 174.2 58.9c20.8 7.7 16.7 7.7 37.2 0l332.4-114.3c20.3-7.1 20.3-19.2-0.5-26.6zm-369.9 185.4-210.7-71.4c0.5 26.4-0.3 68.1 0 94 0.2 22.2-0.9 46.6 18.3 57.2 122.7 67.9 292.4 67.3 428.5-6.7 10.2-8.3 17.9-18.9 17.9-28.8v-118.6l-216.5 74.7c-20.8 7.3-16.7 7.3-37.5-0.4z"/>

</svg>
