<?xml version="1.0" encoding="utf-8"?>
<!-- Generator: Adobe Illustrator 23.0.2, SVG Export Plug-In . SVG Version: 6.00 Build 0)  -->
<svg version="1.1" xmlns="http://www.w3.org/2000/svg" xmlns:xlink="http://www.w3.org/1999/xlink" x="0px" y="0px"
	 width="40px" height="40px" viewBox="754.682 -1509.46 282.232 282.232" enable-background="new 754.682 -1509.46 282.232 282.232" xml:space="preserve">
<g id="_x30_0326E">
	<path fill="#00326E" d="M895.797-1509.46c77.938,0,141.117,63.179,141.117,141.115c0,77.938-63.18,141.117-141.117,141.117
		c-77.936,0-141.115-63.179-141.115-141.117C754.682-1446.281,817.861-1509.46,895.797-1509.46z"/>
</g>
<g id="réserve" display="none">
	<g display="inline">
		<path fill="#FFFFFF" stroke="#00326E" stroke-width="2" stroke-miterlimit="10" d="M815.332-1435.218h2.656
			c12.707,6.875,19.582,11.46,20.625,13.75c-2.918,4.897-4.375,7.761-4.375,8.594h-0.781c-1.355,0-8.803-3.75-22.344-11.25v-0.781
			C811.113-1425.945,812.52-1429.383,815.332-1435.218z"/>
		<path fill="#FFFFFF" stroke="#00326E" stroke-width="2" stroke-miterlimit="10" d="M853.145-1467.874
			c8.541,13.23,12.813,20.991,12.813,23.281l-8.594,5.156h-0.781c-4.896-5.52-9.168-12.969-12.813-22.344v-0.938
			C844.707-1462.718,847.832-1464.437,853.145-1467.874z"/>
		<path fill="#ED9B27" d="M895.176-1431.78c22.813,0,39.426,11.147,49.844,33.438c1.666,6.25,2.5,10.835,2.5,13.75
			c0,10.938-8.281,27.241-24.844,48.906c-2.918,7.5-4.637,13.491-5.156,17.969h-42.969c-0.625,0-2.344-5.415-5.156-16.25
			c-17.084-23.438-25.625-40.313-25.625-50.625c0-20.728,12.863-35.884,38.594-45.469
			C889.654-1430.687,893.926-1431.258,895.176-1431.78z"/>
		<path fill="#FFFFFF" stroke="#00326E" stroke-width="2" stroke-miterlimit="10" d="M874.016-1309.905
			c32.623,3.96,48.936,6.824,48.936,8.594l1.443,5.938c0,3.022-0.963,5-2.886,5.938c-34.549-3.228-51.822-6.353-51.822-9.375
			l-0.787-4.219v-3.438C869.686-1308.758,871.392-1309.905,874.016-1309.905z"/>
		<path fill="#FFFFFF" stroke="#00326E" stroke-width="2" stroke-miterlimit="10" d="M875.929-1289.437
			c29.134,3.855,43.702,7.031,43.702,9.531c0.845,1.875,1.268,3.594,1.268,5.156c-0.385,4.585-1.845,6.875-4.382,6.875
			c-25.137-4.165-39.283-7.031-42.434-8.594c-1.307-2.083-1.96-4.114-1.96-6.094v-0.781
			C872.124-1287.405,873.392-1289.437,875.929-1289.437z"/>
		<path fill="#FFFFFF" stroke="#00326E" stroke-width="2" stroke-miterlimit="10" d="M890.957-1477.249h9.375
			c1.145,0.21,1.719,0.781,1.719,1.719v23.125c0,1.147-0.574,1.719-1.719,1.719h-9.375c-1.146,0-1.719-0.571-1.719-1.719v-23.125
			C889.342-1476.675,889.914-1477.249,890.957-1477.249z"/>
		<path fill="#FFFFFF" stroke="#00326E" stroke-width="2" stroke-miterlimit="10" d="M937.207-1466.937
			c6.25,3.022,9.688,5.313,10.313,6.875c-7.605,13.647-12.188,20.781-13.75,21.406c-5.209-2.188-8.334-4.165-9.375-5.938
			C928.77-1453.03,933.039-1460.477,937.207-1466.937z"/>
		<path fill="#FFFFFF" stroke="#00326E" stroke-width="2" stroke-miterlimit="10" d="M973.301-1434.28
			c3.957,5.938,5.938,9.063,5.938,9.375v0.781c-13.125,8.647-20.574,12.969-22.344,12.969c-3.959-5.938-5.938-9.114-5.938-9.531
			C951.477-1421.937,958.926-1426.468,973.301-1434.28z"/>
	</g>
</g>
<g id="A_-_à_vérifier" display="none">
	<g display="inline">
		<path fill="#FFFFFF" d="M981.051-1453.544c-19.369-19.367-42.777-29.053-70.225-29.053c-27.449,0-50.912,9.686-70.391,29.053
			c-19.369,19.37-29.053,42.777-29.053,70.225c0,21.914,6.197,41.229,18.594,57.939l-50.109,50.11
			c10.065,5.101,19.404,11.672,28.311,18.67l45.372-45.373c16.602,12.065,35.693,18.096,57.275,18.096
			c27.447,0,50.855-9.739,70.225-29.219c19.367-19.367,29.053-42.775,29.053-70.224
			C1010.104-1410.767,1000.418-1434.175,981.051-1453.544z M975.895-1321.911c-17.428,17.305-38.426,25.954-62.989,25.954
			c-24.565,0-45.499-8.649-62.802-25.954c-17.428-17.429-26.143-38.425-26.143-62.99c0-24.563,8.715-45.497,26.143-62.801
			c17.303-17.429,38.236-26.144,62.802-26.144c24.563,0,45.562,8.715,62.989,26.144c17.303,17.304,25.955,38.238,25.955,62.801
			C1001.85-1360.335,993.197-1339.339,975.895-1321.911z"/>
	</g>
	<g id="Calque_2" display="inline">
		<path opacity="0.8" fill="#FFFFFF" d="M848.164-1447.939l57.886,64.177l-72.357,38.8c-6.573-12.863-9.857-26.636-9.857-41.316
			c0-11.745,2.098-22.966,6.291-33.661c4.195-10.696,10.137-20.168,17.827-28.418
			C848.093-1448.218,848.164-1448.077,848.164-1447.939z"/>
		<path opacity="0.3" fill="#FFFFFF" d="M965.718-1464.298c13.212,8.389,23.627,19.472,31.249,33.242
			c7.619,13.773,11.431,28.7,11.431,44.777c0,25.449-9.018,47.189-27.056,65.225c-18.037,18.037-39.779,27.055-65.226,27.055
			c-15.519,0-29.958-3.598-43.309-10.8c-13.353-7.201-24.296-16.953-32.823-29.258l73.616-39.429
			c0.278-0.138,3.214-1.956,8.808-5.452v-9.438c0-52.15-0.072-82.142-0.209-89.974
			C937.998-1477.37,952.504-1472.687,965.718-1464.298z"/>
		<path opacity="0.6" fill="#FFFFFF" d="M909.824-1398.442l-52.222-57.886c-0.142-0.278-0.351-0.558-0.63-0.839
			c15.379-12.862,33.065-19.925,53.062-21.182C909.894-1463.108,909.824-1436.473,909.824-1398.442z"/>
	</g>
	<g id="Calque_7" display="inline">
	</g>
</g>
<g id="B" display="none">
	<g display="inline" opacity="0.9">
		<path fill="#FFFFFF" d="M957.591-1318.833c-3.957-8.805-28.169-16.437-28.169-16.437c-12.93-4.551-10.199-8.468-10.199-8.468
			c-31.054,39.789-47.479-0.479-47.479-0.479c-1.765,6.749-27.898,14.669-27.898,14.669c-7.636,2.948-10.856,7.343-10.856,7.343
			c-11.304,16.726-12.608,46.916-12.608,46.916c0.139,8.507,3.82,9.396,3.82,9.396c25.435,21.665,72.102,21.665,72.102,21.665
			c43.711,0,66.879-19.904,66.879-19.904c4.401-2.791,4.536-4.989,4.536-4.989C970.806-1295.833,957.591-1318.833,957.591-1318.833z
			"/>
		<path fill="#FFFFFF" d="M930.555-1393.127l-4.18,5.286c-5.258,6.647-27.857,16.864-34.078,16.864
			c-5.295,0-21.737-7.788-27.938-15.266l-4.234-5.097l0.603,6.587c0.238,2.576,0.587,5.198,1.055,7.982
			c-0.498,0.216-0.934,0.561-1.278,1.025c-1.917,2.54-0.481,8.69,0.167,10.982c0.461,3.034,1.635,4.841,2.733,5.899
			c2.476,17.165,17.261,33.771,30.288,33.771c15.468,0,29.588-17.651,32.21-33.744c1.114-1.046,2.273-2.818,2.703-5.684
			c0.716-2.535,2.151-8.697,0.224-11.24c-0.177-0.243-0.391-0.45-0.621-0.62c0.676-2.359,1.511-5.966,1.809-10.031L930.555-1393.127
			z M924.609-1365.39c-0.378,2.46-1.293,3.438-1.808,3.802l-0.714,0.513l-0.122,0.87c-2.021,14.341-14.825,31.007-28.279,31.007
			c-11.185,0-24.47-15.621-26.318-30.967l-0.11-0.89l-0.718-0.526c-0.521-0.37-1.443-1.367-1.872-4.051
			c-0.744-2.684-1.172-5.705-1.006-7.072l3.334,1.57l-0.746-3.949c-0.275-1.43-0.507-2.798-0.711-4.146
			c7.787,6.978,20.647,12.353,26.758,12.353c6.612,0,23.798-6.703,32.824-14.099c-0.519,2.494-1.104,4.422-1.441,5.393l-1.242,3.71
			l3.224-0.945C925.837-1371.47,925.418-1368.343,924.609-1365.39z"/>
		<path fill="#FFFFFF" d="M862.776-1386.272c6.121,6.208,23.073,15.925,29.521,15.925c6.949,0,30.055-11.282,35.684-17.299
			c0.81-0.863,1.254-1.611,1.254-2.202c0-0.517-0.196-1.021-0.507-2.537l-2.581-12.538l-2.959,1.481l-28.623,14.359l-28.071-14.353
			l-2.879-1.482l-2.577,13.525c0.009-0.024,0.033-0.04,0.049-0.058c-0.373,0.523-0.574,1.056-0.574,1.605
			C860.512-1388.945,861.361-1387.703,862.776-1386.272z"/>
		<polygon fill="#FFFFFF" stroke="#21558B" stroke-width="3" stroke-miterlimit="10" points="894.866,-1386.475 930.29,-1405.827 
			960.277,-1422.227 895.059,-1440.692 829.659,-1421.958 859.163,-1405.917 		"/>
		<polygon fill="#FFFFFF" points="847.557,-1389.064 844.851,-1421.284 841.937,-1389.064 844.851,-1379.411 		"/>
	</g>
	<path display="inline" opacity="0.6" fill="none" stroke="#21558B" stroke-width="13" stroke-miterlimit="10" d="M896.282-1502.431
		c74.34,0,134.603,60.262,134.603,134.601c0,74.34-60.263,134.602-134.603,134.602c-74.338,0-134.601-60.262-134.601-134.602
		C761.682-1442.169,821.944-1502.431,896.282-1502.431z"/>
</g>
<g id="B_bis" display="none">
</g>
<g id="C">
	<g>
		<path fill="#FFFFFF" d="M874.378-1267.108l24.237-35.669l99.485-72.68c11.146,3.598,17.095,11.63,17.846,24.099l-99.77,72.673
			L874.378-1267.108z M887.767-1280.675l3.961,5.212l22.296-6.117c3.288-2.787,4.945-4.869,4.973-6.247
			c0.011-0.57-0.135-0.989-0.438-1.257c-0.306-0.267-0.789-0.408-1.454-0.421c-1.379-0.027-3.771,0.757-7.178,2.353
			c2.905-2.651,4.375-4.88,4.411-6.686c0.018-0.902-0.217-1.584-0.708-2.046c-0.488-0.462-1.258-0.703-2.303-0.724
			c-1.094-0.021-3.342,0.742-6.748,2.29c3.045-2.506,4.587-4.732,4.626-6.682c0.01-0.522-0.125-0.917-0.405-1.185
			c-0.279-0.266-0.729-0.406-1.347-0.419c-2.139-0.042-4.437,0.839-6.897,2.645L887.767-1280.675z M907.356-1304.886
			c0.812-0.174,1.479-0.256,2.002-0.246c1.899,0.038,2.832,0.96,2.797,2.766l-0.086,0.711l59.985-44.086
			c-1.545-1.219-3.071-2.176-4.577-2.872L907.356-1304.886z M914.083-1298.905c2.174,0.566,3.24,1.989,3.194,4.271l60.275-44.295
			c-0.682-1.582-1.652-3.004-2.911-4.265L914.083-1298.905z M919.289-1291.814c0.901,0.065,1.563,0.305,1.982,0.717
			s0.622,0.999,0.607,1.759c-0.014,0.666-0.343,1.634-0.985,2.903l59.912-43.944c-0.53-2.054-1.113-3.849-1.748-5.383
			L919.289-1291.814z M980.285-1358.056c7.099,3.943,11.446,10.066,13.04,18.369l18.594-13.535
			c-1.49-8.774-5.886-14.828-13.188-18.158L980.285-1358.056z"/>
	</g>
	<g>
		<path opacity="0.71" fill="#D5DCEA" d="M819.399-1426.498c26.528-3.046,50.32-11.879,68.278-24.031
			c9.009,13.519,15.143,31.172,16.683,50.969c3.641,46.797-19.707,87.753-52.148,91.478c-32.441,3.724-61.692-31.193-65.332-77.99
			c-1.089-14.004,0.253-27.474,3.518-39.59C799.694-1425.116,809.416-1425.351,819.399-1426.498z"/>
		<g opacity="0.88">
			<g>
				<path fill="#00326E" d="M807.332-1386.425c9.517,6.137,21.849,4.932,30.224-2.571c2.882-2.582-1.373-6.814-4.243-4.243
					c-6.44,5.77-15.755,6.275-22.953,1.633C807.106-1393.705,804.094-1388.513,807.332-1386.425L807.332-1386.425z"/>
			</g>
		</g>
		<path opacity="0.47" fill="#00326E" d="M852.247-1393.173c1.884,10.127,4.644,19.965,6.336,30.14
			c1.593,9.58,3.286,19.211,6.22,28.487c1.746,5.523,4.399,13.581,9.604,17.289c20.17-15.239,32.691-47.118,29.954-82.303
			c-1.54-19.796-7.675-37.45-16.683-50.969c-10.789,7.301-23.695,13.391-38.025,17.761
			C849.316-1419.498,849.811-1406.265,852.247-1393.173z"/>
	</g>
	<g opacity="0.65">
		<g>
			<path fill="#00326E" d="M876.985-1344.296c-17.822-6.576-37.878-3.952-53.138,7.463c-3.056,2.286-0.068,7.497,3.028,5.181
				c14.143-10.58,31.986-12.957,48.515-6.858C879.017-1337.172,880.582-1342.968,876.985-1344.296L876.985-1344.296z"/>
		</g>
	</g>
	<g>
		<path fill="#ED9B27" d="M926.313-1438.581c-27.628-5.565-51.934-16.962-69.855-31.324c-10.511,13.39-18.323,31.377-21.476,52.024
			c-7.453,48.809,13.895,93.893,47.682,100.698c33.787,6.805,67.218-27.245,74.671-76.054c2.23-14.606,1.864-28.868-0.625-41.88
			C946.904-1435.372,936.711-1436.487,926.313-1438.581z"/>
		<path fill="#00326E" stroke="#ED9B27" stroke-width="4" stroke-miterlimit="10" d="M939.121-1401.809
			c-0.287,6.311-9.436,10.892-20.436,10.233c-11-0.659-19.684-6.31-19.397-12.62c0.287-6.311,9.092-3.327,20.092-2.667
			S939.408-1408.12,939.121-1401.809z"/>
		<path fill="#00326E" stroke="#ED9B27" stroke-width="4" stroke-miterlimit="10" d="M850.995-1419.56
			c-1.6,6.046,5.646,13.93,16.184,17.609c10.538,3.679,20.379,1.76,21.979-4.286s-7.564-6.682-18.103-10.361
			C860.518-1420.277,852.595-1425.606,850.995-1419.56z"/>
	</g>
	<g>
		<g>
			<path fill="#00326E" d="M855.884-1355.969c14.726,12.557,34.455,17.155,53.096,11.58c3.69-1.104,2.118-6.896-1.595-5.786
				c-16.518,4.94-34.141,1.149-47.258-10.037C857.203-1362.704,852.94-1358.48,855.884-1355.969L855.884-1355.969z"/>
		</g>
	</g>
	<g opacity="0.32">
		<path fill="#00326E" d="M950.571-1431.443c-9.309-0.243-18.985-1.301-28.856-3.289c-8.351-1.682-16.379-3.93-23.997-6.647
			c-11.029,39.654-14.514,76.936-10.192,122.695c29.477,0.691,57.097-30.166,63.638-73.002
			C953.282-1405.552,952.934-1419.091,950.571-1431.443z"/>
	</g>
	<g display="none">
		<path display="inline" opacity="0.31" fill="#00326E" d="M901.232-1444.768c0.009-0.245,0.063-0.476,0.112-0.702
			c-17.306-6.135-32.598-14.588-44.886-24.436c-10.511,13.39-18.323,31.377-21.476,52.024
			c-7.392,48.412,13.557,93.138,46.867,100.503C881.899-1385.42,899.281-1391.779,901.232-1444.768z"/>
		<path display="inline" fill="#00326E" stroke="#ED9B27" stroke-width="4" stroke-miterlimit="10" d="M939.121-1401.809
			c-0.287,6.311-9.436,10.892-20.436,10.233c-11-0.659-19.684-6.31-19.397-12.62c0.287-6.311,9.092-3.327,20.092-2.667
			S939.408-1408.12,939.121-1401.809z"/>
		<path display="inline" fill="#00326E" stroke="#ED9B27" stroke-width="4" stroke-miterlimit="10" d="M850.995-1419.56
			c-1.6,6.046,5.646,13.93,16.184,17.609c10.538,3.679,20.379,1.76,21.979-4.286s-7.564-6.682-18.103-10.361
			C860.518-1420.277,852.595-1425.606,850.995-1419.56z"/>
	</g>
</g>
<g id="titres__x2B__img">
</g>
</svg>
