<?xml version="1.0" encoding="utf-8"?>
<!-- Generator: Adobe Illustrator 23.0.2, SVG Export Plug-In . SVG Version: 6.00 Build 0)  -->
<svg version="1.1" xmlns="http://www.w3.org/2000/svg" xmlns:xlink="http://www.w3.org/1999/xlink" x="0px" y="0px"
	 viewBox="-453.618 1209.214 282.232 282.233" enable-background="new -453.618 1209.214 282.232 282.233" xml:space="preserve">
<g id="_x30_0326E">
	<path fill="#00326E" d="M-312.503,1209.214c77.937,0,141.117,63.18,141.117,141.115c0,77.938-63.18,141.117-141.117,141.117
		c-77.936,0-141.115-63.18-141.115-141.117C-453.618,1272.394-390.439,1209.214-312.503,1209.214z"/>
</g>
<g id="réserve" display="none">
</g>
<g id="A_-_à_vérifier" display="none">
	<g id="Calque_2" display="inline">
	</g>
	<g id="Calque_7" display="inline">
	</g>
	<g display="inline">
		<g>
			<path fill="#C89209" d="M-391.099,1337.676V1273.6h64.076v64.076H-391.099z"/>
			<path fill="#C89209" d="M-292.687,1337.676V1273.6h64.076v64.076H-292.687z"/>
			<path fill="#C89209" d="M-391.099,1429.676V1365.6h64.076v64.076H-391.099z"/>
		</g>
	</g>
	<g display="inline">
		<path fill="#FFFFFF" d="M-302.704,1363.982l35.669,24.237l72.68,99.485c-3.598,11.145-11.63,17.095-24.099,17.846l-72.673-99.77
			L-302.704,1363.982z M-289.138,1377.371l-5.212,3.961l6.117,22.295c2.787,3.289,4.869,4.945,6.247,4.973
			c0.57,0.012,0.989-0.135,1.257-0.437c0.267-0.306,0.408-0.789,0.421-1.454c0.027-1.379-0.757-3.771-2.353-7.178
			c2.651,2.905,4.88,4.375,6.686,4.411c0.902,0.018,1.584-0.217,2.046-0.708c0.462-0.488,0.703-1.258,0.724-2.303
			c0.021-1.094-0.742-3.342-2.29-6.748c2.506,3.045,4.732,4.586,6.682,4.625c0.522,0.011,0.917-0.124,1.185-0.404
			c0.266-0.279,0.406-0.729,0.419-1.347c0.042-2.139-0.839-4.437-2.645-6.897L-289.138,1377.371z M-277.998,1408.893
			c-0.065,0.902-0.305,1.563-0.717,1.983c-0.412,0.419-0.999,0.622-1.759,0.606c-0.666-0.013-1.634-0.342-2.903-0.984l43.944,59.912
			c2.054-0.53,3.849-1.113,5.383-1.748L-277.998,1408.893z M-270.907,1403.688c-0.566,2.174-1.989,3.24-4.271,3.194l44.295,60.274
			c1.582-0.682,3.004-1.651,4.265-2.91L-270.907,1403.688z M-264.927,1396.961c0.174,0.811,0.256,1.479,0.246,2.002
			c-0.038,1.898-0.96,2.832-2.766,2.797l-0.711-0.086l44.086,59.985c1.219-1.545,2.176-3.071,2.872-4.577L-264.927,1396.961z
			 M-211.757,1469.889c-3.943,7.1-10.066,11.447-18.369,13.041l13.535,18.594c8.774-1.49,14.828-5.886,18.158-13.188
			L-211.757,1469.889z"/>
	</g>
</g>
<g id="B" display="none">
</g>
<g id="B_bis">
	<ellipse opacity="0.83" fill="#FFFFFF" cx="-311.745" cy="1350.154" rx="91.335" ry="90.709"/>
	
		<line fill="#C89209" stroke="#FFFFFF" stroke-width="7" stroke-miterlimit="10" x1="-312.399" y1="1213.75" x2="-312.399" y2="1254.628"/>
	
		<line fill="#C89209" stroke="#FFFFFF" stroke-width="7" stroke-miterlimit="10" x1="-450.543" y1="1350.208" x2="-405.783" y2="1350.208"/>
	<g opacity="0.6">
		<path fill="#FFFFFF" d="M-206.525,1288.459c0,4.8-3.45,8.7-8.399,8.7c-3.601,0-8.25-2.25-8.25-8.7c0-6.3,5.55-8.699,8.25-8.699
			C-208.476,1279.76-206.525,1285.459-206.525,1288.459z"/>
	</g>
	<g opacity="0.6">
		<path fill="#FFFFFF" d="M-407.54,1278.776c2.7,0,8.25,2.399,8.25,8.699c0,6.45-4.649,8.7-8.25,8.7c-4.949,0-8.399-3.9-8.399-8.7
			C-415.939,1284.476-413.989,1278.776-407.54,1278.776z"/>
	</g>
	<g opacity="0.6">
		<path fill="#FFFFFF" d="M-255.884,1453.675c-2.7,0-8.25-2.399-8.25-8.699c0-6.45,4.649-8.7,8.25-8.7c4.949,0,8.399,3.9,8.399,8.7
			C-247.484,1447.976-249.435,1453.675-255.884,1453.675z"/>
	</g>
	<g opacity="0.6">
		<path fill="#FFFFFF" d="M-214.925,1415.657c-2.7,0-8.25-2.399-8.25-8.699c0-6.45,4.649-8.7,8.25-8.7c4.949,0,8.399,3.9,8.399,8.7
			C-206.525,1409.958-208.476,1415.657-214.925,1415.657z"/>
	</g>
	<g opacity="0.6">
		<path fill="#FFFFFF" d="M-374.982,1445.96c0-4.8,3.45-8.7,8.399-8.7c3.601,0,8.25,2.25,8.25,8.7c0,6.3-5.55,8.699-8.25,8.699
			C-373.032,1454.659-374.982,1448.96-374.982,1445.96z"/>
	</g>
	<g opacity="0.6">
		<path fill="#FFFFFF" d="M-255.884,1253.675c-2.7,0-8.25-2.399-8.25-8.699c0-6.45,4.649-8.7,8.25-8.7c4.949,0,8.399,3.9,8.399,8.7
			C-247.484,1247.976-249.435,1253.675-255.884,1253.675z"/>
	</g>
	<g opacity="0.6">
		<path fill="#FFFFFF" d="M-374.982,1245.96c0-4.8,3.45-8.7,8.399-8.7c3.601,0,8.25,2.25,8.25,8.7c0,6.3-5.55,8.699-8.25,8.699
			C-373.032,1254.659-374.982,1248.96-374.982,1245.96z"/>
	</g>
	<g opacity="0.6">
		<path fill="#FFFFFF" d="M-415.939,1407.94c0-4.8,3.45-8.7,8.399-8.7c3.601,0,8.25,2.25,8.25,8.7c0,6.3-5.55,8.699-8.25,8.699
			C-413.989,1416.64-415.939,1410.94-415.939,1407.94z"/>
	</g>
	<g>
		<path fill="#00326E" d="M-342.635,1305.014c-0.556,0.36-0.834,0.97-0.834,1.832c0,0.145,0.014,0.342,0.046,0.593
			c0.031,0.252,0.077,0.413,0.139,0.483c1.113,0.145,2.117,0.47,3.014,0.971c0.895,0.502,1.761,1.023,2.596,1.562
			c0.835,0.539,1.699,1.024,2.596,1.454c0.896,0.431,1.901,0.646,3.013,0.646c0-2.8-0.479-5.35-1.437-7.649
			c-0.959-2.297-2.241-4.272-3.848-5.926c-1.608-1.651-3.477-2.927-5.61-3.825c-2.132-0.897-4.404-1.347-6.815-1.347
			c-0.496,0-1.098,0.054-1.808,0.163c-0.712,0.106-1.067,0.628-1.067,1.561c0,1.294,0.541,2.209,1.623,2.748
			c1.081,0.539,2.318,1.024,3.709,1.454c1.391,0.431,2.75,0.989,4.08,1.671c1.328,0.684,2.24,1.778,2.735,3.286
			C-341.369,1304.549-342.079,1304.656-342.635,1305.014z"/>
		<path fill="#00326E" d="M-374.255,1299.466c0.186,0.252,0.339,0.539,0.464,0.861c0.123,0.324,0.186,0.773,0.186,1.347
			c3.461,0,6.769-0.431,9.921-1.293c-0.742-1.509-1.946-2.621-3.616-3.341c-1.669-0.716-3.215-1.076-4.637-1.076
			c-0.556,0-1.191,0.036-1.901,0.107c-0.712,0.073-1.066,0.61-1.066,1.616c0,0.431,0.061,0.773,0.185,1.023
			C-374.595,1298.965-374.441,1299.215-374.255,1299.466z"/>
		<path fill="#00326E" d="M-351.722,1279.371c1.112,0.646,2.071,1.546,2.874,2.694c-0.681,0.432-1.191,0.899-1.53,1.401
			c-0.34,0.504-0.509,1.15-0.509,1.94c0,1.006,0.385,1.599,1.159,1.778c0.772,0.18,1.529,0.268,2.271,0.268
			c1.05,0,1.792-0.339,2.226-1.023c0.431-0.682,0.788-1.436,1.066-2.262c0.279-0.825,0.587-1.58,0.928-2.264
			c0.339-0.681,0.941-1.023,1.808-1.023c0.679,0,1.159,0.216,1.437,0.647c0.278,0.43,0.756,0.646,1.437,0.646
			c0.123,0,0.401-0.036,0.834-0.109l6.491-6.464c-1.237-0.285-2.334-0.501-3.291-0.646c-0.959-0.144-1.887-0.251-2.782-0.324
			c-0.897-0.07-1.808-0.124-2.736-0.161c-0.927-0.036-1.947-0.054-3.06-0.054c-1.113,0-2.102,0.018-2.967,0.054
			c-0.866,0.036-1.716,0.127-2.55,0.269c-0.835,0.144-1.715,0.36-2.643,0.646c-0.927,0.287-1.979,0.719-3.152,1.292
			C-353.732,1277.828-352.836,1278.725-351.722,1279.371z"/>
		<path fill="#00326E" d="M-286.304,1319.56c0.216-0.503,0.478-0.952,0.788-1.347c0.309-0.394,0.835-0.593,1.576-0.593
			c0.123,0,0.431,0.145,0.927,0.431c0.494,0.287,0.802,0.502,0.928,0.646c0.061,0.216,0.092,0.395,0.092,0.539
			c0,0.576-0.124,1.097-0.37,1.562c-0.248,0.469-0.51,0.935-0.789,1.401c-0.278,0.467-0.541,0.97-0.787,1.509
			c-0.248,0.539-0.372,1.132-0.372,1.777c1.793,0,2.936-0.627,3.431-1.884c0.494-1.256,0.742-2.783,0.742-4.58
			c0-0.43-0.017-0.916-0.047-1.453c-0.032-0.54-0.125-1.059-0.278-1.563c-0.155-0.501-0.387-0.916-0.695-1.239
			c-0.31-0.323-0.774-0.484-1.391-0.484c-0.681,0-1.39,0.233-2.132,0.699c-0.742,0.469-1.438,1.042-2.087,1.724
			c-0.649,0.685-1.175,1.455-1.576,2.317c-0.403,0.862-0.603,1.69-0.603,2.479c0.866,0,1.468-0.197,1.809-0.592
			C-286.799,1320.513-286.521,1320.062-286.304,1319.56z"/>
		<path fill="#00326E" d="M-226.077,1289.845c0.419-0.265,0.827-0.526,1.206-0.777c0.865-0.574,1.298-0.932,1.298-1.077
			c0-0.07-0.032-0.25-0.093-0.539c-0.063-0.143-0.203-0.339-0.418-0.592c-0.217-0.251-0.387-0.413-0.51-0.486h-0.926
			c-0.371,0.145-0.974,0.396-1.809,0.755c0,0-0.001,0-0.002,0.001C-226.911,1288.035-226.483,1288.936-226.077,1289.845z"/>
		<path fill="#00326E" d="M-235.721,1299.304v-3.232h-2.132c0,0.646,0.278,1.275,0.835,1.885
			C-236.463,1298.569-236.031,1299.018-235.721,1299.304z"/>
		<path fill="#00326E" d="M-317.275,1383.073c-0.834-0.466-1.747-0.897-2.735-1.292c-0.99-0.394-1.948-0.952-2.874-1.67
			c-2.165-1.724-3.834-3.267-5.008-4.632c-1.175-1.364-2.364-2.495-3.57-3.394c-1.205-0.897-2.643-1.58-4.311-2.047
			c-1.67-0.466-4.05-0.701-7.141-0.701h-0.371l-2.782,2.155h-0.464c-0.867,0-1.778-0.466-2.735-1.4
			c-0.959-0.934-1.794-2.029-2.504-3.287c-0.711-1.256-1.252-2.548-1.623-3.88c-0.371-1.328-0.403-2.424-0.092-3.285
			c-0.681,0.791-1.268,1.365-1.762,1.724c-0.495,0.36-1.145,0.539-1.948,0.539c-1.238,0-2.04-0.539-2.411-1.616
			c-0.371-1.078-0.556-2.19-0.556-3.34c0-0.216,0.031-0.663,0.093-1.347c0.061-0.682,0.093-1.132,0.093-1.347
			c1.607-0.934,2.967-1.544,4.08-1.832c1.113-0.286,2.441-0.431,3.988-0.431c0.864,0,1.514,0.216,1.947,0.648
			c0.432,0.43,0.803,0.899,1.113,1.4c0.309,0.504,0.649,0.97,1.02,1.401c0.37,0.431,0.957,0.646,1.761,0.646v-7.218
			c0.617,0.144,1.144-0.109,1.577-0.755c0.431-0.646,0.834-1.455,1.205-2.424c0.371-0.97,0.772-1.955,1.206-2.963
			c0.432-1.006,0.957-1.831,1.576-2.479c0.371-0.358,0.896-0.916,1.576-1.67c0.68-0.754,1.359-1.524,2.04-2.315
			c0.68-0.789,1.298-1.526,1.854-2.208c0.557-0.682,0.896-1.132,1.02-1.347c0.061-0.071,0.124-0.324,0.186-0.755
			c0.061-0.431,0.139-0.897,0.232-1.401c0.093-0.501,0.185-0.97,0.278-1.401c0.092-0.43,0.169-0.68,0.231-0.754
			c0.247-0.43,0.634-0.7,1.16-0.808c0.524-0.108,1.05-0.232,1.576-0.377c0.524-0.143,0.988-0.377,1.391-0.701
			c0.401-0.324,0.602-0.952,0.602-1.884c0-0.071-0.032-0.251-0.093-0.54c-0.37-0.431-0.834-1.058-1.391-1.885
			c-0.557-0.825-1.145-1.686-1.761-2.586c-0.62-0.897-1.223-1.74-1.809-2.532c-0.588-0.789-1.098-1.329-1.53-1.616
			c-0.125-0.07-0.433,0.072-0.928,0.431c-0.495,0.36-0.804,0.576-0.927,0.646c-0.063,0-0.217,0.018-0.464,0.054
			c-0.248,0.036-0.433,0.053-0.557,0.053c-0.125,0-0.403-0.035-0.835-0.108c-0.124-0.07-0.402-0.269-0.835-0.593
			c-0.433-0.323-0.912-0.663-1.437-1.023c-0.526-0.359-1.02-0.701-1.484-1.023c-0.463-0.324-0.757-0.521-0.881-0.594
			c-0.248-0.07-0.402-0.106-0.463-0.106c-0.619,0-1.053,0.324-1.298,0.97c-0.248,0.646-0.371,1.365-0.371,2.154
			c0,0.792,0.046,1.527,0.139,2.211c0.094,0.682,0.139,1.095,0.139,1.238c-0.866-0.142-1.407-0.054-1.623,0.269
			c-0.217,0.322-0.294,0.719-0.232,1.186c0.061,0.466,0.186,0.952,0.371,1.454c0.186,0.502,0.279,0.861,0.279,1.076
			c-0.867,0-1.933-0.107-3.2-0.323c-1.267-0.215-2.473-0.593-3.616-1.132c-1.145-0.539-2.119-1.239-2.921-2.1
			c-0.804-0.862-1.206-1.94-1.206-3.232c0-2.225,0.494-4.022,1.484-5.387c0.987-1.365,2.071-2.478,3.245-3.341
			c1.174-0.861,2.256-1.578,3.245-2.154c0.989-0.575,1.484-1.221,1.484-1.94c0-0.071-0.016-0.162-0.047-0.271
			c-0.032-0.107-0.046-0.197-0.046-0.268c-0.248-0.071-0.681-0.197-1.298-0.378c-0.618-0.178-1.283-0.377-1.994-0.592
			c-0.711-0.216-1.36-0.431-1.946-0.646c-0.589-0.216-1.006-0.394-1.252-0.539c-0.496-0.216-0.851-0.575-1.066-1.078
			c-0.218-0.501-0.418-0.987-0.603-1.455c-0.186-0.465-0.417-0.896-0.695-1.292c-0.279-0.394-0.728-0.593-1.345-0.593
			c-0.495,0-0.927,0.127-1.298,0.378c-0.371,0.252-0.556,0.701-0.556,1.347v0.539l0.927,2.155v0.539
			c0,0.719-0.357,1.312-1.067,1.777c-0.711,0.469-1.284,0.774-1.716,0.917h-1.205c-0.556,0-1.159,0.018-1.808,0.054
			c-0.649,0.036-1.252,0.053-1.808,0.053h-1.206c-4.142,0-8.408-0.269-12.796-0.808c-4.39-0.539-8.623-1.023-12.703-1.455
			c-1.051-0.07-2.056-0.285-3.014-0.646c-0.959-0.358-1.917-0.734-2.874-1.13c-0.959-0.394-1.917-0.754-2.875-1.077
			c-0.959-0.323-1.933-0.485-2.92-0.485c-0.928,0-2.01,0.234-3.246,0.701c-1.237,0.469-2.396,1.132-3.477,1.993
			c-1.082,0.864-1.993,1.85-2.735,2.964c-0.742,1.115-1.112,2.315-1.112,3.609v0.539c0.431-0.144,1.096,0.071,1.993,0.646
			c0.896,0.575,1.468,1.077,1.716,1.509c0.308,0.791,0.417,1.689,0.324,2.693c-0.093,1.006-0.139,1.976-0.139,2.909
			c0,0.862,0.185,1.599,0.556,2.209c0.371,0.611,1.206,0.916,2.504,0.916c0.741,0,1.391-0.179,1.947-0.539
			c0.556-0.358,1.112-0.754,1.67-1.185c0.556-0.431,1.127-0.825,1.715-1.185c0.587-0.359,1.252-0.539,1.994-0.539
			c1.298,0,3.044,0.307,5.239,0.916c2.193,0.611,4.372,1.492,6.537,2.64c2.163,1.15,4.048,2.532,5.656,4.148
			c1.607,1.615,2.471,3.394,2.596,5.333v10.774c0,0.431,0.262,1.222,0.788,2.371c0.524,1.15,1.113,2.37,1.762,3.663
			c0.649,1.292,1.266,2.516,1.854,3.663c0.587,1.15,0.975,1.869,1.159,2.155c0.432,0.791,1.406,1.831,2.921,3.125
			c1.515,1.292,3.307,2.712,5.378,4.255c2.071,1.545,4.25,3.125,6.538,4.741c2.286,1.615,4.388,3.088,6.305,4.417
			c1.916,1.331,3.508,2.462,4.777,3.394c1.266,0.935,1.9,1.474,1.9,1.616v11.851c0,1.007,0.278,2.011,0.835,3.017
			c0.556,1.007,1.205,2.011,1.947,3.017c0.742,1.006,1.468,1.993,2.179,2.962c0.711,0.97,1.22,1.923,1.531,2.856v1.292
			c0,0.576,0.014,1.222,0.046,1.938c0.031,0.719,0.047,1.401,0.047,2.047v1.185c0,2.085-0.109,4.148-0.325,6.196
			c-0.217,2.046-0.449,4.078-0.695,6.088c-0.247,2.011-0.479,4.039-0.695,6.088c-0.217,2.046-0.324,4.076-0.324,6.088
			c0,2.226,0.417,4.093,1.252,5.602c0.835,1.509,2.303,2.262,4.404,2.262h0.928c-0.681-0.79-1.02-1.688-1.02-2.693v-3.017
			c0-0.359,0.339-1.239,1.02-2.639c0.679-1.401,1.513-3.034,2.503-4.903c0.988-1.866,2.087-3.842,3.292-5.926
			c1.205-2.082,2.319-4.004,3.338-5.764c1.02-1.76,1.9-3.234,2.643-4.417c0.742-1.186,1.143-1.814,1.205-1.887
			c1.669-1.651,3.107-2.801,4.311-3.447c1.206-0.646,2.179-1.364,2.921-2.155c0.742-0.789,1.282-1.939,1.623-3.448
			c0.339-1.507,0.51-3.948,0.51-7.325c0-1.58-0.263-2.765-0.788-3.556C-315.76,1384.169-316.44,1383.542-317.275,1383.073z"/>
		<path fill="#00326E" d="M-220.41,1330.732c-1.833-9.802-8.139-20.594-11.806-29.812h-9.069c-0.371,2.011-1.082,3.197-2.133,3.555
			c-1.051,0.36-2.194,0.539-3.43,0.539c-0.247,0-0.728-0.035-1.437-0.108c-0.712-0.071-1.16-0.142-1.345-0.215
			c-0.31-1.077-0.634-1.832-0.973-2.264c-0.341-0.43-0.759-0.736-1.253-0.916c-0.496-0.178-1.082-0.324-1.761-0.431
			c-0.682-0.107-1.517-0.339-2.504-0.699c-0.556-0.216-0.96-0.628-1.206-1.239c-0.247-0.61-0.495-1.221-0.742-1.831
			s-0.556-1.167-0.926-1.671c-0.371-0.502-0.928-0.755-1.669-0.755c-0.618,0-1.129,0.072-1.53,0.216
			c-0.402,0.145-0.85,0.469-1.344,0.97c-0.186,0.145-0.742,0.664-1.669,1.562c-0.927,0.899-1.994,1.923-3.199,3.072
			c-1.206,1.15-2.396,2.3-3.571,3.447c-1.175,1.15-2.072,2.047-2.688,2.693c-0.311,0.36-0.543,0.629-0.695,0.808
			c-0.155,0.18-0.264,0.36-0.325,0.539c-0.062,0.179-0.078,0.414-0.047,0.701c0.031,0.287,0.047,0.719,0.047,1.292
			c0,0.791,0.046,1.563,0.139,2.317c0.093,0.754,0.279,1.454,0.556,2.1c0.279,0.646,0.65,1.169,1.113,1.563
			c0.464,0.395,1.097,0.592,1.9,0.592c1.236,0,2.179-0.323,2.829-0.969c0.649-0.646,1.127-1.436,1.438-2.371
			c0.308-0.932,0.539-1.957,0.695-3.07c0.153-1.113,0.354-2.137,0.602-3.072c0.247-0.931,0.634-1.724,1.16-2.37
			c0.524-0.646,1.344-0.97,2.456-0.97c0,0.145,0.047,0.269,0.139,0.377c0.093,0.109,0.107,0.236,0.047,0.378l-1.855,3.231
			c-0.062,0.289-0.094,0.47-0.094,0.54c0,0.646,0.186,1.096,0.557,1.347c0.371,0.252,0.803,0.377,1.297,0.377
			c1.051,0,2.025-0.216,2.921-0.646c0.896-0.431,1.839-0.646,2.828-0.646c0.494,0,0.974,0.107,1.438,0.322
			c0.463,0.216,0.571,0.862,0.324,1.94c-0.185,0.934-0.557,1.581-1.113,1.94c-0.556,0.36-1.19,0.592-1.9,0.699
			c-0.712,0.109-1.469,0.162-2.271,0.162c-0.742,0-1.424,0.127-2.041,0.377c-0.618,0.252-1.112,0.7-1.483,1.347
			c-0.371,0.646-0.526,1.654-0.464,3.017c-2.164-0.646-4.05-0.701-5.657-0.161c-1.608,0.537-3.045,1.418-4.312,2.639
			c-1.267,1.221-2.442,2.677-3.523,4.363c-1.083,1.689-2.149,3.359-3.199,5.01c-0.125,0.145-0.294,0.361-0.51,0.646
			c-0.218,0.289-0.357,0.431-0.417,0.431c-0.867,0.215-1.593,0.289-2.179,0.215c-0.588-0.07-1.066-0.07-1.437,0
			c-0.371,0.074-0.649,0.307-0.834,0.7c-0.186,0.396-0.279,1.169-0.279,2.317c0,1.366,0.139,2.462,0.417,3.287
			c0.278,0.826,1.096,1.239,2.457,1.239c0.123,0,0.431-0.017,0.927-0.054c0.494-0.035,0.802-0.088,0.928-0.162
			c0.432-0.574,0.927-1.239,1.484-1.993c0.556-0.754,1.143-1.49,1.762-2.209c0.616-0.716,1.282-1.382,1.993-1.993
			c0.709-0.609,1.437-1.058,2.179-1.347h0.926c0.619,0.215,1.175,0.63,1.67,1.239c0.495,0.611,0.974,1.221,1.438,1.832
			c0.464,0.61,0.927,1.168,1.391,1.669c0.464,0.504,0.974,0.754,1.53,0.754c0.06,0,0.216-0.035,0.464-0.106l0.927-1.079
			c0.246-0.07,0.401-0.108,0.464-0.108c0.06,0,0.216,0.037,0.464,0.108c0.185,0.145,0.509,0.486,0.973,1.024
			c0.464,0.539,0.757,0.914,0.882,1.132c0.37-0.36,0.741-0.897,1.112-1.617c0.371-0.716,0.772-1.436,1.206-2.154
			c0.431-0.717,0.865-1.348,1.297-1.887c0.432-0.539,0.896-0.808,1.391-0.808c0.557,0,1.375,0.092,2.457,0.269
			c1.081,0.181,2.179,0.469,3.292,0.862c1.113,0.396,2.071,0.934,2.874,1.616c0.804,0.684,1.206,1.562,1.206,2.64
			c-0.31,0-0.805-0.017-1.483-0.054c-0.681-0.035-1.423-0.054-2.226-0.054c-0.805,0-1.562,0.019-2.272,0.054
			c-0.711,0.037-1.19,0.054-1.437,0.054c-0.311,0-0.681,0.144-1.113,0.43c-0.432,0.287-0.849,0.611-1.252,0.97
			c-0.402,0.36-0.741,0.773-1.02,1.239c-0.279,0.467-0.418,0.844-0.418,1.132c0,0.073,0.031,0.252,0.094,0.537
			c0.06,0.145,0.292,0.342,0.695,0.593c0.401,0.252,0.818,0.539,1.252,0.862c0.431,0.324,0.835,0.684,1.206,1.077
			c0.37,0.396,0.556,0.807,0.556,1.239v0.537c-0.125,0.361-0.294,0.809-0.51,1.347c-0.217,0.54-0.357,0.809-0.417,0.809h-12.982
			c-0.742,0-1.438-0.287-2.087-0.862c-0.649-0.575-1.297-1.185-1.946-1.831c-0.65-0.647-1.315-1.256-1.995-1.832
			c-0.68-0.574-1.452-0.861-2.318-0.861c-2.164,0-4.251,0.592-6.258,1.777c-2.01,1.185-3.802,2.748-5.378,4.688
			c-1.576,1.939-2.828,4.113-3.756,6.518c-0.927,2.408-1.391,4.795-1.391,7.165c0,3.017,0.556,5.28,1.669,6.788
			c1.112,1.509,2.533,2.551,4.265,3.124c1.73,0.577,3.632,0.882,5.703,0.917c2.07,0.037,4.094,0.127,6.073,0.269
			c0.802,0.504,1.345,1.15,1.623,1.939c0.278,0.792,0.494,1.599,0.649,2.424c0.154,0.828,0.371,1.616,0.649,2.371
			c0.279,0.755,0.849,1.384,1.716,1.885c-0.99,4.957-0.96,9.842,0.091,14.654s2.875,9.265,5.472,13.359
			c0.185,0.073,0.632,0.145,1.344,0.216c0.71,0.073,1.189,0.107,1.438,0.107c1.792,0,3.245-0.358,4.358-1.077
			c1.113-0.717,2.133-2.262,3.06-4.633c-0.371-1.147-0.279-2.332,0.278-3.555c0.556-1.221,1.22-2.46,1.995-3.717
			c0.771-1.256,1.529-2.514,2.271-3.772c0.741-1.255,1.112-2.495,1.112-3.717c0-1.436-0.186-2.622-0.556-3.556
			c-0.371-0.932-0.556-2.01-0.556-3.232c0-0.142,0.014-0.341,0.047-0.592c0.03-0.251,0.046-0.413,0.046-0.486l5.563-8.619
			c0.495-0.79,0.988-1.598,1.484-2.425c0.493-0.824,0.741-1.739,0.741-2.747c-1.731,0-3.262-0.447-4.591-1.347
			c-1.33-0.897-2.443-2.082-3.338-3.555c-0.896-1.473-1.576-3.107-2.04-4.903c-0.465-1.794-0.695-3.627-0.695-5.495
			c0-0.142,0.014-0.502,0.047-1.077c0.03-0.575,0.046-0.934,0.046-1.079c0.556,1.007,1.174,2.3,1.854,3.88
			c0.68,1.581,1.451,3.125,2.318,4.632c0.865,1.509,1.838,2.82,2.921,3.933c1.08,1.115,2.333,1.67,3.756,1.67
			c0.185,0,0.586-0.035,1.205-0.108l6.491-7.542v-1.079c-0.37-0.142-0.973-0.304-1.808-0.484c-0.835-0.179-1.669-0.447-2.504-0.808
			c-0.834-0.359-1.576-0.808-2.225-1.347c-0.65-0.539-0.974-1.238-0.974-2.1c0-0.574,0.077-1.202,0.232-1.885
			c0.154-0.681,0.571-1.024,1.251-1.024c0.061,0,0.216,0.039,0.464,0.109c1.112,1.006,2.117,1.778,3.014,2.317
			c0.895,0.538,1.792,1.006,2.689,1.401c0.896,0.395,1.855,0.79,2.875,1.184c1.02,0.395,2.179,0.916,3.477,1.563
			c1.359,0.646,2.487,1.796,3.384,3.447c0.896,1.654,1.684,3.359,2.365,5.118c0.679,1.761,1.328,3.305,1.947,4.632
			c0.518,1.118,1.082,1.758,1.688,1.937C-220.814,1356.741-217.883,1344.25-220.41,1330.732z M-256.12,1351.019
			c-0.496,0-0.742-0.357-0.742-1.076c0-0.717,0.246-1.077,0.742-1.077c0.494,0,0.742,0.36,0.742,1.077
			C-255.378,1350.662-255.627,1351.019-256.12,1351.019z"/>
		<path fill="#00326E" d="M-242.954,1389.592c-0.495,0-1.081,0.377-1.761,1.13c-0.682,0.755-1.315,1.635-1.901,2.64
			c-0.588,1.006-1.082,1.993-1.483,2.963c-0.403,0.97-0.603,1.67-0.603,2.1c0,2.947,0.896,4.418,2.689,4.418
			c1.05,0,1.808-0.521,2.271-1.563c0.464-1.04,0.757-2.297,0.881-3.771c0.123-1.471,0.138-2.945,0.046-4.418
			C-242.907,1391.622-242.954,1390.453-242.954,1389.592z"/>
		<path fill="#00326E" d="M-340.503,1363.949c-0.371-0.286-0.866-0.61-1.483-0.97c-0.618-0.359-1.238-0.716-1.854-1.077
			c-0.619-0.359-1.361-0.755-2.226-1.185l-0.927,1.076c0.865,1.007,1.931,1.796,3.199,2.371c1.267,0.575,2.518,0.862,3.755,0.862
			h0.464c-0.062-0.144-0.202-0.34-0.417-0.593C-340.21,1364.184-340.379,1364.022-340.503,1363.949z"/>
		<path fill="#00326E" d="M-304.385,1296.125c-0.464-0.539-0.758-0.916-0.881-1.13c-0.125-0.431,0.03-1.329,0.464-2.694h3.245
			c-0.062-0.431-0.062-1.132,0-2.102c0.06-0.97,0.139-1.993,0.232-3.07c0.093-1.079,0.2-2.102,0.325-3.072
			c0.123-0.969,0.246-1.632,0.371-1.993c0.061-0.143,0.278-0.412,0.65-0.808c0.37-0.394,0.771-0.843,1.205-1.347
			c0.432-0.501,0.834-0.951,1.206-1.347c0.37-0.394,0.586-0.663,0.649-0.808c0.123-0.142,0.246-0.574,0.371-1.292
			c0.123-0.718,0.185-1.148,0.185-1.294c-0.928,0-1.748,0.092-2.457,0.271c-0.712,0.18-1.377,0.36-1.994,0.537
			c-0.619,0.181-1.252,0.361-1.901,0.539c-0.649,0.181-1.344,0.271-2.086,0.271c-0.433,0-0.897-0.036-1.391-0.109
			c-0.495-0.07-0.804-0.43-0.927-1.077c0.186-0.431,0.494-0.736,0.927-0.916c0.432-0.179,0.849-0.324,1.252-0.431
			c0.401-0.108,0.772-0.25,1.113-0.431c0.339-0.177,0.51-0.484,0.51-0.916c0-0.574-0.279-0.986-0.835-1.239
			c-0.556-0.25-1.159-0.412-1.808-0.484c-0.65-0.07-1.284-0.089-1.901-0.054c-0.619,0.037-0.959,0.054-1.02,0.054
			c-0.31,0-1.145,0.073-2.504,0.216c-1.36,0.144-2.752,0.377-4.173,0.701c-1.423,0.323-2.628,0.772-3.617,1.347
			c-0.99,0.575-1.298,1.292-0.927,2.154c-2.102,0.145-3.973,0.36-5.61,0.647c-1.638,0.288-3.185,0.737-4.636,1.347
			c-1.454,0.61-2.828,1.437-4.126,2.477c-1.298,1.041-2.689,2.425-4.173,4.149c-0.062,0.215-0.093,0.395-0.093,0.538
			c0,0.073,0.03,0.252,0.093,0.539c0.061,0.145,0.186,0.378,0.371,0.701c0.186,0.324,0.371,0.665,0.556,1.024
			c0.186,0.36,0.371,0.684,0.557,0.969c0.185,0.289,0.308,0.469,0.371,0.54h0.371c0.802,0,1.53-0.197,2.179-0.593
			c0.65-0.394,1.375-0.593,2.179-0.593c1.545,0,2.689,0.611,3.431,1.832c0.742,1.222,1.283,2.766,1.623,4.632
			c0.339,1.87,0.571,3.88,0.695,6.033c0.124,2.156,0.339,4.167,0.649,6.034c0.309,1.869,0.803,3.412,1.484,4.633
			c0.679,1.222,1.73,1.831,3.153,1.831c0.803,0,1.437-0.179,1.901-0.539c0.463-0.359,1.066-0.932,1.808-1.724l6.491-7.543
			c0.68-0.646,1.345-1.094,1.994-1.347c0.649-0.25,1.282-0.519,1.901-0.807c0.617-0.287,1.22-0.647,1.808-1.077
			c0.586-0.431,1.159-1.149,1.715-2.156C-303.598,1297.006-303.921,1296.666-304.385,1296.125z"/>
		<path fill="#00326E" d="M-297.848,1304.692c-0.062,0-0.232,0.054-0.51,0.162c-0.277,0.108-0.572,0.233-0.881,0.376
			c-0.31,0.145-0.602,0.271-0.881,0.378c-0.278,0.108-0.449,0.162-0.509,0.162c-0.062,0-0.217-0.162-0.464-0.486
			c-0.248-0.322-0.403-0.519-0.464-0.592c-0.125-0.142-0.433-0.339-0.927-0.592c-0.495-0.251-0.804-0.414-0.927-0.486
			c-0.125,0.145-0.294,0.504-0.51,1.077c-0.217,0.576-0.356,0.934-0.417,1.077c-0.062,0.287-0.093,0.504-0.093,0.646
			c0,0.073,0.031,0.215,0.093,0.431c0.431,0.504,1.066,0.861,1.9,1.076c0.835,0.217,1.7,0.361,2.597,0.432
			c0.895,0.071,1.715,0.091,2.457,0.053c0.742-0.036,1.205-0.053,1.391-0.053v-3.88c-0.125,0-0.434,0.019-0.927,0.054
			C-297.417,1304.567-297.725,1304.62-297.848,1304.692z"/>
	</g>
	
		<line fill="#C89209" stroke="#FFFFFF" stroke-width="7" stroke-miterlimit="10" x1="-215.65" y1="1350.208" x2="-174.772" y2="1350.208"/>
	
		<line fill="#C89209" stroke="#FFFFFF" stroke-width="7" stroke-miterlimit="10" x1="-312.399" y1="1446.75" x2="-312.399" y2="1487.628"/>
</g>
<g id="C">
</g>
<g id="titres__x2B__img" display="none">
</g>
</svg>
