<?xml version="1.0" encoding="utf-8"?>
<!-- Generator: Adobe Illustrator 23.0.2, SVG Export Plug-In . SVG Version: 6.00 Build 0)  -->
<svg version="1.1" xmlns="http://www.w3.org/2000/svg" xmlns:xlink="http://www.w3.org/1999/xlink" x="0px" y="0px"
	 viewBox="1056.757 907.139 282.232 282.232" enable-background="new 1056.757 907.139 282.232 282.232" xml:space="preserve">
<g id="_x2D_--" display="none">
	<rect x="116.272" y="-356.429" display="inline" fill="#FFFFFF" width="4471.75" height="5688"/>
</g>
<g id="fond" display="none">
	<path display="inline" fill="#21558B" d="M1197.872,907.139c77.938,0,141.117,63.18,141.117,141.115
		c0,77.938-63.18,141.117-141.117,141.117c-77.936,0-141.115-63.18-141.115-141.117
		C1056.757,970.318,1119.937,907.139,1197.872,907.139z"/>
</g>
<g id="_x30_0326E">
	<path fill="#00326E" d="M1197.872,907.139c77.938,0,141.117,63.18,141.117,141.115c0,77.938-63.18,141.117-141.117,141.117
		c-77.936,0-141.115-63.18-141.115-141.117C1056.757,970.318,1119.937,907.139,1197.872,907.139z"/>
</g>
<g id="A" display="none">
	<path display="inline" opacity="0.8" fill="none" stroke="#FFFFFF" stroke-width="7" stroke-miterlimit="10" d="M1300.873,1104.623
		c0,6.148-5.335,11.134-11.914,11.134h-182.184c-6.58,0-11.914-4.985-11.914-11.134V998.385c0-6.15,5.334-11.135,11.914-11.135
		h182.184c6.579,0,11.914,4.984,11.914,11.135V1104.623z"/>
	<g display="inline">
		<g>
			<path fill="#DAB904" d="M1192.246,1015.341c-2.393,0-4.713,0.31-6.958,0.929l-2.563,0.796c-1.025,0.311-1.831,0.787-2.417,1.427
				c-0.586,0.643-1.245,1.737-1.978,3.285l-2.637,5.773l-4.395-1.128l5.786-15.262c2.93-1.46,6.127-2.643,9.595-3.549
				c3.467-0.906,6.543-1.361,9.229-1.361c8.301,0,15.075,1.935,20.324,5.808c5.249,3.871,7.874,8.859,7.874,14.964
				c0,4.248-1.001,7.787-3.003,10.619c-2.003,2.83-6.69,7.388-14.063,13.669c-6.934,5.886-10.938,9.481-12.012,10.785
				c-1.074,1.305-1.611,3.284-1.611,5.938c0,0.886,0.34,1.903,1.021,3.053c0.682,1.151,1.533,2.146,2.555,2.986l-2.99,1.916
				c-2.393-1.282-4.139-2.721-5.236-4.313c-1.1-1.593-1.648-3.518-1.648-5.773c0-2.166,1-4.754,3.003-7.764
				c2.001-3.007,4.834-6.171,8.496-9.488c3.955-3.583,6.849-6.867,8.679-9.854c1.832-2.985,2.747-5.894,2.747-8.726
				c0-4.335-1.66-7.873-4.98-10.616C1201.742,1016.713,1197.471,1015.341,1192.246,1015.341z M1194.663,1085.478
				c2.44,0,4.505,0.763,6.188,2.289c1.686,1.525,2.527,3.395,2.527,5.606c0,2.213-0.842,4.082-2.527,5.606
				c-1.684,1.527-3.748,2.29-6.188,2.29c-2.442,0-4.505-0.763-6.188-2.29c-1.686-1.524-2.527-3.394-2.527-5.606
				c0-2.212,0.842-4.081,2.527-5.606C1190.158,1086.24,1192.221,1085.478,1194.663,1085.478z"/>
		</g>
	</g>
	
		<line display="inline" opacity="0.8" fill="none" stroke="#FFFFFF" stroke-width="11" stroke-miterlimit="10" x1="1148.867" y1="1137.25" x2="1246.867" y2="1137.25"/>
	<g id="Calque_2" display="inline">
	</g>
	<g id="Calque_7" display="inline">
	</g>
</g>
<g id="B" display="none">
</g>
<g id="B_bis">
	<g opacity="0.88">
		<g>
			<path fill="#FFFFFF" d="M1077.807,1048.426c0-24.015,8.728-45.006,26.187-62.969c17.457-17.96,38.599-26.943,63.423-26.943
				c24.117,0,45.259,8.832,63.423,26.489c8.678,8.779,15.213,18.568,19.602,29.365c4.391,10.8,6.585,22.152,6.585,34.058
				c0,24.623-8.729,45.663-26.187,63.12c-8.68,8.681-18.266,15.238-28.76,19.678c-5.146,2.119-10.622,3.761-16.424,4.92
				c-5.804,1.161-11.882,1.74-18.239,1.74c-24.219,0-45.209-8.803-62.969-26.413
				C1086.686,1093.862,1077.807,1072.849,1077.807,1048.426z M1095.971,1048.426c0,19.477,7.164,36.278,21.494,50.405
				c14.328,14.13,30.979,21.191,49.951,21.191c19.576,0,36.479-6.91,50.708-20.737c7.164-7.266,12.412-14.985,15.742-23.159
				c1.715-4.238,3.027-8.575,3.936-13.018l1.06-6.812l0.303-7.871c0-19.879-6.989-36.806-20.964-50.783
				c-13.979-13.976-30.905-20.965-50.784-20.965c-19.375,0-36.127,7.064-50.254,21.191
				C1103.033,1011.999,1095.971,1028.85,1095.971,1048.426z M1137.597,1048.426c0-7.97,2.926-14.985,8.779-21.04
				c5.852-6.055,12.866-9.082,21.04-9.082c7.668,0,14.555,2.902,20.661,8.704c6.104,5.804,9.158,12.941,9.158,21.418
				c0,4.14-0.632,7.897-1.893,11.277c-1.263,3.382-3.507,6.637-6.735,9.763c-5.752,5.752-12.816,8.628-21.191,8.628
				c-4.139,0-7.973-0.655-11.504-1.968c-3.533-1.514-6.762-3.731-9.688-6.66C1140.473,1063.714,1137.597,1056.701,1137.597,1048.426
				z"/>
		</g>
	</g>
	<g>
		<g>
			
				<line fill="none" stroke="#C89209" stroke-width="4" stroke-miterlimit="10" x1="1167.416" y1="1049.608" x2="1257.842" y2="1049.608"/>
			<g>
				<path fill="#C89209" d="M1253.924,1047.608c6.781,0,13.785,0.086,19.207-4.664c4.293-3.613,7.344-10.508,7.91-16.27h38.191
					c-1.356,10.281-6.781,19.094-16.609,22.938c9.715,3.5,15.703,12.992,16.609,22.934h-38.191
					c-0.676-5.984-4.633-14.008-9.492-17.508c-4.742-3.395-11.979-3.43-17.625-3.43V1047.608z"/>
			</g>
		</g>
	</g>
</g>
<g id="C">
</g>
<g id="titres">
</g>
<g id="réserve" display="none">
</g>
</svg>
