<?xml version="1.0" encoding="UTF-8"?>
<svg id="Calque_2" enable-background="new 0 0 1240.1 1240.1" version="1.1" width="40px" height="40px" viewBox="0 0 1240.1 1240.1" xml:space="preserve" xmlns="http://www.w3.org/2000/svg">
<style type="text/css">
	.st0{fill:#00326E;}
	.st1{fill:#73A7F6;}
	.st2{fill:#FFFFFF;}
	.st3{fill:#ED9B27;}
</style>
<circle class="st0" cx="621.7" cy="620" r="605.3"/>
<path class="st1" d="m662.2 122.3 303.8 195.4s116.3 529.7 131 594.1c13.6 71.2-55.3 88.1-55.3 88.1l-596.3 128.8s-70.2 7.3-82.4-49.7-117.1-543.3-117.1-543.3l-66.2-308.5 66.2-14.5 416.3-90.4z"/>
<polygon class="st2" points="261.2 279.3 639.3 195.7 687 410.3 902.7 364 1028.1 928.7 430.6 1062"/>
<polygon class="st1" points="461.1 644.1 828.2 567.3 845.1 633.9 474.7 714.1"/>
<polygon class="st1" points="502.9 842.9 871.1 763.8 886.9 830.4 516.5 910.6"/>
<path class="st3" d="m345.9 330.1 115.2-71.2 126.5 20.3s13.6 65.5 23.7 107.3c7.9 128.8-87 173.9-87 173.9s-117.4-4.4-155.8-126.4c-7.2-33.1-22.6-103.9-22.6-103.9z"/>
<path class="st2" d="m371.9 341.4 89.2-58.7 106.2 14.7s14.7 57 20.3 84.7c14.7 108.4-66.6 154.7-66.6 154.7s-97.1 0-131-114.1c-7.1-32-18.1-81.3-18.1-81.3z"/>
<polygon class="st3" points="432.9 400.1 470.2 391.1 461.1 352.7 492.8 345.9 500.7 384.3 538.7 376 544.7 404.6 507.1 414.1 515.3 451.3 486 458.5 477.3 420.1 439.7 429.5"/>
</svg>
