<?xml version="1.0" encoding="utf-8"?>
<!-- Generator: Adobe Illustrator 23.0.2, SVG Export Plug-In . SVG Version: 6.00 Build 0)  -->
<svg version="1.1" xmlns="http://www.w3.org/2000/svg" xmlns:xlink="http://www.w3.org/1999/xlink" x="0px" y="0px"
	 viewBox="-1057.768 1511.289 282.231 282.233" enable-background="new -1057.768 1511.289 282.231 282.233" xml:space="preserve">
<g id="_x2D_--" display="none">
</g>
<g id="fond" display="none">
	<path display="inline" fill="#21558B" d="M-916.653,1511.289c77.938,0,141.117,63.18,141.117,141.115
		c0,77.938-63.179,141.117-141.117,141.117c-77.935,0-141.114-63.18-141.114-141.117
		C-1057.768,1574.469-994.588,1511.289-916.653,1511.289z"/>
</g>
<g id="_x30_0326E">
	<path fill="#00326E" d="M-916.653,1511.289c77.938,0,141.117,63.18,141.117,141.115c0,77.938-63.179,141.117-141.117,141.117
		c-77.935,0-141.114-63.18-141.114-141.117C-1057.768,1574.469-994.588,1511.289-916.653,1511.289z"/>
</g>
<g id="A" display="none">
	<g id="Calque_2" display="inline">
	</g>
	<g id="Calque_7" display="inline">
	</g>
</g>
<g id="B" display="none">
</g>
<g id="B_bis">
	<path opacity="0.9" fill="#FFFFFF" d="M-813.322,1705.168c0,6.148-5.336,11.134-11.914,11.134h-182.184
		c-6.58,0-11.914-4.985-11.914-11.134v-106.238c0-6.15,5.334-11.135,11.914-11.135h182.184c6.578,0,11.914,4.984,11.914,11.135
		V1705.168z"/>
	<g>
		<path fill="#00326E" d="M-838.801,1683.277c-3.039,2.164-5.469,3.574-7.289,4.227c-1.821,0.651-3.395,0.688-4.718,0.107
			c-1.468-0.643-2.46-1.613-2.98-2.906c-0.521-1.293-0.468-2.657,0.159-4.088c0.58-1.323,1.713-2.352,3.4-3.084
			c1.686-0.732,4.492-1.348,8.42-1.843l13.479-1.706l0.411,1.396L-838.801,1683.277z M-841.514,1661.297
			c-1.711-0.281-3.297-0.604-4.759-0.966c-1.463-0.364-2.587-0.718-3.373-1.063c-1.683-0.737-2.841-1.789-3.479-3.155
			c-0.638-1.367-0.636-2.784,0.008-4.251c0.658-1.503,1.736-2.503,3.233-2.997c1.496-0.496,3.084-0.376,4.767,0.361
			c0.571,0.25,1.37,0.719,2.394,1.4c1.022,0.682,2.508,1.771,4.455,3.265l10.649,8.25l-0.564,1.288L-841.514,1661.297z
			 M-821.43,1696.777c-0.233,1.602-0.55,3.148-0.946,4.639s-0.783,2.664-1.159,3.521c-0.737,1.682-1.803,2.848-3.195,3.494
			c-1.394,0.646-2.807,0.658-4.236,0.031c-1.467-0.645-2.434-1.697-2.901-3.16c-0.468-1.462-0.333-3.035,0.403-4.717
			c0.361-0.822,0.947-1.867,1.758-3.132c0.811-1.267,1.748-2.583,2.816-3.946l8.305-10.627l1.342,0.588L-821.43,1696.777z
			 M-820.004,1654.987l-7.881-11.067c-2.297-3.225-3.747-5.705-4.352-7.441c-0.605-1.736-0.615-3.267-0.035-4.589
			c0.627-1.432,1.593-2.396,2.897-2.888c1.305-0.496,2.688-0.422,4.157,0.222c1.322,0.579,2.363,1.761,3.117,3.542
			c0.755,1.779,1.365,4.521,1.834,8.225l1.567,13.354L-820.004,1654.987z M-818.194,1679.322c-2.863-1.254-4.854-3.301-5.978-6.139
			c-1.125-2.838-1.059-5.688,0.196-8.549c1.286-2.936,3.347-4.963,6.186-6.087c2.837-1.124,5.706-1.049,8.604,0.222
			c2.824,1.238,4.797,3.285,5.912,6.141c1.115,2.857,1.046,5.715-0.209,8.578c-1.27,2.896-3.324,4.908-6.162,6.031
			S-815.332,1680.577-818.194,1679.322z"/>
		<path fill="#00326E" d="M-905.964,1663.055l-4.094-4.674l11.224-15.68l-1.463-14.908l-11.953,9.027l-3.979,18.855l-6.211,0.158
			l0.938-12.064l-9.849,7.582l-2.534-3.414l10.207-7.233l-11.812-2.683l2.064-5.876l19.119,1.919l12.229-8.779l-13.833-5.807
			l-18.245,6.014l-3.287-5.344l10.913-5.196l-11.524-4.795l1.67-3.811l11.337,5.225l-3.575-11.548l6.156-1.203l7.944,17.492
			l13.644,6.236l-1.832-14.941l-14.368-12.759l2.922-5.501l9.978,6.868l-1.622-12.354l4.251-0.504l1.099,12.381l8.236-8.865
			l4.07,4.727l-11.146,15.65l1.463,14.908l11.953-9.027l3.901-18.826l6.234-0.211l-0.938,12.064l9.849-7.583l2.564,3.491
			l-10.238,7.156l11.813,2.682l-2.064,5.877l-19.065-1.895l-12.229,8.779l13.833,5.807l18.191-6.039l3.288,5.344l-10.915,5.197
			l11.525,4.795l-1.67,3.811l-11.337-5.225l3.576,11.547l-6.157,1.203l-7.891-17.467l-13.644-6.236l1.832,14.941l14.313,12.734
			l-2.922,5.5l-9.977-6.867l1.652,12.432l-4.281,0.427l-1.099-12.38L-905.964,1663.055z"/>
	</g>
	<g>
		<path fill="#C89209" d="M-998.932,1700.958c-1.375,0.625-2.063-0.031-2.063-1.969v-55.031c0.125-2.438,1.688-3.125,4.688-2.063
			l47.719,26.906c1.625,2.001,1.625,3.782,0,5.344L-998.932,1700.958z"/>
	</g>
</g>
<g id="C">
</g>
<g id="titres">
</g>
<g id="réserve" display="none">
</g>
</svg>
