<?xml version="1.0" encoding="UTF-8"?>
<svg version="1.1" width="40px" height="40px" viewBox="0 0 40 40" xmlns="http://www.w3.org/2000/svg">
<defs>
<style>.st0 {
        stroke-linejoin: round;
      }

      .st0, .st1 {
        fill: none;
        stroke: #fff;
      }

      .st1 {
        stroke-miterlimit: 10;
      }

      .st2 {
        fill: #00326e;
      }</style>
</defs>
<path class="st2" d="M20,0C31,0,40,9,40,20s-9,20-20,20S0,31.1,0,20H0C0,9,9,0,20,0Z"/>
<path class="st1" d="m20 2c9.9 0 18 8.1 18 18s-8.1 18-18 18-18-8-18-18c0-9.9 8.1-18 18-18z"/>
<circle class="st0" cx="19.8" cy="8.8" r="2.5"/>
<path class="st0" d="M16.6,20.6c.2-1.1.3-2.2,0-3-.3-.7-.8-1-1.5-1.3l-5.8-1.9c-.8-.3-1.5-.7-1.5-1.5,0-1.1.9-1.8,1.8-1.5,0,0,5.5,2,10.2,2s10.1-1.9,10.1-1.9c1.1-.3,1.9.6,1.9,1.5s-.7,1.2-1.5,1.5l-5.5,2c-.5.2-1.3.6-1.6,1.1-.4.7-.3,1.8-.1,3l.4,1.9,2.3,10.3c.2.8-.4,1.6-1.2,1.7s-1.5-.4-1.7-1.2l-2.4-7.3c-.1-.3-.2-.7-.3-1.1l-.4-1.5-.3,1.4c-.1.4-.2.9-.4,1.3l-2.3,7.1c-.3.8-.9,1.4-1.7,1.2s-1.4-1-1.2-1.7l2.3-10.3.4-1.9Z"/>
</svg>
