<?xml version="1.0" encoding="utf-8"?>
<!-- Generator: Adobe Illustrator 27.5.0, SVG Export Plug-In . SVG Version: 6.00 Build 0)  -->
<svg version="1.1" xmlns="http://www.w3.org/2000/svg" xmlns:xlink="http://www.w3.org/1999/xlink" x="0px" y="0px"
	 width="40px" height="40px" viewBox="754.682 -905.311 282.232 282.233" enable-background="new 754.682 -905.311 282.232 282.233" xml:space="preserve">
<g id="blanc" display="none">
</g>
<g id="_x30_0326E">
	<path display="none" fill="#FFFFFF" d="M1542.19,217.977H-318.065c-6.6,0-12-5.4-12-12v-1315.66c0-6.6,5.4-12,12-12H1542.19
		c6.6,0,12,5.4,12,12v1315.66C1554.19,212.577,1548.79,217.977,1542.19,217.977z"/>
	
		<ellipse transform="matrix(0.7071 -0.7071 0.7071 0.7071 802.7431 409.5958)" fill="#00326E" cx="895.797" cy="-764.199" rx="141.116" ry="141.117"/>
	<path fill="#00326E" d="M1036.914-764.199c0,77.938-63.18,141.117-141.117,141.117c-77.936,0-141.115-63.18-141.115-141.117"/>
	<path opacity="0.8" fill="#21558B" d="M1019.704-696.607c-23.95,43.811-70.458,73.524-123.907,73.524
		c-54.094,0-101.078-30.437-124.764-75.119"/>
</g>
<g id="réserve" display="none">
</g>
<g id="A_-_à_vérifier" display="none">
	<g id="Calque_2" display="inline">
	</g>
	<g id="Calque_7" display="inline">
	</g>
	<g display="inline">
		<path fill="#FFFFFF" d="M855.805-734.495l-99.771-72.673c0.751-12.469,6.7-20.501,17.847-24.099l99.484,72.68l24.238,35.669
			L855.805-734.495z M773.25-827.189c-7.303,3.33-11.698,9.384-13.188,18.158l18.595,13.535c1.594-8.303,5.94-14.426,13.039-18.369
			L773.25-827.189z M792.923-791.572c-0.635,1.534-1.218,3.329-1.747,5.383l59.911,43.944c-0.643-1.27-0.972-2.237-0.985-2.903
			c-0.015-0.76,0.188-1.347,0.607-1.759s1.081-0.651,1.982-0.717L792.923-791.572z M797.339-799.004
			c-1.259,1.261-2.229,2.683-2.911,4.265l60.275,44.295c-0.045-2.281,1.021-3.704,3.195-4.271L797.339-799.004z M804.504-804.423
			c-1.507,0.696-3.033,1.653-4.578,2.872l59.985,44.086l-0.085-0.711c-0.036-1.806,0.896-2.728,2.797-2.766
			c0.523-0.01,1.189,0.072,2.002,0.246L804.504-804.423z M871.426-755.768c-2.461-1.806-4.76-2.687-6.898-2.645
			c-0.617,0.013-1.066,0.153-1.347,0.419c-0.28,0.268-0.415,0.662-0.405,1.185c0.039,1.949,1.581,4.176,4.627,6.682
			c-3.406-1.548-5.655-2.312-6.749-2.29c-1.045,0.021-1.813,0.262-2.303,0.724c-0.491,0.462-0.726,1.144-0.708,2.046
			c0.036,1.806,1.506,4.034,4.411,6.686c-3.407-1.596-5.799-2.38-7.178-2.353c-0.665,0.013-1.148,0.154-1.454,0.421
			c-0.303,0.268-0.448,0.687-0.438,1.257c0.027,1.378,1.686,3.46,4.973,6.247l22.297,6.117l3.961-5.212L871.426-755.768z"/>
	</g>
	<g display="inline">
		<path fill="#FFFFFF" d="M881.123-778.918l24.237-35.669l99.485-72.68c11.145,3.598,17.095,11.63,17.846,24.099l-99.77,72.673
			L881.123-778.918z M894.512-792.484l3.961,5.212l22.295-6.117c3.289-2.787,4.945-4.869,4.973-6.247
			c0.012-0.57-0.135-0.989-0.437-1.257c-0.306-0.267-0.789-0.408-1.454-0.421c-1.379-0.027-3.771,0.757-7.178,2.353
			c2.905-2.651,4.375-4.88,4.411-6.686c0.018-0.902-0.217-1.584-0.708-2.046c-0.488-0.462-1.258-0.703-2.303-0.724
			c-1.094-0.021-3.342,0.742-6.748,2.29c3.045-2.506,4.586-4.732,4.625-6.682c0.011-0.522-0.124-0.917-0.404-1.185
			c-0.279-0.266-0.729-0.406-1.347-0.419c-2.139-0.042-4.437,0.839-6.897,2.645L894.512-792.484z M914.102-816.695
			c0.811-0.174,1.479-0.256,2.002-0.246c1.898,0.038,2.832,0.96,2.797,2.766l-0.086,0.711l59.985-44.086
			c-1.545-1.219-3.071-2.176-4.577-2.872L914.102-816.695z M920.828-810.715c2.174,0.566,3.24,1.989,3.194,4.271l60.274-44.295
			c-0.682-1.582-1.651-3.004-2.91-4.265L920.828-810.715z M926.033-803.624c0.902,0.065,1.563,0.305,1.983,0.717
			c0.419,0.412,0.622,0.999,0.606,1.759c-0.013,0.666-0.342,1.634-0.984,2.903l59.912-43.944c-0.53-2.054-1.113-3.849-1.748-5.383
			L926.033-803.624z M987.029-869.865c7.1,3.943,11.447,10.066,13.041,18.369l18.594-13.535c-1.49-8.774-5.886-14.828-13.188-18.158
			L987.029-869.865z"/>
	</g>
	<g display="inline">
		<path fill="#FFFFFF" d="M878.123-638.918l24.237-35.669l99.485-72.68c11.145,3.598,17.095,11.63,17.846,24.099l-99.77,72.673
			L878.123-638.918z M891.512-652.484l3.961,5.212l22.295-6.117c3.289-2.787,4.945-4.869,4.973-6.247
			c0.012-0.57-0.135-0.989-0.437-1.257c-0.306-0.267-0.789-0.408-1.454-0.421c-1.379-0.027-3.771,0.757-7.178,2.353
			c2.905-2.651,4.375-4.88,4.411-6.686c0.018-0.902-0.217-1.584-0.708-2.046c-0.488-0.462-1.258-0.703-2.303-0.724
			c-1.094-0.021-3.342,0.742-6.748,2.29c3.045-2.506,4.586-4.732,4.625-6.682c0.011-0.522-0.124-0.917-0.404-1.185
			c-0.279-0.266-0.729-0.406-1.347-0.419c-2.139-0.042-4.437,0.839-6.897,2.645L891.512-652.484z M911.102-676.695
			c0.811-0.174,1.479-0.256,2.002-0.246c1.898,0.038,2.832,0.96,2.797,2.766l-0.086,0.711l59.985-44.086
			c-1.545-1.219-3.071-2.176-4.577-2.872L911.102-676.695z M917.828-670.715c2.174,0.566,3.24,1.989,3.194,4.271l60.274-44.295
			c-0.682-1.582-1.651-3.004-2.91-4.265L917.828-670.715z M923.033-663.624c0.902,0.065,1.563,0.305,1.983,0.717
			c0.419,0.412,0.622,0.999,0.606,1.759c-0.013,0.666-0.342,1.634-0.984,2.903l59.912-43.944c-0.53-2.054-1.113-3.849-1.748-5.383
			L923.033-663.624z M984.029-729.865c7.1,3.943,11.447,10.066,13.041,18.369l18.594-13.535c-1.49-8.774-5.886-14.828-13.188-18.158
			L984.029-729.865z"/>
	</g>
</g>
<g id="B" display="none">
</g>
<g id="C">
	<path fill="#00326E" d="M1036.914-764.199c0,77.938-63.18,141.117-141.117,141.117c-77.936,0-141.115-63.18-141.115-141.117"/>
	<g>
		<circle fill="#036C70" cx="879.799" cy="-804.466" r="65.982"/>
		<circle fill="#1A9BA1" cx="934.814" cy="-744.238" r="60.948"/>
		<circle fill="#37C6D0" cx="866.396" cy="-719.576" r="46.745"/>
	</g>
</g>
<g id="D" display="none">
</g>
<g id="titres__x2B__img" display="none">
</g>
</svg>
