<?xml version="1.0" encoding="UTF-8"?><svg xmlns="http://www.w3.org/2000/svg" width="40px" height="40px" viewBox="0 0 282.23 282.23"><g id="_00326E"><path d="m141.12,0c77.94,0,141.12,63.18,141.12,141.12s-63.18,141.12-141.12,141.12S0,219.05,0,141.12,63.18,0,141.12,0Z" style="fill:#00326e;"/></g><g id="C"><path d="m121.82,98.3c22.53,0,40.79,18.26,40.79,40.79s-18.26,40.79-40.79,40.79" style="fill:none; stroke:#fff; stroke-miterlimit:10; stroke-width:13px;"/><circle cx="123.09" cy="138.51" r="16.09" style="fill:#fff; stroke:#fff; stroke-miterlimit:10; stroke-width:2px;"/><line x1="62.79" y1="138.51" x2="123.69" y2="138.51" style="fill:none; stroke:#fff; stroke-miterlimit:10; stroke-width:11px;"/><line x1="178.69" y1="139.66" x2="219.6" y2="139.66" style="fill:none; stroke:#fff; stroke-miterlimit:10; stroke-width:12px;"/><line x1="165.78" y1="101.3" x2="200.52" y2="69.43" style="fill:none; stroke:#fff; stroke-miterlimit:10; stroke-width:12px;"/><line x1="165.78" y1="177.43" x2="200.52" y2="209.3" style="fill:none; stroke:#fff; stroke-miterlimit:10; stroke-width:12px;"/><line x1="127.56" y1="221.6" x2="127.56" y2="198.68" style="fill:none; stroke:#fff; stroke-miterlimit:10; stroke-width:12px;"/><line x1="127.56" y1="81.6" x2="127.56" y2="58.68" style="fill:none; stroke:#fff; stroke-miterlimit:10; stroke-width:12px;"/></g></svg>