<?xml version="1.0" encoding="utf-8"?>
<!-- Generator: Adobe Illustrator 23.0.2, SVG Export Plug-In . SVG Version: 6.00 Build 0)  -->
<svg version="1.1" xmlns="http://www.w3.org/2000/svg" xmlns:xlink="http://www.w3.org/1999/xlink" x="0px" y="0px"
	 width="40px" height="40px" viewBox="-453.618 907.139 282.232 282.232" enable-background="new -453.618 907.139 282.232 282.232" xml:space="preserve">
<g id="_x30_0326E">
	<path fill="#00326E" d="M-281.511,1173.283l6.262-12.854l-13.019-6.262c-0.771-3.844-1.21-7.745-1.318-11.7l11.371-8.899
		l-9.064-11.206c0.989-3.955,2.307-7.745,3.955-11.371l14.007-3.131l-3.296-14.007c2.637-2.966,5.438-5.768,8.405-8.404
		l14.007,3.296l3.131-14.007c3.625-1.648,7.416-2.966,11.371-3.955l11.206,9.064l8.899-11.371c3.955,0.111,7.91,0.551,11.865,1.318
		l6.097,13.019l13.019-6.262c3.084,1.594,6.123,3.472,9.118,5.604c2.678-10.86,4.109-22.212,4.109-33.899
		c0-77.936-63.18-141.115-141.117-141.115c-77.936,0-141.115,63.18-141.115,141.115c0,77.938,63.18,141.117,141.115,141.117
		c14.076,0,27.665-2.071,40.493-5.907l-3.074,0.035C-277.613,1180.204-279.755,1176.8-281.511,1173.283z"/>
	<g>
		<path fill="#00326E" d="M-265.289,1181.269c-0.82,0.291-1.641,0.579-2.467,0.855
			C-266.93,1181.847-266.109,1181.56-265.289,1181.269z"/>
		<path fill="#00326E" d="M-260.926,1179.646c-1.066,0.418-2.137,0.825-3.216,1.218
			C-263.064,1180.471-261.992,1180.065-260.926,1179.646z"/>
		<path fill="#00326E" d="M-250.878,1175.235c-0.344,0.167-0.69,0.333-1.036,0.497
			C-251.568,1175.567-251.222,1175.402-250.878,1175.235z"/>
		<path fill="#00326E" d="M-257.392,1178.202c-0.554,0.235-1.114,0.46-1.672,0.688
			C-258.505,1178.662-257.946,1178.437-257.392,1178.202z"/>
		<path fill="#00326E" d="M-247.798,1173.69c-0.259,0.134-0.518,0.269-0.779,0.401
			C-248.316,1173.958-248.057,1173.824-247.798,1173.69z"/>
		<path fill="#00326E" d="M-245.014,1172.214c-0.099,0.054-0.197,0.11-0.296,0.163
			C-245.211,1172.323-245.113,1172.268-245.014,1172.214z"/>
		<path fill="#00326E" d="M-268.977,1182.52c-0.816,0.264-1.634,0.524-2.457,0.773
			C-270.612,1183.043-269.793,1182.784-268.977,1182.52z"/>
		<path fill="#00326E" d="M-254.091,1176.748c-0.418,0.19-0.839,0.375-1.259,0.561
			C-254.93,1177.122-254.509,1176.938-254.091,1176.748z"/>
		<path fill="#C89209" d="M-242.702,1170.939c-0.004-0.004-0.008-0.007-0.012-0.011c-0.762,0.435-1.528,0.865-2.299,1.285
			C-244.241,1171.792-243.466,1171.375-242.702,1170.939z"/>
		<path fill="#C89209" d="M-245.31,1172.377c-0.824,0.447-1.655,0.882-2.488,1.313
			C-246.964,1173.259-246.134,1172.824-245.31,1172.377z"/>
		<path fill="#C89209" d="M-248.576,1174.091c-0.763,0.388-1.531,0.769-2.302,1.144
			C-250.107,1174.86-249.34,1174.479-248.576,1174.091z"/>
		<path fill="#C89209" d="M-251.914,1175.732c-0.723,0.344-1.447,0.684-2.177,1.016
			C-253.361,1176.416-252.637,1176.075-251.914,1175.732z"/>
		<path fill="#C89209" d="M-255.35,1177.309c-0.679,0.301-1.358,0.603-2.042,0.893
			C-256.707,1177.911-256.029,1177.609-255.35,1177.309z"/>
		<path fill="#C89209" d="M-187.913,1114.562c0.006,0.008,0.013,0.015,0.019,0.023c5.406-10.131,9.609-20.999,12.426-32.414
			c-0.009-0.006-0.018-0.012-0.027-0.018C-178.309,1093.567-182.51,1104.432-187.913,1114.562z"/>
		<path fill="#C89209" d="M-267.756,1182.123c-0.406,0.135-0.814,0.265-1.221,0.396
			C-268.57,1182.388-268.162,1182.259-267.756,1182.123z"/>
		<path fill="#C89209" d="M-271.977,1183.464c0.182-0.054,0.361-0.116,0.543-0.171c-0.191,0.058-0.384,0.114-0.576,0.171
			L-271.977,1183.464z"/>
		<path fill="#C89209" d="M-259.063,1178.89c-0.62,0.254-1.238,0.511-1.863,0.756
			C-260.302,1179.401-259.683,1179.144-259.063,1178.89z"/>
		<path fill="#C89209" d="M-264.142,1180.865c-0.38,0.139-0.765,0.268-1.147,0.404
			C-264.907,1181.133-264.522,1181.003-264.142,1180.865z"/>
		<path fill="#C89209" d="M-184.613,1076.549l-13.019,6.262l-6.097-13.019c-3.955-0.767-7.91-1.207-11.865-1.318l-8.899,11.371
			l-11.206-9.064c-3.955,0.989-7.745,2.307-11.371,3.955l-3.131,14.007l-14.007-3.296c-2.966,2.637-5.768,5.438-8.405,8.404
			l3.296,14.007l-14.007,3.131c-1.648,3.625-2.966,7.416-3.955,11.371l9.064,11.206l-11.371,8.899
			c0.108,3.955,0.548,7.856,1.318,11.7l13.019,6.262l-6.262,12.854c1.756,3.517,3.898,6.921,6.427,10.217l3.074-0.035
			c0.192-0.057,0.385-0.113,0.576-0.171c0.823-0.25,1.641-0.509,2.457-0.773c0.407-0.132,0.816-0.261,1.221-0.396
			c0.827-0.276,1.647-0.564,2.467-0.855c0.382-0.136,0.767-0.265,1.147-0.404c1.078-0.393,2.15-0.8,3.216-1.218
			c0.625-0.245,1.243-0.502,1.863-0.756c0.558-0.228,1.117-0.453,1.672-0.688c0.684-0.291,1.363-0.592,2.042-0.893
			c0.42-0.186,0.841-0.371,1.259-0.561c0.729-0.332,1.454-0.672,2.177-1.016c0.346-0.165,0.692-0.33,1.036-0.497
			c0.771-0.375,1.539-0.755,2.302-1.144c0.26-0.132,0.519-0.267,0.779-0.401c0.833-0.431,1.664-0.866,2.488-1.313
			c0.099-0.054,0.197-0.109,0.296-0.163c0.771-0.421,1.537-0.851,2.299-1.285c-1.006-0.838-1.996-1.715-2.954-2.672
			c-7.745-7.745-11.618-17.056-11.618-27.932s3.873-20.187,11.618-27.932c7.745-7.745,17.056-11.618,27.932-11.618
			s20.187,3.873,27.932,11.618c0.651,0.651,1.281,1.386,1.891,2.171c5.403-10.13,9.604-20.996,12.418-32.409
			C-178.49,1080.021-181.529,1078.143-184.613,1076.549z"/>
	</g>
</g>
<g id="réserve" display="none">
	<g display="inline">
		<path fill="#E3E4E5" d="M-392.946,1041.908c2.34,1.439,5.76,2.64,9.359,2.64c5.34,0,8.46-2.82,8.46-6.899
			c0-3.78-2.16-5.94-7.62-8.04c-6.6-2.34-10.68-5.76-10.68-11.46c0-6.3,5.22-10.979,13.08-10.979c4.14,0,7.14,0.96,8.939,1.98
			l-1.44,4.26c-1.32-0.72-4.02-1.92-7.68-1.92c-5.52,0-7.62,3.3-7.62,6.06c0,3.78,2.46,5.64,8.04,7.8
			c6.84,2.64,10.32,5.939,10.32,11.88c0,6.239-4.62,11.639-14.16,11.639c-3.9,0-8.16-1.14-10.319-2.579L-392.946,1041.908z"/>
		<path fill="#E3E4E5" d="M-356.947,1011.069c0.06,1.8-1.26,3.239-3.36,3.239c-1.86,0-3.18-1.439-3.18-3.239
			c0-1.86,1.38-3.3,3.3-3.3C-358.207,1007.77-356.947,1009.209-356.947,1011.069z M-362.827,1048.268v-29.039h5.28v29.039H-362.827z
			"/>
		<path fill="#E3E4E5" d="M-323.768,1019.229c-0.12,2.101-0.24,4.44-0.24,7.979v16.859c0,6.66-1.32,10.74-4.14,13.26
			c-2.82,2.64-6.9,3.479-10.56,3.479c-3.48,0-7.32-0.84-9.66-2.399l1.32-4.02c1.92,1.199,4.92,2.279,8.52,2.279
			c5.399,0,9.359-2.819,9.359-10.14v-3.239h-0.12c-1.62,2.699-4.74,4.859-9.239,4.859c-7.2,0-12.36-6.12-12.36-14.159
			c0-9.84,6.42-15.42,13.08-15.42c5.04,0,7.8,2.641,9.06,5.04h0.12l0.24-4.38H-323.768z M-329.228,1030.688c0-0.9-0.06-1.68-0.3-2.4
			c-0.96-3.06-3.54-5.579-7.38-5.579c-5.04,0-8.64,4.26-8.64,10.979c0,5.699,2.88,10.439,8.58,10.439c3.24,0,6.18-2.04,7.32-5.4
			c0.3-0.899,0.42-1.92,0.42-2.819V1030.688z"/>
		<path fill="#E3E4E5" d="M-315.607,1027.089c0-3-0.06-5.46-0.24-7.86h4.68l0.3,4.8h0.12c1.44-2.76,4.8-5.46,9.6-5.46
			c4.02,0,10.259,2.4,10.259,12.36v17.339h-5.28v-16.739c0-4.68-1.74-8.58-6.72-8.58c-3.479,0-6.18,2.46-7.08,5.4
			c-0.24,0.66-0.36,1.56-0.36,2.46v17.459h-5.28V1027.089z"/>
		<path fill="#E3E4E5" d="M-279.368,1034.708c0.12,7.14,4.68,10.08,9.959,10.08c3.78,0,6.06-0.66,8.04-1.5l0.9,3.779
			c-1.86,0.84-5.04,1.8-9.66,1.8c-8.939,0-14.279-5.879-14.279-14.639s5.16-15.66,13.62-15.66c9.479,0,12,8.34,12,13.68
			c0,1.08-0.12,1.92-0.18,2.46H-279.368z M-263.889,1030.929c0.06-3.36-1.38-8.58-7.32-8.58c-5.34,0-7.68,4.92-8.1,8.58H-263.889z"
			/>
		<path fill="#E3E4E5" d="M-245.889,1010.889v8.34h7.56v4.021h-7.56v15.659c0,3.6,1.02,5.64,3.959,5.64c1.38,0,2.4-0.18,3.06-0.36
			l0.24,3.96c-1.02,0.42-2.64,0.72-4.68,0.72c-2.46,0-4.44-0.779-5.7-2.22c-1.5-1.56-2.04-4.14-2.04-7.56v-15.839h-4.5v-4.021h4.5
			v-6.959L-245.889,1010.889z"/>
	</g>
</g>
<g id="A_-_à_vérifier" display="none">
	<g display="inline">
		<path fill="#FFFFFF" d="M-289.091,906.141c2.93,0,5.369,0.979,7.324,2.93c1.95,1.955,2.93,4.395,2.93,7.324
			s-0.979,5.374-2.93,7.324c-1.955,1.955-4.395,2.93-7.324,2.93h-1.465v17.871c25.195,4.299,46.143,16.26,62.842,35.889
			s25.049,42.334,25.049,68.115c0,19.144-4.688,36.818-14.063,53.027c-9.375,16.214-22.17,29.004-38.379,38.379
			c-16.214,9.375-33.889,14.063-53.027,14.063c-19.144,0-36.818-4.688-53.027-14.063c-16.214-9.375-29.004-22.165-38.379-38.379
			c-9.375-16.209-14.063-33.884-14.063-53.027c0-25.781,8.35-48.486,25.049-68.115s37.646-31.59,62.842-35.889v-17.871h-1.465
			c-2.93,0-5.374-0.975-7.324-2.93c-1.955-1.95-2.93-4.395-2.93-7.324s0.975-5.369,2.93-7.324c1.95-1.95,4.395-2.93,7.324-2.93
			H-289.091z M-391.923,1048.67c0,23.145,8.152,42.92,24.463,59.326c16.306,16.406,36.081,24.609,59.326,24.609
			c23.24,0,43.016-8.203,59.326-24.609c16.306-16.406,24.463-36.182,24.463-59.326s-8.157-42.92-24.463-59.326
			c-16.311-16.406-36.086-24.609-59.326-24.609c-23.245,0-43.021,8.203-59.326,24.609
			C-383.771,1005.75-391.923,1025.525-391.923,1048.67z M-298.466,988.465v43.945l21.973-19.336l16.992-2.051l-4.395,16.406
			l-38.379,33.105h-5.859h-2.344h-1.172c-1.758,0-3.223-0.586-4.395-1.758s-1.758-2.536-1.758-4.102v-1.172v-2.344v-62.695
			l9.668-14.063L-298.466,988.465z"/>
	</g>
	<g id="Calque_2" display="inline">
	</g>
	<g id="Calque_7" display="inline">
	</g>
</g>
<g id="B" display="none">
</g>
<g id="B_bis">
	<path opacity="0.8" fill="#FFFFFF" d="M-352.287,1066.046h84.14v-4.551h-84.14V1066.046z M-352.287,1079.676h84.14v-4.564h-84.14
		V1079.676z M-352.287,1093.645h84.14v-4.539h-84.14V1093.645z"/>
	<path fill="none" stroke="#FFFFFF" stroke-width="3" stroke-miterlimit="10" d="M-233.987,1085.822V955.007h-150.645v189h112.595
		C-269.523,1118.841-256.007,1098.546-233.987,1085.822z"/>
	<g>
		<path fill="#FFFFFF" d="M-365.512,1027.007v-32.354h4.56l10.369,16.369c2.4,3.792,4.272,7.2,5.809,10.513l0.096-0.048
			c-0.384-4.32-0.48-8.257-0.48-13.297v-13.537h3.937v32.354h-4.225l-10.272-16.417c-2.256-3.601-4.417-7.297-6.049-10.802
			l-0.144,0.049c0.24,4.08,0.336,7.969,0.336,13.345v13.825H-365.512z"/>
		<path fill="#FFFFFF" d="M-329.224,1016.158c0.096,5.712,3.745,8.064,7.969,8.064c3.024,0,4.849-0.528,6.433-1.2l0.72,3.024
			c-1.488,0.672-4.033,1.44-7.729,1.44c-7.152,0-11.425-4.705-11.425-11.714c0-7.008,4.128-12.528,10.897-12.528
			c7.584,0,9.601,6.672,9.601,10.944c0,0.864-0.096,1.536-0.144,1.969H-329.224z M-316.839,1013.134
			c0.048-2.688-1.104-6.865-5.856-6.865c-4.272,0-6.145,3.937-6.481,6.865H-316.839z"/>
		<path fill="#FFFFFF" d="M-303.353,1003.772l3.072,11.81c0.672,2.592,1.296,4.992,1.728,7.393h0.144
			c0.528-2.353,1.296-4.849,2.064-7.345l3.792-11.857H-289l3.601,11.617c0.864,2.784,1.536,5.232,2.064,7.585h0.144
			c0.384-2.353,1.008-4.801,1.776-7.537l3.312-11.665h4.176l-7.488,23.234h-3.84l-3.553-11.089
			c-0.816-2.593-1.488-4.896-2.064-7.633h-0.096c-0.576,2.784-1.296,5.185-2.112,7.681l-3.745,11.041h-3.84l-7.008-23.234H-303.353z
			"/>
		<path fill="#FFFFFF" d="M-268.073,1022.687c1.248,0.816,3.457,1.68,5.568,1.68c3.072,0,4.513-1.536,4.513-3.456
			c0-2.016-1.2-3.12-4.32-4.272c-4.177-1.488-6.145-3.792-6.145-6.576c0-3.744,3.024-6.816,8.017-6.816
			c2.352,0,4.416,0.672,5.712,1.439l-1.056,3.072c-0.912-0.576-2.592-1.344-4.752-1.344c-2.496,0-3.888,1.44-3.888,3.168
			c0,1.921,1.392,2.784,4.417,3.937c4.032,1.536,6.096,3.553,6.096,7.009c0,4.08-3.168,6.961-8.688,6.961
			c-2.544,0-4.896-0.624-6.529-1.585L-268.073,1022.687z"/>
	</g>
	<path fill="#C89209" d="M-184.462,1076.549l-13.019,6.262l-6.097-13.019c-3.955-0.767-7.91-1.207-11.865-1.318l-8.899,11.371
		l-11.206-9.064c-3.955,0.989-7.745,2.307-11.371,3.955l-3.131,14.007l-14.007-3.296c-2.966,2.637-5.768,5.438-8.404,8.404
		l3.296,14.007l-14.007,3.131c-1.648,3.625-2.966,7.416-3.955,11.371l9.064,11.206l-11.371,8.899
		c0.108,3.955,0.548,7.856,1.318,11.7l13.019,6.262l-6.262,12.854c1.756,3.517,3.898,6.921,6.427,10.217l3.107-0.036
		c10.302-3.081,20.11-7.302,29.275-12.525c-1.01-0.841-2.005-1.721-2.966-2.683c-7.745-7.745-11.618-17.056-11.618-27.932
		s3.873-20.187,11.618-27.932c7.745-7.745,17.056-11.618,27.932-11.618s20.187,3.873,27.932,11.618
		c0.658,0.658,1.294,1.401,1.91,2.194c5.406-10.131,9.609-20.999,12.426-32.414
		C-178.321,1080.031-181.369,1078.147-184.462,1076.549z"/>
	<g>
		<path fill="none" d="M-260.969,1136.394c0-22.084,17.903-39.987,39.987-39.987c13.873,0,26.093,7.068,33.265,17.796
			c10.421-19.68,16.331-42.116,16.331-65.936c0-77.936-63.18-141.116-141.116-141.116s-141.116,63.18-141.116,141.116
			c0,77.936,63.18,141.116,141.116,141.116c25.723,0,49.835-6.886,70.602-18.909
			C-253.339,1163.438-260.969,1150.809-260.969,1136.394z"/>
	</g>
</g>
<g id="C">
</g>
<g id="titres__x2B__img">
</g>
</svg>
