<?xml version="1.0" encoding="utf-8"?>
<!-- Generator: Adobe Illustrator 23.0.2, SVG Export Plug-In . SVG Version: 6.00 Build 0)  -->
<svg version="1.1" xmlns="http://www.w3.org/2000/svg" xmlns:xlink="http://www.w3.org/1999/xlink" x="0px" y="0px"
	 width="40px" height="40px" viewBox="-755.693 1209.214 282.232 282.233" enable-background="new -755.693 1209.214 282.232 282.233" xml:space="preserve">
<g id="_x2D_--" display="none">
</g>
<g id="fond" display="none">
	<path display="inline" fill="#21558B" d="M-614.578,1209.214c77.938,0,141.117,63.18,141.117,141.115
		c0,77.938-63.18,141.117-141.117,141.117c-77.935,0-141.115-63.18-141.115-141.117
		C-755.693,1272.394-692.513,1209.214-614.578,1209.214z"/>
</g>
<g id="_x30_0326E">
	<path fill="#00326E" d="M-614.578,1209.214c77.938,0,141.117,63.18,141.117,141.115c0,77.938-63.18,141.117-141.117,141.117
		c-77.935,0-141.115-63.18-141.115-141.117C-755.693,1272.394-692.513,1209.214-614.578,1209.214z"/>
</g>
<g id="A" display="none">
	<g id="Calque_2" display="inline">
	</g>
	<g id="Calque_7" display="inline">
	</g>
	<g display="inline" opacity="0.95">
		<path fill="#FFFFFF" d="M-651.022,1283.767v50.309h-52.031v-52.031h50.256c1.755-1.219,3.333-2.25,4.737-3.094l1.011,1.828
			C-648.188,1281.599-649.513,1282.595-651.022,1283.767z M-678.777,1321.032l-1.546,1.02c-1.335,0.867-2.481,1.734-3.441,2.602
			c-0.188-0.844-0.656-2.203-1.405-4.078l-0.773-2.004c-1.757-4.336-3.238-7.365-4.444-9.088s-2.512-2.654-3.916-2.795
			c1.896-1.734,3.559-2.602,4.988-2.602c1.92,0,4.039,2.613,6.358,7.84l1.265,2.813c6.112-10.969,14.238-20.719,24.379-29.25
			h-42.295v45.105h45.07v-43.875c-5.434,4.969-10.322,10.529-14.667,16.682C-673.549,1309.554-676.74,1315.431-678.777,1321.032z"/>
		<path fill="#FFFFFF" d="M-583.731,1283.767v50.309h-52.031v-52.031h50.256c1.755-1.219,3.333-2.25,4.737-3.094l1.011,1.828
			C-580.897,1281.599-582.222,1282.595-583.731,1283.767z M-611.486,1321.032l-1.546,1.02c-1.335,0.867-2.481,1.734-3.441,2.602
			c-0.188-0.844-0.656-2.203-1.405-4.078l-0.773-2.004c-1.757-4.336-3.238-7.365-4.444-9.088s-2.512-2.654-3.916-2.795
			c1.896-1.734,3.559-2.602,4.988-2.602c1.92,0,4.039,2.613,6.358,7.84l1.265,2.813c6.112-10.969,14.238-20.719,24.379-29.25
			h-42.295v45.105h45.07v-43.875c-5.434,4.969-10.322,10.529-14.667,16.682C-606.258,1309.554-609.449,1315.431-611.486,1321.032z"
			/>
		<path fill="#FFFFFF" d="M-516.439,1283.767v50.309h-52.031v-52.031h50.256c1.755-1.219,3.333-2.25,4.737-3.094l1.011,1.828
			C-513.605,1281.599-514.93,1282.595-516.439,1283.767z M-544.194,1321.032l-1.546,1.02c-1.335,0.867-2.481,1.734-3.441,2.602
			c-0.188-0.844-0.656-2.203-1.405-4.078l-0.773-2.004c-1.757-4.336-3.238-7.365-4.444-9.088s-2.512-2.654-3.916-2.795
			c1.896-1.734,3.559-2.602,4.988-2.602c1.92,0,4.039,2.613,6.358,7.84l1.265,2.813c6.112-10.969,14.238-20.719,24.379-29.25
			h-42.295v45.105h45.07v-43.875c-5.434,4.969-10.322,10.529-14.667,16.682C-538.966,1309.554-542.157,1315.431-544.194,1321.032z"
			/>
		<path fill="#ED9B27" d="M-703.054,1415.075v-52.031h52.031v52.031H-703.054z M-699.538,1411.595h45.07v-45.105h-45.07V1411.595z"
			/>
		<path fill="#FFFFFF" d="M-583.767,1364.767v50.309h-52.031v-52.031h50.256c1.755-1.219,3.333-2.25,4.737-3.094l1.011,1.828
			C-580.933,1362.599-582.257,1363.595-583.767,1364.767z M-611.521,1402.032l-1.546,1.02c-1.335,0.867-2.481,1.734-3.441,2.602
			c-0.188-0.844-0.656-2.203-1.405-4.078l-0.773-2.004c-1.757-4.336-3.238-7.365-4.444-9.088s-2.512-2.654-3.916-2.795
			c1.896-1.734,3.559-2.602,4.988-2.602c1.92,0,4.039,2.613,6.358,7.84l1.265,2.813c6.112-10.969,14.238-20.719,24.379-29.25
			h-42.295v45.105h45.07v-43.875c-5.434,4.969-10.322,10.529-14.667,16.682C-606.293,1390.554-609.484,1396.431-611.521,1402.032z"
			/>
		<path fill="#ED9B27" d="M-568.506,1415.075v-52.031h52.031v52.031H-568.506z M-564.99,1411.595h45.07v-45.105h-45.07V1411.595z"/>
	</g>
</g>
<g id="B" display="none">
</g>
<g id="B_bis">
	<g>
		<path fill="#FFFFFF" d="M-724.966,1375.167h10.329l15.665,35.958l16.491-39.984l16.621,40.037l15.82-36.011h10.153l-26.204,56.606
			l-16.486-39.421l-16.307,39.394L-724.966,1375.167z"/>
		<path fill="#FFFFFF" d="M-605.756,1373.732c8.423,0.074,14.806,2.979,19.146,8.718c4.119,5.518,6.16,11.918,6.124,19.201
			c0,0.221-0.019,0.543-0.056,0.966c-0.036,0.423-0.055,0.745-0.055,0.966h-41.658c0.074,5.003,1.692,9.178,4.855,12.524
			c3.274,3.495,7.485,5.261,12.636,5.297c3.862,0.037,7.136-1.048,9.821-3.255c2.574-2.097,4.689-4.671,6.346-7.725l7.559,4.414
			c-2.317,4.378-5.518,7.89-9.601,10.538c-4.304,2.759-9.196,4.139-14.677,4.139c-7.688,0-13.959-2.511-18.814-7.532
			c-4.855-5.021-7.283-11.614-7.283-19.78c0-8.056,2.262-14.787,6.786-20.194C-619.991,1376.455-613.701,1373.696-605.756,1373.732z
			 M-621.813,1395.969h31.837c-0.662-3.936-2.409-7.229-5.241-9.877c-2.943-2.722-6.383-4.101-10.318-4.138
			c-3.973-0.036-7.504,1.296-10.594,4C-619.219,1388.657-621.113,1391.996-621.813,1395.969z"/>
		<path fill="#FFFFFF" d="M-563.681,1335.055h8.938v47.727h0.221c2.022-2.685,4.607-4.873,7.752-6.565
			c3.146-1.691,6.704-2.52,10.677-2.483c7.356,0.074,13.416,2.723,18.181,7.945c4.763,5.224,7.146,11.882,7.146,19.974
			c0,7.799-2.383,14.393-7.146,19.78c-4.765,5.39-10.787,8.084-18.07,8.084c-4.672,0-8.626-0.993-11.862-2.979
			c-2.98-1.802-5.169-3.66-6.566-5.573h-0.331v7.173h-8.938V1335.055z M-537.804,1381.954c-4.818-0.036-8.91,1.757-12.276,5.379
			c-3.365,3.624-5.067,8.194-5.104,13.712c-0.037,5.738,1.526,10.538,4.69,14.4c3.236,4.01,7.559,5.996,12.966,5.959
			c5.885-0.036,10.336-2.17,13.353-6.4c2.832-3.973,4.248-8.57,4.248-13.794c0-5.039-1.489-9.471-4.469-13.297
			C-527.522,1383.978-531.991,1381.991-537.804,1381.954z"/>
	</g>
	<g opacity="0.69">
		<g>
			<g>
				
					<line fill="none" stroke="#FFFFFF" stroke-width="10" stroke-miterlimit="10" x1="-619.93" y1="1323.483" x2="-551.86" y2="1283.173"/>
				<g>
					<polygon fill="#FFFFFF" points="-546.205,1305.323 -524.692,1267.088 -568.562,1267.568 					"/>
				</g>
			</g>
		</g>
		
			<line fill="none" stroke="#FFFFFF" stroke-width="9" stroke-miterlimit="10" x1="-715.219" y1="1329.57" x2="-639.845" y2="1287.193"/>
		
			<line fill="none" stroke="#FFFFFF" stroke-width="9" stroke-miterlimit="10" x1="-614.577" y1="1326.53" x2="-643.758" y2="1288.927"/>
	</g>
</g>
<g id="C">
</g>
<g id="titres">
</g>
<g id="réserve" display="none">
</g>
</svg>
