<?xml version="1.0" encoding="utf-8"?>
<!-- Generator: Adobe Illustrator 23.0.2, SVG Export Plug-In . SVG Version: 6.00 Build 0)  -->
<svg version="1.1" xmlns="http://www.w3.org/2000/svg" xmlns:xlink="http://www.w3.org/1999/xlink" x="0px" y="0px"
	 viewBox="-453.618 -1509.46 282.232 282.232" enable-background="new -453.618 -1509.46 282.232 282.232" xml:space="preserve">
<g id="_x2D_--" display="none">
</g>
<g id="fond" display="none">
	<path display="inline" fill="#21558B" d="M-312.503-1509.46c77.937,0,141.117,63.179,141.117,141.115
		c0,77.938-63.18,141.117-141.117,141.117c-77.936,0-141.115-63.179-141.115-141.117
		C-453.618-1446.281-390.439-1509.46-312.503-1509.46z"/>
</g>
<g id="_x30_0326E">
	<path fill="#00326E" d="M-312.503-1509.46c77.937,0,141.117,63.179,141.117,141.115c0,77.938-63.18,141.117-141.117,141.117
		c-77.936,0-141.115-63.179-141.115-141.117C-453.618-1446.281-390.439-1509.46-312.503-1509.46z"/>
</g>
<g id="A" display="none">
	<g id="Calque_2" display="inline">
	</g>
	<g id="Calque_7" display="inline">
	</g>
	<path display="inline" opacity="0.1" fill="#FFFFFF" d="M-185.512-1429.808c9.05,18.616,14.126,39.521,14.126,61.612
		c0,77.938-63.178,141.117-141.111,141.117c-77.932,0-141.108-63.18-141.108-141.117c0-19.484,3.949-43.045,11.089-59.928"/>
	<g display="inline">
		<path fill="#FFFFFF" d="M-449.312-1428.543v-8.232h8.232v8.232H-449.312z"/>
		<path fill="#FFFFFF" d="M-432.642-1428.543v-8.232h8.232v8.232H-432.642z"/>
		<path fill="#FFFFFF" d="M-415.972-1428.543v-8.232h8.232v8.232H-415.972z"/>
		<path fill="#FFFFFF" d="M-399.302-1428.543v-8.232h8.232v8.232H-399.302z"/>
		<path fill="#FFFFFF" d="M-382.632-1428.543v-8.232h8.232v8.232H-382.632z"/>
		<path fill="#FFFFFF" d="M-365.962-1428.543v-8.232h8.232v8.232H-365.962z"/>
		<path fill="#FFFFFF" d="M-349.292-1428.543v-8.232h8.232v8.232H-349.292z"/>
		<path fill="#FFFFFF" d="M-332.622-1428.543v-8.232h8.232v8.232H-332.622z"/>
		<path fill="#FFFFFF" d="M-315.952-1428.543v-8.232h8.232v8.232H-315.952z"/>
		<path fill="#FFFFFF" d="M-299.282-1428.543v-8.232h8.232v8.232H-299.282z"/>
		<path fill="#FFFFFF" d="M-282.612-1428.543v-8.232h8.232v8.232H-282.612z"/>
		<path fill="#FFFFFF" d="M-265.942-1428.543v-8.232h8.232v8.232H-265.942z"/>
		<path fill="#FFFFFF" d="M-249.272-1428.543v-8.232h8.232v8.232H-249.272z"/>
		<path fill="#FFFFFF" d="M-232.603-1428.543v-8.232h8.232v8.232H-232.603z"/>
		<path fill="#FFFFFF" d="M-215.933-1428.543v-8.232h8.232v8.232H-215.933z"/>
		<path fill="#FFFFFF" d="M-199.263-1428.543v-8.232h8.232v8.232H-199.263z"/>
	</g>
	<g display="inline">
		<path opacity="0.5" fill="#FFFFFF" d="M-207.177-1307.769v17.942h-26.344v-17.942H-207.177z"/>
		<path opacity="0.5" fill="#FFFFFF" d="M-253.417-1307.769v17.942h-26.344v-17.942H-253.417z"/>
		<path fill="#FFFFFF" d="M-299.656-1307.769v17.942H-326v-17.942H-299.656z"/>
		<path fill="#FFFFFF" d="M-345.896-1307.769v17.942h-26.344v-17.942H-345.896z"/>
		<path fill="#FFFFFF" d="M-392.136-1307.769v17.942h-26.344v-17.942H-392.136z"/>
		<path fill="#FFFFFF" d="M-207.177-1337.737v17.942h-26.344v-17.942H-207.177z"/>
		<path fill="#FFFFFF" d="M-253.417-1337.737v17.942h-26.344v-17.942H-253.417z"/>
		<path opacity="0.5" fill="#FFFFFF" d="M-299.656-1337.737v17.942H-326v-17.942H-299.656z"/>
		<path opacity="0.5" fill="#FFFFFF" d="M-345.896-1337.737v17.942h-26.344v-17.942H-345.896z"/>
		<path fill="#FFFFFF" d="M-392.136-1337.737v17.942h-26.344v-17.942H-392.136z"/>
		<path fill="#FFFFFF" d="M-207.177-1367.706v17.943h-26.344v-17.943H-207.177z"/>
		<path fill="#FFFFFF" d="M-253.417-1367.706v17.943h-26.344v-17.943H-253.417z"/>
		<path fill="#FFFFFF" d="M-299.656-1367.706v17.943H-326v-17.943H-299.656z"/>
		<path fill="#FFFFFF" d="M-345.896-1367.706v17.943h-26.344v-17.943H-345.896z"/>
		<path opacity="0.5" fill="#FFFFFF" d="M-392.136-1367.706v17.943h-26.344v-17.943H-392.136z"/>
		<path fill="#C89209" d="M-207.177-1397.673v17.942h-26.344v-17.942H-207.177z"/>
		<path fill="#C89209" d="M-253.417-1397.673v17.942h-26.344v-17.942H-253.417z"/>
		<path fill="#C89209" d="M-299.656-1397.673v17.942H-326v-17.942H-299.656z"/>
		<path fill="#C89209" d="M-345.896-1397.673v17.942h-26.344v-17.942H-345.896z"/>
		<path fill="#C89209" d="M-392.136-1397.673v17.942h-26.344v-17.942H-392.136z"/>
	</g>
	<g display="inline">
		<path fill="#FFFFFF" d="M-368.554-1415.938v-34.043h11.76v34.043H-368.554z"/>
		<path fill="#FFFFFF" d="M-268.474-1415.938v-34.043h11.76v34.043H-268.474z"/>
	</g>
</g>
<g id="B" display="none">
	<g id="miu_1_" display="inline" opacity="0.9">
		<g id="Artboard-1_1_" transform="translate(-827.000000, -227.000000)">
			<path id="editor-attachment-paper-clip-2_1_" fill="#FFFFFF" d="M497.543-1068.775l94.14-87.336c0,0,35.491-32.93,3.928-62.213
				c-31.567-29.29-67.063,3.633-67.063,3.633l-94.13,87.341c-3.855,3.579,3.159,10.094,7.014,6.508l94.13-87.343
				c0,0,25.929-28.778,53.031-3.63c24.553,22.774-3.924,49.198-3.924,49.198l-94.139,87.334c0,0-17.67,16.393-35.206,0.126
				c-17.543-16.27,0.135-32.671,0.135-32.671l94.136-87.334c0,0,11.063-10.272,21.298-0.764c10.24,9.491-0.257,20.294-0.257,20.294
				l-89.504,83.038c-3.855,3.577,3.158,10.083,7.014,6.508l89.504-83.039c0,0,20.092-16.213,0.958-33.974
				c-17.249-15.998-36.028,1.43-36.028,1.43l-94.135,87.335c0,0-24.694,22.907-0.136,45.685
				C472.858-1045.876,497.543-1068.775,497.543-1068.775z"/>
		</g>
	</g>
</g>
<g id="B_bis">
</g>
<g id="C">
	<g>
		<path fill="#FFFFFF" d="M-378.246-1376.103v79.902h-7.672v-6.252h-0.189c-1.201,1.642-3.111,3.252-5.731,4.831
			c-2.905,1.736-6.3,2.605-10.183,2.605c-6.252,0-11.415-2.313-15.488-6.939c-4.073-4.625-6.109-10.285-6.109-16.979
			c0-6.946,2.067-12.677,6.204-17.193c4.041-4.452,9.204-6.709,15.487-6.773c3.379-0.031,6.457,0.695,9.236,2.179
			c2.652,1.421,4.847,3.284,6.584,5.589h0.189v-40.969H-378.246z M-415.758-1319.456c-0.031,4.926,1.311,9.046,4.026,12.362
			c2.747,3.442,6.441,5.147,11.083,5.115c5.052-0.031,8.888-1.863,11.51-5.494c2.431-3.41,3.646-7.357,3.646-11.841
			c0-4.326-1.279-8.13-3.836-11.415c-2.685-3.378-6.521-5.083-11.51-5.115c-4.137-0.031-7.649,1.508-10.538,4.618
			C-414.266-1328.115-415.727-1324.192-415.758-1319.456z"/>
		<path fill="#FFFFFF" d="M-343.406-1342.901c7.229,0.063,12.708,2.558,16.435,7.483c3.536,4.736,5.288,10.23,5.257,16.482
			c0,0.189-0.016,0.466-0.047,0.829c-0.032,0.363-0.047,0.639-0.047,0.829h-35.76c0.063,4.294,1.452,7.878,4.168,10.751
			c2.81,3,6.425,4.516,10.846,4.547c3.316,0.032,6.126-0.9,8.432-2.794c2.209-1.8,4.025-4.01,5.446-6.631l6.489,3.789
			c-1.99,3.758-4.736,6.773-8.242,9.046c-3.693,2.368-7.894,3.552-12.598,3.552c-6.601,0-11.983-2.155-16.151-6.465
			c-4.168-4.31-6.252-9.97-6.252-16.979c0-6.915,1.942-12.693,5.825-17.335C-355.627-1340.564-350.227-1342.932-343.406-1342.901z
			 M-357.189-1323.813h27.328c-0.568-3.378-2.068-6.205-4.499-8.478c-2.526-2.336-5.479-3.521-8.856-3.552
			c-3.41-0.031-6.441,1.113-9.094,3.434C-354.963-1330.089-356.59-1327.224-357.189-1323.813z M-337.439-1368.856l-9.52,16.293
			h5.637l13.166-16.293H-337.439z"/>
		<path fill="#FFFFFF" d="M-314.3-1376.103h7.673v40.969h0.189c1.736-2.305,3.955-4.184,6.654-5.636
			c2.7-1.452,5.755-2.163,9.165-2.131c6.314,0.063,11.517,2.337,15.606,6.82c4.089,4.484,6.134,10.199,6.134,17.146
			c0,6.694-2.045,12.354-6.134,16.979c-4.09,4.626-9.26,6.939-15.512,6.939c-4.011,0-7.405-0.853-10.183-2.558
			c-2.559-1.547-4.438-3.142-5.637-4.784h-0.284v6.157h-7.673V-1376.103z M-292.087-1335.844c-4.137-0.031-7.648,1.508-10.538,4.618
			c-2.889,3.111-4.35,7.034-4.381,11.77c-0.032,4.926,1.31,9.046,4.026,12.362c2.777,3.442,6.488,5.147,11.13,5.115
			c5.052-0.031,8.872-1.863,11.462-5.494c2.431-3.41,3.646-7.357,3.646-11.841c0-4.326-1.278-8.13-3.836-11.415
			C-283.262-1334.107-287.098-1335.812-292.087-1335.844z"/>
		<path fill="#FFFFFF" d="M-249.858-1364.356c1.546,0.032,2.856,0.577,3.931,1.634c1.073,1.058,1.61,2.36,1.61,3.907
			c0,1.421-0.514,2.684-1.539,3.789c-1.026,1.105-2.329,1.658-3.908,1.658c-1.609,0-2.929-0.56-3.954-1.681
			c-1.026-1.121-1.54-2.376-1.54-3.766c0.031-1.642,0.616-2.976,1.753-4.002C-252.369-1363.843-251.154-1364.356-249.858-1364.356z
			 M-253.647-1341.669h7.672v45.469h-7.672V-1341.669z"/>
		<path fill="#FFFFFF" d="M-228.425-1358.057h7.674v16.388h8.146v7.104h-8.146v38.364h-7.674v-38.364h-4.783v-7.104h4.783V-1358.057
			z"/>
	</g>
	
		<line opacity="0.85" fill="none" stroke="#FFFFFF" stroke-width="6" stroke-miterlimit="10" stroke-dasharray="6,16,6,16,28,16" x1="-287.021" y1="-1413.768" x2="-449.45" y2="-1413.768"/>
	
		<line opacity="0.5" fill="none" stroke="#FFFFFF" stroke-width="6" stroke-miterlimit="10" stroke-dasharray="6,16,6,16,28,16" x1="-302.053" y1="-1462.268" x2="-434.482" y2="-1462.268"/>
	
		<line opacity="0.71" fill="none" stroke="#FFFFFF" stroke-width="6" stroke-miterlimit="10" stroke-dasharray="6,16,6,16,28,16" x1="-426.424" y1="-1437.924" x2="-236.995" y2="-1437.924"/>
</g>
<g id="titres">
</g>
<g id="réserve" display="none">
</g>
</svg>
