<?xml version="1.0" encoding="UTF-8"?><svg xmlns="http://www.w3.org/2000/svg" width="40px" height="40px" viewBox="0 0 282.23 282.23"><g id="_00326E"><circle cx="141.12" cy="141.12" r="141.12" transform="translate(-58.45 141.12) rotate(-45)" style="fill:#00326e;"/></g><g id="C"><rect x="183.06" y="223.44" width="7.78" height="12.13" rx="3.89" ry="3.89" style="fill:#fff; opacity:.75;"/><rect x="209.1" y="223.12" width="7.78" height="12.13" rx="3.89" ry="3.89" style="fill:#fff; opacity:.75;"/><path d="m216.86,139.38v-33.39c0-4.64-3.8-8.44-8.44-8.44h-18.41c-4.64,0-8.44,3.8-8.44,8.44v33.83c11.76-.07,23.52-.34,35.29-.44Z" style="fill:none; opacity:.75; stroke:#fff; stroke-miterlimit:10; stroke-width:5px;"/><rect x="152.85" y="143.92" width="92.48" height="72.39" rx="11.23" ry="11.23" transform="translate(379.2 -18.98) rotate(90)" style="fill:#c89109; stroke:#684b09; stroke-miterlimit:10;"/><path d="m227.69,134.49c-.14.13-.28.25-.44.37-28.42,21.64-48.13,51.58-63.94,83.2,1.3,4.76,5.67,8.29,10.83,8.29h49.92c6.18,0,11.23-5.06,11.23-11.23v-70.01c0-4.91-3.19-9.09-7.6-10.61Z" style="fill:#916709; opacity:.61;"/><path d="m181.75,154.69h3.81v52.79h-3.81v-52.79Z" style="fill:#00326e;"/><path d="m197.37,154.69h3.81v52.79h-3.81v-52.79Z" style="fill:#00326e;"/><path d="m213,154.69h3.81v52.79h-3.81v-52.79Z" style="fill:#00326e;"/><path d="m121.07,59.88c8.89,0,16.16-7.23,16.16-16.16s-7.27-16.16-16.16-16.16-16.16,7.23-16.16,16.16,7.23,16.16,16.16,16.16Zm9.5,56.05l42.65-6.97,1.17-9.19h-32.55l-17.96-29.9c-2.65-4.49-7.59-6.7-13.11-7.45-12.62-1.72-39.5,23.65-37.9,23.05l-1.15,1.28-14.06,38.17,11.38-1.14,12.77-26.55,10.91-11.09-35.06,137.55h16.16l25.77-72.82,20.92,27.92v44.89h16.16v-57.51l-22.36-40.76,6.6-25.77s9.65,16.3,9.65,16.3Z" style="fill:#fff; opacity:.9;"/></g></svg>