<?xml version="1.0" encoding="UTF-8"?><svg xmlns="http://www.w3.org/2000/svg" width="40px" height="40px" viewBox="0 0 282.23 282.23"><g id="_00326E"><path d="m141.12,0C219.05,0,282.23,63.18,282.23,141.12s-63.18,141.12-141.12,141.12S0,219.05,0,141.12,63.18,0,141.12,0Z" style="fill:#00326e;"/></g><g id="B"><path d="m194.06,73.08l7.52-4.12c5.02-2.46,8.45-3.17,10.3-2.13.91,1.28.53,4.89-1.13,10.82l-3.83,7.62-5.12,8.31c-.42.74-1.14,1.65-2.16,2.73-1.03,1.08-1.82,1.99-2.38,2.73l-1.7,1.79-8.16,8.61,22.44,92.58-12.72,13.42-35.84-80.44-50.31,49.96,5.41,22.74-9.54,10.07-11.54-27.92-28.27-9.81,9.54-10.07,22.89,4.07,47.4-52.72-82.26-31.46,12.72-13.42,93.54,17.32,8.16-8.61,6.91-6.62c.64-.53,2.6-1.85,5.89-3.97.5-.38,1.25-.87,2.25-1.48Z" style="fill:#c89209;"/><g style="fill:none; opacity:.8;"><path d="m111.33,82.74l-34.01-6.3-12.72,13.42,27.8,10.63c6.7-5.55,13.18-11.33,18.92-17.76Z" style="fill:#fff;"/><path d="m211.87,66.83c-1.85-1.04-5.28-.33-10.3,2.13l-7.52,4.12c-1,.61-1.75,1.1-2.25,1.48-3.29,2.12-5.25,3.45-5.89,3.97l-6.91,6.62-8.16,8.61-47.6-8.81c-5.83,7.25-12.57,13.71-19.68,19.82l43.29,16.56-47.4,52.72-22.89-4.07-9.54,10.07,28.27,9.81,11.54,27.92,9.54-10.07-5.41-22.74,50.31-49.96,14.28,32.04c7.64-5.6,14.67-12.04,21.21-18.94l-9.37-38.66,8.16-8.61,1.7-1.79c.56-.74,1.35-1.65,2.38-2.73,1.02-1.08,1.74-1.99,2.16-2.73l5.12-8.31,3.83-7.62c1.66-5.93,2.03-9.54,1.13-10.82Z" style="fill:#fff;"/><path d="m179.93,176.84l17.2,38.6,12.72-13.42-10.15-41.9c-6.16,6.08-12.72,11.73-19.76,16.72Z" style="fill:#fff;"/></g><g style="fill:none; opacity:.98;"><path d="m111.33,82.74l-34.01-6.3-12.72,13.42,27.8,10.63c6.7-5.55,13.18-11.33,18.92-17.76Z" style="fill:#fff;"/><path d="m211.87,66.83c-1.85-1.04-5.28-.33-10.3,2.13l-7.52,4.12c-1,.61-1.75,1.1-2.25,1.48-3.29,2.12-5.25,3.45-5.89,3.97l-6.91,6.62-8.16,8.61-47.6-8.81c-5.83,7.25-12.57,13.71-19.68,19.82l43.29,16.56-47.4,52.72-22.89-4.07-9.54,10.07,28.27,9.81,11.54,27.92,9.54-10.07-5.41-22.74,50.31-49.96,14.28,32.04c7.64-5.6,14.67-12.04,21.21-18.94l-9.37-38.66,8.16-8.61,1.7-1.79c.56-.74,1.35-1.65,2.38-2.73,1.02-1.08,1.74-1.99,2.16-2.73l5.12-8.31,3.83-7.62c1.66-5.93,2.03-9.54,1.13-10.82Z" style="fill:#21558b;"/><path d="m179.93,176.84l17.2,38.6,12.72-13.42-10.15-41.9c-6.16,6.08-12.72,11.73-19.76,16.72Z" style="fill:#fff;"/></g><path d="m211.87,66.83c-1.85-1.04-5.28-.33-10.3,2.13l-7.52,4.12c-1,.61-1.75,1.1-2.25,1.48-3.29,2.12-5.25,3.45-5.89,3.97l-6.91,6.62-8.16,8.61-47.6-8.81c-5.83,7.25-12.57,13.71-19.68,19.82l43.29,16.56-47.4,52.72-22.89-4.07-9.54,10.07,28.27,9.81,11.54,27.92,9.54-10.07-5.41-22.74,50.31-49.96,14.28,32.04c7.64-5.6,14.67-12.04,21.21-18.94l-9.37-38.66,8.16-8.61,1.7-1.79c.56-.74,1.35-1.65,2.38-2.73,1.02-1.08,1.74-1.99,2.16-2.73l5.12-8.31,3.83-7.62c1.66-5.93,2.03-9.54,1.13-10.82Z" style="fill:#fff; opacity:.95;"/></g></svg>
