<?xml version="1.0" encoding="utf-8"?>
<!-- Generator: Adobe Illustrator 23.0.2, SVG Export Plug-In . SVG Version: 6.00 Build 0)  -->
<svg version="1.1" xmlns="http://www.w3.org/2000/svg" xmlns:xlink="http://www.w3.org/1999/xlink" x="0px" y="0px"
	 width="40px" height="40px" viewBox="150.531 1209.214 282.233 282.233" enable-background="new 150.531 1209.214 282.233 282.233" xml:space="preserve">
<g id="_x2D_--" display="none">
	<rect x="116.272" y="-356.429" display="inline" fill="#FFFFFF" width="4471.75" height="5688"/>
	<g display="inline">
		<path d="M394.577,1544.217v-38.94h-66.44v-12.76l63.801-91.301h20.9v88.881h20.02v15.18h-20.02v38.94H394.577z M394.577,1490.097
			v-47.74c0-7.48,0.22-14.96,0.66-22.44h-0.66c-4.399,8.36-7.92,14.521-11.88,21.12l-34.98,48.62v0.44H394.577z"/>
	</g>
</g>
<g id="fond" display="none">
	
		<ellipse transform="matrix(0.7071 -0.7071 0.7071 0.7071 -869.4058 601.728)" display="inline" fill="#21558B" cx="291.647" cy="1350.33" rx="141.116" ry="141.117"/>
</g>
<g id="_x30_0326E">
	
		<ellipse transform="matrix(0.7071 -0.7071 0.7071 0.7071 -869.4058 601.728)" fill="#00326E" cx="291.647" cy="1350.33" rx="141.116" ry="141.117"/>
</g>
<g id="A" display="none">
	<g display="inline">
		<path fill="#FFFFFF" d="M404.697,1391.576h-90.102c-7.308,2.633-14.444,3.951-21.41,3.951c-6.968,0-14.146-1.318-21.537-3.951
			h-89.975v-5.48l7.01-9.813v-42.947l32.625-29.949c5.098,1.191,10.492,1.784,16.186,1.784c3.737,0,8.835-1.253,15.293-3.76
			c6.455-2.505,12.744-3.759,18.861-3.759c10.449,0,17.628,3.95,21.537,11.852c3.737-7.901,10.874-11.852,21.41-11.852
			c6.117,0,12.403,1.254,18.861,3.759c6.456,2.507,11.554,3.76,15.293,3.76c5.691,0,11.129-0.593,16.313-1.784l32.498,29.949v42.947
			l7.137,9.813V1391.576z M291.783,1310.014c-3.908-6.797-10.621-10.195-20.135-10.195c-5.354,0-11.109,1.232-17.269,3.695
			c-6.161,2.466-11.874,3.696-17.142,3.696c-5.352,0-10.111-0.425-14.273-1.274l-29.566,27.782
			c10.961,2.124,20.264,3.187,27.91,3.187c5.691,0,13.146-1.529,22.366-4.588c9.218-3.059,17.947-4.588,26.188-4.588
			c9.686,0,16.609,3.271,20.773,9.813L291.783,1310.014z M392.845,1379.597v-42.82c-4.249,0.851-13.425,1.784-27.527,2.804
			c-5.862,0.086-13.53-1.357-23.003-4.333c-9.475-2.974-18.077-4.46-25.807-4.46c-10.536,0-18.311,4.673-23.322,14.018
			c-5.014-9.345-12.788-14.018-23.322-14.018c-7.731,0-16.334,1.486-25.807,4.46c-9.475,2.976-17.141,4.419-23.003,4.333
			c-9.262-0.084-18.479-1.02-27.655-2.804v42.82h80.289c4.161-5.776,10.661-8.666,19.498-8.666c8.835,0,15.293,2.89,19.371,8.666
			H392.845z M392.845,1333.718l-29.438-27.782c-4.164,0.85-8.922,1.274-14.273,1.274c-5.27,0-11.004-1.23-17.205-3.696
			c-6.203-2.463-11.979-3.695-17.332-3.695c-9.517,0-16.186,3.398-20.008,10.195l1.146,27.527
			c4.162-6.541,11.088-9.813,20.773-9.813c8.239,0,16.969,1.529,26.188,4.588c9.218,3.059,16.673,4.588,22.366,4.588
			C372.709,1336.904,381.969,1335.842,392.845,1333.718z"/>
	</g>
	<g id="Calque_2" display="inline">
	</g>
	<g id="Calque_7" display="inline">
	</g>
</g>
<g id="B" display="none">
</g>
<g id="B_bis">
	<g>
		<path fill="#FFFFFF" d="M179.606,1315.819h7.436v15.881h7.895v6.885h-7.895v37.178h-7.436v-37.178h-4.636v-6.885h4.636V1315.819z"
			/>
		<path fill="#FFFFFF" d="M197.848,1331.7h8.481l15.626,31.618l0.176,0.008l14.237-31.626h8.433l-32.633,68.802h-8.433
			l14.271-28.804L197.848,1331.7z"/>
		<path fill="#FFFFFF" d="M251.291,1400.502V1331.7h7.436v6.334h0.184c1.561-1.988,3.549-3.732,5.967-5.232
			c2.57-1.561,5.722-2.325,9.455-2.295c6.059,0.062,11.068,2.334,15.031,6.816s5.944,9.982,5.944,16.5
			c0,6.579-1.928,12.049-5.783,16.409s-8.981,6.586-15.376,6.678c-3.244,0.03-6.212-0.658-8.904-2.065
			c-2.54-1.285-4.651-3.029-6.334-5.232h-0.184v30.89H251.291z M273.047,1370.163c4.1,0.062,7.565-1.415,10.396-4.429
			c2.829-3.014,4.245-7.106,4.245-12.278c0-4.65-1.347-8.491-4.039-11.521c-2.785-3.09-6.365-4.62-10.74-4.59
			c-4.438,0.031-7.964,1.63-10.579,4.797c-2.617,3.167-3.94,6.861-3.971,11.084c-0.031,4.314,1.162,8.17,3.58,11.566
			C264.387,1368.281,268.09,1370.071,273.047,1370.163z"/>
		<path fill="#FFFFFF" d="M325.251,1330.507c6.272,0,11.673,2.242,16.202,6.725c4.528,4.482,6.793,10.044,6.793,16.684
			c0,6.487-2.28,11.941-6.839,16.363c-4.56,4.422-9.991,6.632-16.294,6.632c-6.579,0-12.087-2.249-16.523-6.747
			c-4.438-4.498-6.655-9.944-6.655-16.34c0-6.456,2.241-11.956,6.724-16.5S318.672,1330.507,325.251,1330.507z M340.902,1353.731
			c0.03-4.161-1.351-7.909-4.143-11.245c-2.885-3.427-6.798-5.141-11.738-5.141c-4.696,0-8.501,1.638-11.417,4.911
			c-2.915,3.274-4.357,7.1-4.326,11.475c0.03,4.835,1.572,8.782,4.626,11.842c3.054,3.061,6.79,4.59,11.209,4.59
			c4.389,0,8.102-1.515,11.14-4.544S340.841,1358.628,340.902,1353.731z"/>
		<path fill="#FFFFFF" d="M364.559,1322.429c0.765-5.783,2.738-10.296,5.921-13.54c3.396-3.488,7.94-5.187,13.632-5.095
			c6.059,0.092,10.908,1.897,14.55,5.416c3.672,3.611,5.522,8.201,5.554,13.77c0,3.428-0.857,6.563-2.57,9.409
			c-1.714,2.846-3.855,4.911-6.426,6.196v0.184c2.355,0.857,4.574,2.724,6.655,5.6c2.264,3.121,3.396,6.992,3.396,11.612
			c0,6.028-2.127,11.031-6.38,15.009c-4.254,3.979-9.395,5.951-15.422,5.921c-6.579-0.03-11.781-2.02-15.605-5.967
			c-3.642-3.732-5.493-8.216-5.554-13.448h7.619c0.03,3.532,1.453,6.48,4.269,8.846c2.631,2.181,5.752,3.348,9.363,3.501
			c4.039-0.184,7.366-1.599,9.983-4.248c2.615-2.649,3.924-5.995,3.924-10.038c-0.062-8.788-5.08-13.213-15.055-13.274v-7.258
			c9.332-0.306,13.999-4.134,13.999-11.482c0-3.798-1.117-6.814-3.351-9.05c-2.234-2.235-5.248-3.384-9.042-3.445
			c-6.732-0.092-10.648,3.703-11.75,11.383H364.559z"/>
	</g>
</g>
<g id="C">
</g>
<g id="titres">
</g>
<g id="réserve" display="none">
</g>
</svg>
