<?xml version="1.0" encoding="utf-8"?>
<!-- Generator: Adobe Illustrator 23.0.2, SVG Export Plug-In . SVG Version: 6.00 Build 0)  -->
<svg version="1.1" xmlns="http://www.w3.org/2000/svg" xmlns:xlink="http://www.w3.org/1999/xlink" x="0px" y="0px"
	 width="40px" height="40px" viewBox="452.606 -1509.46 282.232 282.232" enable-background="new 452.606 -1509.46 282.232 282.232" xml:space="preserve">
<g id="_x30_0326E">
	<path fill="#00326E" d="M593.722-1509.46c77.938,0,141.117,63.179,141.117,141.115c0,77.938-63.18,141.117-141.117,141.117
		c-77.936,0-141.115-63.179-141.115-141.117C452.606-1446.281,515.786-1509.46,593.722-1509.46z"/>
</g>
<g id="réserve" display="none">
</g>
<g id="A_-_à_vérifier" display="none">
	<g display="inline">
		<path fill="#FFFFFF" d="M550.169-1352.836c-10.313,0-18.567-4.028-24.761-12.085c-6.195-8.057-9.292-17.886-9.292-29.487
			c0-11.387,3.115-20.929,9.346-28.628c6.23-7.697,14.572-11.548,25.029-11.548c11.672,0,20.319,4.047,25.942,12.139
			c5.621,8.094,8.433,17.332,8.433,27.715c0,12.891-3.367,23.096-10.098,30.615C568.036-1356.596,559.837-1352.836,550.169-1352.836
			z M550.276-1368.734c9.883,0,14.824-8.594,14.824-25.781c0-16.328-4.764-24.492-14.287-24.492
			c-9.668,0-14.502,8.129-14.502,24.385C536.312-1377.363,540.966-1368.734,550.276-1368.734z M647.601-1433.188l-90.771,146.631
			h-16.221l91.094-146.631H647.601z M636.858-1285.268c-9.668,0-17.671-3.741-24.009-11.226c-6.338-7.482-9.507-16.919-9.507-28.306
			c0-13.105,3.526-23.435,10.581-30.991c7.053-7.555,15.163-11.333,24.331-11.333c8.664,0,16.436,3.51,23.311,10.527
			c6.875,7.02,10.313,17.617,10.313,31.797c0,11.889-3.313,21.449-9.937,28.682C655.316-1288.883,646.956-1285.268,636.858-1285.268
			z M637.718-1300.844c5.084,0,8.79-2.452,11.118-7.358c2.326-4.904,3.491-10.544,3.491-16.919c0-9.238-1.128-15.845-3.384-19.819
			s-5.712-5.962-10.366-5.962c-10.17,0-15.254,8.344-15.254,25.029C623.323-1309.186,628.12-1300.844,637.718-1300.844z"/>
	</g>
	<g id="Calque_2" display="inline">
	</g>
	<g id="Calque_7" display="inline">
	</g>
</g>
<g id="B" display="none">
	<g display="inline" opacity="0.7">
		<path fill="#FFFFFF" d="M568.236-1422.373c4.336,0,8.232-1.406,11.689-4.219c1.758,0.762,3.09,1.349,4,1.758
			c0.908,0.411,2.123,0.997,3.646,1.758c1.523,0.762,2.695,1.421,3.516,1.978c0.82,0.558,1.771,1.274,2.857,2.153
			c1.084,0.879,1.875,1.714,2.373,2.505c0.496,0.791,0.922,1.714,1.273,2.769s0.527,2.168,0.527,3.34v30.146h-59.766v-30.146
			c0.176-1.875,0.645-3.573,1.406-5.098c0.762-1.523,1.641-2.813,2.637-3.867s2.344-2.079,4.043-3.076
			c1.699-0.996,3.209-1.802,4.527-2.417s3.031-1.332,5.141-2.153C559.623-1423.896,563.666-1422.373,568.236-1422.373z
			 M568.193-1458.584c-4.307,0-7.984,1.524-11.031,4.57c-3.047,3.047-4.57,6.739-4.57,11.074c0,4.337,1.523,8.028,4.57,11.074
			c3.047,3.047,6.725,4.57,11.031,4.57s7.998-1.523,11.074-4.57c3.076-3.046,4.613-6.737,4.613-11.074
			c0-4.335-1.537-8.027-4.613-11.074C576.191-1457.06,572.5-1458.584,568.193-1458.584z"/>
	</g>
	<g display="inline" opacity="0.8">
		<path fill="#FFFFFF" d="M507.168-1367.43c4.336,0,8.23-1.406,11.689-4.219c1.758,0.762,3.09,1.349,3.998,1.758
			c0.908,0.411,2.123,0.997,3.648,1.758c1.523,0.762,2.693,1.421,3.516,1.978c0.82,0.558,1.771,1.274,2.855,2.153
			s1.875,1.714,2.373,2.505s0.924,1.714,1.275,2.769s0.527,2.168,0.527,3.34v30.146h-59.766v-30.146
			c0.176-1.875,0.645-3.573,1.406-5.098c0.76-1.523,1.639-2.813,2.637-3.867c0.996-1.055,2.342-2.079,4.043-3.076
			c1.699-0.996,3.207-1.802,4.525-2.417s3.033-1.332,5.143-2.153C498.555-1368.953,502.598-1367.43,507.168-1367.43z
			 M507.123-1403.641c-4.307,0-7.984,1.524-11.029,4.57c-3.047,3.047-4.57,6.739-4.57,11.074c0,4.337,1.523,8.028,4.57,11.074
			c3.045,3.047,6.723,4.57,11.029,4.57s7.998-1.523,11.074-4.57c3.076-3.046,4.615-6.737,4.615-11.074
			c0-4.335-1.539-8.027-4.615-11.074C515.121-1402.116,511.43-1403.641,507.123-1403.641z"/>
	</g>
	<g display="inline" opacity="0.9">
		<path fill="#FFFFFF" d="M573.322-1319.276c4.336,0,8.232-1.406,11.689-4.219c1.758,0.762,3.09,1.349,4,1.758
			c0.908,0.411,2.123,0.997,3.646,1.758c1.523,0.762,2.695,1.421,3.516,1.978c0.82,0.558,1.771,1.274,2.857,2.153
			c1.084,0.879,1.875,1.714,2.373,2.505c0.496,0.791,0.922,1.714,1.273,2.769s0.527,2.168,0.527,3.34v30.146h-59.766v-30.146
			c0.176-1.875,0.645-3.573,1.406-5.098c0.762-1.523,1.641-2.813,2.637-3.867s2.344-2.079,4.043-3.076
			c1.699-0.996,3.209-1.802,4.527-2.417s3.031-1.332,5.141-2.153C564.709-1320.799,568.752-1319.276,573.322-1319.276z
			 M573.279-1355.487c-4.307,0-7.984,1.524-11.031,4.57c-3.047,3.047-4.57,6.739-4.57,11.074c0,4.337,1.523,8.028,4.57,11.074
			c3.047,3.047,6.725,4.57,11.031,4.57s7.998-1.523,11.074-4.57c3.076-3.046,4.613-6.737,4.613-11.074
			c0-4.335-1.537-8.027-4.613-11.074C581.277-1353.963,577.586-1355.487,573.279-1355.487z"/>
	</g>
	<g display="inline">
		<path fill="#FFFFFF" d="M611.323-1410.681v-9.053h90v9.053H611.323z"/>
		<path fill="#FFFFFF" d="M611.323-1358.681v-9.053h90v9.053H611.323z"/>
		<path fill="#FFFFFF" d="M611.323-1306.681v-9.053h90v9.053H611.323z"/>
	</g>
</g>
<g id="B_bis" display="none">
</g>
<g id="C">
	<rect x="546.823" y="-1277.038" fill="#00326E" width="104.134" height="31.126"/>
	<path fill="none" stroke="#FFFFFF" stroke-width="12" stroke-miterlimit="10" d="M564.024-1450.084
		c18.556,16.517,69.387,64.878,86.447,82.936c3.161-4.798,23.924-29.947,26.198-35.224"/>
	<path fill="none" stroke="#FFFFFF" stroke-width="12" stroke-miterlimit="10" d="M549.165-1359.611
		c25.221,31.593,52.81,62.621,82.665,92.601"/>
	<path fill="none" stroke="#FFFFFF" stroke-width="12" stroke-miterlimit="10" d="M563.653-1442.607
		c10.895-8.666,20.27-18.478,27.786-29.082c9.18,9.807,18.359,19.614,27.539,29.421"/>
	<path fill="none" stroke="#FFFFFF" stroke-width="12" stroke-miterlimit="10" d="M636.83-1356.611
		c-24.873,31.157-51.587,61.082-79.987,89.601"/>
	<path fill="none" stroke="#FFFFFF" stroke-width="12" stroke-miterlimit="10" d="M619.645-1450.084
		c-18.556,16.517-69.387,64.878-86.447,82.936c-3.161-4.798-23.289-20.474-25.563-25.75"/>
	<path fill="none" stroke="#FFFFFF" stroke-width="10" stroke-miterlimit="10" d="M592.901-1344.125
		c-5.822-9.295-12.855-17.195-22.246-22.861c7.857-11.136,13.627-16.92,24.752-24.793c7.385,8.123,15.225,15.833,23.471,23.082
		c-11.553,6.815-18.533,13.278-25.953,24.452"/>
	<path fill="none" stroke="#FFFFFF" stroke-width="10" stroke-miterlimit="10" d="M675.48-1417.605
		c0.055,3.583,0.111,7.167,0.166,10.75c0.023,1.49,0.255,3.322,1.545,3.847c0.916,0.373,1.917-0.136,2.781-0.632
		c3.89-2.234,15.37-7.793,19.26-10.027"/>
	<path fill="none" stroke="#FFFFFF" stroke-width="10" stroke-miterlimit="10" d="M490.803-1401.322
		c5.356,3.51,10.712,7.02,16.069,10.53c0.691-4.916,1.382-13.831,2.074-18.747"/>
	<path fill="none" stroke="#FFFFFF" stroke-width="11" stroke-miterlimit="10" d="M626.47-1265.457
		c5.581-4.278,13.471-8.152,19.609-11.584"/>
	<path fill="none" stroke="#FFFFFF" stroke-width="11" stroke-miterlimit="10" d="M562.235-1267.797
		c-8.526-9.241-9.586-10.34-17.052-12.822"/>
</g>
<g id="titres__x2B__img" display="none">
</g>
</svg>
