<?xml version="1.0" encoding="utf-8"?>
<!-- Generator: Adobe Illustrator 23.0.2, SVG Export Plug-In . SVG Version: 6.00 Build 0)  -->
<svg version="1.1" xmlns="http://www.w3.org/2000/svg" xmlns:xlink="http://www.w3.org/1999/xlink" x="0px" y="0px"
	 viewBox="-151.544 -1509.46 282.232 282.232" enable-background="new -151.544 -1509.46 282.232 282.232" xml:space="preserve">
<g id="_x30_0326E">
	<path fill="#00326E" d="M-10.428-1509.46c77.938,0,141.117,63.179,141.117,141.115c0,77.938-63.18,141.117-141.117,141.117
		c-77.936,0-141.115-63.179-141.115-141.117C-151.544-1446.281-88.364-1509.46-10.428-1509.46z"/>
</g>
<g id="réserve" display="none">
</g>
<g id="A_-_à_vérifier" display="none">
	<g display="inline">
		<path fill="#FFFFFF" d="M16.931-1411.111c0-9.738-1.845-16.721-5.532-20.947c-3.689-4.225-9.759-6.338-18.208-6.338
			c-16.83,0-29.686,12.068-38.564,36.201l-1.719,4.834c-10.457,28.289-25.711,42.432-45.762,42.432
			c-8.021,0-15.56-3.097-22.612-9.292c-7.055-6.193-10.581-12.8-10.581-19.819c0-3.58,1.682-5.371,5.049-5.371
			c2.219,0,4.475,2.83,6.768,8.486c4.297,10.242,11.457,15.361,21.484,15.361c7.662,0,13.911-2.452,18.745-7.358
			c4.834-4.904,10.294-14.304,16.382-28.198l3.975-8.809c11.672-26.066,27.428-39.102,47.266-39.102
			c22.559,0,33.838,12.641,33.838,37.92h10.957c7.52,0,12.335,1.021,14.448,3.062c2.111,2.041,3.169,6.679,3.169,13.911v81.748
			c0,11.316-3.993,20.966-11.978,28.95c-7.986,7.986-17.636,11.978-28.95,11.978c-11.244,0-20.858-3.991-28.843-11.978
			c-7.986-7.984-11.978-17.634-11.978-28.95v-81.748c0-6.945,1.128-11.511,3.384-13.696c2.256-2.184,6.999-3.276,14.233-3.276
			H16.931z M19.617-1405.848H-8.388c-5.17,0-8.474,0.683-9.91,2.049s-2.153,4.457-2.153,9.273v17.037h40.068V-1405.848z
			 M-20.452-1372.225v59.834c0,9.813,3.473,18.208,10.42,25.19c6.945,6.982,15.324,10.474,25.137,10.474
			c9.883,0,18.297-3.473,25.244-10.42c6.945-6.945,10.42-15.361,10.42-25.244v-59.834H-20.452z M24.88-1405.848v28.359h25.889
			v-17.037c0-5.032-0.682-8.176-2.041-9.435c-1.361-1.259-4.691-1.888-9.99-1.888H24.88z"/>
	</g>
	<g id="Calque_2" display="inline">
	</g>
	<g id="Calque_7" display="inline">
	</g>
</g>
<g id="B" display="none">
	<path display="inline" opacity="0.85" fill="#FFFFFF" d="M87.668-1306.489c0,6.148-5.336,11.134-11.914,11.134H-106.43
		c-6.58,0-11.914-4.985-11.914-11.134v-106.238c0-6.15,5.334-11.135,11.914-11.135H75.754c6.578,0,11.914,4.984,11.914,11.135
		V-1306.489z"/>
	<g display="inline">
		<path fill="#21558B" d="M-106.688-1380.043v-6.387h63.5v6.387H-106.688z"/>
		<path fill="#21558B" d="M-106.688-1356.043v-6.387h63.5v6.387H-106.688z"/>
		<path fill="#21558B" d="M-106.688-1332.043v-6.387h63.5v6.387H-106.688z"/>
	</g>
	<g display="inline">
		<g>
			<path fill="#C79110" d="M21.852-1404.792c1.244,0,2.253-1.008,2.253-2.253c0-1.243-1.009-2.252-2.253-2.252
				c-1.244,0-2.252,1.009-2.252,2.252C19.6-1405.8,20.608-1404.792,21.852-1404.792z"/>
			<polygon fill="#C79110" points="21.852,-1337.637 -34.925,-1313.995 -34.925,-1313.995 78.63,-1313.995 			"/>
			<path fill="#C79110" d="M34.612-1359.47v-9.963l-3.533-3.435v-12.182l1.738-1.725c-0.239-0.262-6.047-6.703-8.014-15.484h-5.969
				c-1.884,8.418-7.305,14.69-7.958,15.424l-0.015,0.028l1.766,1.757v12.182l-3.535,3.435v9.963
				c-14.885,4.951-25.928,18.316-27.473,34.46l38.769-16.144l1.463-0.61l1.464,0.61l38.769,16.144
				C60.541-1341.154,49.497-1354.519,34.612-1359.47z M25.637-1381.056c0-0.657,0.229-1.57,1.399-1.57
				c1.169,0,1.398,0.93,1.398,1.57v10.032c-0.923-0.149-1.856-0.269-2.797-0.354V-1381.056z M19.966-1381.703
				c0-0.917,0.319-2.192,1.954-2.192s1.952,1.297,1.952,2.192v10.205c-0.647-0.031-1.297-0.05-1.952-0.05
				c-0.655,0-1.307,0.018-1.954,0.048V-1381.703z M15.308-1381.056c0-0.657,0.229-1.57,1.4-1.57c1.168,0,1.397,0.93,1.397,1.57
				v9.689c-0.942,0.087-1.875,0.206-2.797,0.357V-1381.056z"/>
		</g>
	</g>
</g>
<g id="B_bis">
</g>
<g id="C">
	<path fill="#FFFFFF" d="M69.118-1310.436H-90.2c-9.393,0-17.008-7.615-17.008-17.008v-81.651c0-9.393,7.615-17.008,17.008-17.008
		H69.118c9.393,0,17.008,7.615,17.008,17.008v81.651C86.125-1318.051,78.511-1310.436,69.118-1310.436z"/>
	<g>
		<path fill="#00326E" d="M-30.091-1333.235c-1.505,0.684-2.256-0.034-2.256-2.153v-60.19c0.136-2.666,1.846-3.418,5.127-2.256
			l52.192,29.429c1.776,2.188,1.776,4.137,0,5.845L-30.091-1333.235z"/>
	</g>
</g>
<g id="titres__x2B__img">
</g>
</svg>
