<?xml version="1.0" encoding="utf-8"?>
<!-- Generator: Adobe Illustrator 23.0.2, SVG Export Plug-In . SVG Version: 6.00 Build 0)  -->
<svg version="1.1" xmlns="http://www.w3.org/2000/svg" xmlns:xlink="http://www.w3.org/1999/xlink" x="0px" y="0px"
	 width="40px" height="40px" viewBox="754.682 0.913 282.232 282.232" enable-background="new 754.682 0.913 282.232 282.232" xml:space="preserve">
<g id="_x30_0326E">
	
		<ellipse transform="matrix(0.7071 -0.7071 0.7071 0.7071 161.9427 675.024)" fill="#00326E" cx="895.797" cy="142.03" rx="141.116" ry="141.117"/>
</g>
<g id="réserve" display="none">
</g>
<g id="A_-_à_vérifier" display="none">
	<g id="Calque_2" display="inline">
	</g>
	<g id="Calque_7" display="inline">
	</g>
	<g display="inline">
		<defs>
			<path id="SVGID_13_" d="M895.916-302.49c77.938,0,141.117,63.18,141.117,141.115c0,77.938-63.18,141.117-141.117,141.117
				c-77.936,0-141.115-63.18-141.115-141.117C754.801-239.311,817.98-302.49,895.916-302.49z"/>
		</defs>
		<clipPath id="SVGID_1_">
			<use xlink:href="#SVGID_13_"  overflow="visible"/>
		</clipPath>
		<g clip-path="url(#SVGID_1_)">
			<path opacity="0.7" fill="#FFFFFF" d="M832.053-6.08c3.168,0,9.483-2.684,9.483-2.684c3.854-1.636,7.008,0.355,7.008,4.43V24.69
				l0,0v7.401h7.64c0.004,0,0.005,0.006,0.011,0.006h29.989c4.193,0.001,6.25,3.033,4.582,6.751
				c-0.009,0.021-0.019,0.043-0.024,0.063c-0.212,0.473-2.755,6.203-2.756,9.146l0,0l0,0l0,0c0,2.03,0.583,3.931,1.599,5.545
				c0.093,0.149,0.189,0.293,0.289,0.436c1.984,2.846,5.347,4.719,9.164,4.719c3.813,0,7.175-1.873,9.163-4.719
				c0.097-0.143,0.195-0.286,0.287-0.436c1.015-1.614,1.599-3.515,1.599-5.545l0,0l0,0l0,0c0-2.942-2.542-8.673-2.754-9.146
				c-0.008-0.021-0.016-0.043-0.025-0.063c-1.667-3.718,0.39-6.75,4.584-6.751h29.99l0.006-0.006h7.645V26.23
				c-0.111-0.494-0.173-1.012-0.173-1.539V-4.334c0-4.075-3.154-6.069-7.007-4.43c0,0-6.314,2.684-9.482,2.684
				c-6.105,0-11.053-4.791-11.053-10.7c0-5.908,4.947-10.696,11.053-10.696c3.168,0,9.482,2.686,9.482,2.686
				c3.853,1.632,7.007-0.361,7.007-4.433v-29.024c0-0.532,0.061-1.047,0.173-1.542v-5.865h-7.65h-29.997
				c-4.201,0.005-6.255,3.054-4.567,6.782c0,0,2.769,6.113,2.769,9.18c0,5.907-4.947,10.694-11.049,10.694
				c-6.104,0-11.052-4.787-11.052-10.694c0-3.066,2.771-9.18,2.771-9.18c1.689-3.729-0.367-6.777-4.568-6.782h-29.993h-7.65v7.407
				v29.024c0,4.071-3.154,6.065-7.008,4.433c0,0-6.315-2.686-9.483-2.686c-6.105,0-11.053,4.788-11.053,10.696
				C821-10.871,825.947-6.08,832.053-6.08z"/>
		</g>
	</g>
</g>
<g id="B">
	<path fill="#FFFFFF" d="M959.982,234.026c0,2.414,0.667,4.914-5.96,4.914h-112c-6.627,0-6.051-2.502-6.051-4.916l31.177-19.35
		c0-2.414,17.957-3.416,24.584-3.416h14c6.627,0,18.5,1.002,18.5,3.416L959.982,234.026z"/>
	<g>
		<path fill="#C89108" d="M852.734,157.143c5.588,0,10.609-1.813,15.066-5.438c2.266,0.982,3.982,1.738,5.154,2.266
			c1.17,0.529,2.736,1.285,4.701,2.266c1.963,0.982,3.473,1.832,4.531,2.549c1.057,0.719,2.283,1.643,3.682,2.775
			c1.396,1.133,2.416,2.209,3.059,3.229c0.641,1.02,1.189,2.209,1.643,3.568s0.68,2.795,0.68,4.305v38.855h-77.031v-38.855
			c0.227-2.416,0.83-4.605,1.813-6.57c0.98-1.963,2.113-3.625,3.398-4.984c1.283-1.359,3.02-2.68,5.211-3.965
			c2.189-1.283,4.135-2.322,5.834-3.115s3.908-1.717,6.627-2.775C841.633,155.18,846.844,157.143,852.734,157.143z M852.678,110.471
			c-5.551,0-10.291,1.965-14.217,5.891c-3.928,3.928-5.891,8.686-5.891,14.273c0,5.59,1.963,10.348,5.891,14.273
			c3.926,3.928,8.666,5.891,14.217,5.891s10.309-1.963,14.273-5.891c3.965-3.926,5.947-8.684,5.947-14.273
			c0-5.588-1.982-10.346-5.947-14.273C862.986,112.436,858.229,110.471,852.678,110.471z"/>
	</g>
	<path fill="none" stroke="#FFFFFF" stroke-width="6" stroke-miterlimit="10" d="M987.396,212.156H804.764
		c-12.296,0-22.263-9.968-22.263-22.263V90.772c0-12.296,9.968-22.263,22.263-22.263h182.633c12.296,0,22.263,9.968,22.263,22.263
		v99.121C1009.66,202.188,999.692,212.156,987.396,212.156z"/>
	<circle fill="#FFFFFF" cx="953.121" cy="122.596" r="41.102"/>
	<g>
		<path fill="#00326E" d="M951.756,130.061c3.907,0,7.418-1.267,10.534-3.802c1.584,0.687,2.785,1.215,3.603,1.584
			c0.818,0.37,1.914,0.898,3.287,1.584c1.373,0.687,2.428,1.281,3.168,1.782c0.739,0.502,1.597,1.148,2.574,1.941
			c0.977,0.792,1.69,1.545,2.139,2.257c0.448,0.713,0.832,1.545,1.148,2.495c0.317,0.951,0.476,1.954,0.476,3.01v7.954h-53.858
			v-7.954c0.159-1.689,0.581-3.22,1.267-4.594c0.686-1.372,1.478-2.534,2.376-3.485c0.897-0.951,2.112-1.874,3.643-2.772
			c1.531-0.897,2.891-1.624,4.079-2.178c1.188-0.554,2.732-1.2,4.633-1.94C943.994,128.688,947.638,130.061,951.756,130.061z
			 M951.717,97.429c-3.881,0-7.195,1.374-9.94,4.119c-2.746,2.746-4.118,6.072-4.118,9.98c0,3.908,1.372,7.234,4.118,9.979
			c2.745,2.746,6.059,4.119,9.94,4.119c3.88,0,7.207-1.373,9.979-4.119c2.773-2.745,4.158-6.071,4.158-9.979
			c0-3.907-1.386-7.233-4.158-9.98C958.924,98.803,955.597,97.429,951.717,97.429z"/>
	</g>
</g>
<g id="B_bis" display="none">
</g>
<g id="C" display="none">
</g>
<g id="titres__x2B__img" display="none">
</g>
</svg>
