<?xml version="1.0" encoding="utf-8"?>
<!-- Generator: Adobe Illustrator 23.0.2, SVG Export Plug-In . SVG Version: 6.00 Build 0)  -->
<svg version="1.1" xmlns="http://www.w3.org/2000/svg" xmlns:xlink="http://www.w3.org/1999/xlink" x="0px" y="0px"
	 width="40px" height="40px" viewBox="-453.62 1813.364 282.231 282.233" enable-background="new -453.62 1813.364 282.231 282.233" xml:space="preserve">
<g id="_x2D_--" display="none">
</g>
<g id="fond" display="none">
	<path display="inline" fill="#21558B" d="M-312.506,1813.364c77.938,0,141.117,63.18,141.117,141.115
		c0,77.938-63.179,141.117-141.117,141.117c-77.935,0-141.114-63.18-141.114-141.117
		C-453.62,1876.544-390.44,1813.364-312.506,1813.364z"/>
</g>
<g id="_x30_0326E">
	<path fill="#00326E" d="M-312.506,1813.364c77.938,0,141.117,63.18,141.117,141.115c0,77.938-63.179,141.117-141.117,141.117
		c-77.935,0-141.114-63.18-141.114-141.117C-453.62,1876.544-390.44,1813.364-312.506,1813.364z"/>
</g>
<g id="A" display="none">
	<g id="Calque_2" display="inline">
	</g>
	<g id="Calque_7" display="inline">
	</g>
</g>
<g id="B" display="none">
</g>
<g id="B_bis">
	<g>
		<path fill="#FFFFFF" d="M-390.982,1891.205l31.019,71.488l31.064-71.575l17.163,89.908h-9.663l-10.928-57.546l-0.43,0.219
			l-27.367,60.693l-27.203-60.914l-0.359-0.006l-10.943,57.554h-9.607L-390.982,1891.205z"/>
		<path fill="#FFFFFF" d="M-262.596,1894.511c7.063-0.073,13.26,2.244,18.594,6.952c5.187,4.599,7.871,10.686,8.056,18.264
			c0.146,5.26-1.361,10.465-4.524,15.614l-31.395,37.022h35.919v8.663h-54.981l38.268-45.13c2.646-3.127,4.466-5.74,5.459-7.836
			c1.286-2.686,1.911-5.426,1.875-8.223c-0.074-4.855-1.729-8.828-4.966-11.918c-3.348-3.164-7.339-4.728-11.974-4.691
			c-5.186,0.037-9.343,1.757-12.469,5.159c-3.127,3.402-4.728,7.513-4.801,12.331h-9.38c0.11-6.988,2.52-13.039,7.228-18.152
			C-276.795,1897.27-270.432,1894.585-262.596,1894.511z"/>
	</g>
	<g>
		<path fill="#FFFFFF" d="M-322.153,2051.14l20.752-30.539l85.175-62.225c9.543,3.079,14.636,9.957,15.279,20.632l-85.42,62.22
			L-322.153,2051.14z M-310.69,2039.524l3.392,4.463l19.089-5.238c2.814-2.386,4.234-4.168,4.257-5.348
			c0.01-0.488-0.116-0.848-0.375-1.076c-0.261-0.229-0.675-0.35-1.245-0.36c-1.18-0.023-3.228,0.648-6.144,2.015
			c2.487-2.271,3.746-4.178,3.776-5.725c0.016-0.772-0.187-1.356-0.607-1.752c-0.419-0.395-1.078-0.602-1.972-0.619
			c-0.937-0.019-2.861,0.636-5.777,1.961c2.607-2.146,3.927-4.052,3.96-5.721c0.009-0.447-0.105-0.785-0.345-1.014
			s-0.625-0.349-1.154-0.359c-1.831-0.036-3.799,0.718-5.905,2.264L-310.69,2039.524z M-293.918,2018.796
			c0.694-0.148,1.266-0.219,1.714-0.21c1.626,0.032,2.425,0.821,2.394,2.367l-0.073,0.608l51.358-37.745
			c-1.322-1.042-2.629-1.862-3.919-2.458L-293.918,2018.796z M-288.159,2023.916c1.861,0.485,2.774,1.703,2.735,3.656l51.605-37.924
			c-0.583-1.354-1.415-2.57-2.491-3.651L-288.159,2023.916z M-283.702,2029.987c0.773,0.057,1.339,0.261,1.698,0.614
			c0.359,0.353,0.532,0.854,0.519,1.505c-0.011,0.57-0.292,1.398-0.843,2.486l51.293-37.624c-0.454-1.759-0.952-3.295-1.494-4.608
			L-283.702,2029.987z M-231.479,1973.273c6.078,3.377,9.8,8.619,11.165,15.728l15.92-11.588
			c-1.276-7.514-5.039-12.696-11.292-15.547L-231.479,1973.273z"/>
	</g>
</g>
<g id="C">
</g>
<g id="titres">
</g>
<g id="réserve" display="none">
</g>
</svg>
