<?xml version="1.0" encoding="UTF-8"?><svg id="Calque_1" xmlns="http://www.w3.org/2000/svg" width="40px" height="40px" viewBox="0 0 40 40"><defs><style>.cls-1{fill:#00326e;}.cls-2{fill:none;stroke:#fff;stroke-miterlimit:1.42;stroke-width:.85px;}.cls-3{fill:#c89108;}</style></defs><g id="_0326E"><circle class="cls-1" cx="20" cy="20" r="20" transform="translate(-8.29 20) rotate(-45)"/></g><g id="B-2"><path class="cls-2" d="M32.98,29.94H7.1c-1.74,0-3.16-1.41-3.16-3.16V12.74c0-1.74,1.41-3.16,3.16-3.16h25.88c1.74,0,3.16,1.41,3.16,3.16v14.05c0,1.74-1.41,3.16-3.16,3.16Z"/></g><path class="cls-3" d="M13.85,19.64h2.29v2.42h-2.29v-2.42Zm1.57-3.12h2.14v2.42h-2.29v-1.99l-.13-.29,.28-.13Zm2.27,2.84h2.14v2.42h-2.42v-2.14c.03-.19,.12-.28,.28-.28Zm.72-7.1h2.55v2.55c0,.2-.09,.29-.28,.29h-2.27l-.29-.15,.15-.28v-1.99l-.15-.29,.29-.13Zm.85,3.41h2.84v2.7h-2.84v-2.7Zm2.42,2.97h2.84v2.84h-2.56c-.19,0-.28-.09-.28-.28v-2.56Zm.7-7.53h3.98v3.69c0,.2-.1,.29-.29,.29h-3.4c-.2,0-.29-.1-.29-.29v-3.69Zm.72-3.69h2.84v2.7h-2.84v-2.7Zm2.27,8.25h4.41c.19,.03,.28,.12,.28,.28v4.54h-4.69v-4.82Zm1.7-8.67h5.83v5.83h-5.83V6.99Z"/></svg>